<svg xmlns="http://www.w3.org/2000/svg" viewBox="0 0 1200 1500" preserveAspectRatio="xMidYMid slice"><defs><filter id="soft" x="-20%" y="-20%" width="140%" height="140%"><feGaussianBlur stdDeviation="14"/></filter><filter id="fog" x="-40%" y="-40%" width="180%" height="180%"><feGaussianBlur stdDeviation="40"/></filter></defs><linearGradient id="sky" x1="0" y1="0" x2="0" y2="1"><stop offset="0" stop-color="#1a0806"/><stop offset="0.55" stop-color="#5e1508"/><stop offset="1" stop-color="#ff6a2b"/></linearGradient><rect width="1200" height="1500" fill="url(#sky)"/><radialGradient id="g600640" cx="0.5" cy="0.5" r="0.5"><stop offset="0" stop-color="#ffb347" stop-opacity="0.55"/><stop offset="1" stop-color="#ffb347" stop-opacity="0"/></radialGradient><circle cx="600.0" cy="640.0" r="560.0" fill="url(#g600640)"/><radialGradient id="g600640" cx="0.5" cy="0.5" r="0.5"><stop offset="0" stop-color="#fff2c4" stop-opacity="0.7"/><stop offset="1" stop-color="#fff2c4" stop-opacity="0"/></radialGradient><circle cx="600.0" cy="640.0" r="300.0" fill="url(#g600640)"/><g fill="#0a0604"><rect x="-20.0" y="1169.9" width="100.7" height="330.1"/><rect x="93.4" y="1005.1" width="85.4" height="494.9"/><rect x="186.3" y="918.1" width="107.5" height="581.9"/><rect x="309.6" y="1155.3" width="80.8" height="344.7"/><rect x="395.5" y="1106.3" width="106.3" height="393.7"/><rect x="514.4" y="1037.5" width="97.0" height="462.5"/><rect x="626.0" y="1176.8" width="60.8" height="323.2"/><rect x="698.4" y="923.5" width="76.5" height="576.5"/><rect x="782.4" y="1210.3" width="100.6" height="289.7"/><rect x="889.2" y="976.0" width="127.6" height="524.0"/><rect x="1024.6" y="1014.6" width="70.4" height="485.4"/><rect x="1102.0" y="1175.8" width="124.8" height="324.2"/></g><g fill="#ff9e5c"><rect x="44" y="1193" width="9" height="12" opacity="0.80"/><rect x="-8" y="1227" width="9" height="12" opacity="0.53"/><rect x="18" y="1227" width="9" height="12" opacity="0.82"/><rect x="44" y="1227" width="9" height="12" opacity="0.98"/><rect x="-8" y="1261" width="9" height="12" opacity="0.52"/><rect x="18" y="1261" width="9" height="12" opacity="0.86"/><rect x="44" y="1261" width="9" height="12" opacity="0.68"/><rect x="-8" y="1295" width="9" height="12" opacity="0.78"/><rect x="18" y="1295" width="9" height="12" opacity="0.52"/><rect x="44" y="1295" width="9" height="12" opacity="0.58"/><rect x="-8" y="1329" width="9" height="12" opacity="0.89"/><rect x="18" y="1363" width="9" height="12" opacity="0.63"/><rect x="44" y="1363" width="9" height="12" opacity="0.64"/><rect x="18" y="1397" width="9" height="12" opacity="0.68"/><rect x="-8" y="1431" width="9" height="12" opacity="0.41"/><rect x="44" y="1431" width="9" height="12" opacity="0.74"/><rect x="-8" y="1465" width="9" height="12" opacity="0.42"/><rect x="18" y="1465" width="9" height="12" opacity="0.44"/><rect x="44" y="1465" width="9" height="12" opacity="0.81"/><rect x="105" y="1029" width="9" height="12" opacity="0.70"/><rect x="157" y="1029" width="9" height="12" opacity="0.92"/><rect x="157" y="1063" width="9" height="12" opacity="0.45"/><rect x="105" y="1097" width="9" height="12" opacity="0.61"/><rect x="131" y="1131" width="9" height="12" opacity="0.82"/><rect x="157" y="1165" width="9" height="12" opacity="0.51"/><rect x="105" y="1233" width="9" height="12" opacity="0.93"/><rect x="131" y="1233" width="9" height="12" opacity="0.97"/><rect x="105" y="1267" width="9" height="12" opacity="0.44"/><rect x="105" y="1301" width="9" height="12" opacity="0.43"/><rect x="131" y="1301" width="9" height="12" opacity="0.89"/><rect x="157" y="1301" width="9" height="12" opacity="0.96"/><rect x="105" y="1335" width="9" height="12" opacity="0.52"/><rect x="131" y="1335" width="9" height="12" opacity="0.99"/><rect x="105" y="1369" width="9" height="12" opacity="0.46"/><rect x="105" y="1403" width="9" height="12" opacity="0.78"/><rect x="157" y="1403" width="9" height="12" opacity="0.74"/><rect x="131" y="1437" width="9" height="12" opacity="0.56"/><rect x="157" y="1471" width="9" height="12" opacity="0.96"/><rect x="198" y="942" width="9" height="12" opacity="0.43"/><rect x="224" y="942" width="9" height="12" opacity="0.44"/><rect x="250" y="942" width="9" height="12" opacity="0.47"/><rect x="276" y="942" width="9" height="12" opacity="0.62"/><rect x="198" y="976" width="9" height="12" opacity="0.80"/><rect x="276" y="976" width="9" height="12" opacity="0.80"/><rect x="224" y="1010" width="9" height="12" opacity="0.73"/><rect x="250" y="1010" width="9" height="12" opacity="0.81"/><rect x="198" y="1044" width="9" height="12" opacity="0.66"/><rect x="224" y="1044" width="9" height="12" opacity="0.58"/><rect x="250" y="1044" width="9" height="12" opacity="0.43"/><rect x="224" y="1078" width="9" height="12" opacity="0.80"/><rect x="250" y="1078" width="9" height="12" opacity="0.83"/><rect x="224" y="1112" width="9" height="12" opacity="0.99"/><rect x="276" y="1112" width="9" height="12" opacity="0.65"/><rect x="198" y="1146" width="9" height="12" opacity="0.56"/><rect x="250" y="1146" width="9" height="12" opacity="0.85"/><rect x="198" y="1180" width="9" height="12" opacity="0.82"/><rect x="224" y="1180" width="9" height="12" opacity="0.78"/><rect x="224" y="1214" width="9" height="12" opacity="0.84"/><rect x="250" y="1214" width="9" height="12" opacity="0.83"/><rect x="276" y="1214" width="9" height="12" opacity="0.56"/><rect x="198" y="1248" width="9" height="12" opacity="0.53"/><rect x="250" y="1248" width="9" height="12" opacity="0.54"/><rect x="276" y="1248" width="9" height="12" opacity="0.49"/><rect x="198" y="1316" width="9" height="12" opacity="0.42"/><rect x="224" y="1316" width="9" height="12" opacity="0.71"/><rect x="224" y="1350" width="9" height="12" opacity="0.76"/><rect x="276" y="1350" width="9" height="12" opacity="0.96"/><rect x="250" y="1384" width="9" height="12" opacity="0.48"/><rect x="276" y="1384" width="9" height="12" opacity="0.42"/><rect x="224" y="1452" width="9" height="12" opacity="0.48"/><rect x="250" y="1452" width="9" height="12" opacity="0.57"/><rect x="347" y="1179" width="9" height="12" opacity="0.74"/><rect x="373" y="1179" width="9" height="12" opacity="0.91"/><rect x="321" y="1247" width="9" height="12" opacity="0.42"/><rect x="347" y="1247" width="9" height="12" opacity="0.94"/><rect x="373" y="1247" width="9" height="12" opacity="0.52"/><rect x="321" y="1281" width="9" height="12" opacity="0.50"/><rect x="347" y="1281" width="9" height="12" opacity="0.96"/><rect x="373" y="1315" width="9" height="12" opacity="0.87"/><rect x="321" y="1349" width="9" height="12" opacity="0.72"/><rect x="347" y="1349" width="9" height="12" opacity="0.94"/><rect x="373" y="1349" width="9" height="12" opacity="0.76"/><rect x="321" y="1417" width="9" height="12" opacity="0.88"/><rect x="373" y="1451" width="9" height="12" opacity="0.80"/><rect x="433" y="1130" width="9" height="12" opacity="0.97"/><rect x="459" y="1130" width="9" height="12" opacity="0.43"/><rect x="485" y="1130" width="9" height="12" opacity="0.48"/><rect x="485" y="1164" width="9" height="12" opacity="0.81"/><rect x="459" y="1198" width="9" height="12" opacity="0.98"/><rect x="433" y="1232" width="9" height="12" opacity="0.64"/><rect x="407" y="1266" width="9" height="12" opacity="0.95"/><rect x="433" y="1266" width="9" height="12" opacity="0.92"/><rect x="459" y="1266" width="9" height="12" opacity="0.72"/><rect x="407" y="1300" width="9" height="12" opacity="0.82"/><rect x="433" y="1300" width="9" height="12" opacity="0.78"/><rect x="485" y="1300" width="9" height="12" opacity="0.97"/><rect x="407" y="1334" width="9" height="12" opacity="0.48"/><rect x="433" y="1334" width="9" height="12" opacity="0.44"/><rect x="459" y="1334" width="9" height="12" opacity="0.86"/><rect x="485" y="1334" width="9" height="12" opacity="0.72"/><rect x="433" y="1368" width="9" height="12" opacity="0.89"/><rect x="485" y="1368" width="9" height="12" opacity="0.45"/><rect x="433" y="1470" width="9" height="12" opacity="0.84"/><rect x="485" y="1470" width="9" height="12" opacity="0.55"/><rect x="526" y="1061" width="9" height="12" opacity="0.74"/><rect x="578" y="1095" width="9" height="12" opacity="0.48"/><rect x="578" y="1129" width="9" height="12" opacity="0.49"/><rect x="526" y="1163" width="9" height="12" opacity="0.58"/><rect x="552" y="1163" width="9" height="12" opacity="0.50"/><rect x="578" y="1163" width="9" height="12" opacity="0.88"/><rect x="526" y="1197" width="9" height="12" opacity="0.88"/><rect x="552" y="1197" width="9" height="12" opacity="0.55"/><rect x="526" y="1231" width="9" height="12" opacity="0.59"/><rect x="552" y="1231" width="9" height="12" opacity="0.54"/><rect x="526" y="1265" width="9" height="12" opacity="0.83"/><rect x="578" y="1265" width="9" height="12" opacity="0.92"/><rect x="526" y="1299" width="9" height="12" opacity="0.86"/><rect x="578" y="1299" width="9" height="12" opacity="0.93"/><rect x="552" y="1333" width="9" height="12" opacity="0.74"/><rect x="578" y="1333" width="9" height="12" opacity="0.57"/><rect x="578" y="1367" width="9" height="12" opacity="0.95"/><rect x="552" y="1401" width="9" height="12" opacity="0.46"/><rect x="578" y="1401" width="9" height="12" opacity="0.93"/><rect x="552" y="1435" width="9" height="12" opacity="0.67"/><rect x="526" y="1469" width="9" height="12" opacity="0.46"/><rect x="552" y="1469" width="9" height="12" opacity="0.81"/><rect x="637" y="1200" width="9" height="12" opacity="0.76"/><rect x="663" y="1200" width="9" height="12" opacity="0.95"/><rect x="663" y="1268" width="9" height="12" opacity="0.94"/><rect x="663" y="1336" width="9" height="12" opacity="0.43"/><rect x="637" y="1370" width="9" height="12" opacity="0.83"/><rect x="663" y="1370" width="9" height="12" opacity="0.92"/><rect x="637" y="1438" width="9" height="12" opacity="0.49"/><rect x="637" y="1472" width="9" height="12" opacity="0.70"/><rect x="710" y="947" width="9" height="12" opacity="0.65"/><rect x="736" y="947" width="9" height="12" opacity="0.82"/><rect x="710" y="981" width="9" height="12" opacity="0.78"/><rect x="736" y="981" width="9" height="12" opacity="0.88"/><rect x="710" y="1015" width="9" height="12" opacity="0.74"/><rect x="710" y="1049" width="9" height="12" opacity="0.88"/><rect x="736" y="1049" width="9" height="12" opacity="0.58"/><rect x="710" y="1083" width="9" height="12" opacity="0.53"/><rect x="710" y="1117" width="9" height="12" opacity="0.98"/><rect x="710" y="1151" width="9" height="12" opacity="0.87"/><rect x="736" y="1185" width="9" height="12" opacity="0.82"/><rect x="710" y="1219" width="9" height="12" opacity="0.51"/><rect x="736" y="1219" width="9" height="12" opacity="0.59"/><rect x="710" y="1253" width="9" height="12" opacity="0.74"/><rect x="710" y="1287" width="9" height="12" opacity="0.71"/><rect x="710" y="1321" width="9" height="12" opacity="1.00"/><rect x="736" y="1321" width="9" height="12" opacity="0.62"/><rect x="736" y="1355" width="9" height="12" opacity="0.60"/><rect x="710" y="1389" width="9" height="12" opacity="0.98"/><rect x="710" y="1423" width="9" height="12" opacity="0.72"/><rect x="736" y="1423" width="9" height="12" opacity="0.41"/><rect x="710" y="1457" width="9" height="12" opacity="0.82"/><rect x="794" y="1234" width="9" height="12" opacity="0.46"/><rect x="846" y="1234" width="9" height="12" opacity="0.83"/><rect x="794" y="1268" width="9" height="12" opacity="0.65"/><rect x="846" y="1268" width="9" height="12" opacity="0.73"/><rect x="820" y="1302" width="9" height="12" opacity="0.52"/><rect x="846" y="1302" width="9" height="12" opacity="0.69"/><rect x="794" y="1336" width="9" height="12" opacity="0.71"/><rect x="820" y="1336" width="9" height="12" opacity="0.72"/><rect x="846" y="1336" width="9" height="12" opacity="0.85"/><rect x="846" y="1370" width="9" height="12" opacity="0.93"/><rect x="820" y="1404" width="9" height="12" opacity="0.99"/><rect x="794" y="1438" width="9" height="12" opacity="0.85"/><rect x="820" y="1472" width="9" height="12" opacity="0.90"/><rect x="901" y="1000" width="9" height="12" opacity="0.42"/><rect x="927" y="1000" width="9" height="12" opacity="0.80"/><rect x="927" y="1034" width="9" height="12" opacity="0.52"/><rect x="953" y="1034" width="9" height="12" opacity="0.63"/><rect x="979" y="1034" width="9" height="12" opacity="0.63"/><rect x="953" y="1102" width="9" height="12" opacity="0.72"/><rect x="979" y="1102" width="9" height="12" opacity="0.80"/><rect x="953" y="1136" width="9" height="12" opacity="0.74"/><rect x="979" y="1136" width="9" height="12" opacity="0.47"/><rect x="901" y="1170" width="9" height="12" opacity="0.67"/><rect x="979" y="1170" width="9" height="12" opacity="0.95"/><rect x="953" y="1204" width="9" height="12" opacity="0.59"/><rect x="979" y="1204" width="9" height="12" opacity="0.69"/><rect x="901" y="1238" width="9" height="12" opacity="0.78"/><rect x="979" y="1238" width="9" height="12" opacity="0.73"/><rect x="901" y="1272" width="9" height="12" opacity="0.90"/><rect x="901" y="1306" width="9" height="12" opacity="0.58"/><rect x="927" y="1306" width="9" height="12" opacity="0.87"/><rect x="979" y="1340" width="9" height="12" opacity="0.44"/><rect x="901" y="1408" width="9" height="12" opacity="0.92"/><rect x="927" y="1408" width="9" height="12" opacity="0.43"/><rect x="979" y="1408" width="9" height="12" opacity="0.83"/><rect x="927" y="1442" width="9" height="12" opacity="0.66"/><rect x="953" y="1442" width="9" height="12" opacity="0.88"/><rect x="901" y="1476" width="9" height="12" opacity="0.49"/><rect x="927" y="1476" width="9" height="12" opacity="0.66"/><rect x="1036" y="1038" width="9" height="12" opacity="0.84"/><rect x="1036" y="1106" width="9" height="12" opacity="0.87"/><rect x="1062" y="1106" width="9" height="12" opacity="0.69"/><rect x="1036" y="1174" width="9" height="12" opacity="0.68"/><rect x="1062" y="1174" width="9" height="12" opacity="0.57"/><rect x="1036" y="1208" width="9" height="12" opacity="0.65"/><rect x="1062" y="1208" width="9" height="12" opacity="0.81"/><rect x="1036" y="1276" width="9" height="12" opacity="0.54"/><rect x="1062" y="1276" width="9" height="12" opacity="0.76"/><rect x="1036" y="1344" width="9" height="12" opacity="1.00"/><rect x="1062" y="1378" width="9" height="12" opacity="0.86"/><rect x="1036" y="1412" width="9" height="12" opacity="0.97"/><rect x="1062" y="1446" width="9" height="12" opacity="0.83"/><rect x="1114" y="1199" width="9" height="12" opacity="0.57"/><rect x="1192" y="1233" width="9" height="12" opacity="0.46"/><rect x="1114" y="1267" width="9" height="12" opacity="0.48"/><rect x="1192" y="1267" width="9" height="12" opacity="0.70"/><rect x="1114" y="1301" width="9" height="12" opacity="0.41"/><rect x="1140" y="1301" width="9" height="12" opacity="0.56"/><rect x="1114" y="1335" width="9" height="12" opacity="0.69"/><rect x="1140" y="1335" width="9" height="12" opacity="0.78"/><rect x="1166" y="1335" width="9" height="12" opacity="0.97"/><rect x="1192" y="1335" width="9" height="12" opacity="0.75"/><rect x="1114" y="1369" width="9" height="12" opacity="0.74"/><rect x="1192" y="1369" width="9" height="12" opacity="0.97"/><rect x="1114" y="1403" width="9" height="12" opacity="0.98"/><rect x="1166" y="1403" width="9" height="12" opacity="0.99"/><rect x="1166" y="1437" width="9" height="12" opacity="0.57"/><rect x="1192" y="1437" width="9" height="12" opacity="0.97"/><rect x="1114" y="1471" width="9" height="12" opacity="1.00"/></g><g opacity="0.16"><path d="M600.0,640.0 L1500.0,640.0 L1493.5,747.7 Z" fill="#ffcf87"/><path d="M600.0,640.0 L1431.5,984.4 L1384.3,1081.5 Z" fill="#ffcf87"/><path d="M600.0,640.0 L1236.4,1276.4 L1155.6,1348.0 Z" fill="#ffcf87"/><path d="M600.0,640.0 L944.4,1471.5 L842.4,1506.7 Z" fill="#ffcf87"/><path d="M600.0,640.0 L600.0,1540.0 L492.3,1533.5 Z" fill="#ffcf87"/><path d="M600.0,640.0 L255.6,1471.5 L158.5,1424.3 Z" fill="#ffcf87"/><path d="M600.0,640.0 L-36.4,1276.4 L-108.0,1195.6 Z" fill="#ffcf87"/><path d="M600.0,640.0 L-231.5,984.4 L-266.7,882.4 Z" fill="#ffcf87"/><path d="M600.0,640.0 L-300.0,640.0 L-293.5,532.3 Z" fill="#ffcf87"/><path d="M600.0,640.0 L-231.5,295.6 L-184.3,198.5 Z" fill="#ffcf87"/><path d="M600.0,640.0 L-36.4,3.6 L44.4,-68.0 Z" fill="#ffcf87"/><path d="M600.0,640.0 L255.6,-191.5 L357.6,-226.7 Z" fill="#ffcf87"/><path d="M600.0,640.0 L600.0,-260.0 L707.7,-253.5 Z" fill="#ffcf87"/><path d="M600.0,640.0 L944.4,-191.5 L1041.5,-144.3 Z" fill="#ffcf87"/><path d="M600.0,640.0 L1236.4,3.6 L1308.0,84.4 Z" fill="#ffcf87"/><path d="M600.0,640.0 L1431.5,295.6 L1466.7,397.6 Z" fill="#ffcf87"/></g><g><path d="M0,-12 L3,-3 L12,0 L3,3 L0,12 L-3,3 L-12,0 L-3,-3 Z" fill="#ffd54a" opacity="0.76" transform="translate(177.8,739.2) scale(0.72)"/><path d="M0,-12 L3,-3 L12,0 L3,3 L0,12 L-3,3 L-12,0 L-3,-3 Z" fill="#ffd54a" opacity="0.42" transform="translate(219.0,351.4) scale(1.06)"/><path d="M0,-12 L3,-3 L12,0 L3,3 L0,12 L-3,3 L-12,0 L-3,-3 Z" fill="#ffd27a" opacity="0.80" transform="translate(636.1,743.6) scale(1.18)"/><path d="M0,-12 L3,-3 L12,0 L3,3 L0,12 L-3,3 L-12,0 L-3,-3 Z" fill="#ffd27a" opacity="0.78" transform="translate(452.5,272.2) scale(0.67)"/><path d="M0,-12 L3,-3 L12,0 L3,3 L0,12 L-3,3 L-12,0 L-3,-3 Z" fill="#ffd27a" opacity="0.79" transform="translate(731.2,530.1) scale(1.15)"/><path d="M0,-12 L3,-3 L12,0 L3,3 L0,12 L-3,3 L-12,0 L-3,-3 Z" fill="#fff6c8" opacity="0.77" transform="translate(630.8,588.9) scale(1.04)"/><path d="M0,-12 L3,-3 L12,0 L3,3 L0,12 L-3,3 L-12,0 L-3,-3 Z" fill="#ffd54a" opacity="0.51" transform="translate(295.7,110.4) scale(0.93)"/><path d="M0,-12 L3,-3 L12,0 L3,3 L0,12 L-3,3 L-12,0 L-3,-3 Z" fill="#ffd27a" opacity="0.90" transform="translate(512.9,723.5) scale(1.59)"/><path d="M0,-12 L3,-3 L12,0 L3,3 L0,12 L-3,3 L-12,0 L-3,-3 Z" fill="#ffd54a" opacity="0.56" transform="translate(200.4,248.8) scale(1.27)"/><path d="M0,-12 L3,-3 L12,0 L3,3 L0,12 L-3,3 L-12,0 L-3,-3 Z" fill="#fff6c8" opacity="0.85" transform="translate(153.2,738.0) scale(1.75)"/><path d="M0,-12 L3,-3 L12,0 L3,3 L0,12 L-3,3 L-12,0 L-3,-3 Z" fill="#fff6c8" opacity="0.88" transform="translate(767.1,564.2) scale(1.73)"/><path d="M0,-12 L3,-3 L12,0 L3,3 L0,12 L-3,3 L-12,0 L-3,-3 Z" fill="#ffd27a" opacity="0.81" transform="translate(1188.1,613.7) scale(0.77)"/><path d="M0,-12 L3,-3 L12,0 L3,3 L0,12 L-3,3 L-12,0 L-3,-3 Z" fill="#ffd54a" opacity="0.86" transform="translate(720.4,1098.0) scale(1.31)"/><path d="M0,-12 L3,-3 L12,0 L3,3 L0,12 L-3,3 L-12,0 L-3,-3 Z" fill="#fff6c8" opacity="0.92" transform="translate(443.6,58.0) scale(0.66)"/><path d="M0,-12 L3,-3 L12,0 L3,3 L0,12 L-3,3 L-12,0 L-3,-3 Z" fill="#fff6c8" opacity="0.80" transform="translate(206.4,86.9) scale(1.62)"/><path d="M0,-12 L3,-3 L12,0 L3,3 L0,12 L-3,3 L-12,0 L-3,-3 Z" fill="#fff6c8" opacity="0.65" transform="translate(498.4,1065.0) scale(0.72)"/><path d="M0,-12 L3,-3 L12,0 L3,3 L0,12 L-3,3 L-12,0 L-3,-3 Z" fill="#ffd27a" opacity="0.73" transform="translate(795.2,265.0) scale(1.04)"/><path d="M0,-12 L3,-3 L12,0 L3,3 L0,12 L-3,3 L-12,0 L-3,-3 Z" fill="#fff6c8" opacity="0.48" transform="translate(638.1,12.2) scale(0.81)"/><path d="M0,-12 L3,-3 L12,0 L3,3 L0,12 L-3,3 L-12,0 L-3,-3 Z" fill="#fff6c8" opacity="0.55" transform="translate(142.6,180.7) scale(1.04)"/><path d="M0,-12 L3,-3 L12,0 L3,3 L0,12 L-3,3 L-12,0 L-3,-3 Z" fill="#ffd54a" opacity="0.56" transform="translate(534.3,891.3) scale(1.06)"/><path d="M0,-12 L3,-3 L12,0 L3,3 L0,12 L-3,3 L-12,0 L-3,-3 Z" fill="#fff6c8" opacity="0.71" transform="translate(892.0,241.8) scale(1.10)"/><path d="M0,-12 L3,-3 L12,0 L3,3 L0,12 L-3,3 L-12,0 L-3,-3 Z" fill="#ffd27a" opacity="0.89" transform="translate(248.5,888.1) scale(0.84)"/><path d="M0,-12 L3,-3 L12,0 L3,3 L0,12 L-3,3 L-12,0 L-3,-3 Z" fill="#ffd54a" opacity="0.66" transform="translate(857.6,803.6) scale(1.49)"/><path d="M0,-12 L3,-3 L12,0 L3,3 L0,12 L-3,3 L-12,0 L-3,-3 Z" fill="#ffd54a" opacity="0.63" transform="translate(9.1,331.6) scale(0.78)"/><path d="M0,-12 L3,-3 L12,0 L3,3 L0,12 L-3,3 L-12,0 L-3,-3 Z" fill="#ffd27a" opacity="0.75" transform="translate(1132.1,283.5) scale(0.71)"/><path d="M0,-12 L3,-3 L12,0 L3,3 L0,12 L-3,3 L-12,0 L-3,-3 Z" fill="#ffd27a" opacity="0.80" transform="translate(569.8,1004.1) scale(0.86)"/></g><radialGradient id="vig" cx="0.5" cy="0.42" r="0.75"><stop offset="0.55" stop-color="#000000" stop-opacity="0"/><stop offset="1" stop-color="#000000" stop-opacity="0.6"/></radialGradient><rect width="1200" height="1500" fill="url(#vig)"/><linearGradient id="btm" x1="0" y1="0" x2="0" y2="1"><stop offset="0.65" stop-color="#000" stop-opacity="0"/><stop offset="1" stop-color="#000" stop-opacity="0.5"/></linearGradient><rect width="1200" height="1500" fill="url(#btm)"/></svg>