<svg xmlns="http://www.w3.org/2000/svg" viewBox="0 0 1200 1500" preserveAspectRatio="xMidYMid slice"><defs><filter id="soft" x="-20%" y="-20%" width="140%" height="140%"><feGaussianBlur stdDeviation="14"/></filter><filter id="fog" x="-40%" y="-40%" width="180%" height="180%"><feGaussianBlur stdDeviation="40"/></filter></defs><linearGradient id="sky" x1="0" y1="0" x2="0" y2="1"><stop offset="0" stop-color="#04081e"/><stop offset="0.55" stop-color="#0a1236"/><stop offset="1" stop-color="#122048"/></linearGradient><rect width="1200" height="1500" fill="url(#sky)"/><g><circle cx="378.5" cy="808.4" r="0.8" fill="#ffffff" opacity="0.50"/><circle cx="468.6" cy="940.5" r="1.2" fill="#ffffff" opacity="0.72"/><circle cx="120.4" cy="180.5" r="1.9" fill="#ffffff" opacity="0.69"/><circle cx="864.5" cy="463.8" r="1.5" fill="#ffffff" opacity="0.44"/><circle cx="268.1" cy="53.4" r="0.9" fill="#ffffff" opacity="0.62"/><circle cx="710.1" cy="774.5" r="1.8" fill="#ffffff" opacity="0.87"/><circle cx="884.7" cy="9.2" r="2.2" fill="#ffffff" opacity="0.65"/><circle cx="522.8" cy="92.0" r="0.9" fill="#ffffff" opacity="0.35"/><circle cx="110.5" cy="826.5" r="1.3" fill="#ffffff" opacity="0.85"/><circle cx="1181.4" cy="654.0" r="1.0" fill="#ffffff" opacity="0.41"/><circle cx="1157.7" cy="517.0" r="1.2" fill="#ffffff" opacity="0.97"/><circle cx="203.4" cy="921.6" r="0.6" fill="#ffffff" opacity="0.61"/><circle cx="403.4" cy="1021.9" r="1.4" fill="#ffffff" opacity="0.70"/><circle cx="968.6" cy="659.3" r="2.1" fill="#ffffff" opacity="0.87"/><circle cx="80.7" cy="145.0" r="1.3" fill="#ffffff" opacity="0.58"/><circle cx="981.5" cy="149.3" r="2.4" fill="#ffffff" opacity="0.87"/><circle cx="780.4" cy="272.2" r="2.0" fill="#ffffff" opacity="0.79"/><circle cx="1035.5" cy="318.3" r="2.0" fill="#ffffff" opacity="0.44"/><circle cx="544.1" cy="144.3" r="1.1" fill="#ffffff" opacity="0.96"/><circle cx="1198.7" cy="163.3" r="1.8" fill="#ffffff" opacity="0.30"/><circle cx="431.7" cy="460.7" r="1.0" fill="#ffffff" opacity="0.33"/><circle cx="804.8" cy="944.4" r="1.0" fill="#ffffff" opacity="0.56"/><circle cx="893.3" cy="751.7" r="1.9" fill="#ffffff" opacity="0.52"/><circle cx="1137.6" cy="834.0" r="2.1" fill="#ffffff" opacity="0.74"/><circle cx="206.9" cy="993.4" r="1.7" fill="#ffffff" opacity="0.65"/><circle cx="814.7" cy="812.3" r="0.9" fill="#ffffff" opacity="0.43"/><circle cx="423.2" cy="142.0" r="1.9" fill="#ffffff" opacity="0.40"/><circle cx="743.9" cy="649.5" r="1.9" fill="#ffffff" opacity="0.85"/><circle cx="632.2" cy="193.7" r="2.2" fill="#ffffff" opacity="0.74"/><circle cx="602.0" cy="911.9" r="2.1" fill="#ffffff" opacity="0.71"/><circle cx="469.6" cy="217.6" r="0.7" fill="#ffffff" opacity="0.33"/><circle cx="28.0" cy="711.8" r="0.8" fill="#ffffff" opacity="0.79"/><circle cx="332.9" cy="206.4" r="2.3" fill="#ffffff" opacity="0.56"/><circle cx="121.6" cy="681.2" r="1.8" fill="#ffffff" opacity="0.96"/><circle cx="951.9" cy="405.7" r="1.7" fill="#ffffff" opacity="0.42"/><circle cx="405.7" cy="491.4" r="1.0" fill="#ffffff" opacity="0.88"/><circle cx="943.3" cy="402.6" r="2.1" fill="#ffffff" opacity="0.59"/><circle cx="220.9" cy="265.2" r="0.8" fill="#ffffff" opacity="0.80"/><circle cx="369.0" cy="65.0" r="0.7" fill="#ffffff" opacity="0.63"/><circle cx="1047.7" cy="248.6" r="2.1" fill="#ffffff" opacity="0.86"/><circle cx="96.3" cy="307.9" r="2.2" fill="#ffffff" opacity="0.83"/><circle cx="763.6" cy="20.5" r="1.0" fill="#ffffff" opacity="0.80"/><circle cx="170.1" cy="217.1" r="0.7" fill="#ffffff" opacity="0.66"/><circle cx="238.9" cy="853.1" r="0.7" fill="#ffffff" opacity="0.79"/><circle cx="1121.7" cy="261.8" r="1.3" fill="#ffffff" opacity="0.84"/><circle cx="246.9" cy="536.6" r="0.9" fill="#ffffff" opacity="0.57"/><circle cx="605.6" cy="43.7" r="2.2" fill="#ffffff" opacity="0.60"/><circle cx="98.0" cy="100.8" r="1.1" fill="#ffffff" opacity="0.34"/><circle cx="847.2" cy="219.1" r="1.5" fill="#ffffff" opacity="0.65"/><circle cx="301.9" cy="668.4" r="1.3" fill="#ffffff" opacity="0.79"/><circle cx="662.8" cy="680.1" r="2.3" fill="#ffffff" opacity="0.83"/><circle cx="974.5" cy="848.0" r="2.0" fill="#ffffff" opacity="0.60"/><circle cx="416.0" cy="1049.4" r="1.2" fill="#ffffff" opacity="0.61"/><circle cx="358.3" cy="76.0" r="1.6" fill="#ffffff" opacity="0.50"/><circle cx="205.7" cy="946.0" r="1.1" fill="#ffffff" opacity="0.64"/><circle cx="1183.3" cy="1000.1" r="2.2" fill="#ffffff" opacity="0.79"/><circle cx="411.5" cy="388.7" r="2.0" fill="#ffffff" opacity="0.60"/><circle cx="982.3" cy="276.9" r="1.8" fill="#ffffff" opacity="0.95"/><circle cx="548.4" cy="22.6" r="1.2" fill="#ffffff" opacity="0.44"/><circle cx="831.8" cy="378.5" r="1.3" fill="#ffffff" opacity="0.56"/><circle cx="953.6" cy="527.2" r="0.6" fill="#ffffff" opacity="0.41"/><circle cx="213.6" cy="681.7" r="1.0" fill="#ffffff" opacity="0.55"/><circle cx="1063.8" cy="647.9" r="2.1" fill="#ffffff" opacity="0.62"/><circle cx="583.7" cy="103.1" r="0.8" fill="#ffffff" opacity="0.65"/><circle cx="872.3" cy="28.3" r="0.9" fill="#ffffff" opacity="0.73"/><circle cx="294.1" cy="347.7" r="1.7" fill="#ffffff" opacity="0.79"/><circle cx="68.0" cy="83.0" r="1.4" fill="#ffffff" opacity="0.45"/><circle cx="171.1" cy="341.0" r="1.5" fill="#ffffff" opacity="0.75"/><circle cx="1164.4" cy="1030.4" r="2.1" fill="#ffffff" opacity="0.54"/><circle cx="133.6" cy="259.6" r="1.0" fill="#ffffff" opacity="0.87"/><circle cx="940.7" cy="604.8" r="0.7" fill="#ffffff" opacity="0.47"/><circle cx="759.3" cy="370.0" r="1.3" fill="#ffffff" opacity="0.80"/><circle cx="1.4" cy="315.9" r="1.6" fill="#ffffff" opacity="0.68"/><circle cx="640.4" cy="93.5" r="0.8" fill="#ffffff" opacity="0.45"/><circle cx="50.0" cy="964.1" r="2.2" fill="#ffffff" opacity="0.34"/><circle cx="959.2" cy="150.7" r="0.6" fill="#ffffff" opacity="0.50"/><circle cx="64.5" cy="932.0" r="1.2" fill="#ffffff" opacity="0.91"/><circle cx="428.4" cy="1045.2" r="2.1" fill="#ffffff" opacity="0.99"/><circle cx="742.4" cy="475.9" r="2.3" fill="#ffffff" opacity="0.61"/><circle cx="134.1" cy="84.2" r="1.7" fill="#ffffff" opacity="0.56"/><circle cx="594.1" cy="67.1" r="1.6" fill="#ffffff" opacity="0.99"/><circle cx="307.1" cy="666.5" r="1.7" fill="#ffffff" opacity="0.97"/><circle cx="511.7" cy="952.8" r="1.1" fill="#ffffff" opacity="0.81"/><circle cx="372.1" cy="397.6" r="2.2" fill="#ffffff" opacity="0.86"/><circle cx="490.6" cy="978.4" r="1.1" fill="#ffffff" opacity="0.95"/><circle cx="17.0" cy="931.1" r="1.5" fill="#ffffff" opacity="0.74"/><circle cx="1066.7" cy="177.7" r="0.9" fill="#ffffff" opacity="0.82"/><circle cx="1056.5" cy="808.2" r="1.2" fill="#ffffff" opacity="0.42"/><circle cx="765.7" cy="512.7" r="1.3" fill="#ffffff" opacity="0.95"/><circle cx="1052.5" cy="686.9" r="1.6" fill="#ffffff" opacity="0.72"/><circle cx="1073.9" cy="458.3" r="2.3" fill="#ffffff" opacity="0.76"/><circle cx="79.5" cy="668.5" r="1.4" fill="#ffffff" opacity="0.51"/><circle cx="1182.6" cy="25.3" r="0.7" fill="#ffffff" opacity="0.98"/><circle cx="554.3" cy="868.3" r="1.7" fill="#ffffff" opacity="0.89"/><circle cx="12.8" cy="1.7" r="1.9" fill="#ffffff" opacity="0.76"/><circle cx="606.1" cy="99.8" r="0.7" fill="#ffffff" opacity="0.49"/><circle cx="173.1" cy="776.6" r="1.2" fill="#ffffff" opacity="0.42"/><circle cx="26.2" cy="384.8" r="0.8" fill="#ffffff" opacity="0.97"/><circle cx="144.4" cy="745.8" r="1.4" fill="#ffffff" opacity="0.66"/><circle cx="15.2" cy="976.6" r="2.3" fill="#ffffff" opacity="0.30"/><circle cx="732.1" cy="424.0" r="2.3" fill="#ffffff" opacity="0.46"/><circle cx="425.4" cy="768.7" r="0.8" fill="#ffffff" opacity="0.30"/><circle cx="1123.3" cy="713.9" r="1.8" fill="#ffffff" opacity="0.93"/><circle cx="483.8" cy="643.1" r="0.9" fill="#ffffff" opacity="0.65"/><circle cx="70.8" cy="1035.7" r="0.8" fill="#ffffff" opacity="0.87"/><circle cx="428.5" cy="565.1" r="0.9" fill="#ffffff" opacity="0.43"/><circle cx="859.8" cy="619.8" r="2.0" fill="#ffffff" opacity="0.47"/><circle cx="642.1" cy="285.2" r="0.9" fill="#ffffff" opacity="0.63"/><circle cx="331.1" cy="380.7" r="2.2" fill="#ffffff" opacity="0.99"/><circle cx="139.1" cy="834.3" r="2.2" fill="#ffffff" opacity="0.88"/><circle cx="485.9" cy="976.1" r="1.7" fill="#ffffff" opacity="0.45"/><circle cx="425.4" cy="145.1" r="1.0" fill="#ffffff" opacity="0.96"/><circle cx="333.7" cy="36.3" r="2.2" fill="#ffffff" opacity="0.44"/><circle cx="965.4" cy="701.3" r="1.4" fill="#ffffff" opacity="0.89"/><circle cx="432.1" cy="569.8" r="2.3" fill="#ffffff" opacity="0.83"/><circle cx="598.1" cy="647.1" r="1.2" fill="#ffffff" opacity="1.00"/><circle cx="599.4" cy="1044.2" r="2.2" fill="#ffffff" opacity="0.54"/><circle cx="378.6" cy="840.0" r="1.5" fill="#ffffff" opacity="0.99"/><circle cx="548.4" cy="685.2" r="1.1" fill="#ffffff" opacity="0.94"/><circle cx="1.8" cy="391.7" r="1.1" fill="#ffffff" opacity="0.78"/><circle cx="916.0" cy="29.7" r="1.0" fill="#ffffff" opacity="0.58"/><circle cx="1063.9" cy="1003.0" r="1.4" fill="#ffffff" opacity="0.69"/><circle cx="722.9" cy="292.6" r="0.7" fill="#ffffff" opacity="0.63"/><circle cx="1083.3" cy="165.5" r="2.1" fill="#ffffff" opacity="0.78"/><circle cx="510.3" cy="338.6" r="0.8" fill="#ffffff" opacity="0.81"/><circle cx="838.6" cy="759.4" r="1.3" fill="#ffffff" opacity="0.41"/><circle cx="673.3" cy="641.4" r="1.7" fill="#ffffff" opacity="0.71"/><circle cx="1062.3" cy="1000.2" r="1.6" fill="#ffffff" opacity="0.95"/><circle cx="151.0" cy="938.9" r="2.2" fill="#ffffff" opacity="0.43"/><circle cx="114.5" cy="440.8" r="1.3" fill="#ffffff" opacity="0.68"/><circle cx="1172.5" cy="573.0" r="0.6" fill="#ffffff" opacity="0.68"/><circle cx="1130.4" cy="514.8" r="0.9" fill="#ffffff" opacity="0.88"/><circle cx="1139.9" cy="67.5" r="0.9" fill="#ffffff" opacity="0.79"/><circle cx="455.4" cy="259.1" r="1.8" fill="#ffffff" opacity="0.83"/><circle cx="272.0" cy="133.5" r="0.6" fill="#ffffff" opacity="1.00"/><circle cx="658.8" cy="647.3" r="1.3" fill="#ffffff" opacity="0.35"/><circle cx="8.0" cy="191.7" r="1.4" fill="#ffffff" opacity="0.81"/><circle cx="1181.7" cy="726.9" r="0.8" fill="#ffffff" opacity="0.51"/><circle cx="336.1" cy="413.7" r="1.7" fill="#ffffff" opacity="0.37"/><circle cx="906.4" cy="956.9" r="1.7" fill="#ffffff" opacity="0.92"/><circle cx="396.1" cy="632.2" r="1.7" fill="#ffffff" opacity="0.48"/><circle cx="383.8" cy="477.9" r="1.0" fill="#ffffff" opacity="0.77"/><circle cx="868.7" cy="967.3" r="1.6" fill="#ffffff" opacity="0.87"/><circle cx="973.8" cy="636.7" r="1.7" fill="#ffffff" opacity="0.81"/><circle cx="553.6" cy="977.7" r="2.3" fill="#ffffff" opacity="0.90"/><circle cx="73.4" cy="553.5" r="2.2" fill="#ffffff" opacity="0.97"/><circle cx="96.5" cy="538.4" r="0.8" fill="#ffffff" opacity="0.90"/><circle cx="95.4" cy="145.3" r="1.4" fill="#ffffff" opacity="0.70"/><circle cx="439.8" cy="33.7" r="1.2" fill="#ffffff" opacity="0.95"/><circle cx="565.1" cy="476.1" r="2.1" fill="#ffffff" opacity="0.85"/><circle cx="677.4" cy="988.8" r="0.9" fill="#ffffff" opacity="0.72"/><circle cx="342.8" cy="834.5" r="1.1" fill="#ffffff" opacity="0.41"/><circle cx="103.2" cy="239.9" r="2.3" fill="#ffffff" opacity="0.46"/><circle cx="305.4" cy="1006.3" r="2.2" fill="#ffffff" opacity="0.68"/><circle cx="458.3" cy="823.8" r="0.7" fill="#ffffff" opacity="0.90"/><circle cx="950.2" cy="724.8" r="1.1" fill="#ffffff" opacity="0.77"/><circle cx="779.6" cy="456.3" r="1.7" fill="#ffffff" opacity="0.69"/><circle cx="599.0" cy="338.2" r="1.1" fill="#ffffff" opacity="0.43"/><circle cx="179.5" cy="762.9" r="1.0" fill="#ffffff" opacity="0.83"/><circle cx="443.2" cy="387.5" r="1.1" fill="#ffffff" opacity="0.51"/></g><g filter="url(#soft)" opacity="0.55"><linearGradient id="au0" x1="0" y1="0" x2="0" y2="1"><stop offset="0" stop-color="#43e97b" stop-opacity="0.9"/><stop offset="1" stop-color="#43e97b" stop-opacity="0"/></linearGradient><path d="M -50,180 L 0,176 L 90,214 L 180,259 L 270,265 L 360,227 L 450,217 L 540,182 L 630,143 L 720,93 L 810,133 L 900,128 L 990,185 L 1080,198 L 1170,243  L 1250,600 L -50,600 Z" fill="url(#au0)"/><linearGradient id="au1" x1="0" y1="0" x2="0" y2="1"><stop offset="0" stop-color="#38f9d7" stop-opacity="0.9"/><stop offset="1" stop-color="#38f9d7" stop-opacity="0"/></linearGradient><path d="M -50,240 L 0,295 L 90,318 L 180,310 L 270,284 L 360,246 L 450,211 L 540,179 L 630,173 L 720,202 L 810,230 L 900,275 L 990,290 L 1080,328 L 1170,318  L 1250,600 L -50,600 Z" fill="url(#au1)"/><linearGradient id="au2" x1="0" y1="0" x2="0" y2="1"><stop offset="0" stop-color="#7afcff" stop-opacity="0.9"/><stop offset="1" stop-color="#7afcff" stop-opacity="0"/></linearGradient><path d="M -50,300 L 0,351 L 90,350 L 180,303 L 270,268 L 360,249 L 450,237 L 540,252 L 630,292 L 720,301 L 810,332 L 900,360 L 990,360 L 1080,329 L 1170,290  L 1250,600 L -50,600 Z" fill="url(#au2)"/><linearGradient id="au3" x1="0" y1="0" x2="0" y2="1"><stop offset="0" stop-color="#b388ff" stop-opacity="0.9"/><stop offset="1" stop-color="#b388ff" stop-opacity="0"/></linearGradient><path d="M -50,360 L 0,369 L 90,346 L 180,313 L 270,288 L 360,315 L 450,332 L 540,370 L 630,385 L 720,418 L 810,424 L 900,393 L 990,371 L 1080,342 L 1170,289  L 1250,600 L -50,600 Z" fill="url(#au3)"/></g><path d="M -40,1500 L -40,1200.0 L 0,1200.0 L 100.0,841.2 L 200.0,1156.1 L 300.0,786.2 L 400.0,1126.4 L 500.0,872.3 L 600.0,1150.4 L 700.0,815.8 L 800.0,1135.4 L 900.0,750.0 L 1000.0,1132.3 L 1100.0,765.2 L 1200.0,1139.6 L 1240,1200.0 L 1240,1500 Z" fill="#0a1428" opacity="1"/><path d="M66.0,881.2 L100.0,841.2 L134.0,881.2 L118.0,871.2 L100.0,883.2 L82.0,871.2 Z" fill="#ffffff" opacity="0.9"/><path d="M266.0,826.2 L300.0,786.2 L334.0,826.2 L318.0,816.2 L300.0,828.2 L282.0,816.2 Z" fill="#ffffff" opacity="0.9"/><path d="M466.0,912.3 L500.0,872.3 L534.0,912.3 L518.0,902.3 L500.0,914.3 L482.0,902.3 Z" fill="#ffffff" opacity="0.9"/><path d="M666.0,855.8 L700.0,815.8 L734.0,855.8 L718.0,845.8 L700.0,857.8 L682.0,845.8 Z" fill="#ffffff" opacity="0.9"/><path d="M866.0,790.0 L900.0,750.0 L934.0,790.0 L918.0,780.0 L900.0,792.0 L882.0,780.0 Z" fill="#ffffff" opacity="0.9"/><path d="M1066.0,805.2 L1100.0,765.2 L1134.0,805.2 L1118.0,795.2 L1100.0,807.2 L1082.0,795.2 Z" fill="#ffffff" opacity="0.9"/><rect x="0" y="1380" width="1200" height="120" fill="#0e1a30"/><g opacity="0.35"><rect x="480.0" y="1400.0" width="240.0" height="6" rx="3" fill="#43e97b"/><rect x="489.6" y="1426.0" width="220.8" height="6" rx="3" fill="#43e97b"/><rect x="498.4" y="1452.0" width="203.1" height="6" rx="3" fill="#43e97b"/><rect x="506.6" y="1478.0" width="186.9" height="6" rx="3" fill="#43e97b"/></g><radialGradient id="vig" cx="0.5" cy="0.42" r="0.75"><stop offset="0.55" stop-color="#000000" stop-opacity="0"/><stop offset="1" stop-color="#000000" stop-opacity="0.6"/></radialGradient><rect width="1200" height="1500" fill="url(#vig)"/><linearGradient id="btm" x1="0" y1="0" x2="0" y2="1"><stop offset="0.65" stop-color="#000" stop-opacity="0"/><stop offset="1" stop-color="#000" stop-opacity="0.5"/></linearGradient><rect width="1200" height="1500" fill="url(#btm)"/></svg>