<svg xmlns="http://www.w3.org/2000/svg" viewBox="0 0 1200 1500" preserveAspectRatio="xMidYMid slice"><defs><filter id="soft" x="-20%" y="-20%" width="140%" height="140%"><feGaussianBlur stdDeviation="14"/></filter><filter id="fog" x="-40%" y="-40%" width="180%" height="180%"><feGaussianBlur stdDeviation="40"/></filter></defs><linearGradient id="sky" x1="0" y1="0" x2="0" y2="1"><stop offset="0" stop-color="#7fd8e8"/><stop offset="0.55" stop-color="#bfeaf0"/><stop offset="1" stop-color="#ffe4b5"/></linearGradient><rect width="1200" height="1500" fill="url(#sky)"/><radialGradient id="g900300" cx="0.5" cy="0.5" r="0.5"><stop offset="0" stop-color="#ffe9a8" stop-opacity="0.65"/><stop offset="1" stop-color="#ffe9a8" stop-opacity="0"/></radialGradient><circle cx="900.0" cy="300.0" r="288.0" fill="url(#g900300)"/><circle cx="900.0" cy="300.0" r="90.0" fill="#fff6d5"/><g fill="#ffffff" opacity="0.85" filter="url(#soft)"><ellipse cx="1022.1" cy="317.0" rx="34.3" ry="24.0"/><ellipse cx="1059.4" cy="299.1" rx="44.7" ry="31.3"/><ellipse cx="1104.1" cy="305.1" rx="40.2" ry="28.2"/><ellipse cx="1145.1" cy="318.5" rx="32.8" ry="23.0"/><ellipse cx="1081.7" cy="326.0" rx="52.2" ry="36.5"/><ellipse cx="78.1" cy="300.0" rx="59.3" ry="41.5"/><ellipse cx="142.5" cy="269.1" rx="77.3" ry="54.1"/><ellipse cx="219.8" cy="279.4" rx="69.6" ry="48.7"/><ellipse cx="290.7" cy="302.6" rx="56.7" ry="39.7"/><ellipse cx="181.2" cy="315.5" rx="90.2" ry="63.2"/><ellipse cx="693.6" cy="193.5" rx="54.5" ry="38.1"/><ellipse cx="752.8" cy="165.0" rx="71.1" ry="49.8"/><ellipse cx="823.9" cy="174.5" rx="64.0" ry="44.8"/><ellipse cx="889.1" cy="195.8" rx="52.1" ry="36.5"/><ellipse cx="788.4" cy="207.7" rx="82.9" ry="58.1"/><ellipse cx="653.2" cy="244.5" rx="38.0" ry="26.6"/><ellipse cx="694.5" cy="224.7" rx="49.6" ry="34.7"/><ellipse cx="744.1" cy="231.3" rx="44.6" ry="31.2"/><ellipse cx="789.6" cy="246.2" rx="36.4" ry="25.5"/><ellipse cx="719.3" cy="254.4" rx="57.9" ry="40.5"/></g><path d="M -40,1500 L -40,980.0 L 0,980.0 Q 100.0,923.9 200.0,966.9 Q 300.0,908.4 400.0,956.1 Q 500.0,913.4 600.0,957.2 Q 700.0,977.4 800.0,981.9 Q 900.0,895.1 1000.0,972.0 Q 1100.0,898.9 1200.0,1000.9 L 1240,1500 Z" fill="#3aa6a0" opacity="0.9"/><linearGradient id="wtr" x1="0" y1="0" x2="0" y2="1"><stop offset="0" stop-color="#1f8f9e"/><stop offset="1" stop-color="#0f6b7a"/></linearGradient><rect x="0" y="1000.0" width="1200" height="500" fill="url(#wtr)"/><g opacity="0.35"><rect x="840.0" y="1020.0" width="120.0" height="6" rx="3" fill="#ffe9a8"/><rect x="844.8" y="1046.0" width="110.4" height="6" rx="3" fill="#ffe9a8"/><rect x="849.2" y="1072.0" width="101.6" height="6" rx="3" fill="#ffe9a8"/><rect x="853.3" y="1098.0" width="93.4" height="6" rx="3" fill="#ffe9a8"/><rect x="857.0" y="1124.0" width="86.0" height="6" rx="3" fill="#ffe9a8"/><rect x="860.5" y="1150.0" width="79.1" height="6" rx="3" fill="#ffe9a8"/><rect x="863.6" y="1176.0" width="72.8" height="6" rx="3" fill="#ffe9a8"/><rect x="866.5" y="1202.0" width="66.9" height="6" rx="3" fill="#ffe9a8"/><rect x="869.2" y="1228.0" width="61.6" height="6" rx="3" fill="#ffe9a8"/><rect x="871.7" y="1254.0" width="56.7" height="6" rx="3" fill="#ffe9a8"/><rect x="873.9" y="1280.0" width="52.1" height="6" rx="3" fill="#ffe9a8"/><rect x="876.0" y="1306.0" width="48.0" height="6" rx="3" fill="#ffe9a8"/><rect x="877.9" y="1332.0" width="44.1" height="6" rx="3" fill="#ffe9a8"/><rect x="879.7" y="1358.0" width="40.6" height="6" rx="3" fill="#ffe9a8"/><rect x="881.3" y="1384.0" width="37.3" height="6" rx="3" fill="#ffe9a8"/><rect x="882.8" y="1410.0" width="34.4" height="6" rx="3" fill="#ffe9a8"/><rect x="884.2" y="1436.0" width="31.6" height="6" rx="3" fill="#ffe9a8"/><rect x="885.5" y="1462.0" width="29.1" height="6" rx="3" fill="#ffe9a8"/><rect x="886.6" y="1488.0" width="26.8" height="6" rx="3" fill="#ffe9a8"/></g><path d="M0,1180 Q600,1120 1200,1200 L1200,1500 L0,1500 Z" fill="#f2d7a0"/><path d="M0,1200 Q600,1150 1200,1220 L1200,1260 Q600,1200 0,1250 Z" fill="#fff3d6" opacity="0.7"/><radialGradient id="vig" cx="0.5" cy="0.42" r="0.75"><stop offset="0.55" stop-color="#000000" stop-opacity="0"/><stop offset="1" stop-color="#000000" stop-opacity="0.5"/></radialGradient><rect width="1200" height="1500" fill="url(#vig)"/><linearGradient id="btm" x1="0" y1="0" x2="0" y2="1"><stop offset="0.65" stop-color="#000" stop-opacity="0"/><stop offset="1" stop-color="#000" stop-opacity="0.5"/></linearGradient><rect width="1200" height="1500" fill="url(#btm)"/></svg>