<svg xmlns="http://www.w3.org/2000/svg" viewBox="0 0 1200 1500" preserveAspectRatio="xMidYMid slice"><defs><filter id="soft" x="-20%" y="-20%" width="140%" height="140%"><feGaussianBlur stdDeviation="14"/></filter><filter id="fog" x="-40%" y="-40%" width="180%" height="180%"><feGaussianBlur stdDeviation="40"/></filter></defs><linearGradient id="sky" x1="0" y1="0" x2="0" y2="1"><stop offset="0" stop-color="#3a1a5e"/><stop offset="0.55" stop-color="#7b3f8f"/><stop offset="1" stop-color="#f7a8c4"/></linearGradient><rect width="1200" height="1500" fill="url(#sky)"/><radialGradient id="g300320" cx="0.5" cy="0.5" r="0.5"><stop offset="0" stop-color="#fff2fb" stop-opacity="0.5"/><stop offset="1" stop-color="#fff2fb" stop-opacity="0"/></radialGradient><circle cx="300.0" cy="320.0" r="210.0" fill="url(#g300320)"/><circle cx="300.0" cy="320.0" r="70.0" fill="#fff2fb"/><circle cx="285.2" cy="290.7" r="11.1" fill="#d7dcf0" opacity="0.6"/><circle cx="264.1" cy="323.0" r="8.7" fill="#d7dcf0" opacity="0.6"/><circle cx="262.9" cy="320.6" r="5.9" fill="#d7dcf0" opacity="0.6"/><circle cx="294.4" cy="283.9" r="6.4" fill="#d7dcf0" opacity="0.6"/><circle cx="293.7" cy="347.5" r="6.6" fill="#d7dcf0" opacity="0.6"/><g><circle cx="388.5" cy="651.0" r="0.6" fill="#ffe9ff" opacity="0.99"/><circle cx="986.6" cy="1049.0" r="1.1" fill="#ffe9ff" opacity="0.44"/><circle cx="65.7" cy="203.5" r="0.6" fill="#ffe9ff" opacity="0.78"/><circle cx="438.8" cy="856.3" r="2.0" fill="#ffe9ff" opacity="0.54"/><circle cx="200.2" cy="365.1" r="0.7" fill="#ffe9ff" opacity="0.75"/><circle cx="227.7" cy="156.2" r="2.2" fill="#ffe9ff" opacity="0.61"/><circle cx="1135.3" cy="1029.3" r="1.8" fill="#ffe9ff" opacity="0.47"/><circle cx="177.3" cy="258.9" r="1.9" fill="#ffe9ff" opacity="0.66"/><circle cx="357.5" cy="18.3" r="1.2" fill="#ffe9ff" opacity="0.57"/><circle cx="83.2" cy="262.0" r="1.1" fill="#ffe9ff" opacity="0.59"/><circle cx="592.7" cy="593.9" r="2.1" fill="#ffe9ff" opacity="0.51"/><circle cx="113.9" cy="318.3" r="1.0" fill="#ffe9ff" opacity="0.70"/><circle cx="571.5" cy="337.1" r="0.8" fill="#ffe9ff" opacity="0.83"/><circle cx="748.8" cy="654.4" r="1.9" fill="#ffe9ff" opacity="0.90"/><circle cx="42.1" cy="198.2" r="1.4" fill="#ffe9ff" opacity="0.79"/><circle cx="605.0" cy="530.3" r="1.2" fill="#ffe9ff" opacity="0.47"/><circle cx="1048.8" cy="1032.0" r="1.5" fill="#ffe9ff" opacity="0.63"/><circle cx="154.1" cy="631.3" r="1.0" fill="#ffe9ff" opacity="0.74"/><circle cx="334.2" cy="490.6" r="2.2" fill="#ffe9ff" opacity="0.52"/><circle cx="641.9" cy="334.6" r="1.5" fill="#ffe9ff" opacity="0.91"/><circle cx="590.9" cy="1012.9" r="1.3" fill="#ffe9ff" opacity="0.62"/><circle cx="774.0" cy="526.2" r="1.8" fill="#ffe9ff" opacity="0.50"/><circle cx="16.3" cy="443.7" r="0.7" fill="#ffe9ff" opacity="0.47"/><circle cx="717.5" cy="724.8" r="2.2" fill="#ffe9ff" opacity="0.77"/><circle cx="666.4" cy="361.5" r="1.5" fill="#ffe9ff" opacity="0.50"/><circle cx="123.0" cy="561.6" r="1.7" fill="#ffe9ff" opacity="0.52"/><circle cx="887.6" cy="556.4" r="1.2" fill="#ffe9ff" opacity="0.90"/><circle cx="26.5" cy="282.2" r="1.2" fill="#ffe9ff" opacity="0.77"/><circle cx="303.2" cy="1031.5" r="0.8" fill="#ffe9ff" opacity="0.62"/><circle cx="563.6" cy="781.6" r="1.1" fill="#ffe9ff" opacity="0.41"/><circle cx="893.0" cy="826.5" r="1.6" fill="#ffe9ff" opacity="0.93"/><circle cx="473.9" cy="471.6" r="1.5" fill="#ffe9ff" opacity="0.39"/><circle cx="993.4" cy="64.9" r="0.7" fill="#ffe9ff" opacity="0.94"/><circle cx="542.2" cy="153.3" r="2.2" fill="#ffe9ff" opacity="0.43"/><circle cx="544.0" cy="15.2" r="0.9" fill="#ffe9ff" opacity="0.64"/><circle cx="841.0" cy="135.8" r="2.0" fill="#ffe9ff" opacity="0.75"/><circle cx="807.2" cy="1013.4" r="1.5" fill="#ffe9ff" opacity="0.30"/><circle cx="67.4" cy="914.7" r="0.8" fill="#ffe9ff" opacity="0.49"/><circle cx="783.6" cy="773.9" r="2.0" fill="#ffe9ff" opacity="0.69"/><circle cx="392.2" cy="946.5" r="0.6" fill="#ffe9ff" opacity="0.48"/><circle cx="1184.5" cy="197.6" r="2.1" fill="#ffe9ff" opacity="0.72"/><circle cx="758.6" cy="664.7" r="1.4" fill="#ffe9ff" opacity="0.89"/><circle cx="71.4" cy="299.9" r="2.0" fill="#ffe9ff" opacity="0.82"/><circle cx="770.0" cy="724.2" r="1.1" fill="#ffe9ff" opacity="0.72"/><circle cx="684.1" cy="855.1" r="1.0" fill="#ffe9ff" opacity="0.50"/><circle cx="384.9" cy="216.8" r="1.9" fill="#ffe9ff" opacity="0.64"/><circle cx="81.2" cy="937.1" r="1.5" fill="#ffe9ff" opacity="0.88"/><circle cx="893.3" cy="418.0" r="1.2" fill="#ffe9ff" opacity="0.68"/><circle cx="1128.6" cy="841.8" r="2.3" fill="#ffe9ff" opacity="0.70"/><circle cx="653.9" cy="315.4" r="1.6" fill="#ffe9ff" opacity="0.69"/><circle cx="914.6" cy="879.6" r="2.2" fill="#ffe9ff" opacity="0.48"/><circle cx="776.3" cy="69.6" r="1.1" fill="#ffe9ff" opacity="0.72"/><circle cx="1.4" cy="906.6" r="1.6" fill="#ffe9ff" opacity="0.47"/><circle cx="506.1" cy="790.2" r="0.8" fill="#ffe9ff" opacity="0.94"/><circle cx="789.1" cy="555.3" r="0.9" fill="#ffe9ff" opacity="0.74"/><circle cx="266.4" cy="73.0" r="2.1" fill="#ffe9ff" opacity="0.55"/><circle cx="924.9" cy="508.2" r="1.6" fill="#ffe9ff" opacity="0.57"/><circle cx="983.4" cy="819.1" r="1.3" fill="#ffe9ff" opacity="0.69"/><circle cx="330.1" cy="955.8" r="1.4" fill="#ffe9ff" opacity="0.72"/><circle cx="689.6" cy="103.0" r="1.2" fill="#ffe9ff" opacity="0.84"/><circle cx="706.9" cy="257.4" r="0.9" fill="#ffe9ff" opacity="0.91"/><circle cx="974.7" cy="928.9" r="0.9" fill="#ffe9ff" opacity="0.68"/><circle cx="525.7" cy="447.0" r="1.2" fill="#ffe9ff" opacity="0.75"/><circle cx="687.3" cy="77.1" r="0.7" fill="#ffe9ff" opacity="0.42"/><circle cx="972.4" cy="904.0" r="1.8" fill="#ffe9ff" opacity="0.56"/><circle cx="638.1" cy="672.7" r="0.9" fill="#ffe9ff" opacity="0.97"/><circle cx="1100.8" cy="37.2" r="1.1" fill="#ffe9ff" opacity="0.49"/><circle cx="1032.1" cy="954.4" r="2.3" fill="#ffe9ff" opacity="0.60"/><circle cx="652.9" cy="207.2" r="0.7" fill="#ffe9ff" opacity="0.75"/><circle cx="657.0" cy="921.0" r="2.3" fill="#ffe9ff" opacity="0.68"/><circle cx="66.9" cy="598.7" r="2.3" fill="#ffe9ff" opacity="0.63"/><circle cx="774.0" cy="539.6" r="1.4" fill="#ffe9ff" opacity="0.60"/><circle cx="278.9" cy="469.7" r="2.0" fill="#ffe9ff" opacity="0.82"/><circle cx="37.7" cy="227.6" r="0.7" fill="#ffe9ff" opacity="0.36"/><circle cx="10.9" cy="763.0" r="1.0" fill="#ffe9ff" opacity="0.76"/><circle cx="997.1" cy="162.7" r="1.0" fill="#ffe9ff" opacity="0.38"/><circle cx="158.7" cy="1030.7" r="2.2" fill="#ffe9ff" opacity="0.98"/><circle cx="221.2" cy="446.6" r="1.6" fill="#ffe9ff" opacity="0.35"/><circle cx="776.3" cy="917.4" r="2.3" fill="#ffe9ff" opacity="0.91"/><circle cx="364.7" cy="841.2" r="1.0" fill="#ffe9ff" opacity="0.62"/><circle cx="87.9" cy="100.3" r="0.7" fill="#ffe9ff" opacity="0.55"/><circle cx="892.5" cy="586.9" r="0.9" fill="#ffe9ff" opacity="0.50"/><circle cx="435.3" cy="121.7" r="0.9" fill="#ffe9ff" opacity="0.96"/><circle cx="937.5" cy="716.0" r="0.8" fill="#ffe9ff" opacity="0.66"/><circle cx="946.2" cy="861.7" r="1.0" fill="#ffe9ff" opacity="0.57"/><circle cx="732.3" cy="158.4" r="1.7" fill="#ffe9ff" opacity="0.35"/><circle cx="979.4" cy="234.3" r="1.3" fill="#ffe9ff" opacity="0.79"/><circle cx="718.3" cy="1038.1" r="1.8" fill="#ffe9ff" opacity="0.49"/><circle cx="168.0" cy="817.1" r="1.9" fill="#ffe9ff" opacity="0.44"/><circle cx="982.6" cy="396.9" r="0.9" fill="#ffe9ff" opacity="0.41"/></g><g fill="#f7c9e0" opacity="0.4" filter="url(#soft)"><ellipse cx="52.0" cy="393.8" rx="68.6" ry="48.0"/><ellipse cx="126.5" cy="358.0" rx="89.5" ry="62.6"/><ellipse cx="216.0" cy="369.9" rx="80.5" ry="56.4"/><ellipse cx="298.1" cy="396.8" rx="65.6" ry="45.9"/><ellipse cx="171.3" cy="411.7" rx="104.4" ry="73.1"/><ellipse cx="367.8" cy="378.8" rx="46.0" ry="32.2"/><ellipse cx="417.8" cy="354.8" rx="60.0" ry="42.0"/><ellipse cx="477.7" cy="362.8" rx="54.0" ry="37.8"/><ellipse cx="532.7" cy="380.8" rx="44.0" ry="30.8"/><ellipse cx="447.7" cy="390.8" rx="70.0" ry="49.0"/><ellipse cx="766.7" cy="408.9" rx="54.2" ry="38.0"/><ellipse cx="825.6" cy="380.6" rx="70.7" ry="49.5"/><ellipse cx="896.3" cy="390.0" rx="63.7" ry="44.6"/><ellipse cx="961.2" cy="411.2" rx="51.9" ry="36.3"/><ellipse cx="861.0" cy="423.0" rx="82.5" ry="57.8"/></g><g fill="#241033"><rect x="440.0" y="900" width="320" height="600"/><rect x="350.0" y="820" width="90" height="680"/><path d="M336.0,820 L395.0,700 L454.0,820 Z"/><line x1="395.0" y1="700" x2="395.0" y2="660" stroke="#241033" stroke-width="4"/><path d="M395.0,662 L440.0,672 L395.0,684 Z" fill="#E50914"/><rect x="440.0" y="820" width="90" height="680"/><path d="M426.0,820 L485.0,700 L544.0,820 Z"/><line x1="485.0" y1="700" x2="485.0" y2="660" stroke="#241033" stroke-width="4"/><path d="M485.0,662 L530.0,672 L485.0,684 Z" fill="#E50914"/><rect x="660.0" y="820" width="90" height="680"/><path d="M646.0,820 L705.0,700 L764.0,820 Z"/><line x1="705.0" y1="700" x2="705.0" y2="660" stroke="#241033" stroke-width="4"/><path d="M705.0,662 L750.0,672 L705.0,684 Z" fill="#E50914"/><rect x="790.0" y="820" width="90" height="680"/><path d="M776.0,820 L835.0,700 L894.0,820 Z"/><line x1="835.0" y1="700" x2="835.0" y2="660" stroke="#241033" stroke-width="4"/><path d="M835.0,662 L880.0,672 L835.0,684 Z" fill="#E50914"/><path d="M560.0,1500 L560.0,1180 Q600.0,1120 640.0,1180 L640.0,1500 Z" fill="#050208"/></g><g fill="#ffd27a" opacity="0.9"><rect x="586.7" y="1192.7" width="10" height="16" rx="2"/><rect x="718.8" y="1156.9" width="10" height="16" rx="2"/><rect x="602.2" y="1203.2" width="10" height="16" rx="2"/><rect x="511.7" y="1174.5" width="10" height="16" rx="2"/><rect x="636.4" y="1281.3" width="10" height="16" rx="2"/><rect x="486.4" y="1095.3" width="10" height="16" rx="2"/><rect x="485.4" y="1287.7" width="10" height="16" rx="2"/><rect x="654.2" y="995.9" width="10" height="16" rx="2"/><rect x="735.0" y="1346.6" width="10" height="16" rx="2"/><rect x="643.1" y="1213.9" width="10" height="16" rx="2"/></g><g><path d="M0,-12 L3,-3 L12,0 L3,3 L0,12 L-3,3 L-12,0 L-3,-3 Z" fill="#fff6c8" opacity="0.56" transform="translate(335.8,602.6) scale(1.23)"/><path d="M0,-12 L3,-3 L12,0 L3,3 L0,12 L-3,3 L-12,0 L-3,-3 Z" fill="#fff6c8" opacity="0.46" transform="translate(88.4,485.1) scale(1.15)"/><path d="M0,-12 L3,-3 L12,0 L3,3 L0,12 L-3,3 L-12,0 L-3,-3 Z" fill="#fff6c8" opacity="0.71" transform="translate(306.1,935.8) scale(0.53)"/><path d="M0,-12 L3,-3 L12,0 L3,3 L0,12 L-3,3 L-12,0 L-3,-3 Z" fill="#ffe9ff" opacity="0.92" transform="translate(597.9,1189.2) scale(0.73)"/><path d="M0,-12 L3,-3 L12,0 L3,3 L0,12 L-3,3 L-12,0 L-3,-3 Z" fill="#ffe9ff" opacity="0.66" transform="translate(682.4,243.0) scale(1.64)"/><path d="M0,-12 L3,-3 L12,0 L3,3 L0,12 L-3,3 L-12,0 L-3,-3 Z" fill="#ffe9ff" opacity="0.41" transform="translate(957.6,1061.3) scale(1.74)"/><path d="M0,-12 L3,-3 L12,0 L3,3 L0,12 L-3,3 L-12,0 L-3,-3 Z" fill="#ffd54a" opacity="0.43" transform="translate(1041.5,965.5) scale(1.71)"/><path d="M0,-12 L3,-3 L12,0 L3,3 L0,12 L-3,3 L-12,0 L-3,-3 Z" fill="#ffd54a" opacity="0.64" transform="translate(914.6,284.3) scale(0.72)"/><path d="M0,-12 L3,-3 L12,0 L3,3 L0,12 L-3,3 L-12,0 L-3,-3 Z" fill="#ffe9ff" opacity="0.47" transform="translate(99.3,815.4) scale(1.35)"/><path d="M0,-12 L3,-3 L12,0 L3,3 L0,12 L-3,3 L-12,0 L-3,-3 Z" fill="#fff6c8" opacity="0.85" transform="translate(171.1,554.7) scale(1.50)"/><path d="M0,-12 L3,-3 L12,0 L3,3 L0,12 L-3,3 L-12,0 L-3,-3 Z" fill="#ffe9ff" opacity="0.63" transform="translate(672.7,419.5) scale(0.90)"/><path d="M0,-12 L3,-3 L12,0 L3,3 L0,12 L-3,3 L-12,0 L-3,-3 Z" fill="#ffd54a" opacity="0.94" transform="translate(963.9,471.3) scale(0.58)"/><path d="M0,-12 L3,-3 L12,0 L3,3 L0,12 L-3,3 L-12,0 L-3,-3 Z" fill="#ffe9ff" opacity="0.48" transform="translate(434.1,201.2) scale(1.51)"/><path d="M0,-12 L3,-3 L12,0 L3,3 L0,12 L-3,3 L-12,0 L-3,-3 Z" fill="#fff6c8" opacity="0.87" transform="translate(1108.8,975.2) scale(1.21)"/><path d="M0,-12 L3,-3 L12,0 L3,3 L0,12 L-3,3 L-12,0 L-3,-3 Z" fill="#ffe9ff" opacity="0.81" transform="translate(494.7,854.6) scale(0.61)"/><path d="M0,-12 L3,-3 L12,0 L3,3 L0,12 L-3,3 L-12,0 L-3,-3 Z" fill="#ffd54a" opacity="0.66" transform="translate(114.5,1119.7) scale(1.67)"/><path d="M0,-12 L3,-3 L12,0 L3,3 L0,12 L-3,3 L-12,0 L-3,-3 Z" fill="#ffe9ff" opacity="0.46" transform="translate(1192.1,769.2) scale(0.92)"/><path d="M0,-12 L3,-3 L12,0 L3,3 L0,12 L-3,3 L-12,0 L-3,-3 Z" fill="#ffe9ff" opacity="0.63" transform="translate(867.1,237.4) scale(1.40)"/><path d="M0,-12 L3,-3 L12,0 L3,3 L0,12 L-3,3 L-12,0 L-3,-3 Z" fill="#ffd54a" opacity="0.76" transform="translate(815.9,708.4) scale(1.30)"/><path d="M0,-12 L3,-3 L12,0 L3,3 L0,12 L-3,3 L-12,0 L-3,-3 Z" fill="#ffe9ff" opacity="0.69" transform="translate(809.7,20.8) scale(1.65)"/></g><radialGradient id="vig" cx="0.5" cy="0.42" r="0.75"><stop offset="0.55" stop-color="#000000" stop-opacity="0"/><stop offset="1" stop-color="#000000" stop-opacity="0.55"/></radialGradient><rect width="1200" height="1500" fill="url(#vig)"/><linearGradient id="btm" x1="0" y1="0" x2="0" y2="1"><stop offset="0.65" stop-color="#000" stop-opacity="0"/><stop offset="1" stop-color="#000" stop-opacity="0.5"/></linearGradient><rect width="1200" height="1500" fill="url(#btm)"/></svg>