<svg xmlns="http://www.w3.org/2000/svg" viewBox="0 0 1200 1500" preserveAspectRatio="xMidYMid slice"><defs><filter id="soft" x="-20%" y="-20%" width="140%" height="140%"><feGaussianBlur stdDeviation="14"/></filter><filter id="fog" x="-40%" y="-40%" width="180%" height="180%"><feGaussianBlur stdDeviation="40"/></filter></defs><linearGradient id="sky" x1="0" y1="0" x2="0" y2="1"><stop offset="0" stop-color="#0c1330"/><stop offset="0.55" stop-color="#1c2b52"/><stop offset="1" stop-color="#3a4d7a"/></linearGradient><rect width="1200" height="1500" fill="url(#sky)"/><radialGradient id="g950260" cx="0.5" cy="0.5" r="0.5"><stop offset="0" stop-color="#f4f6ff" stop-opacity="0.5"/><stop offset="1" stop-color="#f4f6ff" stop-opacity="0"/></radialGradient><circle cx="950.0" cy="260.0" r="180.0" fill="url(#g950260)"/><circle cx="950.0" cy="260.0" r="60.0" fill="#f4f6ff"/><circle cx="937.3" cy="234.9" r="9.5" fill="#d7dcf0" opacity="0.6"/><circle cx="919.2" cy="262.6" r="7.4" fill="#d7dcf0" opacity="0.6"/><circle cx="918.2" cy="260.5" r="5.1" fill="#d7dcf0" opacity="0.6"/><circle cx="945.2" cy="229.0" r="5.5" fill="#d7dcf0" opacity="0.6"/><circle cx="944.6" cy="283.5" r="5.7" fill="#d7dcf0" opacity="0.6"/><g><circle cx="100.2" cy="181.0" r="1.8" fill="#dfe9ff" opacity="0.41"/><circle cx="1139.1" cy="886.5" r="1.9" fill="#dfe9ff" opacity="0.63"/><circle cx="992.4" cy="255.9" r="1.7" fill="#dfe9ff" opacity="0.56"/><circle cx="588.5" cy="1012.1" r="1.0" fill="#dfe9ff" opacity="0.83"/><circle cx="919.7" cy="91.8" r="2.4" fill="#dfe9ff" opacity="0.61"/><circle cx="652.2" cy="317.1" r="1.6" fill="#dfe9ff" opacity="0.97"/><circle cx="418.9" cy="769.7" r="2.0" fill="#dfe9ff" opacity="0.91"/><circle cx="829.1" cy="453.6" r="1.2" fill="#dfe9ff" opacity="0.57"/><circle cx="448.5" cy="930.3" r="2.1" fill="#dfe9ff" opacity="0.45"/><circle cx="318.1" cy="46.4" r="2.3" fill="#dfe9ff" opacity="0.34"/><circle cx="469.1" cy="192.8" r="1.0" fill="#dfe9ff" opacity="0.96"/><circle cx="523.0" cy="665.4" r="2.1" fill="#dfe9ff" opacity="0.67"/><circle cx="983.4" cy="809.4" r="1.7" fill="#dfe9ff" opacity="0.69"/><circle cx="1064.5" cy="709.5" r="1.2" fill="#dfe9ff" opacity="0.93"/><circle cx="985.5" cy="999.0" r="1.8" fill="#dfe9ff" opacity="0.61"/><circle cx="424.0" cy="655.0" r="0.9" fill="#dfe9ff" opacity="0.81"/><circle cx="849.0" cy="922.8" r="1.0" fill="#dfe9ff" opacity="0.71"/><circle cx="660.7" cy="628.3" r="1.3" fill="#dfe9ff" opacity="0.31"/><circle cx="1111.7" cy="949.4" r="0.9" fill="#dfe9ff" opacity="0.94"/><circle cx="715.2" cy="8.6" r="1.7" fill="#dfe9ff" opacity="0.51"/><circle cx="447.6" cy="111.1" r="2.1" fill="#dfe9ff" opacity="0.75"/><circle cx="278.4" cy="597.3" r="1.4" fill="#dfe9ff" opacity="0.99"/><circle cx="251.2" cy="718.4" r="2.0" fill="#dfe9ff" opacity="0.92"/><circle cx="321.5" cy="909.9" r="0.9" fill="#dfe9ff" opacity="0.41"/><circle cx="741.0" cy="946.6" r="1.3" fill="#dfe9ff" opacity="0.42"/><circle cx="118.6" cy="432.5" r="2.2" fill="#dfe9ff" opacity="0.74"/><circle cx="580.0" cy="551.8" r="1.0" fill="#dfe9ff" opacity="0.46"/><circle cx="317.4" cy="770.2" r="1.8" fill="#dfe9ff" opacity="0.34"/><circle cx="677.9" cy="1006.8" r="0.7" fill="#dfe9ff" opacity="0.41"/><circle cx="1162.4" cy="546.6" r="2.2" fill="#dfe9ff" opacity="0.88"/><circle cx="563.5" cy="1040.1" r="1.1" fill="#dfe9ff" opacity="0.52"/><circle cx="270.4" cy="792.1" r="0.8" fill="#dfe9ff" opacity="0.61"/><circle cx="928.6" cy="751.9" r="1.2" fill="#dfe9ff" opacity="0.41"/><circle cx="987.8" cy="887.8" r="1.8" fill="#dfe9ff" opacity="0.72"/><circle cx="124.3" cy="357.9" r="1.1" fill="#dfe9ff" opacity="0.65"/><circle cx="335.9" cy="641.4" r="1.4" fill="#dfe9ff" opacity="0.98"/><circle cx="311.0" cy="40.2" r="0.9" fill="#dfe9ff" opacity="0.43"/><circle cx="823.0" cy="580.6" r="1.6" fill="#dfe9ff" opacity="0.82"/><circle cx="842.8" cy="205.5" r="0.9" fill="#dfe9ff" opacity="0.91"/><circle cx="873.3" cy="417.2" r="1.9" fill="#dfe9ff" opacity="0.79"/><circle cx="100.2" cy="467.9" r="2.0" fill="#dfe9ff" opacity="0.88"/><circle cx="819.0" cy="348.3" r="2.2" fill="#dfe9ff" opacity="0.69"/><circle cx="1195.2" cy="1004.0" r="2.2" fill="#dfe9ff" opacity="0.44"/><circle cx="1137.2" cy="278.3" r="1.0" fill="#dfe9ff" opacity="0.67"/><circle cx="808.7" cy="286.9" r="2.4" fill="#dfe9ff" opacity="0.35"/><circle cx="993.8" cy="757.9" r="2.0" fill="#dfe9ff" opacity="0.62"/><circle cx="1080.8" cy="337.1" r="1.5" fill="#dfe9ff" opacity="0.88"/><circle cx="1042.6" cy="61.0" r="1.7" fill="#dfe9ff" opacity="0.93"/><circle cx="386.5" cy="154.4" r="1.7" fill="#dfe9ff" opacity="0.88"/><circle cx="258.5" cy="814.4" r="0.9" fill="#dfe9ff" opacity="0.99"/><circle cx="122.6" cy="142.9" r="2.1" fill="#dfe9ff" opacity="0.58"/><circle cx="84.5" cy="280.9" r="2.2" fill="#dfe9ff" opacity="0.90"/><circle cx="390.5" cy="34.6" r="1.8" fill="#dfe9ff" opacity="0.39"/><circle cx="858.3" cy="539.0" r="2.2" fill="#dfe9ff" opacity="0.35"/><circle cx="1072.1" cy="72.8" r="1.7" fill="#dfe9ff" opacity="0.55"/><circle cx="663.6" cy="252.1" r="2.3" fill="#dfe9ff" opacity="0.66"/><circle cx="786.6" cy="498.8" r="2.0" fill="#dfe9ff" opacity="0.91"/><circle cx="100.9" cy="1012.0" r="1.1" fill="#dfe9ff" opacity="0.73"/><circle cx="228.1" cy="358.4" r="2.2" fill="#dfe9ff" opacity="0.91"/><circle cx="1093.2" cy="661.7" r="1.4" fill="#dfe9ff" opacity="0.62"/><circle cx="426.1" cy="710.6" r="1.3" fill="#dfe9ff" opacity="0.40"/><circle cx="787.7" cy="377.0" r="1.7" fill="#dfe9ff" opacity="0.81"/><circle cx="1164.8" cy="116.1" r="1.6" fill="#dfe9ff" opacity="0.92"/><circle cx="43.8" cy="568.4" r="1.1" fill="#dfe9ff" opacity="0.72"/><circle cx="922.9" cy="602.4" r="1.1" fill="#dfe9ff" opacity="0.59"/><circle cx="264.2" cy="886.6" r="1.3" fill="#dfe9ff" opacity="0.46"/><circle cx="1102.9" cy="593.2" r="1.6" fill="#dfe9ff" opacity="0.98"/><circle cx="746.0" cy="845.2" r="1.2" fill="#dfe9ff" opacity="0.66"/><circle cx="341.5" cy="797.9" r="1.1" fill="#dfe9ff" opacity="0.51"/><circle cx="211.3" cy="950.0" r="1.3" fill="#dfe9ff" opacity="0.91"/><circle cx="628.9" cy="191.7" r="1.9" fill="#dfe9ff" opacity="0.89"/><circle cx="540.1" cy="1000.4" r="1.8" fill="#dfe9ff" opacity="0.64"/><circle cx="990.4" cy="724.8" r="2.3" fill="#dfe9ff" opacity="0.44"/><circle cx="1127.6" cy="866.2" r="1.3" fill="#dfe9ff" opacity="0.61"/><circle cx="627.4" cy="104.4" r="1.4" fill="#dfe9ff" opacity="0.98"/><circle cx="897.5" cy="702.7" r="0.9" fill="#dfe9ff" opacity="0.89"/><circle cx="295.8" cy="981.9" r="1.4" fill="#dfe9ff" opacity="0.44"/><circle cx="666.6" cy="45.4" r="2.1" fill="#dfe9ff" opacity="0.75"/><circle cx="650.8" cy="747.5" r="2.0" fill="#dfe9ff" opacity="0.30"/><circle cx="646.9" cy="856.4" r="2.1" fill="#dfe9ff" opacity="0.67"/><circle cx="1174.3" cy="410.2" r="1.9" fill="#dfe9ff" opacity="0.86"/><circle cx="473.9" cy="993.8" r="2.1" fill="#dfe9ff" opacity="0.93"/><circle cx="828.1" cy="70.3" r="2.3" fill="#dfe9ff" opacity="0.84"/><circle cx="894.4" cy="441.9" r="0.7" fill="#dfe9ff" opacity="0.93"/><circle cx="1136.9" cy="467.5" r="1.4" fill="#dfe9ff" opacity="0.68"/><circle cx="136.8" cy="59.8" r="1.9" fill="#dfe9ff" opacity="0.50"/><circle cx="41.2" cy="702.6" r="0.9" fill="#dfe9ff" opacity="0.96"/><circle cx="1152.0" cy="123.5" r="1.7" fill="#dfe9ff" opacity="0.84"/><circle cx="1056.8" cy="293.2" r="1.7" fill="#dfe9ff" opacity="0.75"/><circle cx="29.7" cy="412.5" r="0.6" fill="#dfe9ff" opacity="0.97"/></g><g fill="#0a1226"><rect x="-20.0" y="1036.6" width="89.5" height="463.4"/><rect x="77.4" y="896.4" width="65.1" height="603.6"/><rect x="154.1" y="1027.8" width="73.0" height="472.2"/><rect x="236.3" y="955.9" width="92.6" height="544.1"/><rect x="342.8" y="1232.0" width="118.2" height="268.0"/><rect x="475.8" y="1064.5" width="99.5" height="435.5"/><rect x="583.3" y="1184.0" width="84.4" height="316.0"/><rect x="677.4" y="1125.8" width="76.5" height="374.2"/><rect x="769.8" y="1134.0" width="117.0" height="366.0"/><rect x="895.8" y="882.5" width="86.6" height="617.5"/><rect x="995.5" y="1055.7" width="82.0" height="444.3"/><rect x="1092.6" y="1165.8" width="107.1" height="334.2"/><rect x="1206.1" y="1085.5" width="78.4" height="414.5"/></g><g fill="#ffd27a"><rect x="18" y="1128" width="9" height="12" opacity="0.90"/><rect x="44" y="1162" width="9" height="12" opacity="0.92"/><rect x="44" y="1196" width="9" height="12" opacity="0.75"/><rect x="18" y="1230" width="9" height="12" opacity="0.65"/><rect x="44" y="1298" width="9" height="12" opacity="0.62"/><rect x="-8" y="1332" width="9" height="12" opacity="0.94"/><rect x="44" y="1332" width="9" height="12" opacity="0.51"/><rect x="-8" y="1366" width="9" height="12" opacity="0.76"/><rect x="18" y="1366" width="9" height="12" opacity="0.40"/><rect x="-8" y="1400" width="9" height="12" opacity="0.57"/><rect x="-8" y="1468" width="9" height="12" opacity="0.63"/><rect x="89" y="954" width="9" height="12" opacity="0.58"/><rect x="115" y="954" width="9" height="12" opacity="0.48"/><rect x="89" y="988" width="9" height="12" opacity="0.74"/><rect x="115" y="1022" width="9" height="12" opacity="0.53"/><rect x="115" y="1056" width="9" height="12" opacity="0.44"/><rect x="115" y="1260" width="9" height="12" opacity="0.71"/><rect x="89" y="1294" width="9" height="12" opacity="0.87"/><rect x="115" y="1294" width="9" height="12" opacity="0.90"/><rect x="89" y="1328" width="9" height="12" opacity="0.68"/><rect x="89" y="1362" width="9" height="12" opacity="0.83"/><rect x="115" y="1396" width="9" height="12" opacity="0.95"/><rect x="89" y="1464" width="9" height="12" opacity="0.67"/><rect x="166" y="1085" width="9" height="12" opacity="0.45"/><rect x="192" y="1085" width="9" height="12" opacity="0.40"/><rect x="166" y="1187" width="9" height="12" opacity="0.68"/><rect x="192" y="1187" width="9" height="12" opacity="0.89"/><rect x="166" y="1221" width="9" height="12" opacity="0.85"/><rect x="192" y="1221" width="9" height="12" opacity="0.49"/><rect x="166" y="1255" width="9" height="12" opacity="0.59"/><rect x="166" y="1289" width="9" height="12" opacity="0.61"/><rect x="192" y="1289" width="9" height="12" opacity="0.71"/><rect x="166" y="1323" width="9" height="12" opacity="0.88"/><rect x="192" y="1323" width="9" height="12" opacity="0.78"/><rect x="166" y="1357" width="9" height="12" opacity="0.56"/><rect x="192" y="1357" width="9" height="12" opacity="0.59"/><rect x="192" y="1391" width="9" height="12" opacity="0.40"/><rect x="192" y="1425" width="9" height="12" opacity="0.96"/><rect x="248" y="979" width="9" height="12" opacity="0.68"/><rect x="274" y="979" width="9" height="12" opacity="0.78"/><rect x="300" y="979" width="9" height="12" opacity="0.92"/><rect x="248" y="1013" width="9" height="12" opacity="0.91"/><rect x="300" y="1047" width="9" height="12" opacity="0.69"/><rect x="274" y="1081" width="9" height="12" opacity="0.47"/><rect x="300" y="1081" width="9" height="12" opacity="0.89"/><rect x="248" y="1115" width="9" height="12" opacity="0.97"/><rect x="274" y="1115" width="9" height="12" opacity="0.76"/><rect x="300" y="1115" width="9" height="12" opacity="0.44"/><rect x="300" y="1149" width="9" height="12" opacity="0.61"/><rect x="248" y="1183" width="9" height="12" opacity="0.84"/><rect x="248" y="1217" width="9" height="12" opacity="0.57"/><rect x="248" y="1251" width="9" height="12" opacity="0.85"/><rect x="274" y="1251" width="9" height="12" opacity="0.58"/><rect x="248" y="1285" width="9" height="12" opacity="0.68"/><rect x="274" y="1285" width="9" height="12" opacity="0.50"/><rect x="300" y="1285" width="9" height="12" opacity="0.85"/><rect x="274" y="1353" width="9" height="12" opacity="0.86"/><rect x="274" y="1387" width="9" height="12" opacity="0.77"/><rect x="248" y="1421" width="9" height="12" opacity="0.75"/><rect x="380" y="1256" width="9" height="12" opacity="0.50"/><rect x="354" y="1324" width="9" height="12" opacity="0.42"/><rect x="380" y="1324" width="9" height="12" opacity="0.58"/><rect x="432" y="1324" width="9" height="12" opacity="0.64"/><rect x="380" y="1358" width="9" height="12" opacity="0.51"/><rect x="406" y="1358" width="9" height="12" opacity="0.59"/><rect x="432" y="1392" width="9" height="12" opacity="0.72"/><rect x="380" y="1426" width="9" height="12" opacity="0.67"/><rect x="380" y="1460" width="9" height="12" opacity="0.55"/><rect x="539" y="1088" width="9" height="12" opacity="0.61"/><rect x="487" y="1122" width="9" height="12" opacity="0.67"/><rect x="487" y="1156" width="9" height="12" opacity="0.89"/><rect x="513" y="1156" width="9" height="12" opacity="0.56"/><rect x="513" y="1190" width="9" height="12" opacity="0.61"/><rect x="513" y="1224" width="9" height="12" opacity="0.46"/><rect x="539" y="1224" width="9" height="12" opacity="0.64"/><rect x="513" y="1258" width="9" height="12" opacity="0.91"/><rect x="487" y="1292" width="9" height="12" opacity="0.57"/><rect x="539" y="1292" width="9" height="12" opacity="0.65"/><rect x="513" y="1326" width="9" height="12" opacity="0.68"/><rect x="539" y="1326" width="9" height="12" opacity="0.72"/><rect x="539" y="1360" width="9" height="12" opacity="0.85"/><rect x="487" y="1428" width="9" height="12" opacity="0.62"/><rect x="513" y="1428" width="9" height="12" opacity="0.75"/><rect x="539" y="1428" width="9" height="12" opacity="0.56"/><rect x="513" y="1462" width="9" height="12" opacity="0.73"/><rect x="595" y="1207" width="9" height="12" opacity="0.48"/><rect x="621" y="1207" width="9" height="12" opacity="0.79"/><rect x="647" y="1207" width="9" height="12" opacity="0.53"/><rect x="595" y="1241" width="9" height="12" opacity="0.99"/><rect x="621" y="1241" width="9" height="12" opacity="0.53"/><rect x="647" y="1241" width="9" height="12" opacity="0.59"/><rect x="621" y="1275" width="9" height="12" opacity="0.70"/><rect x="647" y="1275" width="9" height="12" opacity="0.92"/><rect x="595" y="1309" width="9" height="12" opacity="0.68"/><rect x="621" y="1309" width="9" height="12" opacity="0.56"/><rect x="647" y="1309" width="9" height="12" opacity="0.62"/><rect x="595" y="1343" width="9" height="12" opacity="0.69"/><rect x="621" y="1343" width="9" height="12" opacity="0.63"/><rect x="621" y="1377" width="9" height="12" opacity="0.72"/><rect x="647" y="1377" width="9" height="12" opacity="0.73"/><rect x="647" y="1411" width="9" height="12" opacity="0.47"/><rect x="621" y="1445" width="9" height="12" opacity="0.64"/><rect x="647" y="1445" width="9" height="12" opacity="0.94"/><rect x="595" y="1479" width="9" height="12" opacity="0.42"/><rect x="621" y="1479" width="9" height="12" opacity="0.66"/><rect x="689" y="1149" width="9" height="12" opacity="0.99"/><rect x="689" y="1183" width="9" height="12" opacity="0.45"/><rect x="715" y="1183" width="9" height="12" opacity="0.91"/><rect x="689" y="1217" width="9" height="12" opacity="0.81"/><rect x="715" y="1251" width="9" height="12" opacity="0.71"/><rect x="689" y="1285" width="9" height="12" opacity="0.74"/><rect x="715" y="1285" width="9" height="12" opacity="0.83"/><rect x="689" y="1319" width="9" height="12" opacity="0.75"/><rect x="689" y="1353" width="9" height="12" opacity="0.74"/><rect x="689" y="1387" width="9" height="12" opacity="0.73"/><rect x="715" y="1387" width="9" height="12" opacity="0.71"/><rect x="689" y="1421" width="9" height="12" opacity="0.67"/><rect x="781" y="1157" width="9" height="12" opacity="0.89"/><rect x="807" y="1157" width="9" height="12" opacity="0.74"/><rect x="833" y="1157" width="9" height="12" opacity="0.65"/><rect x="859" y="1157" width="9" height="12" opacity="0.94"/><rect x="781" y="1191" width="9" height="12" opacity="0.45"/><rect x="833" y="1191" width="9" height="12" opacity="0.49"/><rect x="807" y="1225" width="9" height="12" opacity="0.81"/><rect x="833" y="1225" width="9" height="12" opacity="0.51"/><rect x="781" y="1259" width="9" height="12" opacity="0.95"/><rect x="807" y="1259" width="9" height="12" opacity="0.66"/><rect x="859" y="1259" width="9" height="12" opacity="0.76"/><rect x="807" y="1293" width="9" height="12" opacity="0.88"/><rect x="859" y="1293" width="9" height="12" opacity="0.69"/><rect x="781" y="1327" width="9" height="12" opacity="0.59"/><rect x="859" y="1327" width="9" height="12" opacity="0.41"/><rect x="807" y="1361" width="9" height="12" opacity="0.53"/><rect x="833" y="1361" width="9" height="12" opacity="0.88"/><rect x="859" y="1361" width="9" height="12" opacity="0.61"/><rect x="781" y="1395" width="9" height="12" opacity="0.97"/><rect x="833" y="1395" width="9" height="12" opacity="0.50"/><rect x="833" y="1463" width="9" height="12" opacity="0.94"/><rect x="907" y="906" width="9" height="12" opacity="0.55"/><rect x="907" y="940" width="9" height="12" opacity="0.92"/><rect x="959" y="940" width="9" height="12" opacity="0.91"/><rect x="907" y="974" width="9" height="12" opacity="0.95"/><rect x="933" y="974" width="9" height="12" opacity="0.83"/><rect x="907" y="1008" width="9" height="12" opacity="0.73"/><rect x="933" y="1076" width="9" height="12" opacity="0.83"/><rect x="959" y="1076" width="9" height="12" opacity="0.71"/><rect x="907" y="1110" width="9" height="12" opacity="0.78"/><rect x="933" y="1110" width="9" height="12" opacity="0.44"/><rect x="959" y="1110" width="9" height="12" opacity="0.60"/><rect x="907" y="1144" width="9" height="12" opacity="0.91"/><rect x="933" y="1144" width="9" height="12" opacity="0.92"/><rect x="933" y="1178" width="9" height="12" opacity="0.54"/><rect x="933" y="1212" width="9" height="12" opacity="0.42"/><rect x="959" y="1212" width="9" height="12" opacity="0.62"/><rect x="907" y="1246" width="9" height="12" opacity="0.90"/><rect x="933" y="1246" width="9" height="12" opacity="0.44"/><rect x="959" y="1280" width="9" height="12" opacity="0.86"/><rect x="933" y="1314" width="9" height="12" opacity="0.60"/><rect x="959" y="1314" width="9" height="12" opacity="0.90"/><rect x="907" y="1348" width="9" height="12" opacity="0.45"/><rect x="933" y="1348" width="9" height="12" opacity="0.47"/><rect x="907" y="1382" width="9" height="12" opacity="0.45"/><rect x="933" y="1382" width="9" height="12" opacity="0.96"/><rect x="907" y="1416" width="9" height="12" opacity="0.66"/><rect x="933" y="1416" width="9" height="12" opacity="0.98"/><rect x="907" y="1450" width="9" height="12" opacity="0.53"/><rect x="933" y="1450" width="9" height="12" opacity="0.76"/><rect x="1033" y="1079" width="9" height="12" opacity="0.75"/><rect x="1059" y="1079" width="9" height="12" opacity="0.90"/><rect x="1059" y="1113" width="9" height="12" opacity="0.70"/><rect x="1033" y="1147" width="9" height="12" opacity="0.75"/><rect x="1007" y="1181" width="9" height="12" opacity="0.86"/><rect x="1007" y="1215" width="9" height="12" opacity="1.00"/><rect x="1033" y="1215" width="9" height="12" opacity="0.93"/><rect x="1033" y="1249" width="9" height="12" opacity="0.84"/><rect x="1059" y="1249" width="9" height="12" opacity="0.92"/><rect x="1033" y="1283" width="9" height="12" opacity="0.77"/><rect x="1007" y="1317" width="9" height="12" opacity="0.55"/><rect x="1033" y="1317" width="9" height="12" opacity="0.92"/><rect x="1059" y="1317" width="9" height="12" opacity="0.59"/><rect x="1059" y="1351" width="9" height="12" opacity="0.92"/><rect x="1007" y="1419" width="9" height="12" opacity="0.61"/><rect x="1033" y="1419" width="9" height="12" opacity="0.54"/><rect x="1059" y="1419" width="9" height="12" opacity="0.47"/><rect x="1007" y="1453" width="9" height="12" opacity="0.54"/><rect x="1033" y="1453" width="9" height="12" opacity="0.57"/><rect x="1059" y="1453" width="9" height="12" opacity="0.87"/><rect x="1104" y="1189" width="9" height="12" opacity="0.92"/><rect x="1130" y="1189" width="9" height="12" opacity="0.50"/><rect x="1156" y="1189" width="9" height="12" opacity="0.75"/><rect x="1104" y="1223" width="9" height="12" opacity="0.42"/><rect x="1130" y="1223" width="9" height="12" opacity="0.40"/><rect x="1156" y="1223" width="9" height="12" opacity="0.91"/><rect x="1182" y="1223" width="9" height="12" opacity="0.70"/><rect x="1182" y="1257" width="9" height="12" opacity="0.66"/><rect x="1104" y="1291" width="9" height="12" opacity="0.43"/><rect x="1130" y="1291" width="9" height="12" opacity="0.91"/><rect x="1156" y="1291" width="9" height="12" opacity="0.66"/><rect x="1104" y="1325" width="9" height="12" opacity="0.92"/><rect x="1130" y="1325" width="9" height="12" opacity="0.83"/><rect x="1104" y="1359" width="9" height="12" opacity="0.88"/><rect x="1156" y="1359" width="9" height="12" opacity="0.50"/><rect x="1182" y="1359" width="9" height="12" opacity="0.68"/><rect x="1104" y="1393" width="9" height="12" opacity="0.41"/><rect x="1156" y="1393" width="9" height="12" opacity="0.70"/><rect x="1182" y="1393" width="9" height="12" opacity="0.80"/><rect x="1104" y="1427" width="9" height="12" opacity="0.81"/><rect x="1156" y="1427" width="9" height="12" opacity="0.50"/><rect x="1182" y="1427" width="9" height="12" opacity="0.66"/><rect x="1130" y="1461" width="9" height="12" opacity="0.54"/><rect x="1156" y="1461" width="9" height="12" opacity="0.60"/><rect x="1270" y="1109" width="9" height="12" opacity="0.65"/><rect x="1270" y="1143" width="9" height="12" opacity="0.86"/><rect x="1244" y="1177" width="9" height="12" opacity="0.41"/><rect x="1270" y="1177" width="9" height="12" opacity="0.72"/><rect x="1270" y="1245" width="9" height="12" opacity="0.91"/><rect x="1218" y="1313" width="9" height="12" opacity="0.53"/><rect x="1218" y="1347" width="9" height="12" opacity="0.90"/><rect x="1244" y="1347" width="9" height="12" opacity="0.96"/><rect x="1270" y="1347" width="9" height="12" opacity="0.63"/><rect x="1270" y="1381" width="9" height="12" opacity="0.48"/><rect x="1244" y="1415" width="9" height="12" opacity="0.77"/><rect x="1270" y="1415" width="9" height="12" opacity="0.52"/><rect x="1244" y="1449" width="9" height="12" opacity="0.58"/><rect x="1270" y="1449" width="9" height="12" opacity="0.77"/></g><radialGradient id="vig" cx="0.5" cy="0.42" r="0.75"><stop offset="0.55" stop-color="#000000" stop-opacity="0"/><stop offset="1" stop-color="#000000" stop-opacity="0.55"/></radialGradient><rect width="1200" height="1500" fill="url(#vig)"/><linearGradient id="btm" x1="0" y1="0" x2="0" y2="1"><stop offset="0.65" stop-color="#000" stop-opacity="0"/><stop offset="1" stop-color="#000" stop-opacity="0.5"/></linearGradient><rect width="1200" height="1500" fill="url(#btm)"/></svg>