<svg xmlns="http://www.w3.org/2000/svg" viewBox="0 0 1200 1500" preserveAspectRatio="xMidYMid slice"><defs><filter id="soft" x="-20%" y="-20%" width="140%" height="140%"><feGaussianBlur stdDeviation="14"/></filter><filter id="fog" x="-40%" y="-40%" width="180%" height="180%"><feGaussianBlur stdDeviation="40"/></filter></defs><linearGradient id="sky" x1="0" y1="0" x2="0" y2="1"><stop offset="0" stop-color="#8ec5ff"/><stop offset="0.55" stop-color="#bcdcff"/><stop offset="1" stop-color="#eaf4ff"/></linearGradient><rect width="1200" height="1500" fill="url(#sky)"/><radialGradient id="g900280" cx="0.5" cy="0.5" r="0.5"><stop offset="0" stop-color="#fff0b8" stop-opacity="0.65"/><stop offset="1" stop-color="#fff0b8" stop-opacity="0"/></radialGradient><circle cx="900.0" cy="280.0" r="268.8" fill="url(#g900280)"/><circle cx="900.0" cy="280.0" r="84.0" fill="#fff8e0"/><g fill="#ffffff" opacity="0.95" filter="url(#soft)"><ellipse cx="788.8" cy="590.6" rx="68.4" ry="47.9"/><ellipse cx="863.1" cy="554.9" rx="89.2" ry="62.4"/><ellipse cx="952.3" cy="566.8" rx="80.3" ry="56.2"/><ellipse cx="1034.0" cy="593.6" rx="65.4" ry="45.8"/><ellipse cx="907.7" cy="608.4" rx="104.0" ry="72.8"/><ellipse cx="102.4" cy="610.9" rx="65.9" ry="46.1"/><ellipse cx="174.0" cy="576.5" rx="86.0" ry="60.2"/><ellipse cx="260.0" cy="587.9" rx="77.4" ry="54.2"/><ellipse cx="338.8" cy="613.7" rx="63.0" ry="44.1"/><ellipse cx="217.0" cy="628.1" rx="100.3" ry="70.2"/><ellipse cx="935.7" cy="303.5" rx="68.8" ry="48.2"/><ellipse cx="1010.5" cy="267.6" rx="89.8" ry="62.9"/><ellipse cx="1100.3" cy="279.5" rx="80.8" ry="56.6"/><ellipse cx="1182.6" cy="306.5" rx="65.9" ry="46.1"/><ellipse cx="1055.4" cy="321.4" rx="104.8" ry="73.3"/><ellipse cx="357.6" cy="297.1" rx="37.3" ry="26.1"/><ellipse cx="398.1" cy="277.6" rx="48.6" ry="34.0"/><ellipse cx="446.8" cy="284.1" rx="43.8" ry="30.6"/><ellipse cx="491.4" cy="298.7" rx="35.7" ry="25.0"/><ellipse cx="422.5" cy="306.8" rx="56.7" ry="39.7"/><ellipse cx="931.5" cy="814.3" rx="68.2" ry="47.7"/><ellipse cx="1005.6" cy="778.7" rx="89.0" ry="62.3"/><ellipse cx="1094.6" cy="790.6" rx="80.1" ry="56.0"/><ellipse cx="1176.1" cy="817.3" rx="65.2" ry="45.7"/><ellipse cx="1050.1" cy="832.1" rx="103.8" ry="72.7"/><ellipse cx="864.4" cy="737.7" rx="55.0" ry="38.5"/><ellipse cx="924.2" cy="709.1" rx="71.7" ry="50.2"/><ellipse cx="995.9" cy="718.6" rx="64.6" ry="45.2"/><ellipse cx="1061.7" cy="740.1" rx="52.6" ry="36.8"/><ellipse cx="960.0" cy="752.1" rx="83.7" ry="58.6"/><ellipse cx="228.9" cy="245.8" rx="34.5" ry="24.1"/><ellipse cx="266.3" cy="227.8" rx="45.0" ry="31.5"/><ellipse cx="311.3" cy="233.8" rx="40.5" ry="28.3"/><ellipse cx="352.5" cy="247.3" rx="33.0" ry="23.1"/><ellipse cx="288.8" cy="254.8" rx="52.4" ry="36.7"/></g><g><path d="M0,-12 L3,-3 L12,0 L3,3 L0,12 L-3,3 L-12,0 L-3,-3 Z" fill="#ffd54a" opacity="0.43" transform="translate(423.0,256.8) scale(1.60)"/><path d="M0,-12 L3,-3 L12,0 L3,3 L0,12 L-3,3 L-12,0 L-3,-3 Z" fill="#ffffff" opacity="0.71" transform="translate(469.1,673.9) scale(1.57)"/><path d="M0,-12 L3,-3 L12,0 L3,3 L0,12 L-3,3 L-12,0 L-3,-3 Z" fill="#ffd54a" opacity="0.88" transform="translate(839.2,59.4) scale(1.66)"/><path d="M0,-12 L3,-3 L12,0 L3,3 L0,12 L-3,3 L-12,0 L-3,-3 Z" fill="#ffffff" opacity="0.69" transform="translate(977.0,0.4) scale(1.19)"/><path d="M0,-12 L3,-3 L12,0 L3,3 L0,12 L-3,3 L-12,0 L-3,-3 Z" fill="#fff6c8" opacity="0.79" transform="translate(325.6,407.0) scale(0.82)"/><path d="M0,-12 L3,-3 L12,0 L3,3 L0,12 L-3,3 L-12,0 L-3,-3 Z" fill="#fff6c8" opacity="0.75" transform="translate(751.9,1173.4) scale(1.05)"/><path d="M0,-12 L3,-3 L12,0 L3,3 L0,12 L-3,3 L-12,0 L-3,-3 Z" fill="#ffffff" opacity="0.88" transform="translate(647.8,360.1) scale(1.63)"/><path d="M0,-12 L3,-3 L12,0 L3,3 L0,12 L-3,3 L-12,0 L-3,-3 Z" fill="#ffd54a" opacity="0.91" transform="translate(785.7,1095.9) scale(1.61)"/><path d="M0,-12 L3,-3 L12,0 L3,3 L0,12 L-3,3 L-12,0 L-3,-3 Z" fill="#fff6c8" opacity="0.74" transform="translate(18.1,400.3) scale(0.68)"/><path d="M0,-12 L3,-3 L12,0 L3,3 L0,12 L-3,3 L-12,0 L-3,-3 Z" fill="#ffd54a" opacity="0.85" transform="translate(976.4,215.1) scale(0.70)"/><path d="M0,-12 L3,-3 L12,0 L3,3 L0,12 L-3,3 L-12,0 L-3,-3 Z" fill="#ffffff" opacity="0.50" transform="translate(1099.1,301.8) scale(1.08)"/><path d="M0,-12 L3,-3 L12,0 L3,3 L0,12 L-3,3 L-12,0 L-3,-3 Z" fill="#fff6c8" opacity="0.91" transform="translate(843.9,628.9) scale(0.53)"/></g><radialGradient id="vig" cx="0.5" cy="0.42" r="0.75"><stop offset="0.55" stop-color="#000000" stop-opacity="0"/><stop offset="1" stop-color="#000000" stop-opacity="0.35"/></radialGradient><rect width="1200" height="1500" fill="url(#vig)"/><linearGradient id="btm" x1="0" y1="0" x2="0" y2="1"><stop offset="0.65" stop-color="#000" stop-opacity="0"/><stop offset="1" stop-color="#000" stop-opacity="0.5"/></linearGradient><rect width="1200" height="1500" fill="url(#btm)"/></svg>