<svg xmlns="http://www.w3.org/2000/svg" viewBox="0 0 1200 1500" preserveAspectRatio="xMidYMid slice"><defs><filter id="soft" x="-20%" y="-20%" width="140%" height="140%"><feGaussianBlur stdDeviation="14"/></filter><filter id="fog" x="-40%" y="-40%" width="180%" height="180%"><feGaussianBlur stdDeviation="40"/></filter></defs><linearGradient id="sky" x1="0" y1="0" x2="0" y2="1"><stop offset="0" stop-color="#f7b267"/><stop offset="0.55" stop-color="#f4845f"/><stop offset="1" stop-color="#7a3b6a"/></linearGradient><rect width="1200" height="1500" fill="url(#sky)"/><radialGradient id="g600560" cx="0.5" cy="0.5" r="0.5"><stop offset="0" stop-color="#ff9e5c" stop-opacity="0.65"/><stop offset="1" stop-color="#ff9e5c" stop-opacity="0"/></radialGradient><circle cx="600.0" cy="560.0" r="416.0" fill="url(#g600560)"/><circle cx="600.0" cy="560.0" r="130.0" fill="#fff0c4"/><path d="M-20,1000 Q300,900 700,1000 T1220,1020 L1220,1500 L-20,1500 Z" fill="#d98c4a"/><path d="M-20,1160 Q400,1060 900,1160 T1220,1180 L1220,1500 L-20,1500 Z" fill="#b5673a"/><path d="M-20,1320 Q500,1240 1220,1320 L1220,1500 L-20,1500 Z" fill="#8a472b"/><g fill="#1f3a2a"><path d="M180,1420 L180,1240 Q180,1200 210,1200 Q230,1200 230,1250 L230,1290 M180,1300 Q140,1300 140,1260 L140,1230" stroke="#1f3a2a" stroke-width="26" fill="none" stroke-linecap="round"/><path d="M1000,1420 L1000,1240 Q1000,1200 1030,1200 Q1050,1200 1050,1250 L1050,1290 M1000,1300 Q960,1300 960,1260 L960,1230" stroke="#1f3a2a" stroke-width="26" fill="none" stroke-linecap="round"/></g><radialGradient id="vig" cx="0.5" cy="0.42" r="0.75"><stop offset="0.55" stop-color="#000000" stop-opacity="0"/><stop offset="1" stop-color="#000000" stop-opacity="0.5"/></radialGradient><rect width="1200" height="1500" fill="url(#vig)"/><linearGradient id="btm" x1="0" y1="0" x2="0" y2="1"><stop offset="0.65" stop-color="#000" stop-opacity="0"/><stop offset="1" stop-color="#000" stop-opacity="0.5"/></linearGradient><rect width="1200" height="1500" fill="url(#btm)"/></svg>