<svg xmlns="http://www.w3.org/2000/svg" viewBox="0 0 1200 1500" preserveAspectRatio="xMidYMid slice"><defs><filter id="soft" x="-20%" y="-20%" width="140%" height="140%"><feGaussianBlur stdDeviation="14"/></filter><filter id="fog" x="-40%" y="-40%" width="180%" height="180%"><feGaussianBlur stdDeviation="40"/></filter></defs><linearGradient id="sky" x1="0" y1="0" x2="0" y2="1"><stop offset="0" stop-color="#2a1a4a"/><stop offset="0.55" stop-color="#6a4b8f"/><stop offset="1" stop-color="#b388ff"/></linearGradient><rect width="1200" height="1500" fill="url(#sky)"/><radialGradient id="g880320" cx="0.5" cy="0.5" r="0.5"><stop offset="0" stop-color="#fff2fb" stop-opacity="0.5"/><stop offset="1" stop-color="#fff2fb" stop-opacity="0"/></radialGradient><circle cx="880.0" cy="320.0" r="180.0" fill="url(#g880320)"/><circle cx="880.0" cy="320.0" r="60.0" fill="#fff2fb"/><circle cx="867.3" cy="294.9" r="9.5" fill="#d7dcf0" opacity="0.6"/><circle cx="849.2" cy="322.6" r="7.4" fill="#d7dcf0" opacity="0.6"/><circle cx="848.2" cy="320.5" r="5.1" fill="#d7dcf0" opacity="0.6"/><circle cx="875.2" cy="289.0" r="5.5" fill="#d7dcf0" opacity="0.6"/><circle cx="874.6" cy="343.5" r="5.7" fill="#d7dcf0" opacity="0.6"/><g><circle cx="847.9" cy="888.3" r="2.3" fill="#ffe9ff" opacity="0.74"/><circle cx="245.5" cy="1022.0" r="2.3" fill="#ffe9ff" opacity="0.70"/><circle cx="553.6" cy="601.0" r="1.4" fill="#ffe9ff" opacity="0.86"/><circle cx="872.0" cy="701.4" r="1.6" fill="#ffe9ff" opacity="0.69"/><circle cx="159.9" cy="319.8" r="0.9" fill="#ffe9ff" opacity="0.91"/><circle cx="215.3" cy="439.7" r="1.2" fill="#ffe9ff" opacity="0.61"/><circle cx="344.8" cy="774.9" r="0.9" fill="#ffe9ff" opacity="0.80"/><circle cx="1191.6" cy="702.0" r="1.0" fill="#ffe9ff" opacity="0.37"/><circle cx="930.2" cy="527.8" r="1.5" fill="#ffe9ff" opacity="0.58"/><circle cx="804.3" cy="793.4" r="1.5" fill="#ffe9ff" opacity="0.43"/><circle cx="908.7" cy="1018.6" r="2.4" fill="#ffe9ff" opacity="0.46"/><circle cx="130.9" cy="1023.7" r="2.1" fill="#ffe9ff" opacity="0.74"/><circle cx="670.1" cy="319.8" r="1.8" fill="#ffe9ff" opacity="0.63"/><circle cx="849.5" cy="224.0" r="2.0" fill="#ffe9ff" opacity="0.67"/><circle cx="909.8" cy="34.8" r="2.0" fill="#ffe9ff" opacity="0.78"/><circle cx="79.3" cy="460.1" r="1.6" fill="#ffe9ff" opacity="0.52"/><circle cx="132.8" cy="574.4" r="1.7" fill="#ffe9ff" opacity="0.73"/><circle cx="743.8" cy="116.9" r="2.3" fill="#ffe9ff" opacity="0.64"/><circle cx="794.3" cy="353.9" r="1.4" fill="#ffe9ff" opacity="0.33"/><circle cx="356.9" cy="739.9" r="1.6" fill="#ffe9ff" opacity="0.36"/><circle cx="870.3" cy="561.9" r="1.8" fill="#ffe9ff" opacity="0.62"/><circle cx="30.0" cy="958.7" r="2.3" fill="#ffe9ff" opacity="0.93"/><circle cx="898.7" cy="394.0" r="1.0" fill="#ffe9ff" opacity="0.71"/><circle cx="597.4" cy="258.3" r="1.8" fill="#ffe9ff" opacity="0.82"/><circle cx="257.8" cy="75.0" r="2.4" fill="#ffe9ff" opacity="0.85"/><circle cx="91.2" cy="13.7" r="1.4" fill="#ffe9ff" opacity="0.90"/><circle cx="854.1" cy="196.0" r="1.3" fill="#ffe9ff" opacity="0.45"/><circle cx="622.0" cy="715.5" r="0.7" fill="#ffe9ff" opacity="0.75"/><circle cx="978.2" cy="560.7" r="1.7" fill="#ffe9ff" opacity="0.47"/><circle cx="424.6" cy="745.4" r="2.3" fill="#ffe9ff" opacity="0.55"/><circle cx="225.8" cy="148.2" r="2.4" fill="#ffe9ff" opacity="0.47"/><circle cx="942.4" cy="982.3" r="2.1" fill="#ffe9ff" opacity="0.93"/><circle cx="527.3" cy="272.7" r="2.1" fill="#ffe9ff" opacity="0.99"/><circle cx="558.6" cy="946.9" r="0.7" fill="#ffe9ff" opacity="0.94"/><circle cx="91.8" cy="240.0" r="1.3" fill="#ffe9ff" opacity="0.53"/><circle cx="1023.2" cy="437.5" r="2.0" fill="#ffe9ff" opacity="0.61"/><circle cx="504.2" cy="385.9" r="1.2" fill="#ffe9ff" opacity="0.57"/><circle cx="503.1" cy="193.8" r="0.8" fill="#ffe9ff" opacity="0.98"/><circle cx="310.1" cy="995.0" r="0.8" fill="#ffe9ff" opacity="0.52"/><circle cx="254.9" cy="650.8" r="1.8" fill="#ffe9ff" opacity="0.50"/><circle cx="1166.9" cy="661.6" r="1.8" fill="#ffe9ff" opacity="0.44"/><circle cx="275.2" cy="630.9" r="2.2" fill="#ffe9ff" opacity="0.54"/><circle cx="332.3" cy="900.8" r="2.2" fill="#ffe9ff" opacity="0.87"/><circle cx="944.1" cy="245.2" r="1.7" fill="#ffe9ff" opacity="0.69"/><circle cx="872.1" cy="631.0" r="1.2" fill="#ffe9ff" opacity="0.68"/><circle cx="547.1" cy="173.3" r="0.9" fill="#ffe9ff" opacity="0.81"/><circle cx="849.5" cy="644.8" r="1.8" fill="#ffe9ff" opacity="0.79"/><circle cx="797.6" cy="244.8" r="1.5" fill="#ffe9ff" opacity="0.89"/><circle cx="123.0" cy="932.9" r="1.6" fill="#ffe9ff" opacity="0.92"/><circle cx="274.8" cy="519.5" r="1.1" fill="#ffe9ff" opacity="0.39"/><circle cx="73.0" cy="236.0" r="1.4" fill="#ffe9ff" opacity="0.46"/><circle cx="577.7" cy="59.3" r="1.5" fill="#ffe9ff" opacity="0.33"/><circle cx="1066.9" cy="180.6" r="1.4" fill="#ffe9ff" opacity="0.95"/><circle cx="338.0" cy="378.2" r="1.5" fill="#ffe9ff" opacity="0.34"/><circle cx="171.7" cy="983.4" r="2.2" fill="#ffe9ff" opacity="0.80"/><circle cx="808.8" cy="843.0" r="2.3" fill="#ffe9ff" opacity="0.46"/><circle cx="122.7" cy="885.3" r="1.3" fill="#ffe9ff" opacity="0.32"/><circle cx="6.3" cy="444.7" r="1.5" fill="#ffe9ff" opacity="0.62"/><circle cx="290.4" cy="533.1" r="1.4" fill="#ffe9ff" opacity="0.87"/><circle cx="37.0" cy="81.0" r="1.2" fill="#ffe9ff" opacity="0.67"/><circle cx="879.0" cy="3.4" r="0.9" fill="#ffe9ff" opacity="0.69"/><circle cx="942.0" cy="225.9" r="2.3" fill="#ffe9ff" opacity="0.56"/><circle cx="125.5" cy="895.6" r="1.2" fill="#ffe9ff" opacity="0.52"/><circle cx="625.9" cy="254.8" r="1.9" fill="#ffe9ff" opacity="0.35"/><circle cx="662.6" cy="332.6" r="2.0" fill="#ffe9ff" opacity="0.56"/><circle cx="441.6" cy="22.7" r="1.0" fill="#ffe9ff" opacity="0.87"/><circle cx="439.3" cy="36.4" r="0.9" fill="#ffe9ff" opacity="0.72"/><circle cx="854.9" cy="746.6" r="0.7" fill="#ffe9ff" opacity="0.77"/><circle cx="1002.1" cy="895.0" r="0.9" fill="#ffe9ff" opacity="0.50"/><circle cx="786.2" cy="579.5" r="1.3" fill="#ffe9ff" opacity="0.71"/><circle cx="9.0" cy="658.9" r="0.8" fill="#ffe9ff" opacity="0.64"/><circle cx="654.8" cy="590.5" r="2.0" fill="#ffe9ff" opacity="0.43"/><circle cx="1122.9" cy="178.0" r="1.0" fill="#ffe9ff" opacity="0.46"/><circle cx="1169.6" cy="121.9" r="1.9" fill="#ffe9ff" opacity="0.78"/><circle cx="254.5" cy="52.9" r="2.4" fill="#ffe9ff" opacity="0.51"/><circle cx="915.3" cy="1024.0" r="0.6" fill="#ffe9ff" opacity="0.96"/><circle cx="625.0" cy="538.7" r="0.9" fill="#ffe9ff" opacity="0.46"/><circle cx="856.9" cy="96.5" r="2.1" fill="#ffe9ff" opacity="0.75"/><circle cx="178.4" cy="136.3" r="2.2" fill="#ffe9ff" opacity="0.45"/><circle cx="829.8" cy="467.0" r="2.3" fill="#ffe9ff" opacity="0.60"/></g><g fill="#241a3a"><path d="M95.3,1160.0 L55.5,1160.0 L95.3,1072.5 L67.5,1080.4 L95.3,1000.9 L123.2,1080.4 L135.1,1160.0 Z"/><path d="M178.8,1160.0 L124.5,1160.0 L178.8,1040.6 L140.8,1051.4 L178.8,942.8 L216.8,1051.4 L233.1,1160.0 Z"/><path d="M351.2,1160.0 L305.6,1160.0 L351.2,1059.6 L319.3,1068.8 L351.2,977.5 L383.2,1068.8 L396.9,1160.0 Z"/><path d="M490.9,1160.0 L445.2,1160.0 L490.9,1059.6 L458.9,1068.7 L490.9,977.4 L522.8,1068.7 L536.5,1160.0 Z"/><path d="M571.6,1160.0 L522.6,1160.0 L571.6,1052.2 L537.3,1062.0 L571.6,964.0 L605.9,1062.0 L620.5,1160.0 Z"/><path d="M739.5,1160.0 L687.9,1160.0 L739.5,1046.6 L703.4,1056.9 L739.5,953.8 L775.6,1056.9 L791.1,1160.0 Z"/><path d="M851.4,1160.0 L797.0,1160.0 L851.4,1040.3 L813.3,1051.2 L851.4,942.3 L889.5,1051.2 L905.8,1160.0 Z"/><path d="M1013.4,1160.0 L976.0,1160.0 L1013.4,1077.8 L987.2,1085.3 L1013.4,1010.5 L1039.5,1085.3 L1050.7,1160.0 Z"/><path d="M1136.1,1160.0 L1105.3,1160.0 L1136.1,1092.2 L1114.5,1098.4 L1136.1,1036.7 L1157.7,1098.4 L1166.9,1160.0 Z"/></g><rect x="0" y="1220.0" width="1200" height="280" fill="#2b6b3a"/><line x1="1192.0" y1="1267.4" x2="1192.0" y2="1283.6" stroke="#2e8b57" stroke-width="1.2"/><circle cx="1197.6" cy="1267.4" r="3.7" fill="#ffffff"/><circle cx="1194.8" cy="1272.2" r="3.7" fill="#ffffff"/><circle cx="1189.2" cy="1272.2" r="3.7" fill="#ffffff"/><circle cx="1186.4" cy="1267.4" r="3.7" fill="#ffffff"/><circle cx="1189.2" cy="1262.6" r="3.7" fill="#ffffff"/><circle cx="1194.8" cy="1262.6" r="3.7" fill="#ffffff"/><circle cx="1192.0" cy="1267.4" r="3.1" fill="#ffde59"/><line x1="1074.8" y1="1380.2" x2="1074.8" y2="1413.1" stroke="#2e8b57" stroke-width="2.5"/><circle cx="1086.2" cy="1380.2" r="7.6" fill="#ff9ad5"/><circle cx="1080.5" cy="1390.1" r="7.6" fill="#ff9ad5"/><circle cx="1069.1" cy="1390.1" r="7.6" fill="#ff9ad5"/><circle cx="1063.4" cy="1380.2" r="7.6" fill="#ff9ad5"/><circle cx="1069.1" cy="1370.4" r="7.6" fill="#ff9ad5"/><circle cx="1080.5" cy="1370.4" r="7.6" fill="#ff9ad5"/><circle cx="1074.8" cy="1380.2" r="6.3" fill="#ffde59"/><line x1="1170.7" y1="1453.8" x2="1170.7" y2="1500.5" stroke="#2e8b57" stroke-width="3.6"/><circle cx="1186.9" cy="1453.8" r="10.8" fill="#ff7eb3"/><circle cx="1178.8" cy="1467.8" r="10.8" fill="#ff7eb3"/><circle cx="1162.6" cy="1467.8" r="10.8" fill="#ff7eb3"/><circle cx="1154.6" cy="1453.8" r="10.8" fill="#ff7eb3"/><circle cx="1162.6" cy="1439.8" r="10.8" fill="#ff7eb3"/><circle cx="1178.8" cy="1439.8" r="10.8" fill="#ff7eb3"/><circle cx="1170.7" cy="1453.8" r="9.0" fill="#ffde59"/><line x1="616.3" y1="1468.7" x2="616.3" y2="1510.4" stroke="#2e8b57" stroke-width="3.2"/><circle cx="630.7" cy="1468.7" r="9.6" fill="#ffd54a"/><circle cx="623.5" cy="1481.2" r="9.6" fill="#ffd54a"/><circle cx="609.1" cy="1481.2" r="9.6" fill="#ffd54a"/><circle cx="601.9" cy="1468.7" r="9.6" fill="#ffd54a"/><circle cx="609.1" cy="1456.2" r="9.6" fill="#ffd54a"/><circle cx="623.5" cy="1456.2" r="9.6" fill="#ffd54a"/><circle cx="616.3" cy="1468.7" r="8.0" fill="#ffde59"/><line x1="925.5" y1="1442.2" x2="925.5" y2="1487.3" stroke="#2e8b57" stroke-width="3.5"/><circle cx="941.1" cy="1442.2" r="10.4" fill="#ffffff"/><circle cx="933.3" cy="1455.7" r="10.4" fill="#ffffff"/><circle cx="917.7" cy="1455.7" r="10.4" fill="#ffffff"/><circle cx="909.9" cy="1442.2" r="10.4" fill="#ffffff"/><circle cx="917.7" cy="1428.7" r="10.4" fill="#ffffff"/><circle cx="933.3" cy="1428.7" r="10.4" fill="#ffffff"/><circle cx="925.5" cy="1442.2" r="8.7" fill="#ffde59"/><line x1="1024.2" y1="1388.5" x2="1024.2" y2="1409.1" stroke="#2e8b57" stroke-width="1.6"/><circle cx="1031.4" cy="1388.5" r="4.8" fill="#ff9ad5"/><circle cx="1027.8" cy="1394.7" r="4.8" fill="#ff9ad5"/><circle cx="1020.7" cy="1394.7" r="4.8" fill="#ff9ad5"/><circle cx="1017.1" cy="1388.5" r="4.8" fill="#ff9ad5"/><circle cx="1020.7" cy="1382.3" r="4.8" fill="#ff9ad5"/><circle cx="1027.8" cy="1382.3" r="4.8" fill="#ff9ad5"/><circle cx="1024.2" cy="1388.5" r="4.0" fill="#ffde59"/><line x1="948.6" y1="1444.0" x2="948.6" y2="1486.5" stroke="#2e8b57" stroke-width="3.3"/><circle cx="963.3" cy="1444.0" r="9.8" fill="#ff9ad5"/><circle cx="956.0" cy="1456.7" r="9.8" fill="#ff9ad5"/><circle cx="941.2" cy="1456.7" r="9.8" fill="#ff9ad5"/><circle cx="933.9" cy="1444.0" r="9.8" fill="#ff9ad5"/><circle cx="941.2" cy="1431.2" r="9.8" fill="#ff9ad5"/><circle cx="956.0" cy="1431.2" r="9.8" fill="#ff9ad5"/><circle cx="948.6" cy="1444.0" r="8.2" fill="#ffde59"/><line x1="69.1" y1="1408.2" x2="69.1" y2="1451.1" stroke="#2e8b57" stroke-width="3.3"/><circle cx="83.9" cy="1408.2" r="9.9" fill="#ffb347"/><circle cx="76.5" cy="1421.0" r="9.9" fill="#ffb347"/><circle cx="61.6" cy="1421.0" r="9.9" fill="#ffb347"/><circle cx="54.2" cy="1408.2" r="9.9" fill="#ffb347"/><circle cx="61.6" cy="1395.3" r="9.9" fill="#ffb347"/><circle cx="76.5" cy="1395.3" r="9.9" fill="#ffb347"/><circle cx="69.1" cy="1408.2" r="8.3" fill="#ffde59"/><line x1="598.0" y1="1476.8" x2="598.0" y2="1501.8" stroke="#2e8b57" stroke-width="1.9"/><circle cx="606.6" cy="1476.8" r="5.8" fill="#ffd54a"/><circle cx="602.3" cy="1484.3" r="5.8" fill="#ffd54a"/><circle cx="593.6" cy="1484.3" r="5.8" fill="#ffd54a"/><circle cx="589.3" cy="1476.8" r="5.8" fill="#ffd54a"/><circle cx="593.6" cy="1469.3" r="5.8" fill="#ffd54a"/><circle cx="602.3" cy="1469.3" r="5.8" fill="#ffd54a"/><circle cx="598.0" cy="1476.8" r="4.8" fill="#ffde59"/><line x1="695.6" y1="1398.7" x2="695.6" y2="1429.6" stroke="#2e8b57" stroke-width="2.4"/><circle cx="706.2" cy="1398.7" r="7.1" fill="#ffb347"/><circle cx="700.9" cy="1408.0" r="7.1" fill="#ffb347"/><circle cx="690.2" cy="1408.0" r="7.1" fill="#ffb347"/><circle cx="684.9" cy="1398.7" r="7.1" fill="#ffb347"/><circle cx="690.2" cy="1389.5" r="7.1" fill="#ffb347"/><circle cx="700.9" cy="1389.5" r="7.1" fill="#ffb347"/><circle cx="695.6" cy="1398.7" r="5.9" fill="#ffde59"/><line x1="48.1" y1="1299.1" x2="48.1" y2="1319.9" stroke="#2e8b57" stroke-width="1.6"/><circle cx="55.3" cy="1299.1" r="4.8" fill="#ff9ad5"/><circle cx="51.7" cy="1305.3" r="4.8" fill="#ff9ad5"/><circle cx="44.5" cy="1305.3" r="4.8" fill="#ff9ad5"/><circle cx="40.9" cy="1299.1" r="4.8" fill="#ff9ad5"/><circle cx="44.5" cy="1292.8" r="4.8" fill="#ff9ad5"/><circle cx="51.7" cy="1292.8" r="4.8" fill="#ff9ad5"/><circle cx="48.1" cy="1299.1" r="4.0" fill="#ffde59"/><line x1="700.0" y1="1420.1" x2="700.0" y2="1455.6" stroke="#2e8b57" stroke-width="2.7"/><circle cx="712.3" cy="1420.1" r="8.2" fill="#ff7eb3"/><circle cx="706.1" cy="1430.7" r="8.2" fill="#ff7eb3"/><circle cx="693.8" cy="1430.7" r="8.2" fill="#ff7eb3"/><circle cx="687.7" cy="1420.1" r="8.2" fill="#ff7eb3"/><circle cx="693.8" cy="1409.4" r="8.2" fill="#ff7eb3"/><circle cx="706.1" cy="1409.4" r="8.2" fill="#ff7eb3"/><circle cx="700.0" cy="1420.1" r="6.8" fill="#ffde59"/><line x1="139.8" y1="1414.1" x2="139.8" y2="1446.7" stroke="#2e8b57" stroke-width="2.5"/><circle cx="151.1" cy="1414.1" r="7.5" fill="#ffffff"/><circle cx="145.5" cy="1423.9" r="7.5" fill="#ffffff"/><circle cx="134.2" cy="1423.9" r="7.5" fill="#ffffff"/><circle cx="128.5" cy="1414.1" r="7.5" fill="#ffffff"/><circle cx="134.2" cy="1404.3" r="7.5" fill="#ffffff"/><circle cx="145.5" cy="1404.3" r="7.5" fill="#ffffff"/><circle cx="139.8" cy="1414.1" r="6.3" fill="#ffde59"/><line x1="933.2" y1="1464.0" x2="933.2" y2="1505.7" stroke="#2e8b57" stroke-width="3.2"/><circle cx="947.7" cy="1464.0" r="9.6" fill="#ffd54a"/><circle cx="940.4" cy="1476.5" r="9.6" fill="#ffd54a"/><circle cx="926.0" cy="1476.5" r="9.6" fill="#ffd54a"/><circle cx="918.8" cy="1464.0" r="9.6" fill="#ffd54a"/><circle cx="926.0" cy="1451.5" r="9.6" fill="#ffd54a"/><circle cx="940.4" cy="1451.5" r="9.6" fill="#ffd54a"/><circle cx="933.2" cy="1464.0" r="8.0" fill="#ffde59"/><line x1="525.7" y1="1360.1" x2="525.7" y2="1382.8" stroke="#2e8b57" stroke-width="1.7"/><circle cx="533.5" cy="1360.1" r="5.2" fill="#ff9ad5"/><circle cx="529.6" cy="1366.9" r="5.2" fill="#ff9ad5"/><circle cx="521.7" cy="1366.9" r="5.2" fill="#ff9ad5"/><circle cx="517.8" cy="1360.1" r="5.2" fill="#ff9ad5"/><circle cx="521.7" cy="1353.3" r="5.2" fill="#ff9ad5"/><circle cx="529.6" cy="1353.3" r="5.2" fill="#ff9ad5"/><circle cx="525.7" cy="1360.1" r="4.4" fill="#ffde59"/><line x1="806.3" y1="1310.8" x2="806.3" y2="1335.3" stroke="#2e8b57" stroke-width="1.9"/><circle cx="814.7" cy="1310.8" r="5.7" fill="#ffb347"/><circle cx="810.5" cy="1318.2" r="5.7" fill="#ffb347"/><circle cx="802.0" cy="1318.2" r="5.7" fill="#ffb347"/><circle cx="797.8" cy="1310.8" r="5.7" fill="#ffb347"/><circle cx="802.0" cy="1303.4" r="5.7" fill="#ffb347"/><circle cx="810.5" cy="1303.4" r="5.7" fill="#ffb347"/><circle cx="806.3" cy="1310.8" r="4.7" fill="#ffde59"/><line x1="619.9" y1="1476.9" x2="619.9" y2="1500.6" stroke="#2e8b57" stroke-width="1.8"/><circle cx="628.1" cy="1476.9" r="5.5" fill="#ff5e7e"/><circle cx="624.0" cy="1484.0" r="5.5" fill="#ff5e7e"/><circle cx="615.8" cy="1484.0" r="5.5" fill="#ff5e7e"/><circle cx="611.7" cy="1476.9" r="5.5" fill="#ff5e7e"/><circle cx="615.8" cy="1469.8" r="5.5" fill="#ff5e7e"/><circle cx="624.0" cy="1469.8" r="5.5" fill="#ff5e7e"/><circle cx="619.9" cy="1476.9" r="4.6" fill="#ffde59"/><line x1="932.3" y1="1277.4" x2="932.3" y2="1290.8" stroke="#2e8b57" stroke-width="1.0"/><circle cx="936.9" cy="1277.4" r="3.1" fill="#ffffff"/><circle cx="934.6" cy="1281.4" r="3.1" fill="#ffffff"/><circle cx="930.0" cy="1281.4" r="3.1" fill="#ffffff"/><circle cx="927.6" cy="1277.4" r="3.1" fill="#ffffff"/><circle cx="930.0" cy="1273.3" r="3.1" fill="#ffffff"/><circle cx="934.6" cy="1273.3" r="3.1" fill="#ffffff"/><circle cx="932.3" cy="1277.4" r="2.6" fill="#ffde59"/><line x1="690.6" y1="1277.8" x2="690.6" y2="1298.4" stroke="#2e8b57" stroke-width="1.6"/><circle cx="697.8" cy="1277.8" r="4.8" fill="#ff7eb3"/><circle cx="694.2" cy="1284.0" r="4.8" fill="#ff7eb3"/><circle cx="687.1" cy="1284.0" r="4.8" fill="#ff7eb3"/><circle cx="683.5" cy="1277.8" r="4.8" fill="#ff7eb3"/><circle cx="687.1" cy="1271.6" r="4.8" fill="#ff7eb3"/><circle cx="694.2" cy="1271.6" r="4.8" fill="#ff7eb3"/><circle cx="690.6" cy="1277.8" r="4.0" fill="#ffde59"/><line x1="297.9" y1="1329.0" x2="297.9" y2="1346.9" stroke="#2e8b57" stroke-width="1.4"/><circle cx="304.2" cy="1329.0" r="4.1" fill="#ffffff"/><circle cx="301.0" cy="1334.4" r="4.1" fill="#ffffff"/><circle cx="294.8" cy="1334.4" r="4.1" fill="#ffffff"/><circle cx="291.7" cy="1329.0" r="4.1" fill="#ffffff"/><circle cx="294.8" cy="1323.6" r="4.1" fill="#ffffff"/><circle cx="301.0" cy="1323.6" r="4.1" fill="#ffffff"/><circle cx="297.9" cy="1329.0" r="3.5" fill="#ffde59"/><g><radialGradient id="g243984" cx="0.5" cy="0.5" r="0.5"><stop offset="0" stop-color="#c6ff8a" stop-opacity="0.5"/><stop offset="1" stop-color="#c6ff8a" stop-opacity="0"/></radialGradient><circle cx="243.8" cy="984.8" r="22.0" fill="url(#g243984)"/><circle cx="243.8" cy="984.8" r="3.7" fill="#eaffb0"/><radialGradient id="g5321047" cx="0.5" cy="0.5" r="0.5"><stop offset="0" stop-color="#c6ff8a" stop-opacity="0.5"/><stop offset="1" stop-color="#c6ff8a" stop-opacity="0"/></radialGradient><circle cx="532.5" cy="1047.6" r="21.4" fill="url(#g5321047)"/><circle cx="532.5" cy="1047.6" r="3.6" fill="#eaffb0"/><radialGradient id="g5111155" cx="0.5" cy="0.5" r="0.5"><stop offset="0" stop-color="#c6ff8a" stop-opacity="0.5"/><stop offset="1" stop-color="#c6ff8a" stop-opacity="0"/></radialGradient><circle cx="511.5" cy="1155.8" r="12.6" fill="url(#g5111155)"/><circle cx="511.5" cy="1155.8" r="2.1" fill="#eaffb0"/><radialGradient id="g9161340" cx="0.5" cy="0.5" r="0.5"><stop offset="0" stop-color="#c6ff8a" stop-opacity="0.5"/><stop offset="1" stop-color="#c6ff8a" stop-opacity="0"/></radialGradient><circle cx="916.7" cy="1340.3" r="12.7" fill="url(#g9161340)"/><circle cx="916.7" cy="1340.3" r="2.1" fill="#eaffb0"/><radialGradient id="g4641264" cx="0.5" cy="0.5" r="0.5"><stop offset="0" stop-color="#c6ff8a" stop-opacity="0.5"/><stop offset="1" stop-color="#c6ff8a" stop-opacity="0"/></radialGradient><circle cx="464.9" cy="1264.2" r="17.6" fill="url(#g4641264)"/><circle cx="464.9" cy="1264.2" r="2.9" fill="#eaffb0"/><radialGradient id="g715918" cx="0.5" cy="0.5" r="0.5"><stop offset="0" stop-color="#c6ff8a" stop-opacity="0.5"/><stop offset="1" stop-color="#c6ff8a" stop-opacity="0"/></radialGradient><circle cx="715.9" cy="918.6" r="21.1" fill="url(#g715918)"/><circle cx="715.9" cy="918.6" r="3.5" fill="#eaffb0"/><radialGradient id="g423763" cx="0.5" cy="0.5" r="0.5"><stop offset="0" stop-color="#c6ff8a" stop-opacity="0.5"/><stop offset="1" stop-color="#c6ff8a" stop-opacity="0"/></radialGradient><circle cx="423.1" cy="763.0" r="18.7" fill="url(#g423763)"/><circle cx="423.1" cy="763.0" r="3.1" fill="#eaffb0"/><radialGradient id="g5791100" cx="0.5" cy="0.5" r="0.5"><stop offset="0" stop-color="#c6ff8a" stop-opacity="0.5"/><stop offset="1" stop-color="#c6ff8a" stop-opacity="0"/></radialGradient><circle cx="579.7" cy="1100.2" r="21.2" fill="url(#g5791100)"/><circle cx="579.7" cy="1100.2" r="3.5" fill="#eaffb0"/><radialGradient id="g991942" cx="0.5" cy="0.5" r="0.5"><stop offset="0" stop-color="#c6ff8a" stop-opacity="0.5"/><stop offset="1" stop-color="#c6ff8a" stop-opacity="0"/></radialGradient><circle cx="991.1" cy="942.1" r="18.7" fill="url(#g991942)"/><circle cx="991.1" cy="942.1" r="3.1" fill="#eaffb0"/><radialGradient id="g470841" cx="0.5" cy="0.5" r="0.5"><stop offset="0" stop-color="#c6ff8a" stop-opacity="0.5"/><stop offset="1" stop-color="#c6ff8a" stop-opacity="0"/></radialGradient><circle cx="470.5" cy="841.5" r="18.1" fill="url(#g470841)"/><circle cx="470.5" cy="841.5" r="3.0" fill="#eaffb0"/><radialGradient id="g11641282" cx="0.5" cy="0.5" r="0.5"><stop offset="0" stop-color="#c6ff8a" stop-opacity="0.5"/><stop offset="1" stop-color="#c6ff8a" stop-opacity="0"/></radialGradient><circle cx="1164.4" cy="1282.6" r="21.1" fill="url(#g11641282)"/><circle cx="1164.4" cy="1282.6" r="3.5" fill="#eaffb0"/><radialGradient id="g9831491" cx="0.5" cy="0.5" r="0.5"><stop offset="0" stop-color="#c6ff8a" stop-opacity="0.5"/><stop offset="1" stop-color="#c6ff8a" stop-opacity="0"/></radialGradient><circle cx="983.8" cy="1492.0" r="14.9" fill="url(#g9831491)"/><circle cx="983.8" cy="1492.0" r="2.5" fill="#eaffb0"/><radialGradient id="g1171009" cx="0.5" cy="0.5" r="0.5"><stop offset="0" stop-color="#c6ff8a" stop-opacity="0.5"/><stop offset="1" stop-color="#c6ff8a" stop-opacity="0"/></radialGradient><circle cx="117.5" cy="1009.9" r="23.3" fill="url(#g1171009)"/><circle cx="117.5" cy="1009.9" r="3.9" fill="#eaffb0"/><radialGradient id="g6251246" cx="0.5" cy="0.5" r="0.5"><stop offset="0" stop-color="#c6ff8a" stop-opacity="0.5"/><stop offset="1" stop-color="#c6ff8a" stop-opacity="0"/></radialGradient><circle cx="625.1" cy="1246.2" r="22.1" fill="url(#g6251246)"/><circle cx="625.1" cy="1246.2" r="3.7" fill="#eaffb0"/><radialGradient id="g11511289" cx="0.5" cy="0.5" r="0.5"><stop offset="0" stop-color="#c6ff8a" stop-opacity="0.5"/><stop offset="1" stop-color="#c6ff8a" stop-opacity="0"/></radialGradient><circle cx="1151.6" cy="1289.6" r="23.0" fill="url(#g11511289)"/><circle cx="1151.6" cy="1289.6" r="3.8" fill="#eaffb0"/><radialGradient id="g5871406" cx="0.5" cy="0.5" r="0.5"><stop offset="0" stop-color="#c6ff8a" stop-opacity="0.5"/><stop offset="1" stop-color="#c6ff8a" stop-opacity="0"/></radialGradient><circle cx="587.1" cy="1406.9" r="17.6" fill="url(#g5871406)"/><circle cx="587.1" cy="1406.9" r="2.9" fill="#eaffb0"/><radialGradient id="g3231447" cx="0.5" cy="0.5" r="0.5"><stop offset="0" stop-color="#c6ff8a" stop-opacity="0.5"/><stop offset="1" stop-color="#c6ff8a" stop-opacity="0"/></radialGradient><circle cx="323.4" cy="1447.2" r="14.4" fill="url(#g3231447)"/><circle cx="323.4" cy="1447.2" r="2.4" fill="#eaffb0"/><radialGradient id="g993883" cx="0.5" cy="0.5" r="0.5"><stop offset="0" stop-color="#c6ff8a" stop-opacity="0.5"/><stop offset="1" stop-color="#c6ff8a" stop-opacity="0"/></radialGradient><circle cx="993.5" cy="883.4" r="21.8" fill="url(#g993883)"/><circle cx="993.5" cy="883.4" r="3.6" fill="#eaffb0"/></g><g><path d="M0,-12 L3,-3 L12,0 L3,3 L0,12 L-3,3 L-12,0 L-3,-3 Z" fill="#ffd54a" opacity="0.83" transform="translate(697.1,647.3) scale(1.66)"/><path d="M0,-12 L3,-3 L12,0 L3,3 L0,12 L-3,3 L-12,0 L-3,-3 Z" fill="#ffd54a" opacity="0.94" transform="translate(499.7,642.2) scale(1.55)"/><path d="M0,-12 L3,-3 L12,0 L3,3 L0,12 L-3,3 L-12,0 L-3,-3 Z" fill="#ffd54a" opacity="0.41" transform="translate(961.3,780.6) scale(1.63)"/><path d="M0,-12 L3,-3 L12,0 L3,3 L0,12 L-3,3 L-12,0 L-3,-3 Z" fill="#ffd54a" opacity="0.45" transform="translate(632.7,214.0) scale(0.81)"/><path d="M0,-12 L3,-3 L12,0 L3,3 L0,12 L-3,3 L-12,0 L-3,-3 Z" fill="#ffd6ff" opacity="0.59" transform="translate(77.2,39.3) scale(1.31)"/><path d="M0,-12 L3,-3 L12,0 L3,3 L0,12 L-3,3 L-12,0 L-3,-3 Z" fill="#ffd54a" opacity="0.52" transform="translate(865.7,249.9) scale(1.16)"/><path d="M0,-12 L3,-3 L12,0 L3,3 L0,12 L-3,3 L-12,0 L-3,-3 Z" fill="#ffd6ff" opacity="0.91" transform="translate(120.1,963.7) scale(0.95)"/><path d="M0,-12 L3,-3 L12,0 L3,3 L0,12 L-3,3 L-12,0 L-3,-3 Z" fill="#ffd6ff" opacity="0.40" transform="translate(344.3,763.2) scale(1.08)"/><path d="M0,-12 L3,-3 L12,0 L3,3 L0,12 L-3,3 L-12,0 L-3,-3 Z" fill="#ffd54a" opacity="0.69" transform="translate(1122.4,951.4) scale(0.73)"/><path d="M0,-12 L3,-3 L12,0 L3,3 L0,12 L-3,3 L-12,0 L-3,-3 Z" fill="#fff6c8" opacity="0.87" transform="translate(1073.9,270.9) scale(0.93)"/><path d="M0,-12 L3,-3 L12,0 L3,3 L0,12 L-3,3 L-12,0 L-3,-3 Z" fill="#ffd6ff" opacity="0.51" transform="translate(432.9,1129.1) scale(1.41)"/><path d="M0,-12 L3,-3 L12,0 L3,3 L0,12 L-3,3 L-12,0 L-3,-3 Z" fill="#ffd54a" opacity="0.77" transform="translate(514.0,850.8) scale(0.90)"/><path d="M0,-12 L3,-3 L12,0 L3,3 L0,12 L-3,3 L-12,0 L-3,-3 Z" fill="#ffd54a" opacity="0.53" transform="translate(740.0,647.8) scale(1.02)"/><path d="M0,-12 L3,-3 L12,0 L3,3 L0,12 L-3,3 L-12,0 L-3,-3 Z" fill="#fff6c8" opacity="0.60" transform="translate(26.5,156.4) scale(0.58)"/><path d="M0,-12 L3,-3 L12,0 L3,3 L0,12 L-3,3 L-12,0 L-3,-3 Z" fill="#fff6c8" opacity="0.54" transform="translate(739.6,941.1) scale(1.14)"/><path d="M0,-12 L3,-3 L12,0 L3,3 L0,12 L-3,3 L-12,0 L-3,-3 Z" fill="#fff6c8" opacity="0.72" transform="translate(400.1,267.4) scale(1.08)"/></g><radialGradient id="vig" cx="0.5" cy="0.42" r="0.75"><stop offset="0.55" stop-color="#000000" stop-opacity="0"/><stop offset="1" stop-color="#000000" stop-opacity="0.55"/></radialGradient><rect width="1200" height="1500" fill="url(#vig)"/><linearGradient id="btm" x1="0" y1="0" x2="0" y2="1"><stop offset="0.65" stop-color="#000" stop-opacity="0"/><stop offset="1" stop-color="#000" stop-opacity="0.5"/></linearGradient><rect width="1200" height="1500" fill="url(#btm)"/></svg>