<svg xmlns="http://www.w3.org/2000/svg" viewBox="0 0 1200 1500" preserveAspectRatio="xMidYMid slice"><defs><filter id="soft" x="-20%" y="-20%" width="140%" height="140%"><feGaussianBlur stdDeviation="14"/></filter><filter id="fog" x="-40%" y="-40%" width="180%" height="180%"><feGaussianBlur stdDeviation="40"/></filter></defs><linearGradient id="sky" x1="0" y1="0" x2="0" y2="1"><stop offset="0" stop-color="#ffd1e8"/><stop offset="0.55" stop-color="#ffe4b5"/><stop offset="1" stop-color="#cfeecf"/></linearGradient><rect width="1200" height="1500" fill="url(#sky)"/><radialGradient id="g880300" cx="0.5" cy="0.5" r="0.5"><stop offset="0" stop-color="#ffe9a8" stop-opacity="0.65"/><stop offset="1" stop-color="#ffe9a8" stop-opacity="0"/></radialGradient><circle cx="880.0" cy="300.0" r="256.0" fill="url(#g880300)"/><circle cx="880.0" cy="300.0" r="80.0" fill="#fff6d5"/><g fill="#ffffff" opacity="0.7" filter="url(#soft)"><ellipse cx="557.1" cy="236.9" rx="40.6" ry="28.5"/><ellipse cx="601.3" cy="215.7" rx="53.0" ry="37.1"/><ellipse cx="654.3" cy="222.8" rx="47.7" ry="33.4"/><ellipse cx="702.9" cy="238.7" rx="38.9" ry="27.2"/><ellipse cx="627.8" cy="247.5" rx="61.9" ry="43.3"/><ellipse cx="939.6" cy="252.7" rx="49.9" ry="34.9"/><ellipse cx="993.8" cy="226.7" rx="65.0" ry="45.5"/><ellipse cx="1058.8" cy="235.4" rx="58.5" ry="41.0"/><ellipse cx="1118.4" cy="254.9" rx="47.7" ry="33.4"/><ellipse cx="1026.3" cy="265.7" rx="75.9" ry="53.1"/><ellipse cx="766.1" cy="266.2" rx="64.8" ry="45.3"/><ellipse cx="836.5" cy="232.4" rx="84.5" ry="59.1"/><ellipse cx="921.0" cy="243.7" rx="76.0" ry="53.2"/><ellipse cx="998.4" cy="269.1" rx="62.0" ry="43.4"/><ellipse cx="878.7" cy="283.1" rx="98.6" ry="69.0"/></g><path d="M -40,1500 L -40,1080.0 L 0,1080.0 Q 100.0,1076.2 200.0,1063.1 Q 300.0,1065.7 400.0,1092.5 Q 500.0,1045.0 600.0,1075.3 Q 700.0,1010.6 800.0,1088.6 Q 900.0,1047.8 1000.0,1093.3 Q 1100.0,1050.5 1200.0,1087.6 L 1240,1500 Z" fill="#7cc47c" opacity="0.9"/><rect x="0" y="1120.0" width="1200" height="380" fill="#2b6b3a"/><line x1="649.7" y1="1300.8" x2="649.7" y2="1330.7" stroke="#2e8b57" stroke-width="2.3"/><circle cx="660.0" cy="1300.8" r="6.9" fill="#ffffff"/><circle cx="654.9" cy="1309.8" r="6.9" fill="#ffffff"/><circle cx="644.5" cy="1309.8" r="6.9" fill="#ffffff"/><circle cx="639.4" cy="1300.8" r="6.9" fill="#ffffff"/><circle cx="644.5" cy="1291.9" r="6.9" fill="#ffffff"/><circle cx="654.9" cy="1291.9" r="6.9" fill="#ffffff"/><circle cx="649.7" cy="1300.8" r="5.7" fill="#ffde59"/><line x1="1036.6" y1="1410.6" x2="1036.6" y2="1438.0" stroke="#2e8b57" stroke-width="2.1"/><circle cx="1046.1" cy="1410.6" r="6.3" fill="#ffd54a"/><circle cx="1041.4" cy="1418.8" r="6.3" fill="#ffd54a"/><circle cx="1031.9" cy="1418.8" r="6.3" fill="#ffd54a"/><circle cx="1027.1" cy="1410.6" r="6.3" fill="#ffd54a"/><circle cx="1031.9" cy="1402.3" r="6.3" fill="#ffd54a"/><circle cx="1041.4" cy="1402.3" r="6.3" fill="#ffd54a"/><circle cx="1036.6" cy="1410.6" r="5.3" fill="#ffde59"/><line x1="436.0" y1="1195.4" x2="436.0" y2="1210.8" stroke="#2e8b57" stroke-width="1.2"/><circle cx="441.3" cy="1195.4" r="3.6" fill="#ff5e7e"/><circle cx="438.6" cy="1200.0" r="3.6" fill="#ff5e7e"/><circle cx="433.3" cy="1200.0" r="3.6" fill="#ff5e7e"/><circle cx="430.6" cy="1195.4" r="3.6" fill="#ff5e7e"/><circle cx="433.3" cy="1190.8" r="3.6" fill="#ff5e7e"/><circle cx="438.6" cy="1190.8" r="3.6" fill="#ff5e7e"/><circle cx="436.0" cy="1195.4" r="3.0" fill="#ffde59"/><line x1="833.3" y1="1262.1" x2="833.3" y2="1278.6" stroke="#2e8b57" stroke-width="1.3"/><circle cx="839.0" cy="1262.1" r="3.8" fill="#ffb347"/><circle cx="836.2" cy="1267.0" r="3.8" fill="#ffb347"/><circle cx="830.5" cy="1267.0" r="3.8" fill="#ffb347"/><circle cx="827.6" cy="1262.1" r="3.8" fill="#ffb347"/><circle cx="830.5" cy="1257.2" r="3.8" fill="#ffb347"/><circle cx="836.2" cy="1257.2" r="3.8" fill="#ffb347"/><circle cx="833.3" cy="1262.1" r="3.2" fill="#ffde59"/><line x1="1062.7" y1="1385.7" x2="1062.7" y2="1418.6" stroke="#2e8b57" stroke-width="2.5"/><circle cx="1074.1" cy="1385.7" r="7.6" fill="#ff5e7e"/><circle cx="1068.4" cy="1395.6" r="7.6" fill="#ff5e7e"/><circle cx="1057.0" cy="1395.6" r="7.6" fill="#ff5e7e"/><circle cx="1051.3" cy="1385.7" r="7.6" fill="#ff5e7e"/><circle cx="1057.0" cy="1375.9" r="7.6" fill="#ff5e7e"/><circle cx="1068.4" cy="1375.9" r="7.6" fill="#ff5e7e"/><circle cx="1062.7" cy="1385.7" r="6.3" fill="#ffde59"/><line x1="733.1" y1="1244.2" x2="733.1" y2="1261.7" stroke="#2e8b57" stroke-width="1.3"/><circle cx="739.2" cy="1244.2" r="4.0" fill="#ff7eb3"/><circle cx="736.1" cy="1249.4" r="4.0" fill="#ff7eb3"/><circle cx="730.1" cy="1249.4" r="4.0" fill="#ff7eb3"/><circle cx="727.1" cy="1244.2" r="4.0" fill="#ff7eb3"/><circle cx="730.1" cy="1238.9" r="4.0" fill="#ff7eb3"/><circle cx="736.1" cy="1238.9" r="4.0" fill="#ff7eb3"/><circle cx="733.1" cy="1244.2" r="3.4" fill="#ffde59"/><line x1="759.2" y1="1410.6" x2="759.2" y2="1451.5" stroke="#2e8b57" stroke-width="3.1"/><circle cx="773.3" cy="1410.6" r="9.4" fill="#ff9ad5"/><circle cx="766.2" cy="1422.9" r="9.4" fill="#ff9ad5"/><circle cx="752.1" cy="1422.9" r="9.4" fill="#ff9ad5"/><circle cx="745.0" cy="1410.6" r="9.4" fill="#ff9ad5"/><circle cx="752.1" cy="1398.3" r="9.4" fill="#ff9ad5"/><circle cx="766.2" cy="1398.3" r="9.4" fill="#ff9ad5"/><circle cx="759.2" cy="1410.6" r="7.9" fill="#ffde59"/><line x1="750.7" y1="1310.0" x2="750.7" y2="1334.6" stroke="#2e8b57" stroke-width="1.9"/><circle cx="759.2" cy="1310.0" r="5.7" fill="#ffb347"/><circle cx="755.0" cy="1317.4" r="5.7" fill="#ffb347"/><circle cx="746.5" cy="1317.4" r="5.7" fill="#ffb347"/><circle cx="742.2" cy="1310.0" r="5.7" fill="#ffb347"/><circle cx="746.5" cy="1302.7" r="5.7" fill="#ffb347"/><circle cx="755.0" cy="1302.7" r="5.7" fill="#ffb347"/><circle cx="750.7" cy="1310.0" r="4.7" fill="#ffde59"/><line x1="294.9" y1="1340.9" x2="294.9" y2="1359.8" stroke="#2e8b57" stroke-width="1.5"/><circle cx="301.5" cy="1340.9" r="4.4" fill="#ff9ad5"/><circle cx="298.2" cy="1346.5" r="4.4" fill="#ff9ad5"/><circle cx="291.6" cy="1346.5" r="4.4" fill="#ff9ad5"/><circle cx="288.3" cy="1340.9" r="4.4" fill="#ff9ad5"/><circle cx="291.6" cy="1335.2" r="4.4" fill="#ff9ad5"/><circle cx="298.2" cy="1335.2" r="4.4" fill="#ff9ad5"/><circle cx="294.9" cy="1340.9" r="3.6" fill="#ffde59"/><line x1="616.0" y1="1418.0" x2="616.0" y2="1463.4" stroke="#2e8b57" stroke-width="3.5"/><circle cx="631.7" cy="1418.0" r="10.5" fill="#ffb347"/><circle cx="623.8" cy="1431.6" r="10.5" fill="#ffb347"/><circle cx="608.1" cy="1431.6" r="10.5" fill="#ffb347"/><circle cx="600.3" cy="1418.0" r="10.5" fill="#ffb347"/><circle cx="608.1" cy="1404.4" r="10.5" fill="#ffb347"/><circle cx="623.8" cy="1404.4" r="10.5" fill="#ffb347"/><circle cx="616.0" cy="1418.0" r="8.7" fill="#ffde59"/><line x1="813.5" y1="1231.1" x2="813.5" y2="1247.6" stroke="#2e8b57" stroke-width="1.3"/><circle cx="819.2" cy="1231.1" r="3.8" fill="#ffd54a"/><circle cx="816.3" cy="1236.1" r="3.8" fill="#ffd54a"/><circle cx="810.6" cy="1236.1" r="3.8" fill="#ffd54a"/><circle cx="807.8" cy="1231.1" r="3.8" fill="#ffd54a"/><circle cx="810.6" cy="1226.2" r="3.8" fill="#ffd54a"/><circle cx="816.3" cy="1226.2" r="3.8" fill="#ffd54a"/><circle cx="813.5" cy="1231.1" r="3.2" fill="#ffde59"/><line x1="278.1" y1="1478.1" x2="278.1" y2="1528.1" stroke="#2e8b57" stroke-width="3.8"/><circle cx="295.4" cy="1478.1" r="11.5" fill="#ffffff"/><circle cx="286.7" cy="1493.1" r="11.5" fill="#ffffff"/><circle cx="269.4" cy="1493.1" r="11.5" fill="#ffffff"/><circle cx="260.8" cy="1478.1" r="11.5" fill="#ffffff"/><circle cx="269.4" cy="1463.1" r="11.5" fill="#ffffff"/><circle cx="286.7" cy="1463.1" r="11.5" fill="#ffffff"/><circle cx="278.1" cy="1478.1" r="9.6" fill="#ffde59"/><line x1="470.9" y1="1377.3" x2="470.9" y2="1411.8" stroke="#2e8b57" stroke-width="2.7"/><circle cx="482.8" cy="1377.3" r="8.0" fill="#ffd54a"/><circle cx="476.9" cy="1387.7" r="8.0" fill="#ffd54a"/><circle cx="464.9" cy="1387.7" r="8.0" fill="#ffd54a"/><circle cx="458.9" cy="1377.3" r="8.0" fill="#ffd54a"/><circle cx="464.9" cy="1367.0" r="8.0" fill="#ffd54a"/><circle cx="476.9" cy="1367.0" r="8.0" fill="#ffd54a"/><circle cx="470.9" cy="1377.3" r="6.6" fill="#ffde59"/><line x1="917.7" y1="1266.8" x2="917.7" y2="1296.9" stroke="#2e8b57" stroke-width="2.3"/><circle cx="928.1" cy="1266.8" r="6.9" fill="#ffffff"/><circle cx="922.9" cy="1275.8" r="6.9" fill="#ffffff"/><circle cx="912.5" cy="1275.8" r="6.9" fill="#ffffff"/><circle cx="907.3" cy="1266.8" r="6.9" fill="#ffffff"/><circle cx="912.5" cy="1257.8" r="6.9" fill="#ffffff"/><circle cx="922.9" cy="1257.8" r="6.9" fill="#ffffff"/><circle cx="917.7" cy="1266.8" r="5.8" fill="#ffde59"/><line x1="886.4" y1="1374.2" x2="886.4" y2="1412.0" stroke="#2e8b57" stroke-width="2.9"/><circle cx="899.5" cy="1374.2" r="8.7" fill="#ffb347"/><circle cx="893.0" cy="1385.5" r="8.7" fill="#ffb347"/><circle cx="879.9" cy="1385.5" r="8.7" fill="#ffb347"/><circle cx="873.4" cy="1374.2" r="8.7" fill="#ffb347"/><circle cx="879.9" cy="1362.9" r="8.7" fill="#ffb347"/><circle cx="893.0" cy="1362.9" r="8.7" fill="#ffb347"/><circle cx="886.4" cy="1374.2" r="7.3" fill="#ffde59"/><line x1="310.3" y1="1428.9" x2="310.3" y2="1451.9" stroke="#2e8b57" stroke-width="1.8"/><circle cx="318.3" cy="1428.9" r="5.3" fill="#ff7eb3"/><circle cx="314.3" cy="1435.8" r="5.3" fill="#ff7eb3"/><circle cx="306.3" cy="1435.8" r="5.3" fill="#ff7eb3"/><circle cx="302.3" cy="1428.9" r="5.3" fill="#ff7eb3"/><circle cx="306.3" cy="1422.0" r="5.3" fill="#ff7eb3"/><circle cx="314.3" cy="1422.0" r="5.3" fill="#ff7eb3"/><circle cx="310.3" cy="1428.9" r="4.4" fill="#ffde59"/><line x1="282.9" y1="1222.2" x2="282.9" y2="1238.5" stroke="#2e8b57" stroke-width="1.3"/><circle cx="288.5" cy="1222.2" r="3.8" fill="#ffd54a"/><circle cx="285.7" cy="1227.1" r="3.8" fill="#ffd54a"/><circle cx="280.1" cy="1227.1" r="3.8" fill="#ffd54a"/><circle cx="277.2" cy="1222.2" r="3.8" fill="#ffd54a"/><circle cx="280.1" cy="1217.4" r="3.8" fill="#ffd54a"/><circle cx="285.7" cy="1217.4" r="3.8" fill="#ffd54a"/><circle cx="282.9" cy="1222.2" r="3.1" fill="#ffde59"/><line x1="21.7" y1="1284.8" x2="21.7" y2="1317.4" stroke="#2e8b57" stroke-width="2.5"/><circle cx="33.0" cy="1284.8" r="7.5" fill="#ffffff"/><circle cx="27.3" cy="1294.5" r="7.5" fill="#ffffff"/><circle cx="16.1" cy="1294.5" r="7.5" fill="#ffffff"/><circle cx="10.4" cy="1284.8" r="7.5" fill="#ffffff"/><circle cx="16.1" cy="1275.0" r="7.5" fill="#ffffff"/><circle cx="27.3" cy="1275.0" r="7.5" fill="#ffffff"/><circle cx="21.7" cy="1284.8" r="6.3" fill="#ffde59"/><line x1="844.7" y1="1268.8" x2="844.7" y2="1285.8" stroke="#2e8b57" stroke-width="1.3"/><circle cx="850.6" cy="1268.8" r="3.9" fill="#ff7eb3"/><circle cx="847.7" cy="1273.9" r="3.9" fill="#ff7eb3"/><circle cx="841.8" cy="1273.9" r="3.9" fill="#ff7eb3"/><circle cx="838.9" cy="1268.8" r="3.9" fill="#ff7eb3"/><circle cx="841.8" cy="1263.7" r="3.9" fill="#ff7eb3"/><circle cx="847.7" cy="1263.7" r="3.9" fill="#ff7eb3"/><circle cx="844.7" cy="1268.8" r="3.3" fill="#ffde59"/><line x1="1158.2" y1="1383.8" x2="1158.2" y2="1420.8" stroke="#2e8b57" stroke-width="2.8"/><circle cx="1171.0" cy="1383.8" r="8.5" fill="#ff5e7e"/><circle cx="1164.6" cy="1394.9" r="8.5" fill="#ff5e7e"/><circle cx="1151.8" cy="1394.9" r="8.5" fill="#ff5e7e"/><circle cx="1145.4" cy="1383.8" r="8.5" fill="#ff5e7e"/><circle cx="1151.8" cy="1372.7" r="8.5" fill="#ff5e7e"/><circle cx="1164.6" cy="1372.7" r="8.5" fill="#ff5e7e"/><circle cx="1158.2" cy="1383.8" r="7.1" fill="#ffde59"/><line x1="178.9" y1="1263.7" x2="178.9" y2="1289.0" stroke="#2e8b57" stroke-width="1.9"/><circle cx="187.6" cy="1263.7" r="5.8" fill="#ff7eb3"/><circle cx="183.2" cy="1271.3" r="5.8" fill="#ff7eb3"/><circle cx="174.5" cy="1271.3" r="5.8" fill="#ff7eb3"/><circle cx="170.1" cy="1263.7" r="5.8" fill="#ff7eb3"/><circle cx="174.5" cy="1256.1" r="5.8" fill="#ff7eb3"/><circle cx="183.2" cy="1256.1" r="5.8" fill="#ff7eb3"/><circle cx="178.9" cy="1263.7" r="4.9" fill="#ffde59"/><line x1="21.9" y1="1201.8" x2="21.9" y2="1222.1" stroke="#2e8b57" stroke-width="1.6"/><circle cx="29.0" cy="1201.8" r="4.7" fill="#ffd54a"/><circle cx="25.4" cy="1207.9" r="4.7" fill="#ffd54a"/><circle cx="18.4" cy="1207.9" r="4.7" fill="#ffd54a"/><circle cx="14.9" cy="1201.8" r="4.7" fill="#ffd54a"/><circle cx="18.4" cy="1195.7" r="4.7" fill="#ffd54a"/><circle cx="25.4" cy="1195.7" r="4.7" fill="#ffd54a"/><circle cx="21.9" cy="1201.8" r="3.9" fill="#ffde59"/><line x1="1159.0" y1="1350.7" x2="1159.0" y2="1374.5" stroke="#2e8b57" stroke-width="1.8"/><circle cx="1167.2" cy="1350.7" r="5.5" fill="#ffb347"/><circle cx="1163.1" cy="1357.8" r="5.5" fill="#ffb347"/><circle cx="1154.8" cy="1357.8" r="5.5" fill="#ffb347"/><circle cx="1150.7" cy="1350.7" r="5.5" fill="#ffb347"/><circle cx="1154.8" cy="1343.5" r="5.5" fill="#ffb347"/><circle cx="1163.1" cy="1343.5" r="5.5" fill="#ffb347"/><circle cx="1159.0" cy="1350.7" r="4.6" fill="#ffde59"/><line x1="1191.4" y1="1208.9" x2="1191.4" y2="1233.8" stroke="#2e8b57" stroke-width="1.9"/><circle cx="1200.1" cy="1208.9" r="5.8" fill="#ffffff"/><circle cx="1195.7" cy="1216.3" r="5.8" fill="#ffffff"/><circle cx="1187.1" cy="1216.3" r="5.8" fill="#ffffff"/><circle cx="1182.8" cy="1208.9" r="5.8" fill="#ffffff"/><circle cx="1187.1" cy="1201.4" r="5.8" fill="#ffffff"/><circle cx="1195.7" cy="1201.4" r="5.8" fill="#ffffff"/><circle cx="1191.4" cy="1208.9" r="4.8" fill="#ffde59"/><line x1="1050.9" y1="1212.5" x2="1050.9" y2="1238.5" stroke="#2e8b57" stroke-width="2.0"/><circle cx="1059.9" cy="1212.5" r="6.0" fill="#ff7eb3"/><circle cx="1055.4" cy="1220.3" r="6.0" fill="#ff7eb3"/><circle cx="1046.3" cy="1220.3" r="6.0" fill="#ff7eb3"/><circle cx="1041.8" cy="1212.5" r="6.0" fill="#ff7eb3"/><circle cx="1046.3" cy="1204.6" r="6.0" fill="#ff7eb3"/><circle cx="1055.4" cy="1204.6" r="6.0" fill="#ff7eb3"/><circle cx="1050.9" cy="1212.5" r="5.0" fill="#ffde59"/><line x1="113.0" y1="1421.8" x2="113.0" y2="1468.7" stroke="#2e8b57" stroke-width="3.6"/><circle cx="129.3" cy="1421.8" r="10.8" fill="#ff7eb3"/><circle cx="121.2" cy="1435.9" r="10.8" fill="#ff7eb3"/><circle cx="104.9" cy="1435.9" r="10.8" fill="#ff7eb3"/><circle cx="96.8" cy="1421.8" r="10.8" fill="#ff7eb3"/><circle cx="104.9" cy="1407.8" r="10.8" fill="#ff7eb3"/><circle cx="121.2" cy="1407.8" r="10.8" fill="#ff7eb3"/><circle cx="113.0" cy="1421.8" r="9.0" fill="#ffde59"/><line x1="526.5" y1="1374.9" x2="526.5" y2="1417.6" stroke="#2e8b57" stroke-width="3.3"/><circle cx="541.2" cy="1374.9" r="9.9" fill="#ff9ad5"/><circle cx="533.9" cy="1387.7" r="9.9" fill="#ff9ad5"/><circle cx="519.1" cy="1387.7" r="9.9" fill="#ff9ad5"/><circle cx="511.7" cy="1374.9" r="9.9" fill="#ff9ad5"/><circle cx="519.1" cy="1362.1" r="9.9" fill="#ff9ad5"/><circle cx="533.9" cy="1362.1" r="9.9" fill="#ff9ad5"/><circle cx="526.5" cy="1374.9" r="8.2" fill="#ffde59"/><line x1="24.6" y1="1447.7" x2="24.6" y2="1491.4" stroke="#2e8b57" stroke-width="3.4"/><circle cx="39.8" cy="1447.7" r="10.1" fill="#ff5e7e"/><circle cx="32.2" cy="1460.8" r="10.1" fill="#ff5e7e"/><circle cx="17.1" cy="1460.8" r="10.1" fill="#ff5e7e"/><circle cx="9.5" cy="1447.7" r="10.1" fill="#ff5e7e"/><circle cx="17.1" cy="1434.5" r="10.1" fill="#ff5e7e"/><circle cx="32.2" cy="1434.5" r="10.1" fill="#ff5e7e"/><circle cx="24.6" cy="1447.7" r="8.4" fill="#ffde59"/><line x1="153.3" y1="1230.6" x2="153.3" y2="1255.8" stroke="#2e8b57" stroke-width="1.9"/><circle cx="162.0" cy="1230.6" r="5.8" fill="#ffd54a"/><circle cx="157.7" cy="1238.2" r="5.8" fill="#ffd54a"/><circle cx="149.0" cy="1238.2" r="5.8" fill="#ffd54a"/><circle cx="144.7" cy="1230.6" r="5.8" fill="#ffd54a"/><circle cx="149.0" cy="1223.1" r="5.8" fill="#ffd54a"/><circle cx="157.7" cy="1223.1" r="5.8" fill="#ffd54a"/><circle cx="153.3" cy="1230.6" r="4.8" fill="#ffde59"/><line x1="443.3" y1="1271.6" x2="443.3" y2="1294.7" stroke="#2e8b57" stroke-width="1.8"/><circle cx="451.3" cy="1271.6" r="5.3" fill="#ff7eb3"/><circle cx="447.3" cy="1278.5" r="5.3" fill="#ff7eb3"/><circle cx="439.3" cy="1278.5" r="5.3" fill="#ff7eb3"/><circle cx="435.3" cy="1271.6" r="5.3" fill="#ff7eb3"/><circle cx="439.3" cy="1264.6" r="5.3" fill="#ff7eb3"/><circle cx="447.3" cy="1264.6" r="5.3" fill="#ff7eb3"/><circle cx="443.3" cy="1271.6" r="4.5" fill="#ffde59"/><g><ellipse cx="114.4" cy="451.6" rx="9.5" ry="4.6" fill="#ff5e7e" opacity="0.55" transform="rotate(167 114.4 451.6)"/><ellipse cx="497.9" cy="5.9" rx="9.0" ry="4.4" fill="#ffd1e8" opacity="0.63" transform="rotate(68 497.9 5.9)"/><ellipse cx="132.5" cy="675.6" rx="9.5" ry="4.6" fill="#ff9ad5" opacity="0.78" transform="rotate(255 132.5 675.6)"/><ellipse cx="833.4" cy="1148.7" rx="4.5" ry="2.2" fill="#ffd1e8" opacity="0.55" transform="rotate(252 833.4 1148.7)"/><ellipse cx="979.3" cy="793.7" rx="5.3" ry="2.6" fill="#ff9ad5" opacity="0.55" transform="rotate(300 979.3 793.7)"/><ellipse cx="1083.3" cy="412.9" rx="5.3" ry="2.6" fill="#ff9ad5" opacity="0.77" transform="rotate(327 1083.3 412.9)"/><ellipse cx="537.4" cy="591.7" rx="8.7" ry="4.2" fill="#ff5e7e" opacity="0.63" transform="rotate(318 537.4 591.7)"/><ellipse cx="544.3" cy="900.9" rx="8.8" ry="4.3" fill="#ffd1e8" opacity="0.82" transform="rotate(244 544.3 900.9)"/><ellipse cx="734.7" cy="149.8" rx="6.4" ry="3.1" fill="#ff5e7e" opacity="0.80" transform="rotate(114 734.7 149.8)"/><ellipse cx="525.5" cy="456.4" rx="8.2" ry="4.0" fill="#ff7eb3" opacity="0.63" transform="rotate(137 525.5 456.4)"/><ellipse cx="1033.7" cy="285.1" rx="5.6" ry="2.7" fill="#ff9ad5" opacity="0.87" transform="rotate(31 1033.7 285.1)"/><ellipse cx="406.5" cy="1403.4" rx="7.9" ry="3.9" fill="#ff5e7e" opacity="0.78" transform="rotate(44 406.5 1403.4)"/><ellipse cx="1164.3" cy="921.5" rx="5.2" ry="2.5" fill="#ff7eb3" opacity="0.62" transform="rotate(39 1164.3 921.5)"/><ellipse cx="195.4" cy="108.0" rx="5.8" ry="2.8" fill="#ff5e7e" opacity="0.71" transform="rotate(261 195.4 108.0)"/><ellipse cx="904.9" cy="605.4" rx="6.9" ry="3.4" fill="#ff9ad5" opacity="0.65" transform="rotate(220 904.9 605.4)"/><ellipse cx="584.3" cy="345.3" rx="7.5" ry="3.6" fill="#ff5e7e" opacity="0.82" transform="rotate(140 584.3 345.3)"/><ellipse cx="754.0" cy="88.2" rx="6.1" ry="3.0" fill="#ff7eb3" opacity="0.86" transform="rotate(155 754.0 88.2)"/><ellipse cx="1028.5" cy="1001.8" rx="7.5" ry="3.6" fill="#ffd1e8" opacity="0.67" transform="rotate(271 1028.5 1001.8)"/><ellipse cx="593.3" cy="1366.3" rx="7.1" ry="3.5" fill="#ffd1e8" opacity="0.84" transform="rotate(307 593.3 1366.3)"/><ellipse cx="1074.1" cy="1338.9" rx="5.5" ry="2.7" fill="#ffd1e8" opacity="0.60" transform="rotate(317 1074.1 1338.9)"/><ellipse cx="796.9" cy="489.7" rx="7.6" ry="3.7" fill="#ff5e7e" opacity="0.61" transform="rotate(12 796.9 489.7)"/><ellipse cx="155.7" cy="148.8" rx="9.7" ry="4.7" fill="#ff5e7e" opacity="0.59" transform="rotate(198 155.7 148.8)"/><ellipse cx="743.7" cy="1249.2" rx="8.5" ry="4.1" fill="#ffd1e8" opacity="0.51" transform="rotate(338 743.7 1249.2)"/><ellipse cx="731.2" cy="1026.7" rx="4.5" ry="2.2" fill="#ff9ad5" opacity="0.60" transform="rotate(220 731.2 1026.7)"/><ellipse cx="311.1" cy="647.5" rx="9.0" ry="4.4" fill="#ff5e7e" opacity="0.60" transform="rotate(168 311.1 647.5)"/><ellipse cx="181.9" cy="1087.4" rx="6.8" ry="3.3" fill="#ff5e7e" opacity="0.52" transform="rotate(305 181.9 1087.4)"/></g><radialGradient id="vig" cx="0.5" cy="0.42" r="0.75"><stop offset="0.55" stop-color="#000000" stop-opacity="0"/><stop offset="1" stop-color="#000000" stop-opacity="0.4"/></radialGradient><rect width="1200" height="1500" fill="url(#vig)"/><linearGradient id="btm" x1="0" y1="0" x2="0" y2="1"><stop offset="0.65" stop-color="#000" stop-opacity="0"/><stop offset="1" stop-color="#000" stop-opacity="0.5"/></linearGradient><rect width="1200" height="1500" fill="url(#btm)"/></svg>