<svg xmlns="http://www.w3.org/2000/svg" viewBox="0 0 1200 1500" preserveAspectRatio="xMidYMid slice"><defs><filter id="soft" x="-20%" y="-20%" width="140%" height="140%"><feGaussianBlur stdDeviation="14"/></filter><filter id="fog" x="-40%" y="-40%" width="180%" height="180%"><feGaussianBlur stdDeviation="40"/></filter></defs><linearGradient id="sky" x1="0" y1="0" x2="0" y2="1"><stop offset="0" stop-color="#0a0620"/><stop offset="0.55" stop-color="#1a1147"/><stop offset="1" stop-color="#3a1c71"/></linearGradient><rect width="1200" height="1500" fill="url(#sky)"/><radialGradient id="g820460" cx="0.5" cy="0.5" r="0.5"><stop offset="0" stop-color="#7b3fe4" stop-opacity="0.55"/><stop offset="1" stop-color="#7b3fe4" stop-opacity="0"/></radialGradient><circle cx="820.0" cy="460.0" r="620.0" fill="url(#g820460)"/><radialGradient id="g360320" cx="0.5" cy="0.5" r="0.5"><stop offset="0" stop-color="#e94fd0" stop-opacity="0.35"/><stop offset="1" stop-color="#e94fd0" stop-opacity="0"/></radialGradient><circle cx="360.0" cy="320.0" r="460.0" fill="url(#g360320)"/><g><circle cx="292.2" cy="527.3" r="0.9" fill="#ffffff" opacity="0.87"/><circle cx="277.7" cy="579.9" r="2.3" fill="#ffffff" opacity="0.58"/><circle cx="1161.4" cy="768.0" r="1.6" fill="#ffffff" opacity="0.74"/><circle cx="703.3" cy="378.2" r="2.4" fill="#ffffff" opacity="0.58"/><circle cx="1180.6" cy="895.2" r="0.7" fill="#ffffff" opacity="0.48"/><circle cx="573.3" cy="855.3" r="0.9" fill="#ffffff" opacity="0.73"/><circle cx="440.7" cy="825.0" r="2.3" fill="#ffffff" opacity="0.83"/><circle cx="231.9" cy="798.3" r="1.4" fill="#ffffff" opacity="0.89"/><circle cx="564.1" cy="952.0" r="2.4" fill="#ffffff" opacity="0.88"/><circle cx="991.3" cy="860.0" r="1.7" fill="#ffffff" opacity="0.42"/><circle cx="1183.4" cy="487.4" r="0.6" fill="#ffffff" opacity="0.60"/><circle cx="498.0" cy="210.9" r="2.3" fill="#ffffff" opacity="0.38"/><circle cx="1085.0" cy="577.2" r="0.9" fill="#ffffff" opacity="0.55"/><circle cx="540.4" cy="123.5" r="2.0" fill="#ffffff" opacity="0.76"/><circle cx="1178.8" cy="871.4" r="2.0" fill="#ffffff" opacity="1.00"/><circle cx="1118.3" cy="676.2" r="1.6" fill="#ffffff" opacity="0.67"/><circle cx="976.6" cy="971.6" r="2.1" fill="#ffffff" opacity="0.89"/><circle cx="32.9" cy="441.7" r="0.8" fill="#ffffff" opacity="0.71"/><circle cx="696.1" cy="588.8" r="2.1" fill="#ffffff" opacity="0.46"/><circle cx="874.6" cy="615.7" r="1.0" fill="#ffffff" opacity="0.98"/><circle cx="64.3" cy="488.1" r="1.6" fill="#ffffff" opacity="0.72"/><circle cx="1178.4" cy="579.1" r="2.2" fill="#ffffff" opacity="0.51"/><circle cx="577.7" cy="154.2" r="1.8" fill="#ffffff" opacity="0.60"/><circle cx="941.8" cy="118.1" r="1.4" fill="#ffffff" opacity="0.97"/><circle cx="13.5" cy="693.3" r="1.8" fill="#ffffff" opacity="0.81"/><circle cx="668.9" cy="525.8" r="2.3" fill="#ffffff" opacity="0.50"/><circle cx="844.5" cy="701.9" r="1.9" fill="#ffffff" opacity="0.63"/><circle cx="20.2" cy="814.2" r="1.1" fill="#ffffff" opacity="0.85"/><circle cx="1184.5" cy="815.3" r="1.3" fill="#ffffff" opacity="0.90"/><circle cx="463.1" cy="336.0" r="1.6" fill="#ffffff" opacity="0.76"/><circle cx="823.1" cy="580.3" r="1.3" fill="#ffffff" opacity="0.82"/><circle cx="389.3" cy="636.7" r="0.6" fill="#ffffff" opacity="0.39"/><circle cx="1041.0" cy="226.3" r="1.3" fill="#ffffff" opacity="0.34"/><circle cx="918.1" cy="344.9" r="0.7" fill="#ffffff" opacity="0.49"/><circle cx="1116.7" cy="793.4" r="0.6" fill="#ffffff" opacity="0.97"/><circle cx="86.8" cy="508.4" r="1.6" fill="#ffffff" opacity="0.85"/><circle cx="169.7" cy="866.2" r="1.1" fill="#ffffff" opacity="0.82"/><circle cx="1112.3" cy="619.6" r="0.6" fill="#ffffff" opacity="0.77"/><circle cx="522.3" cy="767.0" r="2.0" fill="#ffffff" opacity="0.38"/><circle cx="681.4" cy="675.6" r="2.3" fill="#ffffff" opacity="0.73"/><circle cx="737.9" cy="807.2" r="0.9" fill="#ffffff" opacity="0.90"/><circle cx="697.3" cy="667.9" r="0.9" fill="#ffffff" opacity="0.67"/><circle cx="491.2" cy="216.0" r="2.3" fill="#ffffff" opacity="0.89"/><circle cx="550.7" cy="78.9" r="2.4" fill="#ffffff" opacity="0.38"/><circle cx="608.3" cy="593.5" r="2.1" fill="#ffffff" opacity="0.76"/><circle cx="724.3" cy="538.5" r="2.4" fill="#ffffff" opacity="0.87"/><circle cx="427.5" cy="834.6" r="2.3" fill="#ffffff" opacity="0.64"/><circle cx="101.8" cy="70.4" r="2.3" fill="#ffffff" opacity="0.45"/><circle cx="965.0" cy="202.8" r="1.0" fill="#ffffff" opacity="0.41"/><circle cx="978.5" cy="96.2" r="1.4" fill="#ffffff" opacity="0.87"/><circle cx="632.5" cy="9.7" r="0.6" fill="#ffffff" opacity="0.88"/><circle cx="360.3" cy="87.3" r="1.5" fill="#ffffff" opacity="0.85"/><circle cx="363.7" cy="140.6" r="0.9" fill="#ffffff" opacity="0.63"/><circle cx="935.8" cy="87.1" r="2.0" fill="#ffffff" opacity="0.78"/><circle cx="669.4" cy="402.0" r="0.7" fill="#ffffff" opacity="0.65"/><circle cx="493.9" cy="713.1" r="0.7" fill="#ffffff" opacity="0.42"/><circle cx="22.4" cy="511.0" r="0.7" fill="#ffffff" opacity="0.67"/><circle cx="524.3" cy="347.3" r="0.9" fill="#ffffff" opacity="0.94"/><circle cx="576.6" cy="107.3" r="1.6" fill="#ffffff" opacity="0.83"/><circle cx="585.8" cy="935.8" r="2.1" fill="#ffffff" opacity="0.78"/><circle cx="31.4" cy="422.4" r="1.5" fill="#ffffff" opacity="0.42"/><circle cx="599.9" cy="701.5" r="2.0" fill="#ffffff" opacity="0.83"/><circle cx="897.0" cy="314.9" r="1.7" fill="#ffffff" opacity="0.65"/><circle cx="910.1" cy="127.8" r="0.9" fill="#ffffff" opacity="0.80"/><circle cx="868.8" cy="241.0" r="2.0" fill="#ffffff" opacity="0.84"/><circle cx="776.0" cy="484.6" r="0.7" fill="#ffffff" opacity="0.46"/><circle cx="918.7" cy="978.4" r="0.9" fill="#ffffff" opacity="0.33"/><circle cx="419.1" cy="987.4" r="1.0" fill="#ffffff" opacity="0.95"/><circle cx="940.9" cy="882.2" r="2.4" fill="#ffffff" opacity="0.77"/><circle cx="237.3" cy="455.2" r="1.3" fill="#ffffff" opacity="0.77"/><circle cx="424.1" cy="767.9" r="0.7" fill="#ffffff" opacity="0.46"/><circle cx="266.4" cy="179.2" r="1.9" fill="#ffffff" opacity="0.91"/><circle cx="113.5" cy="500.7" r="0.6" fill="#ffffff" opacity="0.47"/><circle cx="173.5" cy="727.0" r="2.1" fill="#ffffff" opacity="0.89"/><circle cx="329.7" cy="430.2" r="1.0" fill="#ffffff" opacity="0.76"/><circle cx="274.6" cy="804.8" r="1.4" fill="#ffffff" opacity="0.69"/><circle cx="1046.3" cy="970.3" r="1.1" fill="#ffffff" opacity="0.81"/><circle cx="327.5" cy="11.4" r="2.1" fill="#ffffff" opacity="0.43"/><circle cx="337.6" cy="754.0" r="2.1" fill="#ffffff" opacity="0.57"/><circle cx="859.2" cy="416.0" r="0.6" fill="#ffffff" opacity="0.69"/><circle cx="207.2" cy="220.2" r="1.3" fill="#ffffff" opacity="0.75"/><circle cx="263.9" cy="229.9" r="1.6" fill="#ffffff" opacity="0.49"/><circle cx="672.8" cy="707.6" r="1.2" fill="#ffffff" opacity="0.93"/><circle cx="1160.7" cy="41.2" r="0.7" fill="#ffffff" opacity="0.38"/><circle cx="589.7" cy="316.0" r="1.9" fill="#ffffff" opacity="0.99"/><circle cx="544.0" cy="287.6" r="1.0" fill="#ffffff" opacity="0.94"/><circle cx="977.8" cy="922.9" r="2.4" fill="#ffffff" opacity="0.62"/><circle cx="896.6" cy="353.1" r="0.9" fill="#ffffff" opacity="0.79"/><circle cx="444.9" cy="566.6" r="1.6" fill="#ffffff" opacity="0.47"/><circle cx="26.3" cy="781.4" r="2.0" fill="#ffffff" opacity="0.84"/><circle cx="392.6" cy="351.5" r="1.7" fill="#ffffff" opacity="0.56"/><circle cx="894.8" cy="545.6" r="1.6" fill="#ffffff" opacity="0.90"/><circle cx="140.9" cy="220.8" r="1.5" fill="#ffffff" opacity="0.90"/><circle cx="1101.7" cy="920.8" r="1.0" fill="#ffffff" opacity="0.52"/><circle cx="296.4" cy="238.7" r="0.9" fill="#ffffff" opacity="0.41"/><circle cx="980.1" cy="549.2" r="2.3" fill="#ffffff" opacity="0.74"/><circle cx="910.2" cy="979.4" r="1.6" fill="#ffffff" opacity="0.46"/><circle cx="488.6" cy="464.7" r="0.9" fill="#ffffff" opacity="0.69"/><circle cx="927.8" cy="342.7" r="0.6" fill="#ffffff" opacity="0.37"/><circle cx="437.7" cy="208.6" r="1.4" fill="#ffffff" opacity="0.98"/><circle cx="278.8" cy="370.6" r="1.7" fill="#ffffff" opacity="0.41"/><circle cx="1044.6" cy="1031.4" r="0.6" fill="#ffffff" opacity="0.58"/><circle cx="969.3" cy="19.9" r="1.6" fill="#ffffff" opacity="0.87"/><circle cx="1144.0" cy="201.0" r="2.3" fill="#ffffff" opacity="0.72"/><circle cx="885.9" cy="239.2" r="0.7" fill="#ffffff" opacity="0.64"/><circle cx="1178.7" cy="266.4" r="2.4" fill="#ffffff" opacity="0.99"/><circle cx="565.3" cy="477.4" r="2.3" fill="#ffffff" opacity="0.32"/><circle cx="694.8" cy="180.9" r="1.9" fill="#ffffff" opacity="0.64"/><circle cx="738.5" cy="408.1" r="2.2" fill="#ffffff" opacity="0.88"/><circle cx="30.3" cy="593.8" r="1.0" fill="#ffffff" opacity="0.95"/><circle cx="1095.1" cy="831.1" r="1.8" fill="#ffffff" opacity="0.93"/><circle cx="297.4" cy="308.1" r="2.2" fill="#ffffff" opacity="0.76"/><circle cx="350.2" cy="888.3" r="1.8" fill="#ffffff" opacity="0.31"/><circle cx="1125.1" cy="775.7" r="1.9" fill="#ffffff" opacity="0.36"/><circle cx="19.0" cy="82.8" r="2.0" fill="#ffffff" opacity="0.33"/><circle cx="345.0" cy="343.3" r="1.3" fill="#ffffff" opacity="0.50"/><circle cx="117.0" cy="544.2" r="0.7" fill="#ffffff" opacity="0.58"/><circle cx="341.5" cy="91.5" r="0.8" fill="#ffffff" opacity="0.81"/><circle cx="89.9" cy="526.8" r="1.7" fill="#ffffff" opacity="0.94"/><circle cx="732.8" cy="821.7" r="2.2" fill="#ffffff" opacity="0.38"/><circle cx="62.4" cy="851.8" r="1.1" fill="#ffffff" opacity="0.63"/><circle cx="384.5" cy="165.6" r="1.3" fill="#ffffff" opacity="0.63"/><circle cx="989.1" cy="234.6" r="0.8" fill="#ffffff" opacity="0.72"/><circle cx="1036.1" cy="438.0" r="1.1" fill="#ffffff" opacity="0.92"/><circle cx="1001.7" cy="33.3" r="0.8" fill="#ffffff" opacity="0.71"/><circle cx="480.2" cy="515.2" r="1.3" fill="#ffffff" opacity="0.38"/><circle cx="916.7" cy="933.0" r="1.7" fill="#ffffff" opacity="0.51"/><circle cx="838.1" cy="301.7" r="0.8" fill="#ffffff" opacity="0.72"/><circle cx="690.1" cy="937.6" r="1.3" fill="#ffffff" opacity="0.39"/><circle cx="682.4" cy="58.1" r="1.1" fill="#ffffff" opacity="0.98"/><circle cx="448.3" cy="378.3" r="2.3" fill="#ffffff" opacity="0.36"/><circle cx="921.2" cy="767.6" r="2.2" fill="#ffffff" opacity="0.39"/><circle cx="540.6" cy="393.6" r="0.6" fill="#ffffff" opacity="0.42"/><circle cx="168.0" cy="74.2" r="1.9" fill="#ffffff" opacity="0.80"/><circle cx="466.9" cy="861.0" r="2.1" fill="#ffffff" opacity="0.89"/><circle cx="246.1" cy="376.2" r="0.9" fill="#ffffff" opacity="0.33"/><circle cx="1185.2" cy="591.9" r="1.8" fill="#ffffff" opacity="0.68"/><circle cx="331.8" cy="16.3" r="1.1" fill="#ffffff" opacity="0.59"/><circle cx="70.4" cy="268.9" r="2.2" fill="#ffffff" opacity="0.35"/><circle cx="717.9" cy="439.9" r="1.9" fill="#ffffff" opacity="0.72"/><circle cx="486.9" cy="1048.8" r="2.0" fill="#ffffff" opacity="0.60"/><circle cx="1019.1" cy="816.0" r="2.4" fill="#ffffff" opacity="0.60"/><circle cx="243.0" cy="522.7" r="1.8" fill="#ffffff" opacity="0.61"/><circle cx="119.0" cy="524.9" r="0.7" fill="#ffffff" opacity="0.34"/><circle cx="821.8" cy="263.2" r="2.2" fill="#ffffff" opacity="0.93"/><circle cx="906.1" cy="123.3" r="1.0" fill="#ffffff" opacity="0.65"/><circle cx="678.7" cy="484.5" r="0.6" fill="#ffffff" opacity="0.42"/><circle cx="1110.7" cy="430.9" r="1.5" fill="#ffffff" opacity="0.94"/><circle cx="278.5" cy="429.1" r="1.8" fill="#ffffff" opacity="0.48"/><circle cx="506.0" cy="802.2" r="2.0" fill="#ffffff" opacity="0.82"/><circle cx="955.2" cy="13.3" r="0.7" fill="#ffffff" opacity="0.72"/><circle cx="883.8" cy="55.2" r="1.3" fill="#ffffff" opacity="0.69"/><circle cx="420.1" cy="22.2" r="1.6" fill="#ffffff" opacity="0.70"/><circle cx="677.9" cy="185.3" r="1.2" fill="#ffffff" opacity="0.32"/><circle cx="641.6" cy="223.6" r="1.5" fill="#ffffff" opacity="0.93"/><circle cx="564.2" cy="280.7" r="1.8" fill="#ffffff" opacity="0.83"/><circle cx="318.7" cy="567.1" r="2.0" fill="#ffffff" opacity="0.41"/><circle cx="853.1" cy="312.5" r="1.3" fill="#ffffff" opacity="0.70"/><circle cx="1177.9" cy="249.9" r="1.1" fill="#ffffff" opacity="1.00"/><circle cx="102.3" cy="249.5" r="1.8" fill="#ffffff" opacity="0.64"/><circle cx="947.9" cy="194.0" r="2.1" fill="#ffffff" opacity="0.50"/><circle cx="186.4" cy="590.0" r="1.1" fill="#ffffff" opacity="0.57"/><circle cx="1052.3" cy="879.6" r="1.8" fill="#ffffff" opacity="0.69"/><circle cx="19.0" cy="363.0" r="2.0" fill="#ffffff" opacity="0.84"/><circle cx="7.6" cy="465.5" r="1.8" fill="#ffffff" opacity="0.71"/><circle cx="532.2" cy="313.2" r="1.5" fill="#ffffff" opacity="0.32"/><circle cx="1091.1" cy="55.1" r="0.9" fill="#ffffff" opacity="0.97"/><circle cx="687.1" cy="138.3" r="1.0" fill="#ffffff" opacity="0.61"/><circle cx="128.0" cy="7.1" r="0.7" fill="#ffffff" opacity="0.34"/><circle cx="309.6" cy="633.2" r="0.9" fill="#ffffff" opacity="0.64"/><circle cx="417.6" cy="493.3" r="1.5" fill="#ffffff" opacity="0.50"/><circle cx="751.7" cy="983.3" r="1.7" fill="#ffffff" opacity="0.96"/><circle cx="604.7" cy="562.9" r="1.3" fill="#ffffff" opacity="0.60"/><circle cx="564.3" cy="1041.9" r="1.5" fill="#ffffff" opacity="0.76"/><circle cx="920.1" cy="96.4" r="0.7" fill="#ffffff" opacity="0.59"/><circle cx="243.4" cy="462.5" r="1.0" fill="#ffffff" opacity="0.69"/><circle cx="517.4" cy="229.3" r="1.9" fill="#ffffff" opacity="0.98"/><circle cx="337.4" cy="553.9" r="1.2" fill="#ffffff" opacity="0.94"/><circle cx="277.5" cy="18.3" r="2.2" fill="#ffffff" opacity="0.82"/><circle cx="567.2" cy="45.8" r="1.2" fill="#ffffff" opacity="0.63"/><circle cx="679.8" cy="215.2" r="1.2" fill="#ffffff" opacity="0.39"/><circle cx="224.3" cy="192.2" r="1.3" fill="#ffffff" opacity="0.70"/><circle cx="971.6" cy="157.5" r="2.2" fill="#ffffff" opacity="0.47"/><circle cx="40.5" cy="657.8" r="2.2" fill="#ffffff" opacity="0.96"/><circle cx="592.7" cy="1009.9" r="2.2" fill="#ffffff" opacity="0.63"/><circle cx="792.2" cy="775.5" r="2.1" fill="#ffffff" opacity="0.34"/><circle cx="480.8" cy="19.5" r="0.7" fill="#ffffff" opacity="0.62"/><circle cx="152.4" cy="35.5" r="2.4" fill="#ffffff" opacity="0.37"/><circle cx="974.3" cy="490.2" r="1.4" fill="#ffffff" opacity="0.67"/><circle cx="764.1" cy="145.7" r="2.3" fill="#ffffff" opacity="0.95"/><circle cx="930.4" cy="460.3" r="1.7" fill="#ffffff" opacity="0.33"/><circle cx="464.6" cy="686.9" r="1.7" fill="#ffffff" opacity="0.90"/><circle cx="237.0" cy="997.4" r="0.7" fill="#ffffff" opacity="0.39"/><circle cx="972.9" cy="15.9" r="2.4" fill="#ffffff" opacity="0.78"/><circle cx="322.6" cy="455.5" r="0.8" fill="#ffffff" opacity="0.63"/><circle cx="172.9" cy="793.4" r="2.3" fill="#ffffff" opacity="0.68"/><circle cx="504.2" cy="851.4" r="2.3" fill="#ffffff" opacity="0.51"/><circle cx="843.1" cy="1003.1" r="1.8" fill="#ffffff" opacity="0.38"/><circle cx="1049.4" cy="154.4" r="1.3" fill="#ffffff" opacity="0.48"/><circle cx="449.4" cy="835.0" r="0.9" fill="#ffffff" opacity="0.61"/><circle cx="506.8" cy="872.8" r="1.4" fill="#ffffff" opacity="0.58"/><circle cx="265.3" cy="595.3" r="2.0" fill="#ffffff" opacity="0.48"/><circle cx="871.0" cy="240.5" r="0.9" fill="#ffffff" opacity="0.36"/><circle cx="269.8" cy="395.6" r="1.1" fill="#ffffff" opacity="0.62"/><circle cx="784.8" cy="726.8" r="0.6" fill="#ffffff" opacity="0.44"/><circle cx="775.2" cy="969.2" r="0.8" fill="#ffffff" opacity="0.70"/><circle cx="182.1" cy="1006.0" r="2.4" fill="#ffffff" opacity="0.83"/><circle cx="668.7" cy="839.3" r="2.1" fill="#ffffff" opacity="0.52"/><circle cx="1086.3" cy="544.6" r="0.9" fill="#ffffff" opacity="0.36"/><circle cx="564.7" cy="4.3" r="2.0" fill="#ffffff" opacity="0.52"/><circle cx="1017.5" cy="857.7" r="1.4" fill="#ffffff" opacity="0.98"/><circle cx="474.6" cy="266.8" r="1.8" fill="#ffffff" opacity="0.95"/><circle cx="989.8" cy="378.9" r="0.9" fill="#ffffff" opacity="0.65"/><circle cx="1169.2" cy="369.5" r="1.1" fill="#ffffff" opacity="0.99"/><circle cx="985.3" cy="487.6" r="1.7" fill="#ffffff" opacity="0.37"/><circle cx="714.0" cy="552.4" r="1.0" fill="#ffffff" opacity="0.47"/><circle cx="205.9" cy="95.1" r="1.6" fill="#ffffff" opacity="0.54"/><circle cx="669.6" cy="861.4" r="0.8" fill="#ffffff" opacity="0.84"/><circle cx="360.3" cy="868.3" r="0.8" fill="#ffffff" opacity="0.96"/><circle cx="638.1" cy="716.2" r="1.4" fill="#ffffff" opacity="0.63"/><circle cx="7.0" cy="161.1" r="2.2" fill="#ffffff" opacity="0.65"/><circle cx="301.5" cy="914.7" r="2.2" fill="#ffffff" opacity="0.86"/><circle cx="446.0" cy="349.3" r="1.9" fill="#ffffff" opacity="0.57"/><circle cx="825.6" cy="144.0" r="0.9" fill="#ffffff" opacity="0.55"/><circle cx="1078.5" cy="284.7" r="1.5" fill="#ffffff" opacity="0.35"/><circle cx="713.4" cy="154.6" r="1.4" fill="#ffffff" opacity="0.67"/><circle cx="937.1" cy="798.4" r="1.5" fill="#ffffff" opacity="0.98"/><circle cx="483.0" cy="434.3" r="2.1" fill="#ffffff" opacity="0.85"/><circle cx="170.2" cy="381.0" r="2.2" fill="#ffffff" opacity="0.98"/><circle cx="470.2" cy="37.6" r="2.1" fill="#ffffff" opacity="0.53"/><circle cx="578.8" cy="824.0" r="1.0" fill="#ffffff" opacity="0.90"/><circle cx="390.1" cy="420.3" r="0.9" fill="#ffffff" opacity="0.72"/><circle cx="206.9" cy="1032.3" r="1.9" fill="#ffffff" opacity="0.33"/><circle cx="24.7" cy="205.2" r="1.9" fill="#ffffff" opacity="0.72"/><circle cx="870.9" cy="591.6" r="1.4" fill="#ffffff" opacity="0.68"/><circle cx="872.8" cy="362.5" r="2.0" fill="#ffffff" opacity="0.96"/><circle cx="870.6" cy="346.7" r="1.6" fill="#ffffff" opacity="0.63"/><circle cx="584.7" cy="50.5" r="0.8" fill="#ffffff" opacity="0.75"/><circle cx="440.7" cy="425.9" r="2.0" fill="#ffffff" opacity="0.51"/><circle cx="516.2" cy="86.7" r="0.8" fill="#ffffff" opacity="0.97"/></g><g><path d="M0,-12 L3,-3 L12,0 L3,3 L0,12 L-3,3 L-12,0 L-3,-3 Z" fill="#fff6c8" opacity="0.87" transform="translate(1174.0,65.4) scale(1.44)"/><path d="M0,-12 L3,-3 L12,0 L3,3 L0,12 L-3,3 L-12,0 L-3,-3 Z" fill="#fff6c8" opacity="0.86" transform="translate(445.2,40.9) scale(0.68)"/><path d="M0,-12 L3,-3 L12,0 L3,3 L0,12 L-3,3 L-12,0 L-3,-3 Z" fill="#ffd54a" opacity="0.61" transform="translate(1158.3,527.5) scale(0.50)"/><path d="M0,-12 L3,-3 L12,0 L3,3 L0,12 L-3,3 L-12,0 L-3,-3 Z" fill="#cfe3ff" opacity="0.74" transform="translate(13.3,83.2) scale(0.72)"/><path d="M0,-12 L3,-3 L12,0 L3,3 L0,12 L-3,3 L-12,0 L-3,-3 Z" fill="#cfe3ff" opacity="0.89" transform="translate(586.3,598.9) scale(0.66)"/><path d="M0,-12 L3,-3 L12,0 L3,3 L0,12 L-3,3 L-12,0 L-3,-3 Z" fill="#ffd54a" opacity="0.89" transform="translate(1074.3,1137.2) scale(1.25)"/><path d="M0,-12 L3,-3 L12,0 L3,3 L0,12 L-3,3 L-12,0 L-3,-3 Z" fill="#ffd54a" opacity="0.69" transform="translate(439.2,157.9) scale(1.02)"/><path d="M0,-12 L3,-3 L12,0 L3,3 L0,12 L-3,3 L-12,0 L-3,-3 Z" fill="#ffd54a" opacity="0.63" transform="translate(215.6,111.3) scale(0.74)"/><path d="M0,-12 L3,-3 L12,0 L3,3 L0,12 L-3,3 L-12,0 L-3,-3 Z" fill="#cfe3ff" opacity="0.40" transform="translate(675.1,858.8) scale(1.28)"/><path d="M0,-12 L3,-3 L12,0 L3,3 L0,12 L-3,3 L-12,0 L-3,-3 Z" fill="#cfe3ff" opacity="0.80" transform="translate(785.8,635.5) scale(1.09)"/><path d="M0,-12 L3,-3 L12,0 L3,3 L0,12 L-3,3 L-12,0 L-3,-3 Z" fill="#cfe3ff" opacity="0.57" transform="translate(914.5,104.6) scale(1.32)"/><path d="M0,-12 L3,-3 L12,0 L3,3 L0,12 L-3,3 L-12,0 L-3,-3 Z" fill="#ffd54a" opacity="0.79" transform="translate(665.8,515.1) scale(1.21)"/><path d="M0,-12 L3,-3 L12,0 L3,3 L0,12 L-3,3 L-12,0 L-3,-3 Z" fill="#cfe3ff" opacity="0.85" transform="translate(256.0,603.9) scale(1.58)"/><path d="M0,-12 L3,-3 L12,0 L3,3 L0,12 L-3,3 L-12,0 L-3,-3 Z" fill="#cfe3ff" opacity="0.69" transform="translate(543.6,1142.3) scale(1.56)"/><path d="M0,-12 L3,-3 L12,0 L3,3 L0,12 L-3,3 L-12,0 L-3,-3 Z" fill="#fff6c8" opacity="0.69" transform="translate(990.8,807.6) scale(1.70)"/><path d="M0,-12 L3,-3 L12,0 L3,3 L0,12 L-3,3 L-12,0 L-3,-3 Z" fill="#cfe3ff" opacity="0.42" transform="translate(805.4,91.3) scale(1.36)"/><path d="M0,-12 L3,-3 L12,0 L3,3 L0,12 L-3,3 L-12,0 L-3,-3 Z" fill="#fff6c8" opacity="0.42" transform="translate(746.5,4.8) scale(0.84)"/><path d="M0,-12 L3,-3 L12,0 L3,3 L0,12 L-3,3 L-12,0 L-3,-3 Z" fill="#ffd54a" opacity="0.61" transform="translate(620.0,187.1) scale(1.46)"/><path d="M0,-12 L3,-3 L12,0 L3,3 L0,12 L-3,3 L-12,0 L-3,-3 Z" fill="#cfe3ff" opacity="0.50" transform="translate(1017.2,6.4) scale(0.89)"/><path d="M0,-12 L3,-3 L12,0 L3,3 L0,12 L-3,3 L-12,0 L-3,-3 Z" fill="#ffd54a" opacity="0.95" transform="translate(183.6,180.7) scale(0.62)"/><path d="M0,-12 L3,-3 L12,0 L3,3 L0,12 L-3,3 L-12,0 L-3,-3 Z" fill="#cfe3ff" opacity="0.44" transform="translate(388.3,250.0) scale(0.83)"/><path d="M0,-12 L3,-3 L12,0 L3,3 L0,12 L-3,3 L-12,0 L-3,-3 Z" fill="#ffd54a" opacity="0.87" transform="translate(931.1,313.9) scale(1.48)"/></g><radialGradient id="g300380" cx="0.5" cy="0.5" r="0.5"><stop offset="0" stop-color="#bcd4ff" stop-opacity="0.65"/><stop offset="1" stop-color="#bcd4ff" stop-opacity="0"/></radialGradient><circle cx="300.0" cy="380.0" r="25.6" fill="url(#g300380)"/><circle cx="300.0" cy="380.0" r="8.0" fill="#fff"/><radialGradient id="vig" cx="0.5" cy="0.42" r="0.75"><stop offset="0.55" stop-color="#000000" stop-opacity="0"/><stop offset="1" stop-color="#000000" stop-opacity="0.7"/></radialGradient><rect width="1200" height="1500" fill="url(#vig)"/><linearGradient id="btm" x1="0" y1="0" x2="0" y2="1"><stop offset="0.65" stop-color="#000" stop-opacity="0"/><stop offset="1" stop-color="#000" stop-opacity="0.5"/></linearGradient><rect width="1200" height="1500" fill="url(#btm)"/></svg>