<svg xmlns="http://www.w3.org/2000/svg" viewBox="0 0 1200 1500" preserveAspectRatio="xMidYMid slice"><defs><filter id="soft" x="-20%" y="-20%" width="140%" height="140%"><feGaussianBlur stdDeviation="14"/></filter><filter id="fog" x="-40%" y="-40%" width="180%" height="180%"><feGaussianBlur stdDeviation="40"/></filter></defs><linearGradient id="sky" x1="0" y1="0" x2="0" y2="1"><stop offset="0" stop-color="#5e3a0a"/><stop offset="0.55" stop-color="#c98a1e"/><stop offset="1" stop-color="#ffe08a"/></linearGradient><rect width="1200" height="1500" fill="url(#sky)"/><g opacity="0.16"><path d="M600.0,520.0 L2200.0,520.0 L2188.5,711.5 Z" fill="#fff3c4"/><path d="M600.0,520.0 L2121.7,1014.4 L2051.6,1193.0 Z" fill="#fff3c4"/><path d="M600.0,520.0 L1894.4,1460.5 L1772.5,1608.7 Z" fill="#fff3c4"/><path d="M600.0,520.0 L1540.5,1814.4 L1378.7,1917.7 Z" fill="#fff3c4"/><path d="M600.0,520.0 L1094.4,2041.7 L908.7,2089.9 Z" fill="#fff3c4"/><path d="M600.0,520.0 L600.0,2120.0 L408.5,2108.5 Z" fill="#fff3c4"/><path d="M600.0,520.0 L105.6,2041.7 L-73.0,1971.6 Z" fill="#fff3c4"/><path d="M600.0,520.0 L-340.5,1814.4 L-488.7,1692.5 Z" fill="#fff3c4"/><path d="M600.0,520.0 L-694.4,1460.5 L-797.7,1298.7 Z" fill="#fff3c4"/><path d="M600.0,520.0 L-921.7,1014.4 L-969.9,828.7 Z" fill="#fff3c4"/><path d="M600.0,520.0 L-1000.0,520.0 L-988.5,328.5 Z" fill="#fff3c4"/><path d="M600.0,520.0 L-921.7,25.6 L-851.6,-153.0 Z" fill="#fff3c4"/><path d="M600.0,520.0 L-694.4,-420.5 L-572.5,-568.7 Z" fill="#fff3c4"/><path d="M600.0,520.0 L-340.5,-774.4 L-178.7,-877.7 Z" fill="#fff3c4"/><path d="M600.0,520.0 L105.6,-1001.7 L291.3,-1049.9 Z" fill="#fff3c4"/><path d="M600.0,520.0 L600.0,-1080.0 L791.5,-1068.5 Z" fill="#fff3c4"/><path d="M600.0,520.0 L1094.4,-1001.7 L1273.0,-931.6 Z" fill="#fff3c4"/><path d="M600.0,520.0 L1540.5,-774.4 L1688.7,-652.5 Z" fill="#fff3c4"/><path d="M600.0,520.0 L1894.4,-420.5 L1997.7,-258.7 Z" fill="#fff3c4"/><path d="M600.0,520.0 L2121.7,25.6 L2169.9,211.3 Z" fill="#fff3c4"/></g><radialGradient id="g600540" cx="0.5" cy="0.5" r="0.5"><stop offset="0" stop-color="#ffd700" stop-opacity="0.65"/><stop offset="1" stop-color="#ffd700" stop-opacity="0"/></radialGradient><circle cx="600.0" cy="540.0" r="512.0" fill="url(#g600540)"/><circle cx="600.0" cy="540.0" r="160.0" fill="#fff6d5"/><path d="M -40,1500 L -40,1120.0 L 0,1120.0 Q 100.0,1116.0 200.0,1126.3 Q 300.0,1119.8 400.0,1127.8 Q 500.0,1074.8 600.0,1113.0 Q 700.0,1091.8 800.0,1110.9 Q 900.0,1092.9 1000.0,1106.9 Q 1100.0,1083.4 1200.0,1133.0 L 1240,1500 Z" fill="#7a5210" opacity="0.8"/><g><path d="M0,-12 L3,-3 L12,0 L3,3 L0,12 L-3,3 L-12,0 L-3,-3 Z" fill="#fff2c4" opacity="0.51" transform="translate(916.7,773.7) scale(1.03)"/><path d="M0,-12 L3,-3 L12,0 L3,3 L0,12 L-3,3 L-12,0 L-3,-3 Z" fill="#fff6c8" opacity="0.42" transform="translate(477.6,67.4) scale(1.08)"/><path d="M0,-12 L3,-3 L12,0 L3,3 L0,12 L-3,3 L-12,0 L-3,-3 Z" fill="#ffd54a" opacity="0.82" transform="translate(633.3,241.9) scale(1.14)"/><path d="M0,-12 L3,-3 L12,0 L3,3 L0,12 L-3,3 L-12,0 L-3,-3 Z" fill="#fff6c8" opacity="0.47" transform="translate(771.3,230.7) scale(1.02)"/><path d="M0,-12 L3,-3 L12,0 L3,3 L0,12 L-3,3 L-12,0 L-3,-3 Z" fill="#fff2c4" opacity="0.69" transform="translate(557.9,858.3) scale(1.42)"/><path d="M0,-12 L3,-3 L12,0 L3,3 L0,12 L-3,3 L-12,0 L-3,-3 Z" fill="#fff6c8" opacity="0.55" transform="translate(903.4,536.3) scale(1.64)"/><path d="M0,-12 L3,-3 L12,0 L3,3 L0,12 L-3,3 L-12,0 L-3,-3 Z" fill="#fff2c4" opacity="0.42" transform="translate(55.1,1077.7) scale(1.63)"/><path d="M0,-12 L3,-3 L12,0 L3,3 L0,12 L-3,3 L-12,0 L-3,-3 Z" fill="#fff2c4" opacity="0.60" transform="translate(312.9,212.2) scale(1.69)"/><path d="M0,-12 L3,-3 L12,0 L3,3 L0,12 L-3,3 L-12,0 L-3,-3 Z" fill="#fff6c8" opacity="0.94" transform="translate(1054.2,827.1) scale(1.35)"/><path d="M0,-12 L3,-3 L12,0 L3,3 L0,12 L-3,3 L-12,0 L-3,-3 Z" fill="#fff6c8" opacity="0.59" transform="translate(369.8,780.1) scale(0.75)"/><path d="M0,-12 L3,-3 L12,0 L3,3 L0,12 L-3,3 L-12,0 L-3,-3 Z" fill="#fff2c4" opacity="0.74" transform="translate(552.0,919.1) scale(1.77)"/><path d="M0,-12 L3,-3 L12,0 L3,3 L0,12 L-3,3 L-12,0 L-3,-3 Z" fill="#fff6c8" opacity="0.59" transform="translate(951.1,469.8) scale(1.49)"/><path d="M0,-12 L3,-3 L12,0 L3,3 L0,12 L-3,3 L-12,0 L-3,-3 Z" fill="#fff6c8" opacity="0.46" transform="translate(189.7,666.8) scale(0.95)"/><path d="M0,-12 L3,-3 L12,0 L3,3 L0,12 L-3,3 L-12,0 L-3,-3 Z" fill="#ffd54a" opacity="0.93" transform="translate(237.8,389.2) scale(0.61)"/><path d="M0,-12 L3,-3 L12,0 L3,3 L0,12 L-3,3 L-12,0 L-3,-3 Z" fill="#ffd54a" opacity="0.49" transform="translate(467.9,1175.6) scale(0.64)"/><path d="M0,-12 L3,-3 L12,0 L3,3 L0,12 L-3,3 L-12,0 L-3,-3 Z" fill="#fff6c8" opacity="0.94" transform="translate(1036.8,812.9) scale(1.75)"/><path d="M0,-12 L3,-3 L12,0 L3,3 L0,12 L-3,3 L-12,0 L-3,-3 Z" fill="#ffd54a" opacity="0.71" transform="translate(781.4,1065.6) scale(1.23)"/><path d="M0,-12 L3,-3 L12,0 L3,3 L0,12 L-3,3 L-12,0 L-3,-3 Z" fill="#fff6c8" opacity="0.80" transform="translate(160.4,65.4) scale(0.52)"/><path d="M0,-12 L3,-3 L12,0 L3,3 L0,12 L-3,3 L-12,0 L-3,-3 Z" fill="#fff6c8" opacity="0.46" transform="translate(533.2,896.9) scale(0.68)"/><path d="M0,-12 L3,-3 L12,0 L3,3 L0,12 L-3,3 L-12,0 L-3,-3 Z" fill="#fff2c4" opacity="0.84" transform="translate(678.5,188.2) scale(0.52)"/><path d="M0,-12 L3,-3 L12,0 L3,3 L0,12 L-3,3 L-12,0 L-3,-3 Z" fill="#fff6c8" opacity="0.51" transform="translate(1034.9,105.0) scale(1.00)"/><path d="M0,-12 L3,-3 L12,0 L3,3 L0,12 L-3,3 L-12,0 L-3,-3 Z" fill="#fff6c8" opacity="0.93" transform="translate(817.6,951.2) scale(0.77)"/><path d="M0,-12 L3,-3 L12,0 L3,3 L0,12 L-3,3 L-12,0 L-3,-3 Z" fill="#fff2c4" opacity="0.83" transform="translate(1115.2,304.9) scale(1.06)"/><path d="M0,-12 L3,-3 L12,0 L3,3 L0,12 L-3,3 L-12,0 L-3,-3 Z" fill="#ffd54a" opacity="0.50" transform="translate(281.1,799.2) scale(1.11)"/><path d="M0,-12 L3,-3 L12,0 L3,3 L0,12 L-3,3 L-12,0 L-3,-3 Z" fill="#fff2c4" opacity="0.70" transform="translate(269.7,563.7) scale(1.53)"/><path d="M0,-12 L3,-3 L12,0 L3,3 L0,12 L-3,3 L-12,0 L-3,-3 Z" fill="#ffd54a" opacity="0.57" transform="translate(23.6,501.6) scale(1.72)"/><path d="M0,-12 L3,-3 L12,0 L3,3 L0,12 L-3,3 L-12,0 L-3,-3 Z" fill="#ffd54a" opacity="0.61" transform="translate(753.1,1177.4) scale(1.27)"/><path d="M0,-12 L3,-3 L12,0 L3,3 L0,12 L-3,3 L-12,0 L-3,-3 Z" fill="#fff6c8" opacity="0.57" transform="translate(1048.5,677.2) scale(1.13)"/><path d="M0,-12 L3,-3 L12,0 L3,3 L0,12 L-3,3 L-12,0 L-3,-3 Z" fill="#ffd54a" opacity="0.83" transform="translate(299.7,120.1) scale(1.22)"/><path d="M0,-12 L3,-3 L12,0 L3,3 L0,12 L-3,3 L-12,0 L-3,-3 Z" fill="#fff6c8" opacity="0.85" transform="translate(538.9,461.4) scale(1.22)"/></g><radialGradient id="vig" cx="0.5" cy="0.42" r="0.75"><stop offset="0.55" stop-color="#000000" stop-opacity="0"/><stop offset="1" stop-color="#000000" stop-opacity="0.5"/></radialGradient><rect width="1200" height="1500" fill="url(#vig)"/><linearGradient id="btm" x1="0" y1="0" x2="0" y2="1"><stop offset="0.65" stop-color="#000" stop-opacity="0"/><stop offset="1" stop-color="#000" stop-opacity="0.5"/></linearGradient><rect width="1200" height="1500" fill="url(#btm)"/></svg>