<svg xmlns="http://www.w3.org/2000/svg" viewBox="0 0 1200 1500" preserveAspectRatio="xMidYMid slice"><defs><filter id="soft" x="-20%" y="-20%" width="140%" height="140%"><feGaussianBlur stdDeviation="14"/></filter><filter id="fog" x="-40%" y="-40%" width="180%" height="180%"><feGaussianBlur stdDeviation="40"/></filter></defs><linearGradient id="sky" x1="0" y1="0" x2="0" y2="1"><stop offset="0" stop-color="#060810"/><stop offset="0.55" stop-color="#101828"/><stop offset="1" stop-color="#2a2140"/></linearGradient><rect width="1200" height="1500" fill="url(#sky)"/><radialGradient id="g320320" cx="0.5" cy="0.5" r="0.5"><stop offset="0" stop-color="#e0e6ff" stop-opacity="0.5"/><stop offset="1" stop-color="#e0e6ff" stop-opacity="0"/></radialGradient><circle cx="320.0" cy="320.0" r="252.0" fill="url(#g320320)"/><circle cx="320.0" cy="320.0" r="84.0" fill="#e0e6ff"/><circle cx="302.2" cy="284.8" r="13.3" fill="#d7dcf0" opacity="0.6"/><circle cx="276.9" cy="323.6" r="10.4" fill="#d7dcf0" opacity="0.6"/><circle cx="275.4" cy="320.7" r="7.1" fill="#d7dcf0" opacity="0.6"/><circle cx="313.3" cy="276.6" r="7.6" fill="#d7dcf0" opacity="0.6"/><circle cx="312.4" cy="352.9" r="8.0" fill="#d7dcf0" opacity="0.6"/><radialGradient id="g320320" cx="0.5" cy="0.5" r="0.5"><stop offset="0" stop-color="#5a4a8a" stop-opacity="0.3"/><stop offset="1" stop-color="#5a4a8a" stop-opacity="0"/></radialGradient><circle cx="320.0" cy="320.0" r="300.0" fill="url(#g320320)"/><g fill="#05060a"><path d="M-14,0 C-9,-7 -4,-6 0,0 C4,-6 9,-7 14,0 C9,-3 4,-2 0,2 C-4,-2 -9,-3 -14,0 Z" transform="translate(170.8,318.5) scale(1.14)"/><path d="M-14,0 C-9,-7 -4,-6 0,0 C4,-6 9,-7 14,0 C9,-3 4,-2 0,2 C-4,-2 -9,-3 -14,0 Z" transform="translate(1031.2,328.9) scale(1.27)"/><path d="M-14,0 C-9,-7 -4,-6 0,0 C4,-6 9,-7 14,0 C9,-3 4,-2 0,2 C-4,-2 -9,-3 -14,0 Z" transform="translate(1055.7,217.1) scale(1.63)"/><path d="M-14,0 C-9,-7 -4,-6 0,0 C4,-6 9,-7 14,0 C9,-3 4,-2 0,2 C-4,-2 -9,-3 -14,0 Z" transform="translate(519.0,349.8) scale(1.77)"/><path d="M-14,0 C-9,-7 -4,-6 0,0 C4,-6 9,-7 14,0 C9,-3 4,-2 0,2 C-4,-2 -9,-3 -14,0 Z" transform="translate(919.0,325.6) scale(1.59)"/></g><g><circle cx="612.0" cy="626.8" r="1.1" fill="#9fb0d8" opacity="0.95"/><circle cx="875.7" cy="799.1" r="1.4" fill="#9fb0d8" opacity="0.88"/><circle cx="880.6" cy="622.2" r="0.8" fill="#9fb0d8" opacity="0.62"/><circle cx="1164.4" cy="586.0" r="1.3" fill="#9fb0d8" opacity="0.74"/><circle cx="170.6" cy="345.1" r="2.0" fill="#9fb0d8" opacity="0.63"/><circle cx="464.6" cy="1022.2" r="1.5" fill="#9fb0d8" opacity="0.62"/><circle cx="98.3" cy="625.8" r="1.5" fill="#9fb0d8" opacity="0.50"/><circle cx="1118.5" cy="653.9" r="1.6" fill="#9fb0d8" opacity="0.90"/><circle cx="475.4" cy="1026.2" r="1.8" fill="#9fb0d8" opacity="0.57"/><circle cx="546.8" cy="1016.6" r="1.7" fill="#9fb0d8" opacity="0.31"/><circle cx="1022.7" cy="435.0" r="1.1" fill="#9fb0d8" opacity="0.64"/><circle cx="245.4" cy="699.9" r="1.7" fill="#9fb0d8" opacity="0.62"/><circle cx="577.3" cy="350.4" r="1.8" fill="#9fb0d8" opacity="0.88"/><circle cx="61.0" cy="662.3" r="2.1" fill="#9fb0d8" opacity="0.99"/><circle cx="932.3" cy="1000.5" r="1.7" fill="#9fb0d8" opacity="0.89"/><circle cx="886.2" cy="263.6" r="1.9" fill="#9fb0d8" opacity="0.73"/><circle cx="638.7" cy="250.9" r="2.3" fill="#9fb0d8" opacity="0.87"/><circle cx="943.3" cy="254.9" r="0.9" fill="#9fb0d8" opacity="0.43"/><circle cx="456.1" cy="357.1" r="1.9" fill="#9fb0d8" opacity="0.58"/><circle cx="1193.4" cy="56.4" r="1.3" fill="#9fb0d8" opacity="0.91"/><circle cx="601.9" cy="705.3" r="2.1" fill="#9fb0d8" opacity="0.74"/><circle cx="205.2" cy="53.5" r="2.4" fill="#9fb0d8" opacity="0.59"/><circle cx="621.7" cy="115.1" r="1.5" fill="#9fb0d8" opacity="0.55"/><circle cx="197.3" cy="712.4" r="1.8" fill="#9fb0d8" opacity="0.73"/><circle cx="998.6" cy="1016.2" r="2.1" fill="#9fb0d8" opacity="0.35"/><circle cx="629.0" cy="699.5" r="2.2" fill="#9fb0d8" opacity="0.68"/><circle cx="540.1" cy="303.3" r="1.0" fill="#9fb0d8" opacity="0.88"/><circle cx="20.8" cy="775.9" r="2.4" fill="#9fb0d8" opacity="0.34"/><circle cx="220.2" cy="295.4" r="2.1" fill="#9fb0d8" opacity="0.87"/><circle cx="1101.9" cy="639.3" r="1.5" fill="#9fb0d8" opacity="0.64"/><circle cx="669.3" cy="770.5" r="1.1" fill="#9fb0d8" opacity="0.93"/><circle cx="223.4" cy="1027.0" r="1.4" fill="#9fb0d8" opacity="0.33"/><circle cx="121.9" cy="699.0" r="2.2" fill="#9fb0d8" opacity="0.36"/><circle cx="27.9" cy="350.3" r="2.0" fill="#9fb0d8" opacity="0.44"/><circle cx="480.0" cy="282.0" r="0.6" fill="#9fb0d8" opacity="0.37"/><circle cx="420.9" cy="659.1" r="1.9" fill="#9fb0d8" opacity="0.76"/><circle cx="1084.6" cy="618.4" r="1.7" fill="#9fb0d8" opacity="0.80"/><circle cx="377.7" cy="1042.6" r="0.8" fill="#9fb0d8" opacity="0.93"/><circle cx="564.8" cy="240.1" r="1.2" fill="#9fb0d8" opacity="0.69"/><circle cx="196.9" cy="81.0" r="1.1" fill="#9fb0d8" opacity="0.97"/><circle cx="912.3" cy="368.7" r="1.9" fill="#9fb0d8" opacity="0.45"/><circle cx="153.0" cy="468.8" r="1.2" fill="#9fb0d8" opacity="0.98"/><circle cx="113.7" cy="809.3" r="0.8" fill="#9fb0d8" opacity="0.96"/><circle cx="899.1" cy="1004.9" r="1.8" fill="#9fb0d8" opacity="0.39"/><circle cx="1131.9" cy="988.8" r="1.9" fill="#9fb0d8" opacity="0.81"/><circle cx="823.5" cy="451.6" r="1.1" fill="#9fb0d8" opacity="0.47"/><circle cx="685.7" cy="310.2" r="1.7" fill="#9fb0d8" opacity="0.50"/><circle cx="85.6" cy="889.7" r="1.7" fill="#9fb0d8" opacity="0.68"/><circle cx="856.6" cy="990.1" r="1.6" fill="#9fb0d8" opacity="0.52"/><circle cx="1177.5" cy="99.4" r="1.5" fill="#9fb0d8" opacity="0.73"/><circle cx="256.8" cy="309.5" r="2.4" fill="#9fb0d8" opacity="0.94"/><circle cx="218.0" cy="812.1" r="2.3" fill="#9fb0d8" opacity="0.73"/><circle cx="1026.9" cy="177.3" r="1.2" fill="#9fb0d8" opacity="0.37"/><circle cx="592.9" cy="707.8" r="1.2" fill="#9fb0d8" opacity="0.51"/><circle cx="828.7" cy="902.3" r="2.1" fill="#9fb0d8" opacity="0.65"/><circle cx="71.4" cy="499.1" r="0.8" fill="#9fb0d8" opacity="0.86"/><circle cx="127.4" cy="916.7" r="0.8" fill="#9fb0d8" opacity="0.56"/><circle cx="719.7" cy="607.9" r="1.2" fill="#9fb0d8" opacity="0.31"/><circle cx="460.3" cy="694.6" r="1.4" fill="#9fb0d8" opacity="0.96"/><circle cx="754.2" cy="463.3" r="0.7" fill="#9fb0d8" opacity="0.38"/></g><path d="M -40,1500 L -40,1240.0 L 0,1240.0 Q 100.0,1236.9 200.0,1254.9 Q 300.0,1215.6 400.0,1254.1 Q 500.0,1185.9 600.0,1256.6 Q 700.0,1207.8 800.0,1246.0 Q 900.0,1188.9 1000.0,1252.3 Q 1100.0,1219.8 1200.0,1246.0 L 1240,1500 Z" fill="#070a14" opacity="1"/><g fill="#0b0e18"><g transform="rotate(3.7 113.4 1440.0)"><path d="M80.1,1440.0 L80.1,1394.4 A 33.2,33.2 0 0 1 146.6,1394.4 L146.6,1440.0 Z"/><rect x="107.4" y="1394.4" width="12" height="34" fill="#0b0e18"/><rect x="93.4" y="1402.4" width="40" height="10" fill="#0b0e18"/></g><g transform="rotate(-2.7 252.1 1440.0)"><path d="M215.3,1440.0 L215.3,1405.2 A 36.8,36.8 0 0 1 288.9,1405.2 L288.9,1440.0 Z"/><rect x="246.1" y="1405.2" width="12" height="34" fill="#0b0e18"/><rect x="232.1" y="1413.2" width="40" height="10" fill="#0b0e18"/></g><g transform="rotate(-0.2 456.7 1440.0)"><path d="M419.4,1440.0 L419.4,1406.1 A 37.2,37.2 0 0 1 493.9,1406.1 L493.9,1440.0 Z"/><rect x="450.7" y="1406.1" width="12" height="34" fill="#0b0e18"/><rect x="436.7" y="1414.1" width="40" height="10" fill="#0b0e18"/></g><g transform="rotate(-1.5 595.5 1440.0)"><path d="M567.1,1440.0 L567.1,1393.4 A 28.4,28.4 0 0 1 624.0,1393.4 L624.0,1440.0 Z"/><rect x="589.5" y="1393.4" width="12" height="34" fill="#0b0e18"/><rect x="575.5" y="1401.4" width="40" height="10" fill="#0b0e18"/></g><g transform="rotate(-1.1 749.9 1440.0)"><path d="M722.1,1440.0 L722.1,1354.7 A 27.9,27.9 0 0 1 777.8,1354.7 L777.8,1440.0 Z"/><rect x="743.9" y="1354.7" width="12" height="34" fill="#0b0e18"/><rect x="729.9" y="1362.7" width="40" height="10" fill="#0b0e18"/></g><g transform="rotate(3.2 930.6 1440.0)"><path d="M899.6,1440.0 L899.6,1395.7 A 31.0,31.0 0 0 1 961.6,1395.7 L961.6,1440.0 Z"/><rect x="924.6" y="1395.7" width="12" height="34" fill="#0b0e18"/><rect x="910.6" y="1403.7" width="40" height="10" fill="#0b0e18"/></g><g transform="rotate(-3.1 1115.1 1440.0)"><path d="M1080.1,1440.0 L1080.1,1355.5 A 34.9,34.9 0 0 1 1150.0,1355.5 L1150.0,1440.0 Z"/><rect x="1109.1" y="1355.5" width="12" height="34" fill="#0b0e18"/><rect x="1095.1" y="1363.5" width="40" height="10" fill="#0b0e18"/></g></g><g stroke="#05070e" fill="none" stroke-linecap="round"><path d="M232.0,1500 L232.0,1204.4" stroke-width="13"/><path d="M232.0,1258.8 q 32.3,-25.8 64.6,-12.9" stroke-width="5"/><path d="M232.0,1410.4 q -44.8,-35.8 -89.6,-17.9" stroke-width="4"/><path d="M232.0,1272.9 q -34.6,-27.7 -69.2,-13.8" stroke-width="5"/><path d="M232.0,1350.6 q -37.1,-29.7 -74.3,-14.9" stroke-width="6"/><path d="M634.7,1500 L634.7,1095.5" stroke-width="8"/><path d="M634.7,1199.5 q -49.7,-39.8 -99.5,-19.9" stroke-width="6"/><path d="M634.7,1197.4 q -46.9,-37.5 -93.9,-18.8" stroke-width="6"/><path d="M634.7,1360.8 q -35.0,-28.0 -70.0,-14.0" stroke-width="4"/><path d="M634.7,1199.0 q -21.2,-17.0 -42.4,-8.5" stroke-width="5"/><path d="M634.7,1103.7 q 33.0,-26.4 66.1,-13.2" stroke-width="5"/><path d="M634.7,1142.5 q -34.9,-27.9 -69.9,-14.0" stroke-width="5"/><path d="M1012.4,1500 L1012.4,1117.2" stroke-width="11"/><path d="M1012.4,1223.4 q 37.9,-30.3 75.8,-15.2" stroke-width="5"/><path d="M1012.4,1159.8 q 43.2,-34.6 86.5,-17.3" stroke-width="3"/><path d="M1012.4,1372.5 q 29.1,-23.3 58.3,-11.7" stroke-width="5"/><path d="M1012.4,1337.2 q 32.1,-25.7 64.2,-12.8" stroke-width="3"/></g><g filter="url(#fog)" opacity="0.6"><ellipse cx="360" cy="1380" rx="500" ry="120" fill="#0c1020"/><ellipse cx="840" cy="1440" rx="600" ry="140" fill="#0c1020"/></g><radialGradient id="vig" cx="0.5" cy="0.42" r="0.75"><stop offset="0.55" stop-color="#000000" stop-opacity="0"/><stop offset="1" stop-color="#000000" stop-opacity="0.75"/></radialGradient><rect width="1200" height="1500" fill="url(#vig)"/><linearGradient id="btm" x1="0" y1="0" x2="0" y2="1"><stop offset="0.65" stop-color="#000" stop-opacity="0"/><stop offset="1" stop-color="#000" stop-opacity="0.5"/></linearGradient><rect width="1200" height="1500" fill="url(#btm)"/></svg>