<svg xmlns="http://www.w3.org/2000/svg" viewBox="0 0 1200 1500" preserveAspectRatio="xMidYMid slice"><defs><filter id="soft" x="-20%" y="-20%" width="140%" height="140%"><feGaussianBlur stdDeviation="14"/></filter><filter id="fog" x="-40%" y="-40%" width="180%" height="180%"><feGaussianBlur stdDeviation="40"/></filter></defs><linearGradient id="sky" x1="0" y1="0" x2="0" y2="1"><stop offset="0" stop-color="#3a0812"/><stop offset="0.55" stop-color="#8a0f24"/><stop offset="1" stop-color="#ff5e7e"/></linearGradient><rect width="1200" height="1500" fill="url(#sky)"/><radialGradient id="g600620" cx="0.5" cy="0.5" r="0.5"><stop offset="0" stop-color="#ff3b6b" stop-opacity="0.45"/><stop offset="1" stop-color="#ff3b6b" stop-opacity="0"/></radialGradient><circle cx="600.0" cy="620.0" r="560.0" fill="url(#g600620)"/><g><path d="M12 21 C 4 15, 1 10, 4.5 6.5 C 6.8 4.2, 10 5, 12 8 C 14 5, 17.2 4.2, 19.5 6.5 C 23 10, 20 15, 12 21 Z" fill="#E50914" opacity="0.70" transform="translate(911.0,1180.6) scale(1.46) rotate(1)"/><path d="M12 21 C 4 15, 1 10, 4.5 6.5 C 6.8 4.2, 10 5, 12 8 C 14 5, 17.2 4.2, 19.5 6.5 C 23 10, 20 15, 12 21 Z" fill="#E50914" opacity="0.53" transform="translate(917.6,1046.6) scale(0.56) rotate(-19)"/><path d="M12 21 C 4 15, 1 10, 4.5 6.5 C 6.8 4.2, 10 5, 12 8 C 14 5, 17.2 4.2, 19.5 6.5 C 23 10, 20 15, 12 21 Z" fill="#ff5e7e" opacity="0.36" transform="translate(438.5,552.9) scale(1.30) rotate(6)"/><path d="M12 21 C 4 15, 1 10, 4.5 6.5 C 6.8 4.2, 10 5, 12 8 C 14 5, 17.2 4.2, 19.5 6.5 C 23 10, 20 15, 12 21 Z" fill="#ff5e7e" opacity="0.79" transform="translate(614.9,1203.5) scale(1.46) rotate(-10)"/><path d="M12 21 C 4 15, 1 10, 4.5 6.5 C 6.8 4.2, 10 5, 12 8 C 14 5, 17.2 4.2, 19.5 6.5 C 23 10, 20 15, 12 21 Z" fill="#ff9ad5" opacity="0.75" transform="translate(279.1,540.3) scale(1.37) rotate(11)"/><path d="M12 21 C 4 15, 1 10, 4.5 6.5 C 6.8 4.2, 10 5, 12 8 C 14 5, 17.2 4.2, 19.5 6.5 C 23 10, 20 15, 12 21 Z" fill="#E50914" opacity="0.56" transform="translate(270.2,948.9) scale(1.58) rotate(-1)"/><path d="M12 21 C 4 15, 1 10, 4.5 6.5 C 6.8 4.2, 10 5, 12 8 C 14 5, 17.2 4.2, 19.5 6.5 C 23 10, 20 15, 12 21 Z" fill="#E50914" opacity="0.38" transform="translate(552.9,788.5) scale(0.88) rotate(14)"/><path d="M12 21 C 4 15, 1 10, 4.5 6.5 C 6.8 4.2, 10 5, 12 8 C 14 5, 17.2 4.2, 19.5 6.5 C 23 10, 20 15, 12 21 Z" fill="#E50914" opacity="0.49" transform="translate(273.3,286.6) scale(0.82) rotate(-16)"/><path d="M12 21 C 4 15, 1 10, 4.5 6.5 C 6.8 4.2, 10 5, 12 8 C 14 5, 17.2 4.2, 19.5 6.5 C 23 10, 20 15, 12 21 Z" fill="#ff5e7e" opacity="0.69" transform="translate(76.6,30.0) scale(0.80) rotate(-21)"/><path d="M12 21 C 4 15, 1 10, 4.5 6.5 C 6.8 4.2, 10 5, 12 8 C 14 5, 17.2 4.2, 19.5 6.5 C 23 10, 20 15, 12 21 Z" fill="#ff9ad5" opacity="0.39" transform="translate(696.6,1456.9) scale(1.24) rotate(-17)"/><path d="M12 21 C 4 15, 1 10, 4.5 6.5 C 6.8 4.2, 10 5, 12 8 C 14 5, 17.2 4.2, 19.5 6.5 C 23 10, 20 15, 12 21 Z" fill="#E50914" opacity="0.44" transform="translate(793.6,1327.9) scale(0.94) rotate(-2)"/><path d="M12 21 C 4 15, 1 10, 4.5 6.5 C 6.8 4.2, 10 5, 12 8 C 14 5, 17.2 4.2, 19.5 6.5 C 23 10, 20 15, 12 21 Z" fill="#E50914" opacity="0.54" transform="translate(406.8,1370.0) scale(0.78) rotate(-19)"/><path d="M12 21 C 4 15, 1 10, 4.5 6.5 C 6.8 4.2, 10 5, 12 8 C 14 5, 17.2 4.2, 19.5 6.5 C 23 10, 20 15, 12 21 Z" fill="#ff9ad5" opacity="0.51" transform="translate(719.1,1098.1) scale(1.58) rotate(-5)"/><path d="M12 21 C 4 15, 1 10, 4.5 6.5 C 6.8 4.2, 10 5, 12 8 C 14 5, 17.2 4.2, 19.5 6.5 C 23 10, 20 15, 12 21 Z" fill="#ff5e7e" opacity="0.39" transform="translate(678.0,1343.4) scale(0.89) rotate(-19)"/><path d="M12 21 C 4 15, 1 10, 4.5 6.5 C 6.8 4.2, 10 5, 12 8 C 14 5, 17.2 4.2, 19.5 6.5 C 23 10, 20 15, 12 21 Z" fill="#ff9ad5" opacity="0.61" transform="translate(1020.0,1457.1) scale(1.30) rotate(17)"/><path d="M12 21 C 4 15, 1 10, 4.5 6.5 C 6.8 4.2, 10 5, 12 8 C 14 5, 17.2 4.2, 19.5 6.5 C 23 10, 20 15, 12 21 Z" fill="#E50914" opacity="0.39" transform="translate(926.3,1369.3) scale(1.03) rotate(16)"/><path d="M12 21 C 4 15, 1 10, 4.5 6.5 C 6.8 4.2, 10 5, 12 8 C 14 5, 17.2 4.2, 19.5 6.5 C 23 10, 20 15, 12 21 Z" fill="#E50914" opacity="0.51" transform="translate(1092.2,87.6) scale(1.11) rotate(8)"/><path d="M12 21 C 4 15, 1 10, 4.5 6.5 C 6.8 4.2, 10 5, 12 8 C 14 5, 17.2 4.2, 19.5 6.5 C 23 10, 20 15, 12 21 Z" fill="#ff9ad5" opacity="0.35" transform="translate(878.0,767.7) scale(0.51) rotate(-24)"/><path d="M12 21 C 4 15, 1 10, 4.5 6.5 C 6.8 4.2, 10 5, 12 8 C 14 5, 17.2 4.2, 19.5 6.5 C 23 10, 20 15, 12 21 Z" fill="#ff9ad5" opacity="0.62" transform="translate(991.4,682.2) scale(1.50) rotate(6)"/><path d="M12 21 C 4 15, 1 10, 4.5 6.5 C 6.8 4.2, 10 5, 12 8 C 14 5, 17.2 4.2, 19.5 6.5 C 23 10, 20 15, 12 21 Z" fill="#ff5e7e" opacity="0.46" transform="translate(1065.4,708.6) scale(0.75) rotate(6)"/><path d="M12 21 C 4 15, 1 10, 4.5 6.5 C 6.8 4.2, 10 5, 12 8 C 14 5, 17.2 4.2, 19.5 6.5 C 23 10, 20 15, 12 21 Z" fill="#E50914" opacity="0.59" transform="translate(803.7,281.8) scale(1.48) rotate(-1)"/><path d="M12 21 C 4 15, 1 10, 4.5 6.5 C 6.8 4.2, 10 5, 12 8 C 14 5, 17.2 4.2, 19.5 6.5 C 23 10, 20 15, 12 21 Z" fill="#ff5e7e" opacity="0.43" transform="translate(512.8,1487.5) scale(0.66) rotate(-9)"/><path d="M12 21 C 4 15, 1 10, 4.5 6.5 C 6.8 4.2, 10 5, 12 8 C 14 5, 17.2 4.2, 19.5 6.5 C 23 10, 20 15, 12 21 Z" fill="#ff9ad5" opacity="0.43" transform="translate(530.6,879.8) scale(0.86) rotate(16)"/><path d="M12 21 C 4 15, 1 10, 4.5 6.5 C 6.8 4.2, 10 5, 12 8 C 14 5, 17.2 4.2, 19.5 6.5 C 23 10, 20 15, 12 21 Z" fill="#ff5e7e" opacity="0.76" transform="translate(1156.8,579.6) scale(0.69) rotate(-7)"/><path d="M12 21 C 4 15, 1 10, 4.5 6.5 C 6.8 4.2, 10 5, 12 8 C 14 5, 17.2 4.2, 19.5 6.5 C 23 10, 20 15, 12 21 Z" fill="#ff5e7e" opacity="0.79" transform="translate(665.6,94.2) scale(1.50) rotate(-15)"/><path d="M12 21 C 4 15, 1 10, 4.5 6.5 C 6.8 4.2, 10 5, 12 8 C 14 5, 17.2 4.2, 19.5 6.5 C 23 10, 20 15, 12 21 Z" fill="#ff9ad5" opacity="0.70" transform="translate(480.6,763.0) scale(0.81) rotate(16)"/><path d="M12 21 C 4 15, 1 10, 4.5 6.5 C 6.8 4.2, 10 5, 12 8 C 14 5, 17.2 4.2, 19.5 6.5 C 23 10, 20 15, 12 21 Z" fill="#ff5e7e" opacity="0.56" transform="translate(606.3,192.2) scale(0.56) rotate(18)"/><path d="M12 21 C 4 15, 1 10, 4.5 6.5 C 6.8 4.2, 10 5, 12 8 C 14 5, 17.2 4.2, 19.5 6.5 C 23 10, 20 15, 12 21 Z" fill="#ff5e7e" opacity="0.69" transform="translate(351.4,100.4) scale(0.97) rotate(-20)"/><path d="M12 21 C 4 15, 1 10, 4.5 6.5 C 6.8 4.2, 10 5, 12 8 C 14 5, 17.2 4.2, 19.5 6.5 C 23 10, 20 15, 12 21 Z" fill="#ff9ad5" opacity="0.40" transform="translate(250.1,1398.7) scale(1.56) rotate(24)"/><path d="M12 21 C 4 15, 1 10, 4.5 6.5 C 6.8 4.2, 10 5, 12 8 C 14 5, 17.2 4.2, 19.5 6.5 C 23 10, 20 15, 12 21 Z" fill="#E50914" opacity="0.47" transform="translate(847.2,726.5) scale(1.35) rotate(23)"/><path d="M12 21 C 4 15, 1 10, 4.5 6.5 C 6.8 4.2, 10 5, 12 8 C 14 5, 17.2 4.2, 19.5 6.5 C 23 10, 20 15, 12 21 Z" fill="#ff5e7e" opacity="0.46" transform="translate(262.5,1413.4) scale(0.96) rotate(23)"/><path d="M12 21 C 4 15, 1 10, 4.5 6.5 C 6.8 4.2, 10 5, 12 8 C 14 5, 17.2 4.2, 19.5 6.5 C 23 10, 20 15, 12 21 Z" fill="#E50914" opacity="0.35" transform="translate(988.2,279.3) scale(0.64) rotate(9)"/><path d="M12 21 C 4 15, 1 10, 4.5 6.5 C 6.8 4.2, 10 5, 12 8 C 14 5, 17.2 4.2, 19.5 6.5 C 23 10, 20 15, 12 21 Z" fill="#E50914" opacity="0.58" transform="translate(889.2,536.0) scale(1.32) rotate(-2)"/><path d="M12 21 C 4 15, 1 10, 4.5 6.5 C 6.8 4.2, 10 5, 12 8 C 14 5, 17.2 4.2, 19.5 6.5 C 23 10, 20 15, 12 21 Z" fill="#E50914" opacity="0.76" transform="translate(588.7,353.1) scale(1.04) rotate(8)"/><path d="M12 21 C 4 15, 1 10, 4.5 6.5 C 6.8 4.2, 10 5, 12 8 C 14 5, 17.2 4.2, 19.5 6.5 C 23 10, 20 15, 12 21 Z" fill="#E50914" opacity="0.76" transform="translate(826.2,1063.4) scale(1.20) rotate(-23)"/><path d="M12 21 C 4 15, 1 10, 4.5 6.5 C 6.8 4.2, 10 5, 12 8 C 14 5, 17.2 4.2, 19.5 6.5 C 23 10, 20 15, 12 21 Z" fill="#E50914" opacity="0.61" transform="translate(157.1,336.8) scale(0.53) rotate(-3)"/><path d="M12 21 C 4 15, 1 10, 4.5 6.5 C 6.8 4.2, 10 5, 12 8 C 14 5, 17.2 4.2, 19.5 6.5 C 23 10, 20 15, 12 21 Z" fill="#E50914" opacity="0.62" transform="translate(994.1,204.0) scale(0.74) rotate(-12)"/><path d="M12 21 C 4 15, 1 10, 4.5 6.5 C 6.8 4.2, 10 5, 12 8 C 14 5, 17.2 4.2, 19.5 6.5 C 23 10, 20 15, 12 21 Z" fill="#ff9ad5" opacity="0.65" transform="translate(255.9,796.5) scale(0.62) rotate(18)"/><path d="M12 21 C 4 15, 1 10, 4.5 6.5 C 6.8 4.2, 10 5, 12 8 C 14 5, 17.2 4.2, 19.5 6.5 C 23 10, 20 15, 12 21 Z" fill="#ff9ad5" opacity="0.54" transform="translate(688.0,380.7) scale(0.98) rotate(21)"/><path d="M12 21 C 4 15, 1 10, 4.5 6.5 C 6.8 4.2, 10 5, 12 8 C 14 5, 17.2 4.2, 19.5 6.5 C 23 10, 20 15, 12 21 Z" fill="#ff9ad5" opacity="0.51" transform="translate(681.5,276.6) scale(1.52) rotate(13)"/></g><g><path d="M0,-12 L3,-3 L12,0 L3,3 L0,12 L-3,3 L-12,0 L-3,-3 Z" fill="#fff6c8" opacity="0.58" transform="translate(448.0,359.2) scale(1.11)"/><path d="M0,-12 L3,-3 L12,0 L3,3 L0,12 L-3,3 L-12,0 L-3,-3 Z" fill="#ffd6de" opacity="0.93" transform="translate(511.5,818.0) scale(0.98)"/><path d="M0,-12 L3,-3 L12,0 L3,3 L0,12 L-3,3 L-12,0 L-3,-3 Z" fill="#ffd54a" opacity="0.89" transform="translate(221.3,203.3) scale(1.09)"/><path d="M0,-12 L3,-3 L12,0 L3,3 L0,12 L-3,3 L-12,0 L-3,-3 Z" fill="#ffd54a" opacity="0.53" transform="translate(409.1,342.2) scale(1.41)"/><path d="M0,-12 L3,-3 L12,0 L3,3 L0,12 L-3,3 L-12,0 L-3,-3 Z" fill="#ffd54a" opacity="0.51" transform="translate(762.6,301.8) scale(1.78)"/><path d="M0,-12 L3,-3 L12,0 L3,3 L0,12 L-3,3 L-12,0 L-3,-3 Z" fill="#ffd6de" opacity="0.85" transform="translate(269.4,190.2) scale(0.97)"/><path d="M0,-12 L3,-3 L12,0 L3,3 L0,12 L-3,3 L-12,0 L-3,-3 Z" fill="#fff6c8" opacity="0.43" transform="translate(379.2,629.6) scale(0.64)"/><path d="M0,-12 L3,-3 L12,0 L3,3 L0,12 L-3,3 L-12,0 L-3,-3 Z" fill="#ffd54a" opacity="0.57" transform="translate(716.1,601.2) scale(0.66)"/><path d="M0,-12 L3,-3 L12,0 L3,3 L0,12 L-3,3 L-12,0 L-3,-3 Z" fill="#ffd6de" opacity="0.64" transform="translate(440.8,702.2) scale(1.72)"/><path d="M0,-12 L3,-3 L12,0 L3,3 L0,12 L-3,3 L-12,0 L-3,-3 Z" fill="#ffd54a" opacity="0.62" transform="translate(678.7,833.9) scale(1.09)"/><path d="M0,-12 L3,-3 L12,0 L3,3 L0,12 L-3,3 L-12,0 L-3,-3 Z" fill="#ffd54a" opacity="0.50" transform="translate(801.7,816.9) scale(0.77)"/><path d="M0,-12 L3,-3 L12,0 L3,3 L0,12 L-3,3 L-12,0 L-3,-3 Z" fill="#ffd54a" opacity="0.51" transform="translate(524.0,1150.8) scale(0.58)"/><path d="M0,-12 L3,-3 L12,0 L3,3 L0,12 L-3,3 L-12,0 L-3,-3 Z" fill="#ffd54a" opacity="0.47" transform="translate(172.9,1050.0) scale(0.90)"/><path d="M0,-12 L3,-3 L12,0 L3,3 L0,12 L-3,3 L-12,0 L-3,-3 Z" fill="#fff6c8" opacity="0.51" transform="translate(683.0,363.2) scale(1.18)"/><path d="M0,-12 L3,-3 L12,0 L3,3 L0,12 L-3,3 L-12,0 L-3,-3 Z" fill="#fff6c8" opacity="0.53" transform="translate(394.9,1030.0) scale(1.29)"/><path d="M0,-12 L3,-3 L12,0 L3,3 L0,12 L-3,3 L-12,0 L-3,-3 Z" fill="#ffd54a" opacity="0.84" transform="translate(493.2,497.2) scale(1.55)"/></g><radialGradient id="vig" cx="0.5" cy="0.42" r="0.75"><stop offset="0.55" stop-color="#000000" stop-opacity="0"/><stop offset="1" stop-color="#000000" stop-opacity="0.55"/></radialGradient><rect width="1200" height="1500" fill="url(#vig)"/><linearGradient id="btm" x1="0" y1="0" x2="0" y2="1"><stop offset="0.65" stop-color="#000" stop-opacity="0"/><stop offset="1" stop-color="#000" stop-opacity="0.5"/></linearGradient><rect width="1200" height="1500" fill="url(#btm)"/></svg>