<svg xmlns="http://www.w3.org/2000/svg" viewBox="0 0 1200 1500" preserveAspectRatio="xMidYMid slice"><defs><filter id="soft" x="-20%" y="-20%" width="140%" height="140%"><feGaussianBlur stdDeviation="14"/></filter><filter id="fog" x="-40%" y="-40%" width="180%" height="180%"><feGaussianBlur stdDeviation="40"/></filter></defs><linearGradient id="sky" x1="0" y1="0" x2="0" y2="1"><stop offset="0" stop-color="#04060e"/><stop offset="0.55" stop-color="#0a0f1e"/><stop offset="1" stop-color="#16203a"/></linearGradient><rect width="1200" height="1500" fill="url(#sky)"/><radialGradient id="g880300" cx="0.5" cy="0.5" r="0.5"><stop offset="0" stop-color="#e8ecff" stop-opacity="0.5"/><stop offset="1" stop-color="#e8ecff" stop-opacity="0"/></radialGradient><circle cx="880.0" cy="300.0" r="288.0" fill="url(#g880300)"/><circle cx="880.0" cy="300.0" r="96.0" fill="#e8ecff"/><circle cx="859.7" cy="259.8" r="15.2" fill="#d7dcf0" opacity="0.6"/><circle cx="830.7" cy="304.1" r="11.9" fill="#d7dcf0" opacity="0.6"/><circle cx="829.1" cy="300.9" r="8.1" fill="#d7dcf0" opacity="0.6"/><circle cx="872.4" cy="250.4" r="8.7" fill="#d7dcf0" opacity="0.6"/><circle cx="871.3" cy="337.7" r="9.1" fill="#d7dcf0" opacity="0.6"/><radialGradient id="g880300" cx="0.5" cy="0.5" r="0.5"><stop offset="0" stop-color="#4a5a8a" stop-opacity="0.35"/><stop offset="1" stop-color="#4a5a8a" stop-opacity="0"/></radialGradient><circle cx="880.0" cy="300.0" r="340.0" fill="url(#g880300)"/><g fill="#05060a"><path d="M-14,0 C-9,-7 -4,-6 0,0 C4,-6 9,-7 14,0 C9,-3 4,-2 0,2 C-4,-2 -9,-3 -14,0 Z" transform="translate(940.3,192.3) scale(1.74)"/><path d="M-14,0 C-9,-7 -4,-6 0,0 C4,-6 9,-7 14,0 C9,-3 4,-2 0,2 C-4,-2 -9,-3 -14,0 Z" transform="translate(593.7,255.2) scale(1.38)"/><path d="M-14,0 C-9,-7 -4,-6 0,0 C4,-6 9,-7 14,0 C9,-3 4,-2 0,2 C-4,-2 -9,-3 -14,0 Z" transform="translate(256.4,185.8) scale(1.16)"/><path d="M-14,0 C-9,-7 -4,-6 0,0 C4,-6 9,-7 14,0 C9,-3 4,-2 0,2 C-4,-2 -9,-3 -14,0 Z" transform="translate(318.9,347.9) scale(1.16)"/><path d="M-14,0 C-9,-7 -4,-6 0,0 C4,-6 9,-7 14,0 C9,-3 4,-2 0,2 C-4,-2 -9,-3 -14,0 Z" transform="translate(478.9,214.4) scale(0.94)"/><path d="M-14,0 C-9,-7 -4,-6 0,0 C4,-6 9,-7 14,0 C9,-3 4,-2 0,2 C-4,-2 -9,-3 -14,0 Z" transform="translate(824.8,426.9) scale(1.09)"/></g><g><circle cx="577.5" cy="699.4" r="1.7" fill="#aab6d8" opacity="0.79"/><circle cx="1082.7" cy="789.4" r="0.9" fill="#aab6d8" opacity="0.45"/><circle cx="545.8" cy="409.6" r="2.3" fill="#aab6d8" opacity="0.81"/><circle cx="562.1" cy="369.1" r="1.0" fill="#aab6d8" opacity="0.72"/><circle cx="1108.6" cy="175.7" r="1.4" fill="#aab6d8" opacity="0.54"/><circle cx="731.4" cy="266.9" r="0.7" fill="#aab6d8" opacity="0.77"/><circle cx="368.4" cy="679.5" r="2.2" fill="#aab6d8" opacity="0.71"/><circle cx="1094.8" cy="842.7" r="0.7" fill="#aab6d8" opacity="0.47"/><circle cx="794.8" cy="502.2" r="0.6" fill="#aab6d8" opacity="0.88"/><circle cx="779.9" cy="456.4" r="1.5" fill="#aab6d8" opacity="0.42"/><circle cx="660.0" cy="149.2" r="1.8" fill="#aab6d8" opacity="0.96"/><circle cx="259.5" cy="278.5" r="1.6" fill="#aab6d8" opacity="0.91"/><circle cx="202.9" cy="410.9" r="1.7" fill="#aab6d8" opacity="0.42"/><circle cx="82.9" cy="785.2" r="1.7" fill="#aab6d8" opacity="0.71"/><circle cx="654.8" cy="108.0" r="1.5" fill="#aab6d8" opacity="0.64"/><circle cx="617.5" cy="171.3" r="0.7" fill="#aab6d8" opacity="0.66"/><circle cx="835.0" cy="700.9" r="2.3" fill="#aab6d8" opacity="0.56"/><circle cx="469.3" cy="347.0" r="1.5" fill="#aab6d8" opacity="0.77"/><circle cx="1036.8" cy="97.2" r="1.6" fill="#aab6d8" opacity="0.84"/><circle cx="899.5" cy="452.4" r="0.7" fill="#aab6d8" opacity="0.53"/><circle cx="715.5" cy="817.3" r="1.0" fill="#aab6d8" opacity="0.53"/><circle cx="440.8" cy="54.8" r="2.4" fill="#aab6d8" opacity="0.55"/><circle cx="529.5" cy="1017.8" r="2.0" fill="#aab6d8" opacity="0.49"/><circle cx="1129.2" cy="866.7" r="1.6" fill="#aab6d8" opacity="0.61"/><circle cx="1018.7" cy="967.4" r="1.8" fill="#aab6d8" opacity="0.52"/><circle cx="1046.4" cy="692.0" r="2.3" fill="#aab6d8" opacity="0.87"/><circle cx="830.3" cy="940.7" r="1.4" fill="#aab6d8" opacity="0.72"/><circle cx="897.3" cy="461.6" r="0.8" fill="#aab6d8" opacity="0.88"/><circle cx="644.0" cy="478.6" r="1.6" fill="#aab6d8" opacity="0.50"/><circle cx="1012.1" cy="300.1" r="1.0" fill="#aab6d8" opacity="0.74"/><circle cx="586.3" cy="329.2" r="0.7" fill="#aab6d8" opacity="0.61"/><circle cx="496.5" cy="576.3" r="1.8" fill="#aab6d8" opacity="0.49"/><circle cx="79.7" cy="64.2" r="1.6" fill="#aab6d8" opacity="0.96"/><circle cx="887.7" cy="975.6" r="0.9" fill="#aab6d8" opacity="0.45"/><circle cx="857.8" cy="428.9" r="1.4" fill="#aab6d8" opacity="0.88"/><circle cx="97.6" cy="989.0" r="0.9" fill="#aab6d8" opacity="0.71"/><circle cx="787.3" cy="588.1" r="1.9" fill="#aab6d8" opacity="0.51"/><circle cx="276.1" cy="693.1" r="2.3" fill="#aab6d8" opacity="0.34"/><circle cx="126.0" cy="1038.2" r="0.7" fill="#aab6d8" opacity="0.39"/><circle cx="604.9" cy="338.3" r="1.9" fill="#aab6d8" opacity="0.63"/><circle cx="956.1" cy="116.4" r="1.0" fill="#aab6d8" opacity="0.43"/><circle cx="962.5" cy="1049.3" r="1.3" fill="#aab6d8" opacity="0.46"/><circle cx="87.4" cy="192.4" r="2.4" fill="#aab6d8" opacity="0.97"/><circle cx="1109.2" cy="188.9" r="0.7" fill="#aab6d8" opacity="1.00"/><circle cx="867.0" cy="926.6" r="2.2" fill="#aab6d8" opacity="0.91"/><circle cx="14.5" cy="914.9" r="1.6" fill="#aab6d8" opacity="0.99"/><circle cx="236.5" cy="412.3" r="0.8" fill="#aab6d8" opacity="0.83"/><circle cx="706.6" cy="908.7" r="1.6" fill="#aab6d8" opacity="0.85"/><circle cx="439.3" cy="65.2" r="0.7" fill="#aab6d8" opacity="0.35"/><circle cx="33.2" cy="770.4" r="1.9" fill="#aab6d8" opacity="0.99"/><circle cx="942.4" cy="208.3" r="0.9" fill="#aab6d8" opacity="0.56"/><circle cx="410.0" cy="138.9" r="2.0" fill="#aab6d8" opacity="0.81"/><circle cx="504.7" cy="600.5" r="1.7" fill="#aab6d8" opacity="0.70"/><circle cx="730.3" cy="661.5" r="2.4" fill="#aab6d8" opacity="0.51"/><circle cx="99.3" cy="143.0" r="1.7" fill="#aab6d8" opacity="0.64"/><circle cx="1115.3" cy="571.7" r="2.2" fill="#aab6d8" opacity="0.89"/><circle cx="424.1" cy="247.9" r="1.8" fill="#aab6d8" opacity="0.59"/><circle cx="188.1" cy="49.0" r="2.1" fill="#aab6d8" opacity="0.98"/><circle cx="876.6" cy="130.9" r="0.6" fill="#aab6d8" opacity="0.73"/><circle cx="478.3" cy="978.6" r="1.4" fill="#aab6d8" opacity="0.79"/><circle cx="38.8" cy="44.8" r="2.0" fill="#aab6d8" opacity="0.74"/><circle cx="1062.4" cy="390.2" r="1.6" fill="#aab6d8" opacity="0.63"/><circle cx="924.5" cy="636.9" r="2.1" fill="#aab6d8" opacity="0.41"/><circle cx="780.3" cy="389.5" r="2.0" fill="#aab6d8" opacity="0.59"/><circle cx="191.4" cy="12.5" r="1.5" fill="#aab6d8" opacity="0.39"/><circle cx="910.6" cy="925.4" r="1.2" fill="#aab6d8" opacity="0.82"/><circle cx="808.7" cy="576.4" r="0.8" fill="#aab6d8" opacity="0.98"/><circle cx="371.2" cy="73.0" r="2.0" fill="#aab6d8" opacity="0.97"/><circle cx="967.0" cy="696.8" r="1.2" fill="#aab6d8" opacity="0.98"/><circle cx="567.4" cy="754.7" r="2.0" fill="#aab6d8" opacity="0.58"/></g><path d="M -40,1500 L -40,1200.0 L 0,1200.0 Q 100.0,1197.3 200.0,1180.1 Q 300.0,1135.0 400.0,1226.0 Q 500.0,1150.5 600.0,1214.1 Q 700.0,1120.6 800.0,1180.9 Q 900.0,1172.9 1000.0,1194.7 Q 1100.0,1155.5 1200.0,1211.8 L 1240,1500 Z" fill="#050810" opacity="1"/><g stroke="#04060c" fill="none" stroke-linecap="round"><path d="M129.3,1500 L129.3,1224.3" stroke-width="12"/><path d="M129.3,1296.8 q 25.4,-20.3 50.7,-10.1" stroke-width="5"/><path d="M129.3,1313.6 q 47.5,-38.0 95.0,-19.0" stroke-width="4"/><path d="M129.3,1396.8 q 54.2,-43.4 108.4,-21.7" stroke-width="4"/><path d="M129.3,1301.7 q 52.3,-41.9 104.7,-20.9" stroke-width="6"/><path d="M452.1,1500 L452.1,1082.6" stroke-width="12"/><path d="M452.1,1240.4 q -36.8,-29.4 -73.5,-14.7" stroke-width="6"/><path d="M452.1,1277.0 q -30.6,-24.5 -61.2,-12.2" stroke-width="6"/><path d="M452.1,1121.3 q 40.2,-32.1 80.3,-16.1" stroke-width="4"/><path d="M452.1,1153.0 q -47.6,-38.1 -95.2,-19.0" stroke-width="4"/><path d="M452.1,1350.7 q 24.9,-19.9 49.8,-10.0" stroke-width="6"/><path d="M714.9,1500 L714.9,1170.5" stroke-width="10"/><path d="M714.9,1346.8 q -35.4,-28.4 -70.9,-14.2" stroke-width="5"/><path d="M714.9,1226.6 q -32.3,-25.9 -64.6,-12.9" stroke-width="4"/><path d="M714.9,1269.7 q -46.6,-37.3 -93.3,-18.7" stroke-width="4"/><path d="M714.9,1192.8 q 22.0,-17.6 43.9,-8.8" stroke-width="3"/><path d="M1035.6,1500 L1035.6,1197.0" stroke-width="12"/><path d="M1035.6,1379.4 q 49.3,-39.5 98.7,-19.7" stroke-width="4"/><path d="M1035.6,1353.1 q -21.2,-17.0 -42.4,-8.5" stroke-width="5"/><path d="M1035.6,1324.0 q 24.1,-19.3 48.1,-9.6" stroke-width="5"/><path d="M1035.6,1197.2 q 35.7,-28.6 71.4,-14.3" stroke-width="5"/></g><g filter="url(#fog)" opacity="0.6"><ellipse cx="360" cy="1380" rx="500" ry="120" fill="#0a0f1e"/><ellipse cx="840" cy="1440" rx="600" ry="140" fill="#0a0f1e"/></g><radialGradient id="vig" cx="0.5" cy="0.42" r="0.75"><stop offset="0.55" stop-color="#000000" stop-opacity="0"/><stop offset="1" stop-color="#000000" stop-opacity="0.75"/></radialGradient><rect width="1200" height="1500" fill="url(#vig)"/><linearGradient id="btm" x1="0" y1="0" x2="0" y2="1"><stop offset="0.65" stop-color="#000" stop-opacity="0"/><stop offset="1" stop-color="#000" stop-opacity="0.5"/></linearGradient><rect width="1200" height="1500" fill="url(#btm)"/></svg>