<svg xmlns="http://www.w3.org/2000/svg" viewBox="0 0 1200 1500" preserveAspectRatio="xMidYMid slice"><defs><filter id="soft" x="-20%" y="-20%" width="140%" height="140%"><feGaussianBlur stdDeviation="14"/></filter><filter id="fog" x="-40%" y="-40%" width="180%" height="180%"><feGaussianBlur stdDeviation="40"/></filter></defs><linearGradient id="sky" x1="0" y1="0" x2="0" y2="1"><stop offset="0" stop-color="#123a2a"/><stop offset="0.55" stop-color="#1f6b4a"/><stop offset="1" stop-color="#8fd66f"/></linearGradient><rect width="1200" height="1500" fill="url(#sky)"/><radialGradient id="g700300" cx="0.5" cy="0.5" r="0.5"><stop offset="0" stop-color="#eaffa8" stop-opacity="0.4"/><stop offset="1" stop-color="#eaffa8" stop-opacity="0"/></radialGradient><circle cx="700.0" cy="300.0" r="460.0" fill="url(#g700300)"/><g fill="#2e7d4a"><path d="M76.0,900.0 L26.8,900.0 L76.0,791.7 L41.6,801.6 L76.0,703.2 L110.5,801.6 L125.2,900.0 Z"/><path d="M242.0,900.0 L187.0,900.0 L242.0,778.8 L203.5,789.8 L242.0,679.6 L280.6,789.8 L297.1,900.0 Z"/><path d="M386.9,900.0 L338.8,900.0 L386.9,794.3 L353.2,803.9 L386.9,707.7 L420.5,803.9 L434.9,900.0 Z"/><path d="M511.1,900.0 L440.7,900.0 L511.1,745.0 L461.8,759.1 L511.1,618.2 L560.5,759.1 L581.6,900.0 Z"/><path d="M686.1,900.0 L602.1,900.0 L686.1,715.2 L627.3,732.0 L686.1,564.0 L744.9,732.0 L770.1,900.0 Z"/><path d="M819.7,900.0 L760.9,900.0 L819.7,770.8 L778.6,782.5 L819.7,665.0 L860.8,782.5 L878.4,900.0 Z"/><path d="M965.9,900.0 L888.2,900.0 L965.9,729.1 L911.5,744.6 L965.9,589.3 L1020.3,744.6 L1043.6,900.0 Z"/><path d="M1143.8,900.0 L1088.4,900.0 L1143.8,778.2 L1105.0,789.2 L1143.8,678.5 L1182.6,789.2 L1199.2,900.0 Z"/></g><g fill="#1f5c37"><path d="M65.0,1120.0 L-19.7,1120.0 L65.0,933.9 L5.7,950.8 L65.0,781.6 L124.2,950.8 L149.6,1120.0 Z"/><path d="M179.2,1120.0 L103.4,1120.0 L179.2,953.1 L126.1,968.3 L179.2,816.5 L232.3,968.3 L255.1,1120.0 Z"/><path d="M290.7,1120.0 L199.2,1120.0 L290.7,918.7 L226.7,937.0 L290.7,753.9 L354.8,937.0 L382.2,1120.0 Z"/><path d="M405.7,1120.0 L347.3,1120.0 L405.7,991.5 L364.8,1003.2 L405.7,886.4 L446.6,1003.2 L464.1,1120.0 Z"/><path d="M520.3,1120.0 L441.2,1120.0 L520.3,946.0 L464.9,961.8 L520.3,803.6 L575.7,961.8 L599.4,1120.0 Z"/><path d="M682.1,1120.0 L603.9,1120.0 L682.1,948.0 L627.4,963.7 L682.1,807.3 L736.8,963.7 L760.3,1120.0 Z"/><path d="M752.3,1120.0 L687.1,1120.0 L752.3,976.5 L706.7,989.5 L752.3,859.1 L798.0,989.5 L817.6,1120.0 Z"/><path d="M876.0,1120.0 L807.8,1120.0 L876.0,970.0 L828.3,983.7 L876.0,847.3 L923.7,983.7 L944.1,1120.0 Z"/><path d="M1009.7,1120.0 L915.0,1120.0 L1009.7,911.5 L943.4,930.4 L1009.7,740.9 L1076.1,930.4 L1104.5,1120.0 Z"/><path d="M1139.0,1120.0 L1048.2,1120.0 L1139.0,920.2 L1075.4,938.3 L1139.0,756.6 L1202.6,938.3 L1229.9,1120.0 Z"/></g><rect x="0" y="1200" width="1200" height="300" fill="#0f3d26"/><g fill="#1f6b3a" opacity="0.9"><path d="M0,0 Q20,123 0,247 Q-20,123 0,0 Z"/><path d="M90,0 Q110,120 90,239 Q70,120 90,0 Z"/><path d="M180,0 Q200,63 180,126 Q160,63 180,0 Z"/><path d="M270,0 Q290,76 270,152 Q250,76 270,0 Z"/><path d="M360,0 Q380,77 360,154 Q340,77 360,0 Z"/><path d="M450,0 Q470,111 450,223 Q430,111 450,0 Z"/><path d="M540,0 Q560,95 540,189 Q520,95 540,0 Z"/><path d="M630,0 Q650,100 630,200 Q610,100 630,0 Z"/><path d="M720,0 Q740,113 720,227 Q700,113 720,0 Z"/><path d="M810,0 Q830,101 810,202 Q790,101 810,0 Z"/><path d="M900,0 Q920,119 900,238 Q880,119 900,0 Z"/><path d="M990,0 Q1010,67 990,134 Q970,67 990,0 Z"/><path d="M1080,0 Q1100,103 1080,205 Q1060,103 1080,0 Z"/><path d="M1170,0 Q1190,127 1170,254 Q1150,127 1170,0 Z"/></g><g><radialGradient id="g5371454" cx="0.5" cy="0.5" r="0.5"><stop offset="0" stop-color="#c6ff8a" stop-opacity="0.5"/><stop offset="1" stop-color="#c6ff8a" stop-opacity="0"/></radialGradient><circle cx="537.9" cy="1454.5" r="20.7" fill="url(#g5371454)"/><circle cx="537.9" cy="1454.5" r="3.4" fill="#eaffb0"/><radialGradient id="g9711012" cx="0.5" cy="0.5" r="0.5"><stop offset="0" stop-color="#c6ff8a" stop-opacity="0.5"/><stop offset="1" stop-color="#c6ff8a" stop-opacity="0"/></radialGradient><circle cx="971.9" cy="1012.9" r="19.1" fill="url(#g9711012)"/><circle cx="971.9" cy="1012.9" r="3.2" fill="#eaffb0"/><radialGradient id="g5581021" cx="0.5" cy="0.5" r="0.5"><stop offset="0" stop-color="#c6ff8a" stop-opacity="0.5"/><stop offset="1" stop-color="#c6ff8a" stop-opacity="0"/></radialGradient><circle cx="558.7" cy="1021.1" r="17.6" fill="url(#g5581021)"/><circle cx="558.7" cy="1021.1" r="2.9" fill="#eaffb0"/><radialGradient id="g1112886" cx="0.5" cy="0.5" r="0.5"><stop offset="0" stop-color="#c6ff8a" stop-opacity="0.5"/><stop offset="1" stop-color="#c6ff8a" stop-opacity="0"/></radialGradient><circle cx="1112.8" cy="886.6" r="20.9" fill="url(#g1112886)"/><circle cx="1112.8" cy="886.6" r="3.5" fill="#eaffb0"/><radialGradient id="g311745" cx="0.5" cy="0.5" r="0.5"><stop offset="0" stop-color="#c6ff8a" stop-opacity="0.5"/><stop offset="1" stop-color="#c6ff8a" stop-opacity="0"/></radialGradient><circle cx="311.3" cy="745.1" r="16.2" fill="url(#g311745)"/><circle cx="311.3" cy="745.1" r="2.7" fill="#eaffb0"/><radialGradient id="g7471167" cx="0.5" cy="0.5" r="0.5"><stop offset="0" stop-color="#c6ff8a" stop-opacity="0.5"/><stop offset="1" stop-color="#c6ff8a" stop-opacity="0"/></radialGradient><circle cx="747.8" cy="1167.7" r="21.2" fill="url(#g7471167)"/><circle cx="747.8" cy="1167.7" r="3.5" fill="#eaffb0"/><radialGradient id="g529833" cx="0.5" cy="0.5" r="0.5"><stop offset="0" stop-color="#c6ff8a" stop-opacity="0.5"/><stop offset="1" stop-color="#c6ff8a" stop-opacity="0"/></radialGradient><circle cx="529.1" cy="833.8" r="14.1" fill="url(#g529833)"/><circle cx="529.1" cy="833.8" r="2.3" fill="#eaffb0"/><radialGradient id="g474888" cx="0.5" cy="0.5" r="0.5"><stop offset="0" stop-color="#c6ff8a" stop-opacity="0.5"/><stop offset="1" stop-color="#c6ff8a" stop-opacity="0"/></radialGradient><circle cx="474.8" cy="888.3" r="20.9" fill="url(#g474888)"/><circle cx="474.8" cy="888.3" r="3.5" fill="#eaffb0"/><radialGradient id="g472898" cx="0.5" cy="0.5" r="0.5"><stop offset="0" stop-color="#c6ff8a" stop-opacity="0.5"/><stop offset="1" stop-color="#c6ff8a" stop-opacity="0"/></radialGradient><circle cx="472.9" cy="898.6" r="18.5" fill="url(#g472898)"/><circle cx="472.9" cy="898.6" r="3.1" fill="#eaffb0"/><radialGradient id="g2821404" cx="0.5" cy="0.5" r="0.5"><stop offset="0" stop-color="#c6ff8a" stop-opacity="0.5"/><stop offset="1" stop-color="#c6ff8a" stop-opacity="0"/></radialGradient><circle cx="282.0" cy="1404.3" r="18.0" fill="url(#g2821404)"/><circle cx="282.0" cy="1404.3" r="3.0" fill="#eaffb0"/><radialGradient id="g378837" cx="0.5" cy="0.5" r="0.5"><stop offset="0" stop-color="#c6ff8a" stop-opacity="0.5"/><stop offset="1" stop-color="#c6ff8a" stop-opacity="0"/></radialGradient><circle cx="378.6" cy="838.0" r="19.8" fill="url(#g378837)"/><circle cx="378.6" cy="838.0" r="3.3" fill="#eaffb0"/><radialGradient id="g453799" cx="0.5" cy="0.5" r="0.5"><stop offset="0" stop-color="#c6ff8a" stop-opacity="0.5"/><stop offset="1" stop-color="#c6ff8a" stop-opacity="0"/></radialGradient><circle cx="453.8" cy="799.7" r="17.3" fill="url(#g453799)"/><circle cx="453.8" cy="799.7" r="2.9" fill="#eaffb0"/><radialGradient id="g921185" cx="0.5" cy="0.5" r="0.5"><stop offset="0" stop-color="#c6ff8a" stop-opacity="0.5"/><stop offset="1" stop-color="#c6ff8a" stop-opacity="0"/></radialGradient><circle cx="92.6" cy="1185.6" r="18.6" fill="url(#g921185)"/><circle cx="92.6" cy="1185.6" r="3.1" fill="#eaffb0"/><radialGradient id="g6511198" cx="0.5" cy="0.5" r="0.5"><stop offset="0" stop-color="#c6ff8a" stop-opacity="0.5"/><stop offset="1" stop-color="#c6ff8a" stop-opacity="0"/></radialGradient><circle cx="651.2" cy="1198.7" r="13.5" fill="url(#g6511198)"/><circle cx="651.2" cy="1198.7" r="2.2" fill="#eaffb0"/></g><radialGradient id="vig" cx="0.5" cy="0.42" r="0.75"><stop offset="0.55" stop-color="#000000" stop-opacity="0"/><stop offset="1" stop-color="#000000" stop-opacity="0.55"/></radialGradient><rect width="1200" height="1500" fill="url(#vig)"/><linearGradient id="btm" x1="0" y1="0" x2="0" y2="1"><stop offset="0.65" stop-color="#000" stop-opacity="0"/><stop offset="1" stop-color="#000" stop-opacity="0.5"/></linearGradient><rect width="1200" height="1500" fill="url(#btm)"/></svg>