<svg xmlns="http://www.w3.org/2000/svg" viewBox="0 0 1200 1500" preserveAspectRatio="xMidYMid slice"><defs><filter id="soft" x="-20%" y="-20%" width="140%" height="140%"><feGaussianBlur stdDeviation="14"/></filter><filter id="fog" x="-40%" y="-40%" width="180%" height="180%"><feGaussianBlur stdDeviation="40"/></filter></defs><linearGradient id="sky" x1="0" y1="0" x2="0" y2="1"><stop offset="0" stop-color="#8fbfe0"/><stop offset="0.55" stop-color="#cfe6f2"/><stop offset="1" stop-color="#eef6fb"/></linearGradient><rect width="1200" height="1500" fill="url(#sky)"/><radialGradient id="g880320" cx="0.5" cy="0.5" r="0.5"><stop offset="0" stop-color="#fff3c4" stop-opacity="0.65"/><stop offset="1" stop-color="#fff3c4" stop-opacity="0"/></radialGradient><circle cx="880.0" cy="320.0" r="224.0" fill="url(#g880320)"/><circle cx="880.0" cy="320.0" r="70.0" fill="#fffdf5"/><g fill="#ffffff" opacity="0.8" filter="url(#soft)"><ellipse cx="257.8" cy="298.8" rx="45.8" ry="32.1"/><ellipse cx="307.6" cy="274.9" rx="59.8" ry="41.8"/><ellipse cx="367.3" cy="282.9" rx="53.8" ry="37.6"/><ellipse cx="422.1" cy="300.8" rx="43.8" ry="30.7"/><ellipse cx="337.4" cy="310.8" rx="69.7" ry="48.8"/><ellipse cx="655.4" cy="312.7" rx="34.6" ry="24.2"/><ellipse cx="693.0" cy="294.6" rx="45.1" ry="31.6"/><ellipse cx="738.2" cy="300.6" rx="40.6" ry="28.4"/><ellipse cx="779.6" cy="314.2" rx="33.1" ry="23.2"/><ellipse cx="715.6" cy="321.7" rx="52.7" ry="36.9"/><ellipse cx="30.2" cy="356.6" rx="41.7" ry="29.2"/><ellipse cx="75.5" cy="334.8" rx="54.4" ry="38.1"/><ellipse cx="130.0" cy="342.0" rx="49.0" ry="34.3"/><ellipse cx="179.9" cy="358.4" rx="39.9" ry="28.0"/><ellipse cx="102.8" cy="367.5" rx="63.5" ry="44.5"/></g><path d="M -40,1500 L -40,1120.0 L 0,1120.0 L 120.0,697.1 L 240.0,1028.3 L 360.0,574.9 L 480.0,1056.3 L 600.0,683.8 L 720.0,1014.6 L 840.0,530.0 L 960.0,1051.8 L 1080.0,608.7 L 1200.0,1088.6 L 1240,1120.0 L 1240,1500 Z" fill="#5b7a96" opacity="0.5"/><path d="M -40,1500 L -40,1180.0 L 0,1180.0 L 100.0,630.9 L 200.0,1165.3 L 300.0,873.9 L 400.0,1075.1 L 500.0,832.1 L 600.0,1167.3 L 700.0,710.6 L 800.0,1143.7 L 900.0,648.7 L 1000.0,1155.7 L 1100.0,630.5 L 1200.0,1146.5 L 1240,1180.0 L 1240,1500 Z" fill="#3d5a75" opacity="0.8"/><path d="M66.0,670.9 L100.0,630.9 L134.0,670.9 L118.0,660.9 L100.0,672.9 L82.0,660.9 Z" fill="#ffffff" opacity="0.9"/><path d="M266.0,913.9 L300.0,873.9 L334.0,913.9 L318.0,903.9 L300.0,915.9 L282.0,903.9 Z" fill="#ffffff" opacity="0.9"/><path d="M466.0,872.1 L500.0,832.1 L534.0,872.1 L518.0,862.1 L500.0,874.1 L482.0,862.1 Z" fill="#ffffff" opacity="0.9"/><path d="M666.0,750.6 L700.0,710.6 L734.0,750.6 L718.0,740.6 L700.0,752.6 L682.0,740.6 Z" fill="#ffffff" opacity="0.9"/><path d="M866.0,688.7 L900.0,648.7 L934.0,688.7 L918.0,678.7 L900.0,690.7 L882.0,678.7 Z" fill="#ffffff" opacity="0.9"/><path d="M1066.0,670.5 L1100.0,630.5 L1134.0,670.5 L1118.0,660.5 L1100.0,672.5 L1082.0,660.5 Z" fill="#ffffff" opacity="0.9"/><path d="M -40,1500 L -40,1240.0 L 0,1240.0 L 85.7,873.5 L 171.4,1173.6 L 257.1,879.4 L 342.9,1234.2 L 428.6,933.4 L 514.3,1210.3 L 600.0,944.6 L 685.7,1230.9 L 771.4,1005.4 L 857.1,1208.9 L 942.9,1000.2 L 1028.6,1208.1 L 1114.3,1035.5 L 1200.0,1234.0 L 1240,1240.0 L 1240,1500 Z" fill="#26384a" opacity="1.0"/><path d="M51.7,913.5 L85.7,873.5 L119.7,913.5 L103.7,903.5 L85.7,915.5 L67.7,903.5 Z" fill="#ffffff" opacity="0.9"/><path d="M223.1,919.4 L257.1,879.4 L291.1,919.4 L275.1,909.4 L257.1,921.4 L239.1,909.4 Z" fill="#ffffff" opacity="0.9"/><path d="M394.6,973.4 L428.6,933.4 L462.6,973.4 L446.6,963.4 L428.6,975.4 L410.6,963.4 Z" fill="#ffffff" opacity="0.9"/><path d="M566.0,984.6 L600.0,944.6 L634.0,984.6 L618.0,974.6 L600.0,986.6 L582.0,974.6 Z" fill="#ffffff" opacity="0.9"/><path d="M737.4,1045.4 L771.4,1005.4 L805.4,1045.4 L789.4,1035.4 L771.4,1047.4 L753.4,1035.4 Z" fill="#ffffff" opacity="0.9"/><path d="M908.9,1040.2 L942.9,1000.2 L976.9,1040.2 L960.9,1030.2 L942.9,1042.2 L924.9,1030.2 Z" fill="#ffffff" opacity="0.9"/><path d="M1080.3,1075.5 L1114.3,1035.5 L1148.3,1075.5 L1132.3,1065.5 L1114.3,1077.5 L1096.3,1065.5 Z" fill="#ffffff" opacity="0.9"/><g fill="#152430"><path d="M62.7,1420.0 L11.7,1420.0 L62.7,1307.8 L27.0,1318.0 L62.7,1216.0 L98.4,1318.0 L113.7,1420.0 Z"/><path d="M131.0,1420.0 L76.0,1420.0 L131.0,1299.1 L92.5,1310.1 L131.0,1200.2 L169.4,1310.1 L185.9,1420.0 Z"/><path d="M231.6,1420.0 L184.9,1420.0 L231.6,1317.1 L198.9,1326.5 L231.6,1232.9 L264.4,1326.5 L278.4,1420.0 Z"/><path d="M325.5,1420.0 L276.6,1420.0 L325.5,1312.3 L291.2,1322.1 L325.5,1224.2 L359.8,1322.1 L374.5,1420.0 Z"/><path d="M429.1,1420.0 L381.4,1420.0 L429.1,1315.1 L395.7,1324.7 L429.1,1229.3 L462.4,1324.7 L476.7,1420.0 Z"/><path d="M563.5,1420.0 L514.3,1420.0 L563.5,1311.9 L529.1,1321.7 L563.5,1223.4 L597.9,1321.7 L612.6,1420.0 Z"/><path d="M646.5,1420.0 L594.8,1420.0 L646.5,1306.4 L610.3,1316.7 L646.5,1213.4 L682.6,1316.7 L698.1,1420.0 Z"/><path d="M779.3,1420.0 L746.4,1420.0 L779.3,1347.6 L756.3,1354.2 L779.3,1288.4 L802.3,1354.2 L812.2,1420.0 Z"/><path d="M851.0,1420.0 L797.1,1420.0 L851.0,1301.3 L813.2,1312.1 L851.0,1204.2 L888.8,1312.1 L905.0,1420.0 Z"/><path d="M964.3,1420.0 L923.2,1420.0 L964.3,1329.6 L935.6,1337.8 L964.3,1255.6 L993.1,1337.8 L1005.5,1420.0 Z"/><path d="M1038.3,1420.0 L984.5,1420.0 L1038.3,1301.6 L1000.6,1312.3 L1038.3,1204.7 L1076.0,1312.3 L1092.1,1420.0 Z"/><path d="M1125.1,1420.0 L1076.1,1420.0 L1125.1,1312.2 L1090.8,1322.0 L1125.1,1223.9 L1159.4,1322.0 L1174.1,1420.0 Z"/></g><radialGradient id="vig" cx="0.5" cy="0.42" r="0.75"><stop offset="0.55" stop-color="#000000" stop-opacity="0"/><stop offset="1" stop-color="#000000" stop-opacity="0.5"/></radialGradient><rect width="1200" height="1500" fill="url(#vig)"/><linearGradient id="btm" x1="0" y1="0" x2="0" y2="1"><stop offset="0.65" stop-color="#000" stop-opacity="0"/><stop offset="1" stop-color="#000" stop-opacity="0.5"/></linearGradient><rect width="1200" height="1500" fill="url(#btm)"/></svg>