<svg xmlns="http://www.w3.org/2000/svg" viewBox="0 0 1200 1500" preserveAspectRatio="xMidYMid slice"><defs><filter id="soft" x="-20%" y="-20%" width="140%" height="140%"><feGaussianBlur stdDeviation="14"/></filter><filter id="fog" x="-40%" y="-40%" width="180%" height="180%"><feGaussianBlur stdDeviation="40"/></filter></defs><linearGradient id="sky" x1="0" y1="0" x2="0" y2="1"><stop offset="0" stop-color="#08061e"/><stop offset="0.55" stop-color="#1a0b3e"/><stop offset="1" stop-color="#3a0b5e"/></linearGradient><rect width="1200" height="1500" fill="url(#sky)"/><radialGradient id="g300420" cx="0.5" cy="0.5" r="0.5"><stop offset="0" stop-color="#00e5ff" stop-opacity="0.4"/><stop offset="1" stop-color="#00e5ff" stop-opacity="0"/></radialGradient><circle cx="300.0" cy="420.0" r="420.0" fill="url(#g300420)"/><radialGradient id="g900380" cx="0.5" cy="0.5" r="0.5"><stop offset="0" stop-color="#ff2bd6" stop-opacity="0.4"/><stop offset="1" stop-color="#ff2bd6" stop-opacity="0"/></radialGradient><circle cx="900.0" cy="380.0" r="420.0" fill="url(#g900380)"/><g fill="#0a0820"><rect x="-20.0" y="1063.6" width="70.1" height="436.4"/><rect x="57.7" y="1238.1" width="74.9" height="261.9"/><rect x="141.1" y="937.6" width="93.9" height="562.4"/><rect x="250.6" y="907.0" width="122.7" height="593.0"/><rect x="381.2" y="968.3" width="126.4" height="531.7"/><rect x="522.3" y="1108.4" width="112.5" height="391.6"/><rect x="650.2" y="988.0" width="78.1" height="512.0"/><rect x="740.7" y="947.8" width="121.3" height="552.2"/><rect x="874.7" y="1096.2" width="96.4" height="403.8"/><rect x="985.8" y="1098.5" width="66.1" height="401.5"/><rect x="1057.3" y="1141.5" width="77.5" height="358.5"/><rect x="1139.9" y="1011.3" width="91.5" height="488.7"/></g><g fill="#00e5ff"><rect x="18" y="1155" width="9" height="12" opacity="0.95"/><rect x="-8" y="1189" width="9" height="12" opacity="0.75"/><rect x="18" y="1189" width="9" height="12" opacity="0.58"/><rect x="18" y="1223" width="9" height="12" opacity="0.45"/><rect x="-8" y="1257" width="9" height="12" opacity="0.61"/><rect x="18" y="1257" width="9" height="12" opacity="0.69"/><rect x="-8" y="1291" width="9" height="12" opacity="0.40"/><rect x="18" y="1291" width="9" height="12" opacity="0.58"/><rect x="18" y="1359" width="9" height="12" opacity="0.63"/><rect x="18" y="1427" width="9" height="12" opacity="0.58"/><rect x="69" y="1262" width="9" height="12" opacity="0.44"/><rect x="95" y="1296" width="9" height="12" opacity="0.42"/><rect x="95" y="1364" width="9" height="12" opacity="0.92"/><rect x="69" y="1466" width="9" height="12" opacity="0.97"/><rect x="95" y="1466" width="9" height="12" opacity="0.64"/><rect x="153" y="961" width="9" height="12" opacity="0.65"/><rect x="179" y="961" width="9" height="12" opacity="0.63"/><rect x="153" y="1029" width="9" height="12" opacity="0.99"/><rect x="153" y="1063" width="9" height="12" opacity="0.63"/><rect x="205" y="1063" width="9" height="12" opacity="0.66"/><rect x="153" y="1097" width="9" height="12" opacity="0.48"/><rect x="153" y="1131" width="9" height="12" opacity="0.50"/><rect x="179" y="1131" width="9" height="12" opacity="0.83"/><rect x="205" y="1131" width="9" height="12" opacity="0.84"/><rect x="179" y="1165" width="9" height="12" opacity="0.82"/><rect x="205" y="1199" width="9" height="12" opacity="0.48"/><rect x="179" y="1233" width="9" height="12" opacity="0.95"/><rect x="153" y="1267" width="9" height="12" opacity="0.69"/><rect x="179" y="1267" width="9" height="12" opacity="0.54"/><rect x="153" y="1301" width="9" height="12" opacity="0.52"/><rect x="205" y="1301" width="9" height="12" opacity="0.75"/><rect x="179" y="1369" width="9" height="12" opacity="0.60"/><rect x="179" y="1403" width="9" height="12" opacity="0.57"/><rect x="205" y="1403" width="9" height="12" opacity="0.89"/><rect x="153" y="1437" width="9" height="12" opacity="0.42"/><rect x="179" y="1437" width="9" height="12" opacity="0.52"/><rect x="153" y="1471" width="9" height="12" opacity="0.48"/><rect x="314" y="930" width="9" height="12" opacity="0.93"/><rect x="340" y="930" width="9" height="12" opacity="0.55"/><rect x="288" y="964" width="9" height="12" opacity="0.70"/><rect x="340" y="964" width="9" height="12" opacity="0.43"/><rect x="288" y="998" width="9" height="12" opacity="0.94"/><rect x="288" y="1032" width="9" height="12" opacity="0.86"/><rect x="314" y="1032" width="9" height="12" opacity="0.88"/><rect x="340" y="1032" width="9" height="12" opacity="0.92"/><rect x="262" y="1066" width="9" height="12" opacity="0.92"/><rect x="314" y="1066" width="9" height="12" opacity="0.60"/><rect x="262" y="1100" width="9" height="12" opacity="0.45"/><rect x="288" y="1100" width="9" height="12" opacity="0.66"/><rect x="314" y="1100" width="9" height="12" opacity="0.76"/><rect x="262" y="1134" width="9" height="12" opacity="0.44"/><rect x="288" y="1134" width="9" height="12" opacity="0.98"/><rect x="314" y="1134" width="9" height="12" opacity="0.86"/><rect x="262" y="1168" width="9" height="12" opacity="0.95"/><rect x="262" y="1202" width="9" height="12" opacity="0.42"/><rect x="314" y="1202" width="9" height="12" opacity="0.50"/><rect x="340" y="1202" width="9" height="12" opacity="0.63"/><rect x="288" y="1236" width="9" height="12" opacity="0.54"/><rect x="340" y="1236" width="9" height="12" opacity="0.58"/><rect x="262" y="1304" width="9" height="12" opacity="0.46"/><rect x="314" y="1304" width="9" height="12" opacity="0.71"/><rect x="340" y="1304" width="9" height="12" opacity="0.95"/><rect x="262" y="1372" width="9" height="12" opacity="0.93"/><rect x="288" y="1406" width="9" height="12" opacity="0.91"/><rect x="314" y="1406" width="9" height="12" opacity="0.93"/><rect x="314" y="1440" width="9" height="12" opacity="0.57"/><rect x="340" y="1440" width="9" height="12" opacity="0.50"/><rect x="262" y="1474" width="9" height="12" opacity="0.89"/><rect x="288" y="1474" width="9" height="12" opacity="0.54"/><rect x="419" y="992" width="9" height="12" opacity="0.71"/><rect x="445" y="992" width="9" height="12" opacity="0.77"/><rect x="393" y="1026" width="9" height="12" opacity="0.47"/><rect x="471" y="1026" width="9" height="12" opacity="0.88"/><rect x="445" y="1060" width="9" height="12" opacity="0.40"/><rect x="393" y="1094" width="9" height="12" opacity="0.91"/><rect x="419" y="1094" width="9" height="12" opacity="0.84"/><rect x="419" y="1128" width="9" height="12" opacity="0.79"/><rect x="419" y="1162" width="9" height="12" opacity="0.64"/><rect x="445" y="1162" width="9" height="12" opacity="0.84"/><rect x="419" y="1196" width="9" height="12" opacity="0.99"/><rect x="445" y="1230" width="9" height="12" opacity="0.66"/><rect x="393" y="1264" width="9" height="12" opacity="0.45"/><rect x="471" y="1264" width="9" height="12" opacity="0.47"/><rect x="393" y="1298" width="9" height="12" opacity="0.82"/><rect x="419" y="1332" width="9" height="12" opacity="0.91"/><rect x="445" y="1332" width="9" height="12" opacity="0.54"/><rect x="393" y="1366" width="9" height="12" opacity="0.54"/><rect x="445" y="1434" width="9" height="12" opacity="0.76"/><rect x="471" y="1434" width="9" height="12" opacity="0.65"/><rect x="445" y="1468" width="9" height="12" opacity="0.83"/><rect x="471" y="1468" width="9" height="12" opacity="0.70"/><rect x="586" y="1132" width="9" height="12" opacity="0.85"/><rect x="586" y="1166" width="9" height="12" opacity="0.97"/><rect x="560" y="1200" width="9" height="12" opacity="0.56"/><rect x="586" y="1200" width="9" height="12" opacity="0.82"/><rect x="586" y="1234" width="9" height="12" opacity="0.47"/><rect x="534" y="1268" width="9" height="12" opacity="0.49"/><rect x="560" y="1268" width="9" height="12" opacity="0.85"/><rect x="586" y="1268" width="9" height="12" opacity="0.93"/><rect x="534" y="1302" width="9" height="12" opacity="0.77"/><rect x="560" y="1302" width="9" height="12" opacity="0.79"/><rect x="586" y="1302" width="9" height="12" opacity="0.51"/><rect x="612" y="1302" width="9" height="12" opacity="0.56"/><rect x="586" y="1336" width="9" height="12" opacity="0.86"/><rect x="534" y="1404" width="9" height="12" opacity="0.79"/><rect x="560" y="1404" width="9" height="12" opacity="0.61"/><rect x="612" y="1404" width="9" height="12" opacity="0.60"/><rect x="534" y="1438" width="9" height="12" opacity="0.65"/><rect x="612" y="1438" width="9" height="12" opacity="0.47"/><rect x="560" y="1472" width="9" height="12" opacity="0.76"/><rect x="586" y="1472" width="9" height="12" opacity="0.69"/><rect x="612" y="1472" width="9" height="12" opacity="0.48"/><rect x="662" y="1012" width="9" height="12" opacity="0.87"/><rect x="688" y="1012" width="9" height="12" opacity="0.99"/><rect x="714" y="1012" width="9" height="12" opacity="0.50"/><rect x="688" y="1080" width="9" height="12" opacity="0.91"/><rect x="714" y="1080" width="9" height="12" opacity="0.75"/><rect x="688" y="1114" width="9" height="12" opacity="0.67"/><rect x="714" y="1114" width="9" height="12" opacity="0.48"/><rect x="662" y="1148" width="9" height="12" opacity="0.83"/><rect x="688" y="1148" width="9" height="12" opacity="0.79"/><rect x="714" y="1148" width="9" height="12" opacity="0.69"/><rect x="662" y="1182" width="9" height="12" opacity="0.98"/><rect x="688" y="1182" width="9" height="12" opacity="0.95"/><rect x="714" y="1182" width="9" height="12" opacity="0.68"/><rect x="662" y="1216" width="9" height="12" opacity="0.52"/><rect x="688" y="1216" width="9" height="12" opacity="0.47"/><rect x="714" y="1216" width="9" height="12" opacity="0.81"/><rect x="662" y="1250" width="9" height="12" opacity="0.88"/><rect x="688" y="1250" width="9" height="12" opacity="0.53"/><rect x="662" y="1284" width="9" height="12" opacity="0.58"/><rect x="688" y="1284" width="9" height="12" opacity="0.55"/><rect x="714" y="1318" width="9" height="12" opacity="0.65"/><rect x="688" y="1352" width="9" height="12" opacity="0.77"/><rect x="662" y="1386" width="9" height="12" opacity="0.99"/><rect x="714" y="1386" width="9" height="12" opacity="0.50"/><rect x="662" y="1420" width="9" height="12" opacity="0.71"/><rect x="688" y="1420" width="9" height="12" opacity="0.80"/><rect x="714" y="1420" width="9" height="12" opacity="0.52"/><rect x="688" y="1454" width="9" height="12" opacity="0.77"/><rect x="714" y="1454" width="9" height="12" opacity="0.41"/><rect x="778" y="971" width="9" height="12" opacity="0.79"/><rect x="804" y="971" width="9" height="12" opacity="0.63"/><rect x="752" y="1005" width="9" height="12" opacity="0.49"/><rect x="778" y="1005" width="9" height="12" opacity="0.98"/><rect x="830" y="1005" width="9" height="12" opacity="0.61"/><rect x="804" y="1039" width="9" height="12" opacity="0.52"/><rect x="778" y="1073" width="9" height="12" opacity="0.65"/><rect x="830" y="1073" width="9" height="12" opacity="0.42"/><rect x="778" y="1107" width="9" height="12" opacity="0.60"/><rect x="830" y="1141" width="9" height="12" opacity="0.83"/><rect x="752" y="1209" width="9" height="12" opacity="0.90"/><rect x="778" y="1209" width="9" height="12" opacity="0.81"/><rect x="752" y="1243" width="9" height="12" opacity="0.98"/><rect x="778" y="1243" width="9" height="12" opacity="0.72"/><rect x="830" y="1243" width="9" height="12" opacity="0.87"/><rect x="804" y="1277" width="9" height="12" opacity="0.50"/><rect x="830" y="1277" width="9" height="12" opacity="0.69"/><rect x="752" y="1311" width="9" height="12" opacity="0.58"/><rect x="778" y="1311" width="9" height="12" opacity="0.62"/><rect x="804" y="1311" width="9" height="12" opacity="0.62"/><rect x="778" y="1345" width="9" height="12" opacity="0.73"/><rect x="752" y="1379" width="9" height="12" opacity="0.55"/><rect x="778" y="1379" width="9" height="12" opacity="0.63"/><rect x="804" y="1379" width="9" height="12" opacity="0.42"/><rect x="752" y="1413" width="9" height="12" opacity="0.44"/><rect x="830" y="1413" width="9" height="12" opacity="0.42"/><rect x="804" y="1447" width="9" height="12" opacity="0.50"/><rect x="830" y="1447" width="9" height="12" opacity="0.65"/><rect x="912" y="1120" width="9" height="12" opacity="0.74"/><rect x="938" y="1120" width="9" height="12" opacity="0.44"/><rect x="886" y="1154" width="9" height="12" opacity="0.95"/><rect x="886" y="1188" width="9" height="12" opacity="0.96"/><rect x="912" y="1188" width="9" height="12" opacity="0.56"/><rect x="938" y="1188" width="9" height="12" opacity="0.80"/><rect x="912" y="1256" width="9" height="12" opacity="0.58"/><rect x="938" y="1256" width="9" height="12" opacity="0.81"/><rect x="886" y="1290" width="9" height="12" opacity="0.86"/><rect x="938" y="1290" width="9" height="12" opacity="0.57"/><rect x="886" y="1324" width="9" height="12" opacity="0.42"/><rect x="912" y="1392" width="9" height="12" opacity="0.97"/><rect x="938" y="1460" width="9" height="12" opacity="0.71"/><rect x="997" y="1156" width="9" height="12" opacity="0.51"/><rect x="1023" y="1156" width="9" height="12" opacity="0.48"/><rect x="1023" y="1190" width="9" height="12" opacity="0.65"/><rect x="997" y="1258" width="9" height="12" opacity="0.53"/><rect x="1023" y="1258" width="9" height="12" opacity="0.53"/><rect x="997" y="1292" width="9" height="12" opacity="0.51"/><rect x="1023" y="1326" width="9" height="12" opacity="0.47"/><rect x="997" y="1394" width="9" height="12" opacity="0.46"/><rect x="1023" y="1394" width="9" height="12" opacity="0.66"/><rect x="997" y="1462" width="9" height="12" opacity="0.49"/><rect x="1023" y="1462" width="9" height="12" opacity="0.91"/><rect x="1121" y="1165" width="9" height="12" opacity="0.58"/><rect x="1069" y="1199" width="9" height="12" opacity="0.85"/><rect x="1095" y="1199" width="9" height="12" opacity="0.81"/><rect x="1121" y="1199" width="9" height="12" opacity="0.64"/><rect x="1069" y="1233" width="9" height="12" opacity="0.68"/><rect x="1095" y="1233" width="9" height="12" opacity="0.50"/><rect x="1121" y="1233" width="9" height="12" opacity="0.79"/><rect x="1069" y="1267" width="9" height="12" opacity="0.72"/><rect x="1095" y="1267" width="9" height="12" opacity="0.83"/><rect x="1069" y="1301" width="9" height="12" opacity="0.55"/><rect x="1095" y="1301" width="9" height="12" opacity="0.90"/><rect x="1095" y="1335" width="9" height="12" opacity="0.84"/><rect x="1121" y="1335" width="9" height="12" opacity="0.65"/><rect x="1095" y="1369" width="9" height="12" opacity="0.53"/><rect x="1069" y="1403" width="9" height="12" opacity="0.61"/><rect x="1095" y="1403" width="9" height="12" opacity="0.60"/><rect x="1095" y="1437" width="9" height="12" opacity="0.83"/><rect x="1095" y="1471" width="9" height="12" opacity="0.84"/><rect x="1121" y="1471" width="9" height="12" opacity="0.89"/><rect x="1151" y="1035" width="9" height="12" opacity="0.62"/><rect x="1177" y="1035" width="9" height="12" opacity="0.44"/><rect x="1151" y="1069" width="9" height="12" opacity="0.56"/><rect x="1177" y="1069" width="9" height="12" opacity="0.48"/><rect x="1203" y="1069" width="9" height="12" opacity="0.83"/><rect x="1151" y="1103" width="9" height="12" opacity="0.40"/><rect x="1177" y="1103" width="9" height="12" opacity="0.65"/><rect x="1203" y="1103" width="9" height="12" opacity="0.54"/><rect x="1151" y="1137" width="9" height="12" opacity="0.69"/><rect x="1177" y="1137" width="9" height="12" opacity="0.53"/><rect x="1203" y="1137" width="9" height="12" opacity="0.88"/><rect x="1151" y="1171" width="9" height="12" opacity="0.72"/><rect x="1177" y="1171" width="9" height="12" opacity="0.98"/><rect x="1203" y="1205" width="9" height="12" opacity="0.93"/><rect x="1203" y="1239" width="9" height="12" opacity="0.53"/><rect x="1177" y="1273" width="9" height="12" opacity="0.54"/><rect x="1177" y="1307" width="9" height="12" opacity="0.85"/><rect x="1203" y="1307" width="9" height="12" opacity="0.98"/><rect x="1151" y="1341" width="9" height="12" opacity="0.85"/><rect x="1177" y="1341" width="9" height="12" opacity="0.66"/><rect x="1203" y="1341" width="9" height="12" opacity="1.00"/><rect x="1151" y="1375" width="9" height="12" opacity="0.53"/><rect x="1177" y="1409" width="9" height="12" opacity="0.99"/><rect x="1203" y="1443" width="9" height="12" opacity="0.96"/><rect x="1151" y="1477" width="9" height="12" opacity="0.51"/><rect x="1203" y="1477" width="9" height="12" opacity="0.70"/></g><rect x="0" y="1360" width="1200" height="4" fill="#ff2bd6" opacity="0.8"/><g><path d="M0,-12 L3,-3 L12,0 L3,3 L0,12 L-3,3 L-12,0 L-3,-3 Z" fill="#fff6c8" opacity="0.42" transform="translate(595.4,1028.1) scale(0.62)"/><path d="M0,-12 L3,-3 L12,0 L3,3 L0,12 L-3,3 L-12,0 L-3,-3 Z" fill="#00e5ff" opacity="0.85" transform="translate(1142.6,254.7) scale(0.73)"/><path d="M0,-12 L3,-3 L12,0 L3,3 L0,12 L-3,3 L-12,0 L-3,-3 Z" fill="#00e5ff" opacity="0.66" transform="translate(65.5,184.2) scale(0.89)"/><path d="M0,-12 L3,-3 L12,0 L3,3 L0,12 L-3,3 L-12,0 L-3,-3 Z" fill="#fff6c8" opacity="0.93" transform="translate(751.4,1081.1) scale(0.80)"/><path d="M0,-12 L3,-3 L12,0 L3,3 L0,12 L-3,3 L-12,0 L-3,-3 Z" fill="#fff6c8" opacity="0.59" transform="translate(53.2,36.6) scale(1.76)"/><path d="M0,-12 L3,-3 L12,0 L3,3 L0,12 L-3,3 L-12,0 L-3,-3 Z" fill="#fff6c8" opacity="0.66" transform="translate(689.0,223.7) scale(1.71)"/><path d="M0,-12 L3,-3 L12,0 L3,3 L0,12 L-3,3 L-12,0 L-3,-3 Z" fill="#fff6c8" opacity="0.53" transform="translate(955.8,1045.0) scale(1.60)"/><path d="M0,-12 L3,-3 L12,0 L3,3 L0,12 L-3,3 L-12,0 L-3,-3 Z" fill="#ffd54a" opacity="0.50" transform="translate(1092.8,861.1) scale(1.32)"/><path d="M0,-12 L3,-3 L12,0 L3,3 L0,12 L-3,3 L-12,0 L-3,-3 Z" fill="#00e5ff" opacity="0.76" transform="translate(683.0,15.2) scale(1.07)"/><path d="M0,-12 L3,-3 L12,0 L3,3 L0,12 L-3,3 L-12,0 L-3,-3 Z" fill="#ffd54a" opacity="0.90" transform="translate(744.7,788.6) scale(1.11)"/><path d="M0,-12 L3,-3 L12,0 L3,3 L0,12 L-3,3 L-12,0 L-3,-3 Z" fill="#00e5ff" opacity="0.57" transform="translate(175.9,253.4) scale(1.77)"/><path d="M0,-12 L3,-3 L12,0 L3,3 L0,12 L-3,3 L-12,0 L-3,-3 Z" fill="#00e5ff" opacity="0.50" transform="translate(189.9,738.5) scale(1.25)"/><path d="M0,-12 L3,-3 L12,0 L3,3 L0,12 L-3,3 L-12,0 L-3,-3 Z" fill="#ffd54a" opacity="0.63" transform="translate(966.1,559.8) scale(0.92)"/><path d="M0,-12 L3,-3 L12,0 L3,3 L0,12 L-3,3 L-12,0 L-3,-3 Z" fill="#00e5ff" opacity="0.70" transform="translate(193.2,1165.7) scale(1.32)"/><path d="M0,-12 L3,-3 L12,0 L3,3 L0,12 L-3,3 L-12,0 L-3,-3 Z" fill="#ffd54a" opacity="0.64" transform="translate(770.7,719.4) scale(1.61)"/><path d="M0,-12 L3,-3 L12,0 L3,3 L0,12 L-3,3 L-12,0 L-3,-3 Z" fill="#00e5ff" opacity="0.88" transform="translate(758.5,882.6) scale(0.63)"/><path d="M0,-12 L3,-3 L12,0 L3,3 L0,12 L-3,3 L-12,0 L-3,-3 Z" fill="#fff6c8" opacity="0.55" transform="translate(133.7,852.9) scale(0.71)"/><path d="M0,-12 L3,-3 L12,0 L3,3 L0,12 L-3,3 L-12,0 L-3,-3 Z" fill="#00e5ff" opacity="0.64" transform="translate(844.2,626.6) scale(1.73)"/></g><radialGradient id="vig" cx="0.5" cy="0.42" r="0.75"><stop offset="0.55" stop-color="#000000" stop-opacity="0"/><stop offset="1" stop-color="#000000" stop-opacity="0.6"/></radialGradient><rect width="1200" height="1500" fill="url(#vig)"/><linearGradient id="btm" x1="0" y1="0" x2="0" y2="1"><stop offset="0.65" stop-color="#000" stop-opacity="0"/><stop offset="1" stop-color="#000" stop-opacity="0.5"/></linearGradient><rect width="1200" height="1500" fill="url(#btm)"/></svg>