<svg xmlns="http://www.w3.org/2000/svg" viewBox="0 0 1200 1500" preserveAspectRatio="xMidYMid slice"><defs><filter id="soft" x="-20%" y="-20%" width="140%" height="140%"><feGaussianBlur stdDeviation="14"/></filter><filter id="fog" x="-40%" y="-40%" width="180%" height="180%"><feGaussianBlur stdDeviation="40"/></filter></defs><linearGradient id="sky" x1="0" y1="0" x2="0" y2="1"><stop offset="0" stop-color="#2b3a67"/><stop offset="0.55" stop-color="#3f6fa3"/><stop offset="1" stop-color="#f6a35c"/></linearGradient><rect width="1200" height="1500" fill="url(#sky)"/><radialGradient id="g600360" cx="0.5" cy="0.5" r="0.5"><stop offset="0" stop-color="#ff9e5c" stop-opacity="0.65"/><stop offset="1" stop-color="#ff9e5c" stop-opacity="0"/></radialGradient><circle cx="600.0" cy="360.0" r="352.0" fill="url(#g600360)"/><circle cx="600.0" cy="360.0" r="110.0" fill="#ffd38a"/><g fill="#ffd9b0" opacity="0.5" filter="url(#soft)"><ellipse cx="504.8" cy="222.8" rx="37.3" ry="26.1"/><ellipse cx="545.3" cy="203.3" rx="48.6" ry="34.1"/><ellipse cx="594.0" cy="209.8" rx="43.8" ry="30.6"/><ellipse cx="638.6" cy="224.4" rx="35.7" ry="25.0"/><ellipse cx="569.6" cy="232.5" rx="56.8" ry="39.7"/><ellipse cx="904.1" cy="152.3" rx="50.7" ry="35.5"/><ellipse cx="959.2" cy="125.9" rx="66.1" ry="46.3"/><ellipse cx="1025.3" cy="134.7" rx="59.5" ry="41.7"/><ellipse cx="1085.9" cy="154.5" rx="48.5" ry="33.9"/><ellipse cx="992.2" cy="165.5" rx="77.2" ry="54.0"/><ellipse cx="934.2" cy="167.6" rx="52.6" ry="36.8"/><ellipse cx="991.4" cy="140.2" rx="68.6" ry="48.0"/><ellipse cx="1060.0" cy="149.3" rx="61.7" ry="43.2"/><ellipse cx="1122.9" cy="169.9" rx="50.3" ry="35.2"/><ellipse cx="1025.7" cy="181.3" rx="80.0" ry="56.0"/><ellipse cx="651.1" cy="158.2" rx="46.1" ry="32.3"/><ellipse cx="701.3" cy="134.1" rx="60.2" ry="42.1"/><ellipse cx="761.4" cy="142.2" rx="54.2" ry="37.9"/><ellipse cx="816.6" cy="160.2" rx="44.1" ry="30.9"/><ellipse cx="731.3" cy="170.2" rx="70.2" ry="49.2"/></g><linearGradient id="wtr" x1="0" y1="0" x2="0" y2="1"><stop offset="0" stop-color="#2a5f86"/><stop offset="1" stop-color="#0a2740"/></linearGradient><rect x="0" y="760.0" width="1200" height="740" fill="url(#wtr)"/><g opacity="0.35"><rect x="510.0" y="780.0" width="180.0" height="6" rx="3" fill="#ffcf87"/><rect x="517.2" y="806.0" width="165.6" height="6" rx="3" fill="#ffcf87"/><rect x="523.8" y="832.0" width="152.4" height="6" rx="3" fill="#ffcf87"/><rect x="529.9" y="858.0" width="140.2" height="6" rx="3" fill="#ffcf87"/><rect x="535.5" y="884.0" width="129.0" height="6" rx="3" fill="#ffcf87"/><rect x="540.7" y="910.0" width="118.6" height="6" rx="3" fill="#ffcf87"/><rect x="545.4" y="936.0" width="109.1" height="6" rx="3" fill="#ffcf87"/><rect x="549.8" y="962.0" width="100.4" height="6" rx="3" fill="#ffcf87"/><rect x="553.8" y="988.0" width="92.4" height="6" rx="3" fill="#ffcf87"/><rect x="557.5" y="1014.0" width="85.0" height="6" rx="3" fill="#ffcf87"/><rect x="560.9" y="1040.0" width="78.2" height="6" rx="3" fill="#ffcf87"/><rect x="564.0" y="1066.0" width="71.9" height="6" rx="3" fill="#ffcf87"/><rect x="566.9" y="1092.0" width="66.2" height="6" rx="3" fill="#ffcf87"/><rect x="569.6" y="1118.0" width="60.9" height="6" rx="3" fill="#ffcf87"/><rect x="572.0" y="1144.0" width="56.0" height="6" rx="3" fill="#ffcf87"/><rect x="574.2" y="1170.0" width="51.5" height="6" rx="3" fill="#ffcf87"/><rect x="576.3" y="1196.0" width="47.4" height="6" rx="3" fill="#ffcf87"/><rect x="578.2" y="1222.0" width="43.6" height="6" rx="3" fill="#ffcf87"/><rect x="579.9" y="1248.0" width="40.1" height="6" rx="3" fill="#ffcf87"/><rect x="581.5" y="1274.0" width="36.9" height="6" rx="3" fill="#ffcf87"/><rect x="583.0" y="1300.0" width="34.0" height="6" rx="3" fill="#ffcf87"/><rect x="584.4" y="1326.0" width="31.2" height="6" rx="3" fill="#ffcf87"/><rect x="585.6" y="1352.0" width="28.7" height="6" rx="3" fill="#ffcf87"/><rect x="586.8" y="1378.0" width="26.4" height="6" rx="3" fill="#ffcf87"/><rect x="587.8" y="1404.0" width="24.3" height="6" rx="3" fill="#ffcf87"/><rect x="588.8" y="1430.0" width="22.4" height="6" rx="3" fill="#ffcf87"/><rect x="589.7" y="1456.0" width="20.6" height="6" rx="3" fill="#ffcf87"/><rect x="590.5" y="1482.0" width="18.9" height="6" rx="3" fill="#ffcf87"/></g><g><path d="M0,-12 L3,-3 L12,0 L3,3 L0,12 L-3,3 L-12,0 L-3,-3 Z" fill="#ffe9c7" opacity="0.45" transform="translate(283.3,123.8) scale(1.01)"/><path d="M0,-12 L3,-3 L12,0 L3,3 L0,12 L-3,3 L-12,0 L-3,-3 Z" fill="#ffe9c7" opacity="0.52" transform="translate(23.8,659.3) scale(0.88)"/><path d="M0,-12 L3,-3 L12,0 L3,3 L0,12 L-3,3 L-12,0 L-3,-3 Z" fill="#ffe9c7" opacity="0.54" transform="translate(644.0,332.0) scale(0.72)"/><path d="M0,-12 L3,-3 L12,0 L3,3 L0,12 L-3,3 L-12,0 L-3,-3 Z" fill="#fff6c8" opacity="0.84" transform="translate(1131.6,30.8) scale(1.33)"/><path d="M0,-12 L3,-3 L12,0 L3,3 L0,12 L-3,3 L-12,0 L-3,-3 Z" fill="#ffd54a" opacity="0.93" transform="translate(232.1,371.8) scale(1.32)"/><path d="M0,-12 L3,-3 L12,0 L3,3 L0,12 L-3,3 L-12,0 L-3,-3 Z" fill="#fff6c8" opacity="0.77" transform="translate(1018.2,446.9) scale(1.60)"/><path d="M0,-12 L3,-3 L12,0 L3,3 L0,12 L-3,3 L-12,0 L-3,-3 Z" fill="#ffe9c7" opacity="0.92" transform="translate(607.1,213.3) scale(1.12)"/><path d="M0,-12 L3,-3 L12,0 L3,3 L0,12 L-3,3 L-12,0 L-3,-3 Z" fill="#ffe9c7" opacity="0.90" transform="translate(981.5,1130.6) scale(1.59)"/><path d="M0,-12 L3,-3 L12,0 L3,3 L0,12 L-3,3 L-12,0 L-3,-3 Z" fill="#ffd54a" opacity="0.51" transform="translate(686.8,1058.8) scale(1.60)"/><path d="M0,-12 L3,-3 L12,0 L3,3 L0,12 L-3,3 L-12,0 L-3,-3 Z" fill="#ffe9c7" opacity="0.57" transform="translate(508.5,345.8) scale(1.09)"/><path d="M0,-12 L3,-3 L12,0 L3,3 L0,12 L-3,3 L-12,0 L-3,-3 Z" fill="#ffd54a" opacity="0.95" transform="translate(975.1,51.9) scale(0.56)"/><path d="M0,-12 L3,-3 L12,0 L3,3 L0,12 L-3,3 L-12,0 L-3,-3 Z" fill="#ffe9c7" opacity="0.95" transform="translate(622.6,777.6) scale(1.41)"/><path d="M0,-12 L3,-3 L12,0 L3,3 L0,12 L-3,3 L-12,0 L-3,-3 Z" fill="#ffd54a" opacity="0.64" transform="translate(234.7,495.4) scale(0.76)"/><path d="M0,-12 L3,-3 L12,0 L3,3 L0,12 L-3,3 L-12,0 L-3,-3 Z" fill="#ffd54a" opacity="0.71" transform="translate(220.4,523.1) scale(1.27)"/><path d="M0,-12 L3,-3 L12,0 L3,3 L0,12 L-3,3 L-12,0 L-3,-3 Z" fill="#ffe9c7" opacity="0.55" transform="translate(1085.2,121.2) scale(0.58)"/><path d="M0,-12 L3,-3 L12,0 L3,3 L0,12 L-3,3 L-12,0 L-3,-3 Z" fill="#ffe9c7" opacity="0.56" transform="translate(698.6,1034.5) scale(0.66)"/><path d="M0,-12 L3,-3 L12,0 L3,3 L0,12 L-3,3 L-12,0 L-3,-3 Z" fill="#fff6c8" opacity="0.80" transform="translate(30.8,428.5) scale(0.61)"/><path d="M0,-12 L3,-3 L12,0 L3,3 L0,12 L-3,3 L-12,0 L-3,-3 Z" fill="#ffe9c7" opacity="0.83" transform="translate(1151.8,21.8) scale(0.88)"/><path d="M0,-12 L3,-3 L12,0 L3,3 L0,12 L-3,3 L-12,0 L-3,-3 Z" fill="#ffe9c7" opacity="0.56" transform="translate(492.5,1132.0) scale(1.31)"/><path d="M0,-12 L3,-3 L12,0 L3,3 L0,12 L-3,3 L-12,0 L-3,-3 Z" fill="#fff6c8" opacity="0.73" transform="translate(229.7,533.0) scale(0.68)"/></g><radialGradient id="vig" cx="0.5" cy="0.42" r="0.75"><stop offset="0.55" stop-color="#000000" stop-opacity="0"/><stop offset="1" stop-color="#000000" stop-opacity="0.55"/></radialGradient><rect width="1200" height="1500" fill="url(#vig)"/><linearGradient id="btm" x1="0" y1="0" x2="0" y2="1"><stop offset="0.65" stop-color="#000" stop-opacity="0"/><stop offset="1" stop-color="#000" stop-opacity="0.5"/></linearGradient><rect width="1200" height="1500" fill="url(#btm)"/></svg>