<svg xmlns="http://www.w3.org/2000/svg" viewBox="0 0 1200 1500" preserveAspectRatio="xMidYMid slice"><defs><filter id="soft" x="-20%" y="-20%" width="140%" height="140%"><feGaussianBlur stdDeviation="14"/></filter><filter id="fog" x="-40%" y="-40%" width="180%" height="180%"><feGaussianBlur stdDeviation="40"/></filter></defs><linearGradient id="sky" x1="0" y1="0" x2="0" y2="1"><stop offset="0" stop-color="#ff9a9e"/><stop offset="0.55" stop-color="#ffb7c5"/><stop offset="1" stop-color="#ffe0c4"/></linearGradient><rect width="1200" height="1500" fill="url(#sky)"/><radialGradient id="g860320" cx="0.5" cy="0.5" r="0.5"><stop offset="0" stop-color="#ffd0b8" stop-opacity="0.65"/><stop offset="1" stop-color="#ffd0b8" stop-opacity="0"/></radialGradient><circle cx="860.0" cy="320.0" r="288.0" fill="url(#g860320)"/><circle cx="860.0" cy="320.0" r="90.0" fill="#fff6ea"/><g fill="#ffd9e4" opacity="0.8" filter="url(#soft)"><ellipse cx="617.3" cy="433.8" rx="33.0" ry="23.1"/><ellipse cx="653.2" cy="416.6" rx="43.0" ry="30.1"/><ellipse cx="696.2" cy="422.4" rx="38.7" ry="27.1"/><ellipse cx="735.6" cy="435.3" rx="31.5" ry="22.1"/><ellipse cx="674.7" cy="442.5" rx="50.2" ry="35.1"/><ellipse cx="913.0" cy="399.8" rx="56.2" ry="39.3"/><ellipse cx="974.1" cy="370.4" rx="73.3" ry="51.3"/><ellipse cx="1047.4" cy="380.2" rx="66.0" ry="46.2"/><ellipse cx="1114.6" cy="402.2" rx="53.8" ry="37.6"/><ellipse cx="1010.8" cy="414.4" rx="85.5" ry="59.9"/><ellipse cx="865.4" cy="296.8" rx="61.6" ry="43.1"/><ellipse cx="932.4" cy="264.7" rx="80.4" ry="56.3"/><ellipse cx="1012.8" cy="275.4" rx="72.3" ry="50.6"/><ellipse cx="1086.4" cy="299.5" rx="58.9" ry="41.3"/><ellipse cx="972.6" cy="312.9" rx="93.8" ry="65.6"/><ellipse cx="696.0" cy="220.2" rx="58.2" ry="40.8"/><ellipse cx="759.3" cy="189.8" rx="76.0" ry="53.2"/><ellipse cx="835.3" cy="200.0" rx="68.4" ry="47.9"/><ellipse cx="904.9" cy="222.8" rx="55.7" ry="39.0"/><ellipse cx="797.3" cy="235.4" rx="88.6" ry="62.0"/><ellipse cx="604.6" cy="468.5" rx="62.8" ry="43.9"/><ellipse cx="672.8" cy="435.8" rx="81.9" ry="57.3"/><ellipse cx="754.7" cy="446.7" rx="73.7" ry="51.6"/><ellipse cx="829.8" cy="471.3" rx="60.1" ry="42.0"/><ellipse cx="713.8" cy="484.9" rx="95.5" ry="66.9"/></g><path d="M -40,1500 L -40,1120.0 L 0,1120.0 Q 100.0,1088.3 200.0,1096.8 Q 300.0,1063.6 400.0,1141.1 Q 500.0,1075.3 600.0,1136.5 Q 700.0,1116.3 800.0,1104.4 Q 900.0,1041.1 1000.0,1119.0 Q 1100.0,1068.8 1200.0,1137.5 L 1240,1500 Z" fill="#e08aa0" opacity="0.7"/><g><ellipse cx="182.6" cy="330.7" rx="4.3" ry="2.1" fill="#ffd1e8" opacity="0.56" transform="rotate(150 182.6 330.7)"/><ellipse cx="521.4" cy="1362.4" rx="7.5" ry="3.7" fill="#ff5e7e" opacity="0.69" transform="rotate(337 521.4 1362.4)"/><ellipse cx="954.0" cy="1208.9" rx="8.0" ry="3.9" fill="#ffd1e8" opacity="0.90" transform="rotate(208 954.0 1208.9)"/><ellipse cx="129.5" cy="400.8" rx="8.0" ry="3.9" fill="#ffd1e8" opacity="0.55" transform="rotate(208 129.5 400.8)"/><ellipse cx="315.9" cy="1305.2" rx="9.5" ry="4.6" fill="#ff5e7e" opacity="0.87" transform="rotate(225 315.9 1305.2)"/><ellipse cx="112.6" cy="1054.8" rx="8.0" ry="3.9" fill="#ffd1e8" opacity="0.61" transform="rotate(345 112.6 1054.8)"/><ellipse cx="1195.9" cy="1268.6" rx="4.8" ry="2.3" fill="#ffd1e8" opacity="0.55" transform="rotate(292 1195.9 1268.6)"/><ellipse cx="969.2" cy="901.0" rx="7.9" ry="3.8" fill="#ff7eb3" opacity="0.67" transform="rotate(180 969.2 901.0)"/><ellipse cx="1199.1" cy="817.8" rx="5.6" ry="2.7" fill="#ff5e7e" opacity="0.51" transform="rotate(112 1199.1 817.8)"/><ellipse cx="144.5" cy="929.6" rx="4.4" ry="2.1" fill="#ff5e7e" opacity="0.64" transform="rotate(343 144.5 929.6)"/><ellipse cx="770.9" cy="424.4" rx="7.2" ry="3.5" fill="#ff7eb3" opacity="0.67" transform="rotate(9 770.9 424.4)"/><ellipse cx="887.8" cy="807.3" rx="4.5" ry="2.2" fill="#ffd1e8" opacity="0.52" transform="rotate(36 887.8 807.3)"/><ellipse cx="1077.7" cy="505.5" rx="6.6" ry="3.2" fill="#ff9ad5" opacity="0.63" transform="rotate(27 1077.7 505.5)"/><ellipse cx="147.3" cy="1499.9" rx="5.7" ry="2.8" fill="#ff5e7e" opacity="0.73" transform="rotate(85 147.3 1499.9)"/><ellipse cx="901.1" cy="489.5" rx="5.7" ry="2.8" fill="#ffd1e8" opacity="0.83" transform="rotate(135 901.1 489.5)"/><ellipse cx="898.7" cy="1000.6" rx="7.4" ry="3.6" fill="#ff7eb3" opacity="0.77" transform="rotate(51 898.7 1000.6)"/><ellipse cx="1142.5" cy="1379.0" rx="4.6" ry="2.3" fill="#ff9ad5" opacity="0.75" transform="rotate(263 1142.5 1379.0)"/><ellipse cx="216.2" cy="326.5" rx="6.9" ry="3.4" fill="#ff7eb3" opacity="0.55" transform="rotate(330 216.2 326.5)"/><ellipse cx="58.7" cy="951.5" rx="7.8" ry="3.8" fill="#ff9ad5" opacity="0.89" transform="rotate(281 58.7 951.5)"/><ellipse cx="149.4" cy="318.2" rx="7.6" ry="3.7" fill="#ff9ad5" opacity="0.54" transform="rotate(46 149.4 318.2)"/><ellipse cx="377.9" cy="1167.7" rx="7.7" ry="3.8" fill="#ff7eb3" opacity="0.60" transform="rotate(354 377.9 1167.7)"/><ellipse cx="159.9" cy="394.8" rx="6.9" ry="3.4" fill="#ffd1e8" opacity="0.52" transform="rotate(265 159.9 394.8)"/></g><radialGradient id="vig" cx="0.5" cy="0.42" r="0.75"><stop offset="0.55" stop-color="#000000" stop-opacity="0"/><stop offset="1" stop-color="#000000" stop-opacity="0.4"/></radialGradient><rect width="1200" height="1500" fill="url(#vig)"/><linearGradient id="btm" x1="0" y1="0" x2="0" y2="1"><stop offset="0.65" stop-color="#000" stop-opacity="0"/><stop offset="1" stop-color="#000" stop-opacity="0.5"/></linearGradient><rect width="1200" height="1500" fill="url(#btm)"/></svg>