<svg xmlns="http://www.w3.org/2000/svg" viewBox="0 0 1200 1500" preserveAspectRatio="xMidYMid slice"><defs><filter id="soft" x="-20%" y="-20%" width="140%" height="140%"><feGaussianBlur stdDeviation="14"/></filter><filter id="fog" x="-40%" y="-40%" width="180%" height="180%"><feGaussianBlur stdDeviation="40"/></filter></defs><linearGradient id="sky" x1="0" y1="0" x2="0" y2="1"><stop offset="0" stop-color="#2b333f"/><stop offset="0.55" stop-color="#3f4a58"/><stop offset="1" stop-color="#59677a"/></linearGradient><rect width="1200" height="1500" fill="url(#sky)"/><radialGradient id="g920260" cx="0.5" cy="0.5" r="0.5"><stop offset="0" stop-color="#c8d2e0" stop-opacity="0.5"/><stop offset="1" stop-color="#c8d2e0" stop-opacity="0"/></radialGradient><circle cx="920.0" cy="260.0" r="150.0" fill="url(#g920260)"/><circle cx="920.0" cy="260.0" r="50.0" fill="#c8d2e0"/><circle cx="909.4" cy="239.1" r="7.9" fill="#d7dcf0" opacity="0.6"/><circle cx="894.3" cy="262.2" r="6.2" fill="#d7dcf0" opacity="0.6"/><circle cx="893.5" cy="260.4" r="4.2" fill="#d7dcf0" opacity="0.6"/><circle cx="916.0" cy="234.2" r="4.5" fill="#d7dcf0" opacity="0.6"/><circle cx="915.5" cy="279.6" r="4.7" fill="#d7dcf0" opacity="0.6"/><g fill="#39424f" opacity="0.9" filter="url(#soft)"><ellipse cx="616.4" cy="161.3" rx="44.5" ry="31.2"/><ellipse cx="664.8" cy="138.0" rx="58.1" ry="40.6"/><ellipse cx="722.9" cy="145.8" rx="52.3" ry="36.6"/><ellipse cx="776.1" cy="163.2" rx="42.6" ry="29.8"/><ellipse cx="693.9" cy="172.9" rx="67.7" ry="47.4"/><ellipse cx="366.4" cy="187.1" rx="43.6" ry="30.5"/><ellipse cx="413.8" cy="164.3" rx="56.9" ry="39.8"/><ellipse cx="470.8" cy="171.9" rx="51.2" ry="35.9"/><ellipse cx="522.9" cy="189.0" rx="41.7" ry="29.2"/><ellipse cx="442.3" cy="198.5" rx="66.4" ry="46.5"/><ellipse cx="334.6" cy="267.9" rx="59.7" ry="41.8"/><ellipse cx="399.5" cy="236.7" rx="77.9" ry="54.5"/><ellipse cx="477.4" cy="247.1" rx="70.1" ry="49.1"/><ellipse cx="548.8" cy="270.5" rx="57.1" ry="40.0"/><ellipse cx="438.4" cy="283.5" rx="90.9" ry="63.6"/><ellipse cx="286.5" cy="195.0" rx="33.1" ry="23.2"/><ellipse cx="322.4" cy="177.7" rx="43.2" ry="30.2"/><ellipse cx="365.6" cy="183.5" rx="38.8" ry="27.2"/><ellipse cx="405.2" cy="196.4" rx="31.7" ry="22.2"/><ellipse cx="344.0" cy="203.6" rx="50.4" ry="35.3"/><ellipse cx="998.5" cy="361.2" rx="45.6" ry="31.9"/><ellipse cx="1048.0" cy="337.4" rx="59.5" ry="41.6"/><ellipse cx="1107.5" cy="345.3" rx="53.5" ry="37.5"/><ellipse cx="1162.0" cy="363.2" rx="43.6" ry="30.5"/><ellipse cx="1077.8" cy="373.1" rx="69.4" ry="48.6"/><ellipse cx="303.8" cy="406.3" rx="46.6" ry="32.6"/><ellipse cx="354.4" cy="382.0" rx="60.7" ry="42.5"/><ellipse cx="415.1" cy="390.1" rx="54.7" ry="38.3"/><ellipse cx="470.8" cy="408.3" rx="44.5" ry="31.2"/><ellipse cx="384.7" cy="418.5" rx="70.9" ry="49.6"/></g><g fill="#1a222e"><rect x="-20.0" y="1156.0" width="91.6" height="344.0"/><rect x="84.0" y="1076.1" width="89.6" height="423.9"/><rect x="180.4" y="1108.1" width="74.2" height="391.9"/><rect x="265.4" y="1104.6" width="114.7" height="395.4"/><rect x="389.3" y="1085.5" width="84.2" height="414.5"/><rect x="486.3" y="1206.3" width="62.6" height="293.7"/><rect x="560.9" y="1056.7" width="118.7" height="443.3"/><rect x="684.4" y="935.3" width="127.1" height="564.7"/><rect x="819.0" y="957.2" width="123.2" height="542.8"/><rect x="955.9" y="1156.9" width="111.4" height="343.1"/><rect x="1072.3" y="1115.9" width="62.0" height="384.1"/><rect x="1140.5" y="886.4" width="90.3" height="613.6"/></g><g fill="#ffcf87"><rect x="18" y="1179" width="9" height="12" opacity="0.57"/><rect x="-8" y="1213" width="9" height="12" opacity="0.78"/><rect x="18" y="1213" width="9" height="12" opacity="0.96"/><rect x="44" y="1213" width="9" height="12" opacity="0.53"/><rect x="18" y="1247" width="9" height="12" opacity="0.82"/><rect x="44" y="1247" width="9" height="12" opacity="0.74"/><rect x="18" y="1281" width="9" height="12" opacity="0.54"/><rect x="44" y="1315" width="9" height="12" opacity="0.67"/><rect x="-8" y="1349" width="9" height="12" opacity="0.72"/><rect x="-8" y="1383" width="9" height="12" opacity="0.63"/><rect x="-8" y="1417" width="9" height="12" opacity="0.92"/><rect x="18" y="1417" width="9" height="12" opacity="0.66"/><rect x="-8" y="1451" width="9" height="12" opacity="0.55"/><rect x="96" y="1100" width="9" height="12" opacity="0.54"/><rect x="122" y="1100" width="9" height="12" opacity="0.97"/><rect x="96" y="1134" width="9" height="12" opacity="0.84"/><rect x="96" y="1168" width="9" height="12" opacity="0.92"/><rect x="122" y="1168" width="9" height="12" opacity="0.82"/><rect x="148" y="1168" width="9" height="12" opacity="0.71"/><rect x="122" y="1202" width="9" height="12" opacity="0.48"/><rect x="148" y="1202" width="9" height="12" opacity="0.75"/><rect x="96" y="1236" width="9" height="12" opacity="0.92"/><rect x="122" y="1236" width="9" height="12" opacity="0.78"/><rect x="148" y="1270" width="9" height="12" opacity="0.94"/><rect x="122" y="1304" width="9" height="12" opacity="0.89"/><rect x="148" y="1338" width="9" height="12" opacity="0.79"/><rect x="96" y="1372" width="9" height="12" opacity="0.42"/><rect x="148" y="1372" width="9" height="12" opacity="0.53"/><rect x="122" y="1406" width="9" height="12" opacity="0.72"/><rect x="148" y="1406" width="9" height="12" opacity="0.58"/><rect x="96" y="1440" width="9" height="12" opacity="0.47"/><rect x="122" y="1474" width="9" height="12" opacity="0.96"/><rect x="148" y="1474" width="9" height="12" opacity="0.95"/><rect x="218" y="1200" width="9" height="12" opacity="0.84"/><rect x="192" y="1234" width="9" height="12" opacity="0.70"/><rect x="218" y="1268" width="9" height="12" opacity="0.49"/><rect x="192" y="1302" width="9" height="12" opacity="0.73"/><rect x="218" y="1302" width="9" height="12" opacity="0.79"/><rect x="192" y="1336" width="9" height="12" opacity="0.83"/><rect x="218" y="1336" width="9" height="12" opacity="0.72"/><rect x="192" y="1404" width="9" height="12" opacity="0.62"/><rect x="218" y="1438" width="9" height="12" opacity="0.51"/><rect x="218" y="1472" width="9" height="12" opacity="0.55"/><rect x="303" y="1128" width="9" height="12" opacity="0.64"/><rect x="329" y="1128" width="9" height="12" opacity="0.53"/><rect x="303" y="1162" width="9" height="12" opacity="0.57"/><rect x="355" y="1162" width="9" height="12" opacity="0.68"/><rect x="277" y="1196" width="9" height="12" opacity="0.76"/><rect x="277" y="1230" width="9" height="12" opacity="0.82"/><rect x="303" y="1230" width="9" height="12" opacity="0.53"/><rect x="329" y="1230" width="9" height="12" opacity="0.46"/><rect x="277" y="1264" width="9" height="12" opacity="0.84"/><rect x="355" y="1264" width="9" height="12" opacity="0.58"/><rect x="303" y="1298" width="9" height="12" opacity="0.58"/><rect x="329" y="1298" width="9" height="12" opacity="0.57"/><rect x="355" y="1298" width="9" height="12" opacity="0.95"/><rect x="277" y="1332" width="9" height="12" opacity="0.72"/><rect x="329" y="1332" width="9" height="12" opacity="0.74"/><rect x="355" y="1332" width="9" height="12" opacity="0.62"/><rect x="277" y="1366" width="9" height="12" opacity="0.40"/><rect x="329" y="1366" width="9" height="12" opacity="0.55"/><rect x="355" y="1366" width="9" height="12" opacity="0.56"/><rect x="277" y="1400" width="9" height="12" opacity="0.46"/><rect x="303" y="1400" width="9" height="12" opacity="0.80"/><rect x="329" y="1400" width="9" height="12" opacity="0.56"/><rect x="355" y="1400" width="9" height="12" opacity="0.50"/><rect x="277" y="1434" width="9" height="12" opacity="0.85"/><rect x="277" y="1468" width="9" height="12" opacity="0.67"/><rect x="427" y="1109" width="9" height="12" opacity="0.62"/><rect x="453" y="1109" width="9" height="12" opacity="1.00"/><rect x="427" y="1143" width="9" height="12" opacity="0.77"/><rect x="427" y="1177" width="9" height="12" opacity="0.80"/><rect x="453" y="1211" width="9" height="12" opacity="0.79"/><rect x="427" y="1279" width="9" height="12" opacity="0.45"/><rect x="453" y="1279" width="9" height="12" opacity="0.59"/><rect x="401" y="1313" width="9" height="12" opacity="0.80"/><rect x="453" y="1313" width="9" height="12" opacity="0.82"/><rect x="427" y="1347" width="9" height="12" opacity="0.83"/><rect x="401" y="1381" width="9" height="12" opacity="0.50"/><rect x="453" y="1381" width="9" height="12" opacity="0.80"/><rect x="401" y="1415" width="9" height="12" opacity="0.46"/><rect x="453" y="1415" width="9" height="12" opacity="0.98"/><rect x="401" y="1449" width="9" height="12" opacity="0.70"/><rect x="427" y="1449" width="9" height="12" opacity="0.68"/><rect x="453" y="1449" width="9" height="12" opacity="0.62"/><rect x="498" y="1264" width="9" height="12" opacity="0.91"/><rect x="498" y="1298" width="9" height="12" opacity="0.82"/><rect x="498" y="1332" width="9" height="12" opacity="0.50"/><rect x="524" y="1332" width="9" height="12" opacity="0.91"/><rect x="524" y="1366" width="9" height="12" opacity="0.95"/><rect x="524" y="1400" width="9" height="12" opacity="0.93"/><rect x="524" y="1434" width="9" height="12" opacity="0.55"/><rect x="498" y="1468" width="9" height="12" opacity="0.92"/><rect x="572" y="1080" width="9" height="12" opacity="0.75"/><rect x="572" y="1114" width="9" height="12" opacity="0.50"/><rect x="624" y="1182" width="9" height="12" opacity="0.72"/><rect x="650" y="1182" width="9" height="12" opacity="0.52"/><rect x="572" y="1216" width="9" height="12" opacity="0.71"/><rect x="598" y="1216" width="9" height="12" opacity="0.44"/><rect x="624" y="1216" width="9" height="12" opacity="0.54"/><rect x="572" y="1250" width="9" height="12" opacity="0.91"/><rect x="624" y="1250" width="9" height="12" opacity="0.40"/><rect x="572" y="1284" width="9" height="12" opacity="0.84"/><rect x="572" y="1318" width="9" height="12" opacity="0.98"/><rect x="624" y="1318" width="9" height="12" opacity="0.77"/><rect x="650" y="1318" width="9" height="12" opacity="0.45"/><rect x="572" y="1352" width="9" height="12" opacity="0.80"/><rect x="598" y="1352" width="9" height="12" opacity="0.49"/><rect x="650" y="1352" width="9" height="12" opacity="0.55"/><rect x="598" y="1386" width="9" height="12" opacity="0.56"/><rect x="624" y="1386" width="9" height="12" opacity="0.51"/><rect x="650" y="1386" width="9" height="12" opacity="0.93"/><rect x="598" y="1454" width="9" height="12" opacity="0.75"/><rect x="650" y="1454" width="9" height="12" opacity="0.44"/><rect x="748" y="959" width="9" height="12" opacity="0.78"/><rect x="696" y="993" width="9" height="12" opacity="0.84"/><rect x="774" y="993" width="9" height="12" opacity="0.73"/><rect x="722" y="1027" width="9" height="12" opacity="0.55"/><rect x="748" y="1027" width="9" height="12" opacity="0.72"/><rect x="696" y="1061" width="9" height="12" opacity="0.64"/><rect x="748" y="1061" width="9" height="12" opacity="0.72"/><rect x="774" y="1061" width="9" height="12" opacity="0.48"/><rect x="696" y="1095" width="9" height="12" opacity="0.40"/><rect x="722" y="1095" width="9" height="12" opacity="0.64"/><rect x="748" y="1095" width="9" height="12" opacity="0.68"/><rect x="774" y="1095" width="9" height="12" opacity="1.00"/><rect x="696" y="1129" width="9" height="12" opacity="0.62"/><rect x="722" y="1129" width="9" height="12" opacity="0.53"/><rect x="748" y="1129" width="9" height="12" opacity="0.68"/><rect x="696" y="1163" width="9" height="12" opacity="0.81"/><rect x="774" y="1163" width="9" height="12" opacity="0.85"/><rect x="722" y="1197" width="9" height="12" opacity="0.41"/><rect x="748" y="1231" width="9" height="12" opacity="0.61"/><rect x="696" y="1265" width="9" height="12" opacity="0.43"/><rect x="722" y="1265" width="9" height="12" opacity="0.91"/><rect x="748" y="1265" width="9" height="12" opacity="0.59"/><rect x="774" y="1265" width="9" height="12" opacity="0.42"/><rect x="696" y="1299" width="9" height="12" opacity="0.84"/><rect x="696" y="1333" width="9" height="12" opacity="0.84"/><rect x="722" y="1333" width="9" height="12" opacity="0.92"/><rect x="748" y="1333" width="9" height="12" opacity="0.70"/><rect x="774" y="1333" width="9" height="12" opacity="0.62"/><rect x="722" y="1367" width="9" height="12" opacity="0.41"/><rect x="748" y="1367" width="9" height="12" opacity="0.63"/><rect x="774" y="1367" width="9" height="12" opacity="0.61"/><rect x="748" y="1401" width="9" height="12" opacity="0.55"/><rect x="774" y="1401" width="9" height="12" opacity="0.85"/><rect x="722" y="1435" width="9" height="12" opacity="0.95"/><rect x="748" y="1435" width="9" height="12" opacity="0.84"/><rect x="774" y="1435" width="9" height="12" opacity="0.43"/><rect x="774" y="1469" width="9" height="12" opacity="0.74"/><rect x="857" y="981" width="9" height="12" opacity="0.87"/><rect x="883" y="981" width="9" height="12" opacity="0.97"/><rect x="831" y="1015" width="9" height="12" opacity="0.81"/><rect x="857" y="1015" width="9" height="12" opacity="0.69"/><rect x="909" y="1015" width="9" height="12" opacity="0.59"/><rect x="831" y="1083" width="9" height="12" opacity="0.71"/><rect x="857" y="1083" width="9" height="12" opacity="0.46"/><rect x="909" y="1083" width="9" height="12" opacity="0.80"/><rect x="883" y="1117" width="9" height="12" opacity="0.97"/><rect x="909" y="1117" width="9" height="12" opacity="0.71"/><rect x="883" y="1151" width="9" height="12" opacity="0.73"/><rect x="831" y="1185" width="9" height="12" opacity="0.59"/><rect x="831" y="1219" width="9" height="12" opacity="0.49"/><rect x="909" y="1219" width="9" height="12" opacity="0.46"/><rect x="831" y="1253" width="9" height="12" opacity="0.54"/><rect x="909" y="1253" width="9" height="12" opacity="0.68"/><rect x="857" y="1287" width="9" height="12" opacity="0.44"/><rect x="909" y="1287" width="9" height="12" opacity="0.96"/><rect x="831" y="1321" width="9" height="12" opacity="0.64"/><rect x="857" y="1321" width="9" height="12" opacity="0.47"/><rect x="883" y="1321" width="9" height="12" opacity="0.54"/><rect x="909" y="1321" width="9" height="12" opacity="0.65"/><rect x="857" y="1355" width="9" height="12" opacity="0.86"/><rect x="909" y="1355" width="9" height="12" opacity="0.93"/><rect x="831" y="1389" width="9" height="12" opacity="0.72"/><rect x="909" y="1389" width="9" height="12" opacity="0.69"/><rect x="831" y="1457" width="9" height="12" opacity="0.92"/><rect x="857" y="1457" width="9" height="12" opacity="0.82"/><rect x="967" y="1180" width="9" height="12" opacity="0.78"/><rect x="993" y="1180" width="9" height="12" opacity="0.70"/><rect x="1045" y="1180" width="9" height="12" opacity="0.58"/><rect x="993" y="1214" width="9" height="12" opacity="0.51"/><rect x="1019" y="1214" width="9" height="12" opacity="0.60"/><rect x="1045" y="1214" width="9" height="12" opacity="0.96"/><rect x="967" y="1248" width="9" height="12" opacity="0.62"/><rect x="993" y="1248" width="9" height="12" opacity="0.69"/><rect x="1045" y="1248" width="9" height="12" opacity="0.47"/><rect x="1019" y="1282" width="9" height="12" opacity="0.82"/><rect x="1045" y="1282" width="9" height="12" opacity="0.47"/><rect x="967" y="1316" width="9" height="12" opacity="0.94"/><rect x="993" y="1316" width="9" height="12" opacity="0.98"/><rect x="1019" y="1316" width="9" height="12" opacity="0.77"/><rect x="993" y="1350" width="9" height="12" opacity="0.53"/><rect x="1019" y="1350" width="9" height="12" opacity="0.77"/><rect x="1045" y="1350" width="9" height="12" opacity="0.57"/><rect x="967" y="1384" width="9" height="12" opacity="0.49"/><rect x="967" y="1418" width="9" height="12" opacity="0.45"/><rect x="993" y="1418" width="9" height="12" opacity="0.52"/><rect x="1019" y="1418" width="9" height="12" opacity="0.93"/><rect x="1045" y="1418" width="9" height="12" opacity="0.50"/><rect x="967" y="1452" width="9" height="12" opacity="0.93"/><rect x="993" y="1452" width="9" height="12" opacity="0.41"/><rect x="1019" y="1452" width="9" height="12" opacity="0.81"/><rect x="1110" y="1139" width="9" height="12" opacity="0.43"/><rect x="1084" y="1173" width="9" height="12" opacity="0.97"/><rect x="1110" y="1173" width="9" height="12" opacity="0.81"/><rect x="1084" y="1207" width="9" height="12" opacity="0.56"/><rect x="1084" y="1241" width="9" height="12" opacity="0.62"/><rect x="1110" y="1241" width="9" height="12" opacity="0.76"/><rect x="1084" y="1275" width="9" height="12" opacity="0.91"/><rect x="1084" y="1309" width="9" height="12" opacity="0.89"/><rect x="1084" y="1343" width="9" height="12" opacity="0.47"/><rect x="1110" y="1377" width="9" height="12" opacity="0.48"/><rect x="1084" y="1445" width="9" height="12" opacity="0.90"/><rect x="1110" y="1445" width="9" height="12" opacity="0.53"/><rect x="1084" y="1479" width="9" height="12" opacity="0.83"/><rect x="1152" y="910" width="9" height="12" opacity="0.43"/><rect x="1152" y="944" width="9" height="12" opacity="0.60"/><rect x="1152" y="978" width="9" height="12" opacity="0.56"/><rect x="1204" y="978" width="9" height="12" opacity="0.95"/><rect x="1152" y="1012" width="9" height="12" opacity="0.68"/><rect x="1204" y="1046" width="9" height="12" opacity="0.82"/><rect x="1152" y="1080" width="9" height="12" opacity="0.53"/><rect x="1204" y="1080" width="9" height="12" opacity="0.63"/><rect x="1152" y="1114" width="9" height="12" opacity="0.45"/><rect x="1204" y="1114" width="9" height="12" opacity="0.89"/><rect x="1178" y="1148" width="9" height="12" opacity="0.89"/><rect x="1178" y="1182" width="9" height="12" opacity="0.58"/><rect x="1178" y="1284" width="9" height="12" opacity="0.83"/><rect x="1178" y="1318" width="9" height="12" opacity="0.56"/><rect x="1204" y="1318" width="9" height="12" opacity="0.76"/><rect x="1152" y="1352" width="9" height="12" opacity="0.82"/><rect x="1178" y="1352" width="9" height="12" opacity="0.68"/><rect x="1204" y="1352" width="9" height="12" opacity="0.58"/><rect x="1152" y="1386" width="9" height="12" opacity="0.83"/><rect x="1204" y="1386" width="9" height="12" opacity="0.49"/><rect x="1152" y="1420" width="9" height="12" opacity="0.93"/><rect x="1152" y="1454" width="9" height="12" opacity="0.59"/></g><g><line x1="129.5" y1="1121.2" x2="121.5" y2="1139.2" stroke="#bcd4ff" stroke-width="1.6" opacity="0.29"/><line x1="263.6" y1="1226.0" x2="255.6" y2="1255.5" stroke="#bcd4ff" stroke-width="1.6" opacity="0.23"/><line x1="774.6" y1="1342.1" x2="766.6" y2="1361.7" stroke="#bcd4ff" stroke-width="1.6" opacity="0.39"/><line x1="839.3" y1="1447.1" x2="831.3" y2="1485.3" stroke="#bcd4ff" stroke-width="1.6" opacity="0.49"/><line x1="18.2" y1="70.1" x2="10.2" y2="102.3" stroke="#bcd4ff" stroke-width="1.6" opacity="0.37"/><line x1="871.6" y1="1362.0" x2="863.6" y2="1388.4" stroke="#bcd4ff" stroke-width="1.6" opacity="0.44"/><line x1="977.7" y1="911.2" x2="969.7" y2="936.3" stroke="#bcd4ff" stroke-width="1.6" opacity="0.45"/><line x1="484.9" y1="1212.8" x2="476.9" y2="1246.2" stroke="#bcd4ff" stroke-width="1.6" opacity="0.29"/><line x1="655.1" y1="1440.7" x2="647.1" y2="1476.9" stroke="#bcd4ff" stroke-width="1.6" opacity="0.39"/><line x1="497.4" y1="104.6" x2="489.4" y2="128.4" stroke="#bcd4ff" stroke-width="1.6" opacity="0.40"/><line x1="428.4" y1="1305.4" x2="420.4" y2="1330.5" stroke="#bcd4ff" stroke-width="1.6" opacity="0.45"/><line x1="832.2" y1="104.1" x2="824.2" y2="140.8" stroke="#bcd4ff" stroke-width="1.6" opacity="0.27"/><line x1="896.4" y1="1122.6" x2="888.4" y2="1146.6" stroke="#bcd4ff" stroke-width="1.6" opacity="0.44"/><line x1="207.6" y1="540.6" x2="199.6" y2="570.5" stroke="#bcd4ff" stroke-width="1.6" opacity="0.39"/><line x1="672.2" y1="652.3" x2="664.2" y2="673.5" stroke="#bcd4ff" stroke-width="1.6" opacity="0.41"/><line x1="908.8" y1="1221.0" x2="900.8" y2="1254.7" stroke="#bcd4ff" stroke-width="1.6" opacity="0.34"/><line x1="167.7" y1="983.1" x2="159.7" y2="1005.1" stroke="#bcd4ff" stroke-width="1.6" opacity="0.24"/><line x1="855.5" y1="390.4" x2="847.5" y2="420.0" stroke="#bcd4ff" stroke-width="1.6" opacity="0.27"/><line x1="155.1" y1="344.9" x2="147.1" y2="365.3" stroke="#bcd4ff" stroke-width="1.6" opacity="0.29"/><line x1="1065.5" y1="4.9" x2="1057.5" y2="35.6" stroke="#bcd4ff" stroke-width="1.6" opacity="0.48"/><line x1="1062.2" y1="726.2" x2="1054.2" y2="760.7" stroke="#bcd4ff" stroke-width="1.6" opacity="0.20"/><line x1="488.9" y1="319.8" x2="480.9" y2="339.1" stroke="#bcd4ff" stroke-width="1.6" opacity="0.43"/><line x1="593.1" y1="794.3" x2="585.1" y2="814.7" stroke="#bcd4ff" stroke-width="1.6" opacity="0.36"/><line x1="637.3" y1="1203.7" x2="629.3" y2="1230.4" stroke="#bcd4ff" stroke-width="1.6" opacity="0.41"/><line x1="486.7" y1="188.2" x2="478.7" y2="211.8" stroke="#bcd4ff" stroke-width="1.6" opacity="0.26"/><line x1="383.8" y1="377.2" x2="375.8" y2="408.8" stroke="#bcd4ff" stroke-width="1.6" opacity="0.36"/><line x1="537.8" y1="248.4" x2="529.8" y2="271.3" stroke="#bcd4ff" stroke-width="1.6" opacity="0.36"/><line x1="960.5" y1="119.0" x2="952.5" y2="156.9" stroke="#bcd4ff" stroke-width="1.6" opacity="0.36"/><line x1="1057.3" y1="1104.9" x2="1049.3" y2="1124.5" stroke="#bcd4ff" stroke-width="1.6" opacity="0.22"/><line x1="868.9" y1="1447.8" x2="860.9" y2="1486.4" stroke="#bcd4ff" stroke-width="1.6" opacity="0.50"/><line x1="129.3" y1="1249.6" x2="121.3" y2="1283.0" stroke="#bcd4ff" stroke-width="1.6" opacity="0.41"/><line x1="977.0" y1="1153.4" x2="969.0" y2="1189.1" stroke="#bcd4ff" stroke-width="1.6" opacity="0.44"/><line x1="610.4" y1="1372.4" x2="602.4" y2="1391.4" stroke="#bcd4ff" stroke-width="1.6" opacity="0.34"/><line x1="1065.3" y1="199.3" x2="1057.3" y2="233.5" stroke="#bcd4ff" stroke-width="1.6" opacity="0.45"/><line x1="591.4" y1="1025.9" x2="583.4" y2="1045.1" stroke="#bcd4ff" stroke-width="1.6" opacity="0.22"/><line x1="726.2" y1="1408.0" x2="718.2" y2="1433.4" stroke="#bcd4ff" stroke-width="1.6" opacity="0.41"/><line x1="1130.5" y1="575.3" x2="1122.5" y2="598.3" stroke="#bcd4ff" stroke-width="1.6" opacity="0.21"/><line x1="349.2" y1="85.4" x2="341.2" y2="123.0" stroke="#bcd4ff" stroke-width="1.6" opacity="0.28"/><line x1="684.3" y1="838.7" x2="676.3" y2="875.9" stroke="#bcd4ff" stroke-width="1.6" opacity="0.24"/><line x1="690.5" y1="791.5" x2="682.5" y2="815.3" stroke="#bcd4ff" stroke-width="1.6" opacity="0.28"/><line x1="705.1" y1="882.2" x2="697.1" y2="904.4" stroke="#bcd4ff" stroke-width="1.6" opacity="0.27"/><line x1="591.2" y1="997.8" x2="583.2" y2="1035.4" stroke="#bcd4ff" stroke-width="1.6" opacity="0.44"/><line x1="607.6" y1="726.7" x2="599.6" y2="746.3" stroke="#bcd4ff" stroke-width="1.6" opacity="0.45"/><line x1="385.0" y1="1167.5" x2="377.0" y2="1196.2" stroke="#bcd4ff" stroke-width="1.6" opacity="0.39"/><line x1="1009.3" y1="948.0" x2="1001.3" y2="979.1" stroke="#bcd4ff" stroke-width="1.6" opacity="0.36"/><line x1="207.2" y1="1106.2" x2="199.2" y2="1130.2" stroke="#bcd4ff" stroke-width="1.6" opacity="0.21"/><line x1="104.7" y1="45.9" x2="96.7" y2="67.7" stroke="#bcd4ff" stroke-width="1.6" opacity="0.32"/><line x1="365.5" y1="829.4" x2="357.5" y2="854.8" stroke="#bcd4ff" stroke-width="1.6" opacity="0.40"/><line x1="214.2" y1="1155.1" x2="206.2" y2="1187.5" stroke="#bcd4ff" stroke-width="1.6" opacity="0.40"/><line x1="595.9" y1="192.2" x2="587.9" y2="218.3" stroke="#bcd4ff" stroke-width="1.6" opacity="0.34"/><line x1="420.1" y1="749.4" x2="412.1" y2="780.9" stroke="#bcd4ff" stroke-width="1.6" opacity="0.31"/><line x1="668.5" y1="1335.4" x2="660.5" y2="1361.6" stroke="#bcd4ff" stroke-width="1.6" opacity="0.23"/><line x1="515.2" y1="1208.8" x2="507.2" y2="1231.5" stroke="#bcd4ff" stroke-width="1.6" opacity="0.45"/><line x1="1157.1" y1="1309.6" x2="1149.1" y2="1338.5" stroke="#bcd4ff" stroke-width="1.6" opacity="0.41"/><line x1="419.4" y1="1313.8" x2="411.4" y2="1343.4" stroke="#bcd4ff" stroke-width="1.6" opacity="0.46"/><line x1="54.5" y1="285.7" x2="46.5" y2="319.5" stroke="#bcd4ff" stroke-width="1.6" opacity="0.32"/><line x1="866.6" y1="676.2" x2="858.6" y2="712.7" stroke="#bcd4ff" stroke-width="1.6" opacity="0.49"/><line x1="498.7" y1="241.1" x2="490.7" y2="266.5" stroke="#bcd4ff" stroke-width="1.6" opacity="0.25"/><line x1="1054.5" y1="483.6" x2="1046.5" y2="520.0" stroke="#bcd4ff" stroke-width="1.6" opacity="0.20"/><line x1="415.3" y1="1454.5" x2="407.3" y2="1486.1" stroke="#bcd4ff" stroke-width="1.6" opacity="0.33"/><line x1="539.4" y1="144.7" x2="531.4" y2="177.2" stroke="#bcd4ff" stroke-width="1.6" opacity="0.39"/><line x1="817.0" y1="69.2" x2="809.0" y2="106.4" stroke="#bcd4ff" stroke-width="1.6" opacity="0.22"/><line x1="340.0" y1="514.8" x2="332.0" y2="540.6" stroke="#bcd4ff" stroke-width="1.6" opacity="0.40"/><line x1="64.5" y1="630.0" x2="56.5" y2="658.3" stroke="#bcd4ff" stroke-width="1.6" opacity="0.22"/><line x1="388.8" y1="305.5" x2="380.8" y2="335.4" stroke="#bcd4ff" stroke-width="1.6" opacity="0.36"/><line x1="335.8" y1="780.5" x2="327.8" y2="813.2" stroke="#bcd4ff" stroke-width="1.6" opacity="0.26"/><line x1="1154.8" y1="1303.2" x2="1146.8" y2="1342.5" stroke="#bcd4ff" stroke-width="1.6" opacity="0.34"/><line x1="884.0" y1="1406.6" x2="876.0" y2="1441.7" stroke="#bcd4ff" stroke-width="1.6" opacity="0.46"/><line x1="1091.3" y1="1209.6" x2="1083.3" y2="1243.7" stroke="#bcd4ff" stroke-width="1.6" opacity="0.27"/><line x1="600.6" y1="142.9" x2="592.6" y2="178.1" stroke="#bcd4ff" stroke-width="1.6" opacity="0.27"/><line x1="96.4" y1="716.9" x2="88.4" y2="752.5" stroke="#bcd4ff" stroke-width="1.6" opacity="0.37"/><line x1="1177.2" y1="908.4" x2="1169.2" y2="941.0" stroke="#bcd4ff" stroke-width="1.6" opacity="0.21"/><line x1="863.4" y1="1140.1" x2="855.4" y2="1174.1" stroke="#bcd4ff" stroke-width="1.6" opacity="0.25"/><line x1="8.7" y1="1199.2" x2="0.7" y2="1219.4" stroke="#bcd4ff" stroke-width="1.6" opacity="0.43"/><line x1="439.6" y1="151.9" x2="431.6" y2="186.6" stroke="#bcd4ff" stroke-width="1.6" opacity="0.49"/><line x1="1010.5" y1="1399.4" x2="1002.5" y2="1436.1" stroke="#bcd4ff" stroke-width="1.6" opacity="0.24"/><line x1="1013.1" y1="704.1" x2="1005.1" y2="725.5" stroke="#bcd4ff" stroke-width="1.6" opacity="0.48"/><line x1="326.4" y1="136.1" x2="318.4" y2="173.0" stroke="#bcd4ff" stroke-width="1.6" opacity="0.37"/><line x1="537.0" y1="1181.3" x2="529.0" y2="1210.7" stroke="#bcd4ff" stroke-width="1.6" opacity="0.22"/><line x1="444.0" y1="262.6" x2="436.0" y2="291.1" stroke="#bcd4ff" stroke-width="1.6" opacity="0.48"/><line x1="69.9" y1="192.9" x2="61.9" y2="216.0" stroke="#bcd4ff" stroke-width="1.6" opacity="0.26"/><line x1="1137.8" y1="1175.5" x2="1129.8" y2="1196.1" stroke="#bcd4ff" stroke-width="1.6" opacity="0.46"/><line x1="1149.2" y1="780.6" x2="1141.2" y2="809.3" stroke="#bcd4ff" stroke-width="1.6" opacity="0.44"/><line x1="633.7" y1="24.6" x2="625.7" y2="56.0" stroke="#bcd4ff" stroke-width="1.6" opacity="0.32"/><line x1="995.2" y1="646.2" x2="987.2" y2="667.5" stroke="#bcd4ff" stroke-width="1.6" opacity="0.20"/><line x1="744.4" y1="427.6" x2="736.4" y2="458.8" stroke="#bcd4ff" stroke-width="1.6" opacity="0.28"/><line x1="1080.2" y1="1084.1" x2="1072.2" y2="1108.1" stroke="#bcd4ff" stroke-width="1.6" opacity="0.40"/><line x1="69.0" y1="1304.6" x2="61.0" y2="1339.3" stroke="#bcd4ff" stroke-width="1.6" opacity="0.20"/><line x1="498.4" y1="61.8" x2="490.4" y2="92.7" stroke="#bcd4ff" stroke-width="1.6" opacity="0.26"/><line x1="60.8" y1="1454.9" x2="52.8" y2="1493.5" stroke="#bcd4ff" stroke-width="1.6" opacity="0.43"/><line x1="584.5" y1="365.1" x2="576.5" y2="386.0" stroke="#bcd4ff" stroke-width="1.6" opacity="0.26"/><line x1="657.1" y1="219.5" x2="649.1" y2="257.7" stroke="#bcd4ff" stroke-width="1.6" opacity="0.38"/><line x1="805.5" y1="1405.7" x2="797.5" y2="1442.5" stroke="#bcd4ff" stroke-width="1.6" opacity="0.25"/><line x1="311.2" y1="938.1" x2="303.2" y2="970.8" stroke="#bcd4ff" stroke-width="1.6" opacity="0.47"/><line x1="1185.9" y1="749.1" x2="1177.9" y2="786.1" stroke="#bcd4ff" stroke-width="1.6" opacity="0.25"/><line x1="277.0" y1="1039.9" x2="269.0" y2="1079.4" stroke="#bcd4ff" stroke-width="1.6" opacity="0.27"/><line x1="321.5" y1="990.9" x2="313.5" y2="1009.3" stroke="#bcd4ff" stroke-width="1.6" opacity="0.38"/><line x1="682.0" y1="1458.7" x2="674.0" y2="1488.7" stroke="#bcd4ff" stroke-width="1.6" opacity="0.25"/><line x1="1133.8" y1="62.7" x2="1125.8" y2="86.1" stroke="#bcd4ff" stroke-width="1.6" opacity="0.22"/><line x1="69.9" y1="1194.0" x2="61.9" y2="1229.3" stroke="#bcd4ff" stroke-width="1.6" opacity="0.39"/><line x1="326.0" y1="318.8" x2="318.0" y2="344.1" stroke="#bcd4ff" stroke-width="1.6" opacity="0.41"/><line x1="202.4" y1="285.6" x2="194.4" y2="309.3" stroke="#bcd4ff" stroke-width="1.6" opacity="0.40"/><line x1="387.0" y1="321.1" x2="379.0" y2="340.1" stroke="#bcd4ff" stroke-width="1.6" opacity="0.48"/><line x1="432.2" y1="181.9" x2="424.2" y2="218.1" stroke="#bcd4ff" stroke-width="1.6" opacity="0.35"/><line x1="937.9" y1="537.6" x2="929.9" y2="565.3" stroke="#bcd4ff" stroke-width="1.6" opacity="0.36"/><line x1="1087.4" y1="834.8" x2="1079.4" y2="871.6" stroke="#bcd4ff" stroke-width="1.6" opacity="0.38"/><line x1="739.5" y1="1069.2" x2="731.5" y2="1098.7" stroke="#bcd4ff" stroke-width="1.6" opacity="0.33"/><line x1="1190.8" y1="1340.3" x2="1182.8" y2="1374.0" stroke="#bcd4ff" stroke-width="1.6" opacity="0.31"/><line x1="1170.3" y1="658.4" x2="1162.3" y2="683.3" stroke="#bcd4ff" stroke-width="1.6" opacity="0.42"/><line x1="650.0" y1="645.9" x2="642.0" y2="664.5" stroke="#bcd4ff" stroke-width="1.6" opacity="0.42"/><line x1="3.7" y1="378.9" x2="-4.3" y2="408.8" stroke="#bcd4ff" stroke-width="1.6" opacity="0.21"/><line x1="159.4" y1="1387.3" x2="151.4" y2="1409.5" stroke="#bcd4ff" stroke-width="1.6" opacity="0.48"/><line x1="883.5" y1="1438.1" x2="875.5" y2="1468.4" stroke="#bcd4ff" stroke-width="1.6" opacity="0.42"/><line x1="869.5" y1="1246.8" x2="861.5" y2="1276.5" stroke="#bcd4ff" stroke-width="1.6" opacity="0.39"/><line x1="83.5" y1="587.6" x2="75.5" y2="618.8" stroke="#bcd4ff" stroke-width="1.6" opacity="0.45"/><line x1="147.3" y1="82.6" x2="139.3" y2="107.6" stroke="#bcd4ff" stroke-width="1.6" opacity="0.41"/><line x1="1017.1" y1="1250.0" x2="1009.1" y2="1271.1" stroke="#bcd4ff" stroke-width="1.6" opacity="0.27"/><line x1="717.7" y1="1414.9" x2="709.7" y2="1435.0" stroke="#bcd4ff" stroke-width="1.6" opacity="0.23"/><line x1="1184.1" y1="205.9" x2="1176.1" y2="229.9" stroke="#bcd4ff" stroke-width="1.6" opacity="0.22"/><line x1="321.5" y1="754.8" x2="313.5" y2="789.4" stroke="#bcd4ff" stroke-width="1.6" opacity="0.33"/><line x1="147.1" y1="794.3" x2="139.1" y2="828.9" stroke="#bcd4ff" stroke-width="1.6" opacity="0.40"/><line x1="1155.6" y1="278.5" x2="1147.6" y2="298.2" stroke="#bcd4ff" stroke-width="1.6" opacity="0.22"/><line x1="692.6" y1="923.7" x2="684.6" y2="946.6" stroke="#bcd4ff" stroke-width="1.6" opacity="0.23"/><line x1="827.0" y1="213.8" x2="819.0" y2="232.8" stroke="#bcd4ff" stroke-width="1.6" opacity="0.44"/><line x1="954.9" y1="480.9" x2="946.9" y2="503.3" stroke="#bcd4ff" stroke-width="1.6" opacity="0.30"/><line x1="134.8" y1="1319.3" x2="126.8" y2="1350.5" stroke="#bcd4ff" stroke-width="1.6" opacity="0.49"/><line x1="732.6" y1="947.0" x2="724.6" y2="967.3" stroke="#bcd4ff" stroke-width="1.6" opacity="0.46"/><line x1="453.3" y1="136.5" x2="445.3" y2="157.7" stroke="#bcd4ff" stroke-width="1.6" opacity="0.29"/><line x1="426.1" y1="1093.0" x2="418.1" y2="1124.6" stroke="#bcd4ff" stroke-width="1.6" opacity="0.43"/><line x1="605.7" y1="1030.2" x2="597.7" y2="1052.8" stroke="#bcd4ff" stroke-width="1.6" opacity="0.37"/><line x1="1077.9" y1="312.4" x2="1069.9" y2="336.6" stroke="#bcd4ff" stroke-width="1.6" opacity="0.41"/><line x1="118.2" y1="1177.6" x2="110.2" y2="1213.5" stroke="#bcd4ff" stroke-width="1.6" opacity="0.37"/><line x1="111.4" y1="72.6" x2="103.4" y2="105.0" stroke="#bcd4ff" stroke-width="1.6" opacity="0.28"/><line x1="488.9" y1="366.3" x2="480.9" y2="384.9" stroke="#bcd4ff" stroke-width="1.6" opacity="0.33"/><line x1="912.0" y1="1041.5" x2="904.0" y2="1065.2" stroke="#bcd4ff" stroke-width="1.6" opacity="0.37"/><line x1="913.6" y1="1443.7" x2="905.6" y2="1478.2" stroke="#bcd4ff" stroke-width="1.6" opacity="0.49"/><line x1="27.7" y1="406.4" x2="19.7" y2="444.3" stroke="#bcd4ff" stroke-width="1.6" opacity="0.34"/><line x1="1199.8" y1="116.8" x2="1191.8" y2="145.0" stroke="#bcd4ff" stroke-width="1.6" opacity="0.31"/><line x1="1141.5" y1="331.9" x2="1133.5" y2="371.3" stroke="#bcd4ff" stroke-width="1.6" opacity="0.42"/><line x1="389.2" y1="725.8" x2="381.2" y2="762.6" stroke="#bcd4ff" stroke-width="1.6" opacity="0.30"/><line x1="610.2" y1="484.6" x2="602.2" y2="516.2" stroke="#bcd4ff" stroke-width="1.6" opacity="0.32"/><line x1="761.4" y1="292.0" x2="753.4" y2="313.3" stroke="#bcd4ff" stroke-width="1.6" opacity="0.25"/><line x1="725.7" y1="1078.1" x2="717.7" y2="1117.9" stroke="#bcd4ff" stroke-width="1.6" opacity="0.50"/><line x1="949.1" y1="351.8" x2="941.1" y2="370.9" stroke="#bcd4ff" stroke-width="1.6" opacity="0.42"/><line x1="642.7" y1="771.3" x2="634.7" y2="806.0" stroke="#bcd4ff" stroke-width="1.6" opacity="0.47"/><line x1="1066.0" y1="1354.8" x2="1058.0" y2="1380.7" stroke="#bcd4ff" stroke-width="1.6" opacity="0.37"/><line x1="710.1" y1="1351.9" x2="702.1" y2="1374.2" stroke="#bcd4ff" stroke-width="1.6" opacity="0.29"/><line x1="118.4" y1="879.4" x2="110.4" y2="904.6" stroke="#bcd4ff" stroke-width="1.6" opacity="0.48"/><line x1="681.6" y1="651.8" x2="673.6" y2="679.9" stroke="#bcd4ff" stroke-width="1.6" opacity="0.42"/><line x1="428.7" y1="446.7" x2="420.7" y2="472.2" stroke="#bcd4ff" stroke-width="1.6" opacity="0.47"/><line x1="840.7" y1="919.5" x2="832.7" y2="954.8" stroke="#bcd4ff" stroke-width="1.6" opacity="0.28"/><line x1="477.2" y1="1079.1" x2="469.2" y2="1116.1" stroke="#bcd4ff" stroke-width="1.6" opacity="0.25"/><line x1="434.8" y1="1182.9" x2="426.8" y2="1202.3" stroke="#bcd4ff" stroke-width="1.6" opacity="0.45"/><line x1="721.4" y1="205.5" x2="713.4" y2="241.6" stroke="#bcd4ff" stroke-width="1.6" opacity="0.45"/><line x1="627.3" y1="966.2" x2="619.3" y2="993.5" stroke="#bcd4ff" stroke-width="1.6" opacity="0.46"/><line x1="61.8" y1="38.8" x2="53.8" y2="71.9" stroke="#bcd4ff" stroke-width="1.6" opacity="0.40"/><line x1="271.8" y1="1449.8" x2="263.8" y2="1484.7" stroke="#bcd4ff" stroke-width="1.6" opacity="0.35"/><line x1="458.9" y1="1322.0" x2="450.9" y2="1343.6" stroke="#bcd4ff" stroke-width="1.6" opacity="0.29"/><line x1="885.3" y1="552.2" x2="877.3" y2="582.0" stroke="#bcd4ff" stroke-width="1.6" opacity="0.42"/><line x1="318.0" y1="1364.3" x2="310.0" y2="1398.1" stroke="#bcd4ff" stroke-width="1.6" opacity="0.31"/><line x1="308.5" y1="1241.8" x2="300.5" y2="1279.2" stroke="#bcd4ff" stroke-width="1.6" opacity="0.37"/><line x1="169.5" y1="522.3" x2="161.5" y2="547.0" stroke="#bcd4ff" stroke-width="1.6" opacity="0.26"/><line x1="754.8" y1="500.1" x2="746.8" y2="535.5" stroke="#bcd4ff" stroke-width="1.6" opacity="0.38"/><line x1="884.2" y1="521.2" x2="876.2" y2="539.9" stroke="#bcd4ff" stroke-width="1.6" opacity="0.21"/><line x1="539.4" y1="111.4" x2="531.4" y2="135.8" stroke="#bcd4ff" stroke-width="1.6" opacity="0.20"/><line x1="463.9" y1="669.4" x2="455.9" y2="699.9" stroke="#bcd4ff" stroke-width="1.6" opacity="0.41"/><line x1="1194.0" y1="1004.1" x2="1186.0" y2="1040.8" stroke="#bcd4ff" stroke-width="1.6" opacity="0.48"/><line x1="497.9" y1="189.2" x2="489.9" y2="222.8" stroke="#bcd4ff" stroke-width="1.6" opacity="0.25"/><line x1="229.1" y1="904.8" x2="221.1" y2="933.6" stroke="#bcd4ff" stroke-width="1.6" opacity="0.31"/><line x1="164.2" y1="30.2" x2="156.2" y2="66.0" stroke="#bcd4ff" stroke-width="1.6" opacity="0.47"/><line x1="224.4" y1="851.2" x2="216.4" y2="869.7" stroke="#bcd4ff" stroke-width="1.6" opacity="0.27"/><line x1="12.6" y1="165.0" x2="4.6" y2="184.6" stroke="#bcd4ff" stroke-width="1.6" opacity="0.29"/><line x1="1045.6" y1="363.3" x2="1037.6" y2="400.5" stroke="#bcd4ff" stroke-width="1.6" opacity="0.26"/><line x1="262.6" y1="1039.5" x2="254.6" y2="1061.5" stroke="#bcd4ff" stroke-width="1.6" opacity="0.28"/><line x1="227.6" y1="863.9" x2="219.6" y2="889.3" stroke="#bcd4ff" stroke-width="1.6" opacity="0.20"/><line x1="408.5" y1="861.3" x2="400.5" y2="895.9" stroke="#bcd4ff" stroke-width="1.6" opacity="0.39"/><line x1="421.0" y1="224.6" x2="413.0" y2="254.0" stroke="#bcd4ff" stroke-width="1.6" opacity="0.22"/><line x1="9.0" y1="186.4" x2="1.0" y2="216.1" stroke="#bcd4ff" stroke-width="1.6" opacity="0.31"/><line x1="648.8" y1="1405.2" x2="640.8" y2="1441.9" stroke="#bcd4ff" stroke-width="1.6" opacity="0.42"/><line x1="745.9" y1="927.4" x2="737.9" y2="966.9" stroke="#bcd4ff" stroke-width="1.6" opacity="0.25"/><line x1="340.8" y1="71.8" x2="332.8" y2="109.2" stroke="#bcd4ff" stroke-width="1.6" opacity="0.24"/><line x1="64.5" y1="1031.5" x2="56.5" y2="1056.9" stroke="#bcd4ff" stroke-width="1.6" opacity="0.48"/><line x1="401.3" y1="64.1" x2="393.3" y2="82.2" stroke="#bcd4ff" stroke-width="1.6" opacity="0.40"/><line x1="709.9" y1="787.7" x2="701.9" y2="815.8" stroke="#bcd4ff" stroke-width="1.6" opacity="0.22"/><line x1="763.9" y1="6.4" x2="755.9" y2="33.2" stroke="#bcd4ff" stroke-width="1.6" opacity="0.28"/><line x1="1183.3" y1="453.3" x2="1175.3" y2="475.5" stroke="#bcd4ff" stroke-width="1.6" opacity="0.42"/><line x1="30.1" y1="339.2" x2="22.1" y2="371.3" stroke="#bcd4ff" stroke-width="1.6" opacity="0.27"/><line x1="652.9" y1="642.8" x2="644.9" y2="682.0" stroke="#bcd4ff" stroke-width="1.6" opacity="0.49"/><line x1="748.5" y1="278.9" x2="740.5" y2="305.2" stroke="#bcd4ff" stroke-width="1.6" opacity="0.42"/><line x1="1004.4" y1="1010.2" x2="996.4" y2="1028.4" stroke="#bcd4ff" stroke-width="1.6" opacity="0.37"/><line x1="516.6" y1="880.6" x2="508.6" y2="908.2" stroke="#bcd4ff" stroke-width="1.6" opacity="0.44"/><line x1="1127.0" y1="66.2" x2="1119.0" y2="99.0" stroke="#bcd4ff" stroke-width="1.6" opacity="0.21"/><line x1="587.2" y1="796.7" x2="579.2" y2="821.9" stroke="#bcd4ff" stroke-width="1.6" opacity="0.46"/><line x1="387.2" y1="23.5" x2="379.2" y2="59.3" stroke="#bcd4ff" stroke-width="1.6" opacity="0.47"/><line x1="732.1" y1="1471.5" x2="724.1" y2="1495.5" stroke="#bcd4ff" stroke-width="1.6" opacity="0.36"/><line x1="446.7" y1="1114.3" x2="438.7" y2="1152.9" stroke="#bcd4ff" stroke-width="1.6" opacity="0.47"/><line x1="53.7" y1="12.3" x2="45.7" y2="46.8" stroke="#bcd4ff" stroke-width="1.6" opacity="0.30"/><line x1="476.4" y1="856.7" x2="468.4" y2="894.9" stroke="#bcd4ff" stroke-width="1.6" opacity="0.46"/><line x1="1032.4" y1="767.7" x2="1024.4" y2="805.6" stroke="#bcd4ff" stroke-width="1.6" opacity="0.39"/><line x1="526.6" y1="524.1" x2="518.6" y2="555.6" stroke="#bcd4ff" stroke-width="1.6" opacity="0.23"/><line x1="154.3" y1="389.6" x2="146.3" y2="424.7" stroke="#bcd4ff" stroke-width="1.6" opacity="0.27"/><line x1="317.3" y1="685.8" x2="309.3" y2="720.7" stroke="#bcd4ff" stroke-width="1.6" opacity="0.45"/><line x1="510.5" y1="1173.4" x2="502.5" y2="1199.5" stroke="#bcd4ff" stroke-width="1.6" opacity="0.36"/><line x1="707.7" y1="688.6" x2="699.7" y2="714.0" stroke="#bcd4ff" stroke-width="1.6" opacity="0.48"/><line x1="540.5" y1="1084.8" x2="532.5" y2="1118.0" stroke="#bcd4ff" stroke-width="1.6" opacity="0.50"/><line x1="384.2" y1="1205.7" x2="376.2" y2="1229.2" stroke="#bcd4ff" stroke-width="1.6" opacity="0.30"/><line x1="1109.2" y1="1370.3" x2="1101.2" y2="1389.9" stroke="#bcd4ff" stroke-width="1.6" opacity="0.31"/><line x1="814.9" y1="476.2" x2="806.9" y2="507.0" stroke="#bcd4ff" stroke-width="1.6" opacity="0.48"/><line x1="953.9" y1="1095.7" x2="945.9" y2="1130.2" stroke="#bcd4ff" stroke-width="1.6" opacity="0.32"/><line x1="222.1" y1="1313.7" x2="214.1" y2="1352.5" stroke="#bcd4ff" stroke-width="1.6" opacity="0.30"/><line x1="276.9" y1="1009.2" x2="268.9" y2="1032.4" stroke="#bcd4ff" stroke-width="1.6" opacity="0.50"/><line x1="255.4" y1="805.5" x2="247.4" y2="829.2" stroke="#bcd4ff" stroke-width="1.6" opacity="0.46"/><line x1="858.6" y1="1062.2" x2="850.6" y2="1100.7" stroke="#bcd4ff" stroke-width="1.6" opacity="0.42"/><line x1="117.9" y1="1063.1" x2="109.9" y2="1098.6" stroke="#bcd4ff" stroke-width="1.6" opacity="0.45"/><line x1="577.2" y1="470.1" x2="569.2" y2="494.5" stroke="#bcd4ff" stroke-width="1.6" opacity="0.48"/><line x1="783.9" y1="4.0" x2="775.9" y2="25.8" stroke="#bcd4ff" stroke-width="1.6" opacity="0.25"/><line x1="485.3" y1="594.1" x2="477.3" y2="627.5" stroke="#bcd4ff" stroke-width="1.6" opacity="0.41"/><line x1="977.4" y1="1375.0" x2="969.4" y2="1405.5" stroke="#bcd4ff" stroke-width="1.6" opacity="0.44"/><line x1="941.3" y1="889.2" x2="933.3" y2="922.5" stroke="#bcd4ff" stroke-width="1.6" opacity="0.36"/><line x1="333.6" y1="674.8" x2="325.6" y2="705.1" stroke="#bcd4ff" stroke-width="1.6" opacity="0.30"/></g><rect x="0" y="1420" width="1200" height="80" fill="#2a333f" opacity="0.6"/><radialGradient id="vig" cx="0.5" cy="0.42" r="0.75"><stop offset="0.55" stop-color="#000000" stop-opacity="0"/><stop offset="1" stop-color="#000000" stop-opacity="0.55"/></radialGradient><rect width="1200" height="1500" fill="url(#vig)"/><linearGradient id="btm" x1="0" y1="0" x2="0" y2="1"><stop offset="0.65" stop-color="#000" stop-opacity="0"/><stop offset="1" stop-color="#000" stop-opacity="0.5"/></linearGradient><rect width="1200" height="1500" fill="url(#btm)"/></svg>