<svg xmlns="http://www.w3.org/2000/svg" viewBox="0 0 1200 1500" preserveAspectRatio="xMidYMid slice"><defs><filter id="soft" x="-20%" y="-20%" width="140%" height="140%"><feGaussianBlur stdDeviation="14"/></filter><filter id="fog" x="-40%" y="-40%" width="180%" height="180%"><feGaussianBlur stdDeviation="40"/></filter></defs><linearGradient id="sky" x1="0" y1="0" x2="0" y2="1"><stop offset="0" stop-color="#2a0a12"/><stop offset="0.55" stop-color="#7a0b1e"/><stop offset="1" stop-color="#c9a227"/></linearGradient><rect width="1200" height="1500" fill="url(#sky)"/><g opacity="0.16"><path d="M600.0,500.0 L2200.0,500.0 L2188.5,691.5 Z" fill="#ffe08a"/><path d="M600.0,500.0 L2103.5,1047.2 L2027.2,1223.3 Z" fill="#ffe08a"/><path d="M600.0,500.0 L1825.7,1528.5 L1693.7,1667.8 Z" fill="#ffe08a"/><path d="M600.0,500.0 L1400.0,1885.6 L1228.4,1971.4 Z" fill="#ffe08a"/><path d="M600.0,500.0 L877.8,2075.7 L687.2,2097.6 Z" fill="#ffe08a"/><path d="M600.0,500.0 L322.2,2075.7 L135.5,2031.1 Z" fill="#ffe08a"/><path d="M600.0,500.0 L-200.0,1885.6 L-360.1,1779.9 Z" fill="#ffe08a"/><path d="M600.0,500.0 L-625.7,1528.5 L-740.0,1374.3 Z" fill="#ffe08a"/><path d="M600.0,500.0 L-903.5,1047.2 L-958.2,863.3 Z" fill="#ffe08a"/><path d="M600.0,500.0 L-1000.0,500.0 L-988.5,308.5 Z" fill="#ffe08a"/><path d="M600.0,500.0 L-903.5,-47.2 L-827.2,-223.3 Z" fill="#ffe08a"/><path d="M600.0,500.0 L-625.7,-528.5 L-493.7,-667.8 Z" fill="#ffe08a"/><path d="M600.0,500.0 L-200.0,-885.6 L-28.4,-971.4 Z" fill="#ffe08a"/><path d="M600.0,500.0 L322.2,-1075.7 L512.8,-1097.6 Z" fill="#ffe08a"/><path d="M600.0,500.0 L877.8,-1075.7 L1064.5,-1031.1 Z" fill="#ffe08a"/><path d="M600.0,500.0 L1400.0,-885.6 L1560.1,-779.9 Z" fill="#ffe08a"/><path d="M600.0,500.0 L1825.7,-528.5 L1940.0,-374.3 Z" fill="#ffe08a"/><path d="M600.0,500.0 L2103.5,-47.2 L2158.2,136.7 Z" fill="#ffe08a"/></g><radialGradient id="g600520" cx="0.5" cy="0.5" r="0.5"><stop offset="0" stop-color="#ffd700" stop-opacity="0.4"/><stop offset="1" stop-color="#ffd700" stop-opacity="0"/></radialGradient><circle cx="600.0" cy="520.0" r="520.0" fill="url(#g600520)"/><g opacity="0.25" stroke="#ffd700" fill="none" stroke-width="3"><path d="M0,1080 Q600.0,1040 1200,1080"/><path d="M0,1150 Q600.0,1110 1200,1150"/><path d="M0,1220 Q600.0,1180 1200,1220"/><path d="M0,1290 Q600.0,1250 1200,1290"/><path d="M0,1360 Q600.0,1320 1200,1360"/></g><g><path d="M0,-12 L3,-3 L12,0 L3,3 L0,12 L-3,3 L-12,0 L-3,-3 Z" fill="#fff6c8" opacity="0.66" transform="translate(607.1,543.9) scale(1.23)"/><path d="M0,-12 L3,-3 L12,0 L3,3 L0,12 L-3,3 L-12,0 L-3,-3 Z" fill="#ffd54a" opacity="0.40" transform="translate(20.8,178.6) scale(1.37)"/><path d="M0,-12 L3,-3 L12,0 L3,3 L0,12 L-3,3 L-12,0 L-3,-3 Z" fill="#ffd54a" opacity="0.47" transform="translate(380.6,864.7) scale(0.79)"/><path d="M0,-12 L3,-3 L12,0 L3,3 L0,12 L-3,3 L-12,0 L-3,-3 Z" fill="#ffd54a" opacity="0.71" transform="translate(90.4,616.7) scale(0.89)"/><path d="M0,-12 L3,-3 L12,0 L3,3 L0,12 L-3,3 L-12,0 L-3,-3 Z" fill="#ffe9a8" opacity="0.61" transform="translate(215.7,1030.1) scale(1.43)"/><path d="M0,-12 L3,-3 L12,0 L3,3 L0,12 L-3,3 L-12,0 L-3,-3 Z" fill="#ffe9a8" opacity="0.78" transform="translate(1078.3,280.7) scale(1.57)"/><path d="M0,-12 L3,-3 L12,0 L3,3 L0,12 L-3,3 L-12,0 L-3,-3 Z" fill="#fff6c8" opacity="0.59" transform="translate(21.4,1096.8) scale(1.43)"/><path d="M0,-12 L3,-3 L12,0 L3,3 L0,12 L-3,3 L-12,0 L-3,-3 Z" fill="#ffd54a" opacity="0.83" transform="translate(419.2,1043.9) scale(1.26)"/><path d="M0,-12 L3,-3 L12,0 L3,3 L0,12 L-3,3 L-12,0 L-3,-3 Z" fill="#fff6c8" opacity="0.88" transform="translate(195.8,1165.4) scale(1.36)"/><path d="M0,-12 L3,-3 L12,0 L3,3 L0,12 L-3,3 L-12,0 L-3,-3 Z" fill="#ffe9a8" opacity="0.50" transform="translate(217.8,1031.4) scale(1.10)"/><path d="M0,-12 L3,-3 L12,0 L3,3 L0,12 L-3,3 L-12,0 L-3,-3 Z" fill="#ffe9a8" opacity="0.41" transform="translate(221.0,868.7) scale(1.00)"/><path d="M0,-12 L3,-3 L12,0 L3,3 L0,12 L-3,3 L-12,0 L-3,-3 Z" fill="#fff6c8" opacity="0.61" transform="translate(642.3,159.6) scale(1.60)"/><path d="M0,-12 L3,-3 L12,0 L3,3 L0,12 L-3,3 L-12,0 L-3,-3 Z" fill="#ffd54a" opacity="0.53" transform="translate(43.0,420.2) scale(1.71)"/><path d="M0,-12 L3,-3 L12,0 L3,3 L0,12 L-3,3 L-12,0 L-3,-3 Z" fill="#ffd54a" opacity="0.92" transform="translate(1083.5,504.2) scale(0.63)"/><path d="M0,-12 L3,-3 L12,0 L3,3 L0,12 L-3,3 L-12,0 L-3,-3 Z" fill="#ffd54a" opacity="0.77" transform="translate(512.1,235.1) scale(0.53)"/><path d="M0,-12 L3,-3 L12,0 L3,3 L0,12 L-3,3 L-12,0 L-3,-3 Z" fill="#fff6c8" opacity="0.89" transform="translate(907.8,567.0) scale(0.75)"/><path d="M0,-12 L3,-3 L12,0 L3,3 L0,12 L-3,3 L-12,0 L-3,-3 Z" fill="#fff6c8" opacity="0.68" transform="translate(681.5,22.4) scale(1.60)"/><path d="M0,-12 L3,-3 L12,0 L3,3 L0,12 L-3,3 L-12,0 L-3,-3 Z" fill="#fff6c8" opacity="0.91" transform="translate(401.3,225.1) scale(1.62)"/><path d="M0,-12 L3,-3 L12,0 L3,3 L0,12 L-3,3 L-12,0 L-3,-3 Z" fill="#ffe9a8" opacity="0.95" transform="translate(515.6,923.4) scale(1.49)"/><path d="M0,-12 L3,-3 L12,0 L3,3 L0,12 L-3,3 L-12,0 L-3,-3 Z" fill="#ffe9a8" opacity="0.79" transform="translate(1177.2,844.1) scale(1.17)"/><path d="M0,-12 L3,-3 L12,0 L3,3 L0,12 L-3,3 L-12,0 L-3,-3 Z" fill="#fff6c8" opacity="0.68" transform="translate(293.6,1132.9) scale(0.57)"/><path d="M0,-12 L3,-3 L12,0 L3,3 L0,12 L-3,3 L-12,0 L-3,-3 Z" fill="#ffe9a8" opacity="0.95" transform="translate(193.6,535.1) scale(1.45)"/><path d="M0,-12 L3,-3 L12,0 L3,3 L0,12 L-3,3 L-12,0 L-3,-3 Z" fill="#ffe9a8" opacity="0.95" transform="translate(478.8,432.7) scale(1.53)"/><path d="M0,-12 L3,-3 L12,0 L3,3 L0,12 L-3,3 L-12,0 L-3,-3 Z" fill="#ffd54a" opacity="0.46" transform="translate(273.9,399.4) scale(0.95)"/><path d="M0,-12 L3,-3 L12,0 L3,3 L0,12 L-3,3 L-12,0 L-3,-3 Z" fill="#fff6c8" opacity="0.47" transform="translate(459.7,1016.0) scale(1.14)"/><path d="M0,-12 L3,-3 L12,0 L3,3 L0,12 L-3,3 L-12,0 L-3,-3 Z" fill="#fff6c8" opacity="0.69" transform="translate(778.1,445.0) scale(0.78)"/></g><radialGradient id="vig" cx="0.5" cy="0.42" r="0.75"><stop offset="0.55" stop-color="#000000" stop-opacity="0"/><stop offset="1" stop-color="#000000" stop-opacity="0.6"/></radialGradient><rect width="1200" height="1500" fill="url(#vig)"/><linearGradient id="btm" x1="0" y1="0" x2="0" y2="1"><stop offset="0.65" stop-color="#000" stop-opacity="0"/><stop offset="1" stop-color="#000" stop-opacity="0.5"/></linearGradient><rect width="1200" height="1500" fill="url(#btm)"/></svg>