<svg xmlns="http://www.w3.org/2000/svg" viewBox="0 0 1200 1500" preserveAspectRatio="xMidYMid slice"><defs><filter id="soft" x="-20%" y="-20%" width="140%" height="140%"><feGaussianBlur stdDeviation="14"/></filter><filter id="fog" x="-40%" y="-40%" width="180%" height="180%"><feGaussianBlur stdDeviation="40"/></filter></defs><linearGradient id="sky" x1="0" y1="0" x2="0" y2="1"><stop offset="0" stop-color="#c3d4e6"/><stop offset="0.55" stop-color="#dfe9f3"/><stop offset="1" stop-color="#f4f8fc"/></linearGradient><rect width="1200" height="1500" fill="url(#sky)"/><radialGradient id="g300300" cx="0.5" cy="0.5" r="0.5"><stop offset="0" stop-color="#f4f6ff" stop-opacity="0.5"/><stop offset="1" stop-color="#f4f6ff" stop-opacity="0"/></radialGradient><circle cx="300.0" cy="300.0" r="198.0" fill="url(#g300300)"/><circle cx="300.0" cy="300.0" r="66.0" fill="#f4f6ff"/><circle cx="286.0" cy="272.3" r="10.4" fill="#d7dcf0" opacity="0.6"/><circle cx="266.1" cy="302.8" r="8.2" fill="#d7dcf0" opacity="0.6"/><circle cx="265.0" cy="300.6" r="5.6" fill="#d7dcf0" opacity="0.6"/><circle cx="294.7" cy="265.9" r="6.0" fill="#d7dcf0" opacity="0.6"/><circle cx="294.0" cy="325.9" r="6.3" fill="#d7dcf0" opacity="0.6"/><path d="M -40,1500 L -40,1160.0 L 0,1160.0 L 120.0,817.3 L 240.0,1146.6 L 360.0,733.6 L 480.0,1078.6 L 600.0,789.5 L 720.0,1146.6 L 840.0,769.0 L 960.0,1069.8 L 1080.0,787.6 L 1200.0,1071.9 L 1240,1160.0 L 1240,1500 Z" fill="#9fb3c9" opacity="0.6"/><path d="M86.0,857.3 L120.0,817.3 L154.0,857.3 L138.0,847.3 L120.0,859.3 L102.0,847.3 Z" fill="#ffffff" opacity="0.9"/><path d="M326.0,773.6 L360.0,733.6 L394.0,773.6 L378.0,763.6 L360.0,775.6 L342.0,763.6 Z" fill="#ffffff" opacity="0.9"/><path d="M566.0,829.5 L600.0,789.5 L634.0,829.5 L618.0,819.5 L600.0,831.5 L582.0,819.5 Z" fill="#ffffff" opacity="0.9"/><path d="M806.0,809.0 L840.0,769.0 L874.0,809.0 L858.0,799.0 L840.0,811.0 L822.0,799.0 Z" fill="#ffffff" opacity="0.9"/><path d="M1046.0,827.6 L1080.0,787.6 L1114.0,827.6 L1098.0,817.6 L1080.0,829.6 L1062.0,817.6 Z" fill="#ffffff" opacity="0.9"/><path d="M -40,1500 L -40,1240.0 L 0,1240.0 L 85.7,1004.5 L 171.4,1223.6 L 257.1,959.4 L 342.9,1170.7 L 428.6,920.7 L 514.3,1184.5 L 600.0,1000.0 L 685.7,1200.8 L 771.4,851.4 L 857.1,1199.7 L 942.9,831.1 L 1028.6,1172.1 L 1114.3,945.8 L 1200.0,1239.9 L 1240,1240.0 L 1240,1500 Z" fill="#7d94ad" opacity="1.0"/><path d="M51.7,1044.5 L85.7,1004.5 L119.7,1044.5 L103.7,1034.5 L85.7,1046.5 L67.7,1034.5 Z" fill="#ffffff" opacity="0.9"/><path d="M223.1,999.4 L257.1,959.4 L291.1,999.4 L275.1,989.4 L257.1,1001.4 L239.1,989.4 Z" fill="#ffffff" opacity="0.9"/><path d="M394.6,960.7 L428.6,920.7 L462.6,960.7 L446.6,950.7 L428.6,962.7 L410.6,950.7 Z" fill="#ffffff" opacity="0.9"/><path d="M566.0,1040.0 L600.0,1000.0 L634.0,1040.0 L618.0,1030.0 L600.0,1042.0 L582.0,1030.0 Z" fill="#ffffff" opacity="0.9"/><path d="M737.4,891.4 L771.4,851.4 L805.4,891.4 L789.4,881.4 L771.4,893.4 L753.4,881.4 Z" fill="#ffffff" opacity="0.9"/><path d="M908.9,871.1 L942.9,831.1 L976.9,871.1 L960.9,861.1 L942.9,873.1 L924.9,861.1 Z" fill="#ffffff" opacity="0.9"/><path d="M1080.3,985.8 L1114.3,945.8 L1148.3,985.8 L1132.3,975.8 L1114.3,987.8 L1096.3,975.8 Z" fill="#ffffff" opacity="0.9"/><g fill="#4a5c72"><path d="M58.8,1440.0 L13.0,1440.0 L58.8,1339.2 L26.7,1348.4 L58.8,1256.8 L90.8,1348.4 L104.6,1440.0 Z"/><path d="M182.7,1440.0 L145.7,1440.0 L182.7,1358.7 L156.8,1366.1 L182.7,1292.3 L208.5,1366.1 L219.6,1440.0 Z"/><path d="M281.8,1440.0 L229.6,1440.0 L281.8,1325.0 L245.2,1335.5 L281.8,1230.9 L318.4,1335.5 L334.1,1440.0 Z"/><path d="M406.3,1440.0 L371.7,1440.0 L406.3,1363.7 L382.1,1370.7 L406.3,1301.3 L430.6,1370.7 L441.0,1440.0 Z"/><path d="M500.0,1440.0 L454.6,1440.0 L500.0,1340.1 L468.2,1349.1 L500.0,1258.3 L531.8,1349.1 L545.4,1440.0 Z"/><path d="M600.2,1440.0 L546.0,1440.0 L600.2,1320.9 L562.3,1331.7 L600.2,1223.4 L638.1,1331.7 L654.4,1440.0 Z"/><path d="M710.8,1440.0 L669.7,1440.0 L710.8,1349.5 L682.0,1357.7 L710.8,1275.5 L739.6,1357.7 L751.9,1440.0 Z"/><path d="M844.8,1440.0 L798.9,1440.0 L844.8,1339.0 L812.7,1348.2 L844.8,1256.4 L876.9,1348.2 L890.7,1440.0 Z"/><path d="M915.4,1440.0 L877.6,1440.0 L915.4,1357.0 L888.9,1364.5 L915.4,1289.1 L941.8,1364.5 L953.1,1440.0 Z"/><path d="M1036.1,1440.0 L1004.8,1440.0 L1036.1,1371.1 L1014.2,1377.4 L1036.1,1314.7 L1058.1,1377.4 L1067.4,1440.0 Z"/><path d="M1151.9,1440.0 L1103.5,1440.0 L1151.9,1333.5 L1118.0,1343.2 L1151.9,1246.4 L1185.8,1343.2 L1200.3,1440.0 Z"/></g><rect x="0" y="1360" width="1200" height="140" fill="#eef4fb"/><g><circle cx="634.7" cy="878.6" r="5.4" fill="#ffffff" opacity="0.85"/><circle cx="1058.6" cy="547.0" r="5.8" fill="#ffffff" opacity="0.61"/><circle cx="367.4" cy="141.8" r="4.0" fill="#ffffff" opacity="0.48"/><circle cx="329.1" cy="915.9" r="5.1" fill="#ffffff" opacity="0.78"/><circle cx="103.7" cy="91.8" r="3.0" fill="#ffffff" opacity="0.68"/><circle cx="1006.6" cy="1200.7" r="5.7" fill="#ffffff" opacity="0.69"/><circle cx="764.0" cy="437.9" r="3.3" fill="#ffffff" opacity="0.50"/><circle cx="642.3" cy="910.9" r="4.3" fill="#ffffff" opacity="0.60"/><circle cx="508.7" cy="372.7" r="5.3" fill="#ffffff" opacity="0.69"/><circle cx="898.4" cy="1217.4" r="3.1" fill="#ffffff" opacity="0.46"/><circle cx="339.5" cy="1360.8" r="5.2" fill="#ffffff" opacity="0.60"/><circle cx="931.9" cy="513.0" r="5.5" fill="#ffffff" opacity="0.45"/><circle cx="889.1" cy="1470.6" r="3.7" fill="#ffffff" opacity="0.63"/><circle cx="157.1" cy="412.9" r="2.9" fill="#ffffff" opacity="0.55"/><circle cx="82.2" cy="449.1" r="2.4" fill="#ffffff" opacity="0.66"/><circle cx="487.7" cy="341.2" r="5.8" fill="#ffffff" opacity="0.55"/><circle cx="637.8" cy="1342.0" r="5.0" fill="#ffffff" opacity="0.88"/><circle cx="731.3" cy="1306.2" r="2.3" fill="#ffffff" opacity="0.77"/><circle cx="403.3" cy="481.3" r="5.1" fill="#ffffff" opacity="0.77"/><circle cx="410.3" cy="545.1" r="3.1" fill="#ffffff" opacity="0.87"/><circle cx="737.7" cy="389.9" r="4.1" fill="#ffffff" opacity="0.43"/><circle cx="323.5" cy="752.2" r="5.9" fill="#ffffff" opacity="0.83"/><circle cx="657.0" cy="1144.7" r="3.0" fill="#ffffff" opacity="0.75"/><circle cx="1195.4" cy="231.0" r="5.7" fill="#ffffff" opacity="0.89"/><circle cx="441.6" cy="1221.0" r="6.0" fill="#ffffff" opacity="0.47"/><circle cx="557.8" cy="890.7" r="5.2" fill="#ffffff" opacity="0.53"/><circle cx="902.2" cy="1056.0" r="5.4" fill="#ffffff" opacity="0.77"/><circle cx="1033.1" cy="906.1" r="4.2" fill="#ffffff" opacity="0.63"/><circle cx="488.1" cy="693.9" r="4.0" fill="#ffffff" opacity="0.60"/><circle cx="174.1" cy="596.5" r="5.8" fill="#ffffff" opacity="0.55"/><circle cx="1179.3" cy="1248.7" r="3.8" fill="#ffffff" opacity="0.51"/><circle cx="1054.8" cy="1432.6" r="3.2" fill="#ffffff" opacity="0.73"/><circle cx="904.3" cy="931.4" r="2.5" fill="#ffffff" opacity="0.52"/><circle cx="865.9" cy="952.4" r="4.7" fill="#ffffff" opacity="0.54"/><circle cx="1055.7" cy="1164.8" r="3.9" fill="#ffffff" opacity="0.83"/><circle cx="362.4" cy="799.7" r="4.1" fill="#ffffff" opacity="0.88"/><circle cx="1124.9" cy="511.5" r="5.1" fill="#ffffff" opacity="0.55"/><circle cx="1059.8" cy="1337.5" r="4.7" fill="#ffffff" opacity="0.42"/><circle cx="366.3" cy="256.8" r="4.0" fill="#ffffff" opacity="0.42"/><circle cx="75.3" cy="149.2" r="5.5" fill="#ffffff" opacity="0.70"/><circle cx="1039.8" cy="1414.9" r="4.3" fill="#ffffff" opacity="0.82"/><circle cx="521.7" cy="913.5" r="2.7" fill="#ffffff" opacity="0.62"/><circle cx="115.5" cy="692.9" r="5.9" fill="#ffffff" opacity="0.90"/><circle cx="900.0" cy="66.9" r="6.0" fill="#ffffff" opacity="0.67"/><circle cx="810.3" cy="610.7" r="5.1" fill="#ffffff" opacity="0.56"/><circle cx="131.8" cy="688.7" r="2.7" fill="#ffffff" opacity="0.51"/><circle cx="237.2" cy="1053.1" r="4.7" fill="#ffffff" opacity="0.51"/><circle cx="824.2" cy="42.2" r="5.8" fill="#ffffff" opacity="0.52"/><circle cx="613.9" cy="555.2" r="5.4" fill="#ffffff" opacity="0.62"/><circle cx="201.2" cy="1290.7" r="4.3" fill="#ffffff" opacity="0.53"/><circle cx="855.8" cy="1343.7" r="5.0" fill="#ffffff" opacity="0.80"/><circle cx="423.6" cy="352.8" r="2.2" fill="#ffffff" opacity="0.85"/><circle cx="279.2" cy="552.9" r="5.2" fill="#ffffff" opacity="0.46"/><circle cx="1114.3" cy="842.0" r="2.7" fill="#ffffff" opacity="0.81"/><circle cx="803.6" cy="95.2" r="3.9" fill="#ffffff" opacity="0.76"/><circle cx="327.0" cy="503.0" r="5.4" fill="#ffffff" opacity="0.47"/><circle cx="302.1" cy="185.5" r="4.0" fill="#ffffff" opacity="0.62"/><circle cx="329.2" cy="140.4" r="2.5" fill="#ffffff" opacity="0.78"/><circle cx="697.1" cy="1203.5" r="2.4" fill="#ffffff" opacity="0.88"/><circle cx="827.0" cy="865.4" r="5.3" fill="#ffffff" opacity="0.44"/><circle cx="730.3" cy="455.0" r="2.1" fill="#ffffff" opacity="0.78"/><circle cx="35.5" cy="1100.4" r="3.1" fill="#ffffff" opacity="0.82"/><circle cx="71.1" cy="721.6" r="5.9" fill="#ffffff" opacity="0.67"/><circle cx="745.3" cy="775.4" r="4.4" fill="#ffffff" opacity="0.60"/><circle cx="316.6" cy="445.0" r="5.4" fill="#ffffff" opacity="0.56"/><circle cx="838.4" cy="1406.7" r="5.7" fill="#ffffff" opacity="0.82"/><circle cx="1078.5" cy="972.5" r="4.2" fill="#ffffff" opacity="0.45"/><circle cx="88.3" cy="449.9" r="3.9" fill="#ffffff" opacity="0.64"/><circle cx="16.4" cy="875.6" r="3.4" fill="#ffffff" opacity="0.60"/><circle cx="105.7" cy="1166.1" r="5.2" fill="#ffffff" opacity="0.77"/><circle cx="135.5" cy="30.8" r="5.8" fill="#ffffff" opacity="0.71"/><circle cx="1134.6" cy="612.0" r="5.2" fill="#ffffff" opacity="0.46"/><circle cx="96.9" cy="1025.6" r="4.7" fill="#ffffff" opacity="0.58"/><circle cx="641.4" cy="940.8" r="2.9" fill="#ffffff" opacity="0.40"/><circle cx="557.5" cy="404.2" r="5.8" fill="#ffffff" opacity="0.49"/><circle cx="636.3" cy="333.1" r="3.7" fill="#ffffff" opacity="0.50"/><circle cx="269.6" cy="1114.6" r="5.0" fill="#ffffff" opacity="0.73"/><circle cx="1194.7" cy="1436.4" r="4.1" fill="#ffffff" opacity="0.84"/><circle cx="813.7" cy="1165.7" r="3.0" fill="#ffffff" opacity="0.87"/><circle cx="832.2" cy="183.3" r="2.0" fill="#ffffff" opacity="0.58"/><circle cx="785.0" cy="495.7" r="3.5" fill="#ffffff" opacity="0.78"/><circle cx="299.1" cy="59.1" r="3.7" fill="#ffffff" opacity="0.58"/><circle cx="781.2" cy="154.9" r="5.4" fill="#ffffff" opacity="0.89"/><circle cx="896.9" cy="772.2" r="2.8" fill="#ffffff" opacity="0.42"/><circle cx="811.9" cy="1414.7" r="3.2" fill="#ffffff" opacity="0.81"/><circle cx="1154.1" cy="1230.3" r="4.1" fill="#ffffff" opacity="0.75"/><circle cx="390.7" cy="738.8" r="2.9" fill="#ffffff" opacity="0.80"/><circle cx="304.1" cy="1255.4" r="4.9" fill="#ffffff" opacity="0.51"/><circle cx="112.5" cy="1018.3" r="3.4" fill="#ffffff" opacity="0.71"/><circle cx="1045.2" cy="431.7" r="2.6" fill="#ffffff" opacity="0.69"/><circle cx="838.2" cy="829.3" r="2.1" fill="#ffffff" opacity="0.63"/><circle cx="753.1" cy="1376.2" r="3.1" fill="#ffffff" opacity="0.57"/><circle cx="438.9" cy="1081.7" r="3.2" fill="#ffffff" opacity="0.79"/><circle cx="658.4" cy="925.8" r="2.4" fill="#ffffff" opacity="0.84"/><circle cx="566.5" cy="672.6" r="3.6" fill="#ffffff" opacity="0.86"/><circle cx="1120.6" cy="1176.7" r="5.9" fill="#ffffff" opacity="0.58"/><circle cx="1180.9" cy="1122.4" r="5.1" fill="#ffffff" opacity="0.84"/><circle cx="219.4" cy="45.0" r="2.6" fill="#ffffff" opacity="0.87"/><circle cx="606.3" cy="2.5" r="4.6" fill="#ffffff" opacity="0.80"/><circle cx="277.7" cy="748.3" r="3.0" fill="#ffffff" opacity="0.66"/><circle cx="355.1" cy="496.2" r="4.5" fill="#ffffff" opacity="0.77"/><circle cx="1198.6" cy="389.9" r="5.9" fill="#ffffff" opacity="0.58"/><circle cx="512.0" cy="635.8" r="3.2" fill="#ffffff" opacity="0.65"/><circle cx="987.9" cy="1365.0" r="5.9" fill="#ffffff" opacity="0.60"/><circle cx="381.7" cy="267.4" r="4.3" fill="#ffffff" opacity="0.57"/><circle cx="86.0" cy="445.6" r="5.2" fill="#ffffff" opacity="0.75"/><circle cx="739.5" cy="465.4" r="5.4" fill="#ffffff" opacity="0.63"/><circle cx="380.3" cy="399.4" r="3.6" fill="#ffffff" opacity="0.61"/><circle cx="397.8" cy="675.0" r="3.8" fill="#ffffff" opacity="0.58"/><circle cx="241.2" cy="403.9" r="3.7" fill="#ffffff" opacity="0.90"/><circle cx="13.2" cy="1452.7" r="4.0" fill="#ffffff" opacity="0.41"/><circle cx="520.5" cy="415.4" r="2.0" fill="#ffffff" opacity="0.81"/><circle cx="835.6" cy="1468.2" r="3.4" fill="#ffffff" opacity="0.88"/><circle cx="1123.9" cy="915.7" r="4.2" fill="#ffffff" opacity="0.52"/><circle cx="851.2" cy="770.5" r="4.8" fill="#ffffff" opacity="0.51"/><circle cx="8.5" cy="257.4" r="2.8" fill="#ffffff" opacity="0.71"/><circle cx="481.5" cy="872.9" r="5.7" fill="#ffffff" opacity="0.54"/><circle cx="596.9" cy="1105.0" r="2.3" fill="#ffffff" opacity="0.83"/><circle cx="700.4" cy="667.9" r="5.7" fill="#ffffff" opacity="0.73"/><circle cx="836.1" cy="1363.2" r="3.7" fill="#ffffff" opacity="0.45"/><circle cx="796.8" cy="1035.8" r="2.5" fill="#ffffff" opacity="0.46"/><circle cx="942.4" cy="38.4" r="2.6" fill="#ffffff" opacity="0.76"/><circle cx="1148.6" cy="1115.2" r="4.5" fill="#ffffff" opacity="0.81"/><circle cx="434.8" cy="250.1" r="5.3" fill="#ffffff" opacity="0.56"/><circle cx="770.3" cy="728.0" r="4.1" fill="#ffffff" opacity="0.51"/><circle cx="276.2" cy="611.2" r="5.6" fill="#ffffff" opacity="0.41"/><circle cx="584.5" cy="287.1" r="3.0" fill="#ffffff" opacity="0.81"/><circle cx="475.6" cy="284.0" r="3.8" fill="#ffffff" opacity="0.77"/><circle cx="799.0" cy="954.0" r="4.6" fill="#ffffff" opacity="0.86"/><circle cx="869.2" cy="154.0" r="4.4" fill="#ffffff" opacity="0.70"/></g><radialGradient id="vig" cx="0.5" cy="0.42" r="0.75"><stop offset="0.55" stop-color="#000000" stop-opacity="0"/><stop offset="1" stop-color="#000000" stop-opacity="0.4"/></radialGradient><rect width="1200" height="1500" fill="url(#vig)"/><linearGradient id="btm" x1="0" y1="0" x2="0" y2="1"><stop offset="0.65" stop-color="#000" stop-opacity="0"/><stop offset="1" stop-color="#000" stop-opacity="0.5"/></linearGradient><rect width="1200" height="1500" fill="url(#btm)"/></svg>