<svg xmlns="http://www.w3.org/2000/svg" viewBox="0 0 1200 1500" preserveAspectRatio="xMidYMid slice"><defs><filter id="soft" x="-20%" y="-20%" width="140%" height="140%"><feGaussianBlur stdDeviation="14"/></filter><filter id="fog" x="-40%" y="-40%" width="180%" height="180%"><feGaussianBlur stdDeviation="40"/></filter></defs><linearGradient id="sky" x1="0" y1="0" x2="0" y2="1"><stop offset="0" stop-color="#2a0b4a"/><stop offset="0.55" stop-color="#5a1e8f"/><stop offset="1" stop-color="#8a2be2"/></linearGradient><rect width="1200" height="1500" fill="url(#sky)"/><radialGradient id="g600500" cx="0.5" cy="0.5" r="0.5"><stop offset="0" stop-color="#b388ff" stop-opacity="0.45"/><stop offset="1" stop-color="#b388ff" stop-opacity="0"/></radialGradient><circle cx="600.0" cy="500.0" r="560.0" fill="url(#g600500)"/><g><circle cx="294.6" cy="98.3" r="1.1" fill="#ffffff" opacity="0.88"/><circle cx="277.6" cy="801.2" r="1.2" fill="#ffffff" opacity="0.62"/><circle cx="843.7" cy="68.3" r="2.1" fill="#ffffff" opacity="0.74"/><circle cx="308.8" cy="188.6" r="1.5" fill="#ffffff" opacity="0.87"/><circle cx="1108.9" cy="92.2" r="1.2" fill="#ffffff" opacity="0.95"/><circle cx="326.7" cy="791.7" r="1.7" fill="#ffffff" opacity="0.79"/><circle cx="789.6" cy="114.3" r="2.4" fill="#ffffff" opacity="0.85"/><circle cx="1032.5" cy="723.4" r="2.2" fill="#ffffff" opacity="0.66"/><circle cx="110.0" cy="308.6" r="1.1" fill="#ffffff" opacity="0.99"/><circle cx="253.5" cy="41.2" r="2.2" fill="#ffffff" opacity="0.86"/><circle cx="716.1" cy="400.3" r="0.9" fill="#ffffff" opacity="0.66"/><circle cx="921.8" cy="863.3" r="0.7" fill="#ffffff" opacity="0.66"/><circle cx="31.8" cy="986.6" r="1.9" fill="#ffffff" opacity="0.34"/><circle cx="1154.3" cy="194.8" r="1.7" fill="#ffffff" opacity="0.55"/><circle cx="75.3" cy="686.2" r="2.0" fill="#ffffff" opacity="0.41"/><circle cx="1106.5" cy="520.8" r="0.7" fill="#ffffff" opacity="0.42"/><circle cx="12.9" cy="1003.2" r="1.3" fill="#ffffff" opacity="0.44"/><circle cx="18.9" cy="617.4" r="1.0" fill="#ffffff" opacity="0.56"/><circle cx="552.2" cy="255.9" r="1.8" fill="#ffffff" opacity="0.68"/><circle cx="400.1" cy="1018.6" r="1.5" fill="#ffffff" opacity="0.75"/><circle cx="142.3" cy="405.7" r="2.3" fill="#ffffff" opacity="0.99"/><circle cx="262.2" cy="963.5" r="1.2" fill="#ffffff" opacity="0.80"/><circle cx="530.8" cy="859.7" r="1.6" fill="#ffffff" opacity="0.34"/><circle cx="1092.4" cy="277.4" r="2.0" fill="#ffffff" opacity="0.74"/><circle cx="511.7" cy="80.0" r="2.4" fill="#ffffff" opacity="0.42"/><circle cx="736.2" cy="656.4" r="2.0" fill="#ffffff" opacity="0.73"/><circle cx="952.2" cy="614.2" r="0.8" fill="#ffffff" opacity="0.45"/><circle cx="435.5" cy="678.3" r="1.8" fill="#ffffff" opacity="0.54"/><circle cx="40.4" cy="616.6" r="1.0" fill="#ffffff" opacity="0.86"/><circle cx="930.9" cy="295.9" r="2.2" fill="#ffffff" opacity="0.75"/><circle cx="922.5" cy="398.4" r="1.1" fill="#ffffff" opacity="0.97"/><circle cx="320.4" cy="681.0" r="1.4" fill="#ffffff" opacity="0.80"/><circle cx="875.4" cy="1009.2" r="0.7" fill="#ffffff" opacity="0.76"/><circle cx="752.2" cy="413.3" r="1.9" fill="#ffffff" opacity="0.48"/><circle cx="1127.5" cy="497.9" r="1.1" fill="#ffffff" opacity="0.73"/><circle cx="273.0" cy="496.6" r="2.0" fill="#ffffff" opacity="0.92"/><circle cx="846.0" cy="732.9" r="2.0" fill="#ffffff" opacity="0.70"/><circle cx="216.7" cy="946.5" r="1.1" fill="#ffffff" opacity="0.60"/><circle cx="119.8" cy="187.3" r="1.5" fill="#ffffff" opacity="0.56"/><circle cx="816.6" cy="21.7" r="1.7" fill="#ffffff" opacity="0.45"/><circle cx="277.5" cy="397.8" r="2.0" fill="#ffffff" opacity="0.43"/><circle cx="740.3" cy="239.6" r="1.0" fill="#ffffff" opacity="0.57"/><circle cx="973.5" cy="173.5" r="1.2" fill="#ffffff" opacity="0.98"/><circle cx="427.4" cy="530.8" r="1.0" fill="#ffffff" opacity="0.38"/><circle cx="446.0" cy="152.2" r="1.9" fill="#ffffff" opacity="0.51"/><circle cx="994.4" cy="269.1" r="0.7" fill="#ffffff" opacity="0.44"/><circle cx="487.0" cy="12.6" r="0.8" fill="#ffffff" opacity="0.82"/><circle cx="106.0" cy="869.9" r="1.4" fill="#ffffff" opacity="0.62"/><circle cx="106.6" cy="562.5" r="1.0" fill="#ffffff" opacity="0.34"/><circle cx="1080.9" cy="873.1" r="2.0" fill="#ffffff" opacity="0.38"/><circle cx="683.4" cy="302.7" r="2.2" fill="#ffffff" opacity="0.70"/><circle cx="50.7" cy="529.1" r="1.0" fill="#ffffff" opacity="0.47"/><circle cx="804.8" cy="255.3" r="1.4" fill="#ffffff" opacity="0.49"/><circle cx="954.0" cy="795.6" r="0.8" fill="#ffffff" opacity="0.36"/><circle cx="808.2" cy="837.3" r="1.0" fill="#ffffff" opacity="0.49"/><circle cx="372.0" cy="305.4" r="1.9" fill="#ffffff" opacity="0.59"/><circle cx="951.9" cy="880.0" r="0.9" fill="#ffffff" opacity="0.63"/><circle cx="1015.5" cy="871.4" r="2.3" fill="#ffffff" opacity="0.49"/><circle cx="851.4" cy="5.1" r="1.7" fill="#ffffff" opacity="0.83"/><circle cx="692.2" cy="705.8" r="0.7" fill="#ffffff" opacity="0.40"/><circle cx="325.2" cy="186.8" r="1.9" fill="#ffffff" opacity="0.91"/><circle cx="527.0" cy="961.8" r="2.3" fill="#ffffff" opacity="0.66"/><circle cx="89.6" cy="916.9" r="1.5" fill="#ffffff" opacity="0.33"/><circle cx="493.1" cy="316.6" r="1.4" fill="#ffffff" opacity="0.45"/><circle cx="1099.4" cy="653.7" r="2.3" fill="#ffffff" opacity="0.68"/><circle cx="744.4" cy="924.2" r="1.7" fill="#ffffff" opacity="0.97"/><circle cx="27.4" cy="150.4" r="2.0" fill="#ffffff" opacity="0.73"/><circle cx="352.7" cy="310.5" r="2.1" fill="#ffffff" opacity="0.53"/><circle cx="371.9" cy="950.9" r="0.6" fill="#ffffff" opacity="0.70"/><circle cx="845.8" cy="105.6" r="0.7" fill="#ffffff" opacity="0.82"/><circle cx="444.9" cy="269.0" r="1.5" fill="#ffffff" opacity="0.70"/><circle cx="996.3" cy="921.0" r="1.9" fill="#ffffff" opacity="0.32"/><circle cx="835.5" cy="233.6" r="1.4" fill="#ffffff" opacity="0.96"/><circle cx="146.1" cy="243.2" r="1.2" fill="#ffffff" opacity="0.50"/><circle cx="594.1" cy="124.8" r="1.7" fill="#ffffff" opacity="0.90"/><circle cx="18.4" cy="537.1" r="1.0" fill="#ffffff" opacity="0.91"/><circle cx="831.4" cy="697.1" r="2.0" fill="#ffffff" opacity="0.49"/><circle cx="1044.0" cy="891.6" r="1.7" fill="#ffffff" opacity="0.72"/><circle cx="827.0" cy="323.9" r="1.2" fill="#ffffff" opacity="0.74"/><circle cx="300.5" cy="14.1" r="1.8" fill="#ffffff" opacity="0.35"/><circle cx="621.5" cy="589.3" r="2.2" fill="#ffffff" opacity="0.51"/><circle cx="149.2" cy="1009.4" r="1.3" fill="#ffffff" opacity="0.46"/><circle cx="1046.3" cy="836.7" r="1.2" fill="#ffffff" opacity="0.80"/><circle cx="421.9" cy="157.6" r="0.6" fill="#ffffff" opacity="0.89"/><circle cx="667.5" cy="769.6" r="1.4" fill="#ffffff" opacity="0.82"/><circle cx="586.1" cy="426.1" r="2.0" fill="#ffffff" opacity="0.36"/><circle cx="947.8" cy="913.7" r="0.9" fill="#ffffff" opacity="0.68"/><circle cx="937.7" cy="531.2" r="1.7" fill="#ffffff" opacity="0.50"/><circle cx="1100.6" cy="940.7" r="1.5" fill="#ffffff" opacity="0.77"/><circle cx="721.4" cy="31.2" r="1.1" fill="#ffffff" opacity="0.91"/><circle cx="998.0" cy="786.3" r="1.7" fill="#ffffff" opacity="0.79"/><circle cx="708.6" cy="601.1" r="0.8" fill="#ffffff" opacity="0.41"/><circle cx="1063.2" cy="2.9" r="2.0" fill="#ffffff" opacity="0.42"/><circle cx="1118.0" cy="167.3" r="0.7" fill="#ffffff" opacity="0.42"/><circle cx="160.0" cy="516.1" r="2.1" fill="#ffffff" opacity="0.55"/><circle cx="217.3" cy="523.8" r="1.9" fill="#ffffff" opacity="0.48"/><circle cx="156.2" cy="146.2" r="1.0" fill="#ffffff" opacity="0.85"/><circle cx="505.7" cy="579.6" r="0.9" fill="#ffffff" opacity="0.96"/><circle cx="498.3" cy="911.2" r="1.6" fill="#ffffff" opacity="0.90"/><circle cx="560.5" cy="747.8" r="1.1" fill="#ffffff" opacity="0.41"/><circle cx="1136.2" cy="942.4" r="0.6" fill="#ffffff" opacity="0.40"/><circle cx="445.4" cy="415.2" r="2.4" fill="#ffffff" opacity="0.58"/><circle cx="362.3" cy="717.7" r="0.9" fill="#ffffff" opacity="0.72"/><circle cx="914.9" cy="4.4" r="1.1" fill="#ffffff" opacity="0.47"/><circle cx="1166.2" cy="359.0" r="2.3" fill="#ffffff" opacity="0.64"/><circle cx="384.6" cy="790.0" r="1.0" fill="#ffffff" opacity="0.82"/><circle cx="1165.0" cy="486.2" r="1.0" fill="#ffffff" opacity="0.61"/><circle cx="7.8" cy="559.6" r="1.8" fill="#ffffff" opacity="0.71"/><circle cx="792.0" cy="610.2" r="1.0" fill="#ffffff" opacity="0.39"/><circle cx="1125.7" cy="63.8" r="0.8" fill="#ffffff" opacity="0.77"/><circle cx="282.7" cy="436.6" r="0.9" fill="#ffffff" opacity="0.45"/><circle cx="25.4" cy="12.1" r="1.0" fill="#ffffff" opacity="0.71"/><circle cx="71.3" cy="204.2" r="1.1" fill="#ffffff" opacity="0.34"/><circle cx="935.0" cy="1025.0" r="1.9" fill="#ffffff" opacity="0.56"/><circle cx="625.2" cy="1035.5" r="0.9" fill="#ffffff" opacity="0.47"/><circle cx="110.5" cy="942.9" r="1.2" fill="#ffffff" opacity="0.39"/><circle cx="329.3" cy="272.1" r="0.6" fill="#ffffff" opacity="0.61"/><circle cx="44.7" cy="743.0" r="0.9" fill="#ffffff" opacity="0.75"/><circle cx="945.8" cy="938.2" r="1.1" fill="#ffffff" opacity="0.40"/><circle cx="791.0" cy="97.3" r="2.3" fill="#ffffff" opacity="0.53"/></g><g><path d="M0,-12 L3,-3 L12,0 L3,3 L0,12 L-3,3 L-12,0 L-3,-3 Z" fill="#ffd54a" opacity="0.66" transform="translate(934.6,282.3) scale(0.90)"/><path d="M0,-12 L3,-3 L12,0 L3,3 L0,12 L-3,3 L-12,0 L-3,-3 Z" fill="#ffd54a" opacity="0.46" transform="translate(534.0,864.3) scale(1.09)"/><path d="M0,-12 L3,-3 L12,0 L3,3 L0,12 L-3,3 L-12,0 L-3,-3 Z" fill="#ffd54a" opacity="0.60" transform="translate(502.0,1144.5) scale(1.37)"/><path d="M0,-12 L3,-3 L12,0 L3,3 L0,12 L-3,3 L-12,0 L-3,-3 Z" fill="#fff6c8" opacity="0.51" transform="translate(299.9,403.1) scale(1.07)"/><path d="M0,-12 L3,-3 L12,0 L3,3 L0,12 L-3,3 L-12,0 L-3,-3 Z" fill="#fff6c8" opacity="0.41" transform="translate(278.4,1026.7) scale(1.56)"/><path d="M0,-12 L3,-3 L12,0 L3,3 L0,12 L-3,3 L-12,0 L-3,-3 Z" fill="#ffd54a" opacity="0.56" transform="translate(612.3,794.1) scale(1.16)"/><path d="M0,-12 L3,-3 L12,0 L3,3 L0,12 L-3,3 L-12,0 L-3,-3 Z" fill="#ffd54a" opacity="0.74" transform="translate(151.9,773.6) scale(1.59)"/><path d="M0,-12 L3,-3 L12,0 L3,3 L0,12 L-3,3 L-12,0 L-3,-3 Z" fill="#ffd54a" opacity="0.83" transform="translate(625.0,1082.1) scale(1.30)"/><path d="M0,-12 L3,-3 L12,0 L3,3 L0,12 L-3,3 L-12,0 L-3,-3 Z" fill="#ffd54a" opacity="0.70" transform="translate(192.9,632.3) scale(0.76)"/><path d="M0,-12 L3,-3 L12,0 L3,3 L0,12 L-3,3 L-12,0 L-3,-3 Z" fill="#ffd54a" opacity="0.58" transform="translate(769.9,650.7) scale(0.60)"/><path d="M0,-12 L3,-3 L12,0 L3,3 L0,12 L-3,3 L-12,0 L-3,-3 Z" fill="#ffd54a" opacity="0.87" transform="translate(323.0,305.6) scale(1.19)"/><path d="M0,-12 L3,-3 L12,0 L3,3 L0,12 L-3,3 L-12,0 L-3,-3 Z" fill="#fff6c8" opacity="0.67" transform="translate(897.9,484.4) scale(1.63)"/><path d="M0,-12 L3,-3 L12,0 L3,3 L0,12 L-3,3 L-12,0 L-3,-3 Z" fill="#fff6c8" opacity="0.85" transform="translate(1020.4,953.6) scale(0.89)"/><path d="M0,-12 L3,-3 L12,0 L3,3 L0,12 L-3,3 L-12,0 L-3,-3 Z" fill="#ffd54a" opacity="0.78" transform="translate(462.9,206.9) scale(1.04)"/><path d="M0,-12 L3,-3 L12,0 L3,3 L0,12 L-3,3 L-12,0 L-3,-3 Z" fill="#ffd54a" opacity="0.42" transform="translate(377.2,169.0) scale(1.17)"/><path d="M0,-12 L3,-3 L12,0 L3,3 L0,12 L-3,3 L-12,0 L-3,-3 Z" fill="#ffd54a" opacity="0.82" transform="translate(270.6,287.9) scale(0.75)"/><path d="M0,-12 L3,-3 L12,0 L3,3 L0,12 L-3,3 L-12,0 L-3,-3 Z" fill="#ffd54a" opacity="0.45" transform="translate(466.3,925.6) scale(1.43)"/><path d="M0,-12 L3,-3 L12,0 L3,3 L0,12 L-3,3 L-12,0 L-3,-3 Z" fill="#ffd54a" opacity="0.85" transform="translate(22.5,303.6) scale(1.49)"/><path d="M0,-12 L3,-3 L12,0 L3,3 L0,12 L-3,3 L-12,0 L-3,-3 Z" fill="#fff6c8" opacity="0.82" transform="translate(358.6,855.0) scale(1.61)"/><path d="M0,-12 L3,-3 L12,0 L3,3 L0,12 L-3,3 L-12,0 L-3,-3 Z" fill="#fff6c8" opacity="0.52" transform="translate(206.4,601.6) scale(0.74)"/><path d="M0,-12 L3,-3 L12,0 L3,3 L0,12 L-3,3 L-12,0 L-3,-3 Z" fill="#ffd54a" opacity="0.59" transform="translate(458.8,385.5) scale(1.00)"/><path d="M0,-12 L3,-3 L12,0 L3,3 L0,12 L-3,3 L-12,0 L-3,-3 Z" fill="#ffd54a" opacity="0.91" transform="translate(538.9,1083.5) scale(0.55)"/><path d="M0,-12 L3,-3 L12,0 L3,3 L0,12 L-3,3 L-12,0 L-3,-3 Z" fill="#ffd54a" opacity="0.40" transform="translate(599.5,650.5) scale(1.16)"/><path d="M0,-12 L3,-3 L12,0 L3,3 L0,12 L-3,3 L-12,0 L-3,-3 Z" fill="#ffd54a" opacity="0.73" transform="translate(697.6,112.0) scale(1.08)"/><path d="M0,-12 L3,-3 L12,0 L3,3 L0,12 L-3,3 L-12,0 L-3,-3 Z" fill="#ffd54a" opacity="0.93" transform="translate(842.1,990.5) scale(0.58)"/><path d="M0,-12 L3,-3 L12,0 L3,3 L0,12 L-3,3 L-12,0 L-3,-3 Z" fill="#ffd54a" opacity="0.64" transform="translate(16.7,745.6) scale(0.84)"/><path d="M0,-12 L3,-3 L12,0 L3,3 L0,12 L-3,3 L-12,0 L-3,-3 Z" fill="#ffd54a" opacity="0.79" transform="translate(279.1,1186.3) scale(1.39)"/><path d="M0,-12 L3,-3 L12,0 L3,3 L0,12 L-3,3 L-12,0 L-3,-3 Z" fill="#ffd54a" opacity="0.83" transform="translate(1171.8,37.9) scale(1.07)"/><path d="M0,-12 L3,-3 L12,0 L3,3 L0,12 L-3,3 L-12,0 L-3,-3 Z" fill="#ffd54a" opacity="0.73" transform="translate(292.1,556.0) scale(1.57)"/><path d="M0,-12 L3,-3 L12,0 L3,3 L0,12 L-3,3 L-12,0 L-3,-3 Z" fill="#ffd54a" opacity="0.56" transform="translate(1092.2,1014.3) scale(1.00)"/><path d="M0,-12 L3,-3 L12,0 L3,3 L0,12 L-3,3 L-12,0 L-3,-3 Z" fill="#ffd54a" opacity="0.70" transform="translate(509.3,830.3) scale(0.59)"/><path d="M0,-12 L3,-3 L12,0 L3,3 L0,12 L-3,3 L-12,0 L-3,-3 Z" fill="#fff6c8" opacity="0.60" transform="translate(939.0,840.4) scale(1.33)"/><path d="M0,-12 L3,-3 L12,0 L3,3 L0,12 L-3,3 L-12,0 L-3,-3 Z" fill="#ffd54a" opacity="0.64" transform="translate(257.1,443.0) scale(1.46)"/><path d="M0,-12 L3,-3 L12,0 L3,3 L0,12 L-3,3 L-12,0 L-3,-3 Z" fill="#fff6c8" opacity="0.87" transform="translate(253.5,856.1) scale(1.71)"/><path d="M0,-12 L3,-3 L12,0 L3,3 L0,12 L-3,3 L-12,0 L-3,-3 Z" fill="#ffd54a" opacity="0.62" transform="translate(1021.2,144.5) scale(1.30)"/><path d="M0,-12 L3,-3 L12,0 L3,3 L0,12 L-3,3 L-12,0 L-3,-3 Z" fill="#fff6c8" opacity="0.52" transform="translate(721.5,1089.6) scale(0.80)"/><path d="M0,-12 L3,-3 L12,0 L3,3 L0,12 L-3,3 L-12,0 L-3,-3 Z" fill="#fff6c8" opacity="0.79" transform="translate(401.4,457.9) scale(0.93)"/><path d="M0,-12 L3,-3 L12,0 L3,3 L0,12 L-3,3 L-12,0 L-3,-3 Z" fill="#ffd54a" opacity="0.82" transform="translate(949.0,270.0) scale(0.88)"/><path d="M0,-12 L3,-3 L12,0 L3,3 L0,12 L-3,3 L-12,0 L-3,-3 Z" fill="#ffd54a" opacity="0.64" transform="translate(1022.6,1107.9) scale(1.48)"/><path d="M0,-12 L3,-3 L12,0 L3,3 L0,12 L-3,3 L-12,0 L-3,-3 Z" fill="#ffd54a" opacity="0.81" transform="translate(613.6,1173.1) scale(1.14)"/></g><radialGradient id="vig" cx="0.5" cy="0.42" r="0.75"><stop offset="0.55" stop-color="#000000" stop-opacity="0"/><stop offset="1" stop-color="#000000" stop-opacity="0.6"/></radialGradient><rect width="1200" height="1500" fill="url(#vig)"/><linearGradient id="btm" x1="0" y1="0" x2="0" y2="1"><stop offset="0.65" stop-color="#000" stop-opacity="0"/><stop offset="1" stop-color="#000" stop-opacity="0.5"/></linearGradient><rect width="1200" height="1500" fill="url(#btm)"/></svg>