<svg xmlns="http://www.w3.org/2000/svg" viewBox="0 0 1200 1500" preserveAspectRatio="xMidYMid slice"><defs><filter id="soft" x="-20%" y="-20%" width="140%" height="140%"><feGaussianBlur stdDeviation="14"/></filter><filter id="fog" x="-40%" y="-40%" width="180%" height="180%"><feGaussianBlur stdDeviation="40"/></filter></defs><linearGradient id="sky" x1="0" y1="0" x2="0" y2="1"><stop offset="0" stop-color="#0b1030"/><stop offset="0.55" stop-color="#141e46"/><stop offset="1" stop-color="#24325f"/></linearGradient><rect width="1200" height="1500" fill="url(#sky)"/><radialGradient id="g920300" cx="0.5" cy="0.5" r="0.5"><stop offset="0" stop-color="#f4f6ff" stop-opacity="0.5"/><stop offset="1" stop-color="#f4f6ff" stop-opacity="0"/></radialGradient><circle cx="920.0" cy="300.0" r="240.0" fill="url(#g920300)"/><circle cx="920.0" cy="300.0" r="80.0" fill="#f4f6ff"/><circle cx="903.1" cy="266.5" r="12.6" fill="#d7dcf0" opacity="0.6"/><circle cx="879.0" cy="303.4" r="9.9" fill="#d7dcf0" opacity="0.6"/><circle cx="877.6" cy="300.7" r="6.8" fill="#d7dcf0" opacity="0.6"/><circle cx="913.6" cy="258.7" r="7.3" fill="#d7dcf0" opacity="0.6"/><circle cx="912.8" cy="331.4" r="7.6" fill="#d7dcf0" opacity="0.6"/><g><circle cx="593.4" cy="584.5" r="2.1" fill="#ffffff" opacity="0.52"/><circle cx="385.2" cy="727.8" r="1.5" fill="#ffffff" opacity="0.55"/><circle cx="486.6" cy="346.3" r="0.9" fill="#ffffff" opacity="0.74"/><circle cx="1072.5" cy="723.3" r="1.7" fill="#ffffff" opacity="0.54"/><circle cx="520.2" cy="151.4" r="1.9" fill="#ffffff" opacity="0.51"/><circle cx="350.1" cy="1029.8" r="1.2" fill="#ffffff" opacity="0.99"/><circle cx="741.5" cy="799.2" r="1.7" fill="#ffffff" opacity="0.43"/><circle cx="855.5" cy="271.7" r="1.3" fill="#ffffff" opacity="0.39"/><circle cx="70.1" cy="385.9" r="0.6" fill="#ffffff" opacity="0.57"/><circle cx="1020.2" cy="1048.4" r="1.4" fill="#ffffff" opacity="0.38"/><circle cx="415.4" cy="67.0" r="1.0" fill="#ffffff" opacity="0.73"/><circle cx="740.2" cy="32.9" r="1.5" fill="#ffffff" opacity="0.60"/><circle cx="477.4" cy="141.7" r="1.3" fill="#ffffff" opacity="0.37"/><circle cx="823.4" cy="681.9" r="1.7" fill="#ffffff" opacity="0.59"/><circle cx="1148.2" cy="387.2" r="1.0" fill="#ffffff" opacity="0.56"/><circle cx="1095.3" cy="165.7" r="2.0" fill="#ffffff" opacity="0.96"/><circle cx="1022.3" cy="488.9" r="1.4" fill="#ffffff" opacity="0.91"/><circle cx="852.4" cy="847.2" r="0.9" fill="#ffffff" opacity="0.73"/><circle cx="885.9" cy="250.1" r="1.0" fill="#ffffff" opacity="0.89"/><circle cx="681.8" cy="430.3" r="1.5" fill="#ffffff" opacity="0.48"/><circle cx="297.5" cy="111.9" r="1.3" fill="#ffffff" opacity="0.40"/><circle cx="1076.2" cy="1003.7" r="1.7" fill="#ffffff" opacity="0.36"/><circle cx="718.3" cy="163.2" r="1.3" fill="#ffffff" opacity="0.39"/><circle cx="596.9" cy="79.0" r="1.1" fill="#ffffff" opacity="0.46"/><circle cx="559.4" cy="977.0" r="1.6" fill="#ffffff" opacity="0.85"/><circle cx="870.4" cy="557.6" r="0.7" fill="#ffffff" opacity="0.34"/><circle cx="161.4" cy="542.1" r="1.2" fill="#ffffff" opacity="0.95"/><circle cx="239.5" cy="138.2" r="1.8" fill="#ffffff" opacity="0.72"/><circle cx="63.7" cy="361.4" r="1.4" fill="#ffffff" opacity="0.88"/><circle cx="934.9" cy="917.2" r="1.6" fill="#ffffff" opacity="0.96"/><circle cx="564.4" cy="303.5" r="0.9" fill="#ffffff" opacity="0.88"/><circle cx="780.3" cy="647.4" r="2.4" fill="#ffffff" opacity="0.74"/><circle cx="372.2" cy="729.7" r="2.3" fill="#ffffff" opacity="0.42"/><circle cx="1132.3" cy="437.0" r="0.8" fill="#ffffff" opacity="0.66"/><circle cx="937.1" cy="515.9" r="1.1" fill="#ffffff" opacity="0.84"/><circle cx="122.2" cy="704.8" r="1.3" fill="#ffffff" opacity="0.73"/><circle cx="608.2" cy="294.2" r="1.0" fill="#ffffff" opacity="0.87"/><circle cx="548.2" cy="298.0" r="1.7" fill="#ffffff" opacity="0.84"/><circle cx="106.7" cy="481.2" r="0.9" fill="#ffffff" opacity="0.84"/><circle cx="54.5" cy="874.2" r="1.6" fill="#ffffff" opacity="0.66"/><circle cx="644.6" cy="292.5" r="1.4" fill="#ffffff" opacity="0.42"/><circle cx="427.9" cy="625.6" r="1.7" fill="#ffffff" opacity="0.53"/><circle cx="739.3" cy="824.0" r="2.0" fill="#ffffff" opacity="0.30"/><circle cx="600.7" cy="179.1" r="2.1" fill="#ffffff" opacity="0.71"/><circle cx="529.8" cy="640.2" r="1.5" fill="#ffffff" opacity="0.45"/><circle cx="1096.9" cy="59.2" r="0.7" fill="#ffffff" opacity="0.51"/><circle cx="170.5" cy="392.2" r="1.7" fill="#ffffff" opacity="0.57"/><circle cx="1163.7" cy="343.0" r="2.3" fill="#ffffff" opacity="0.99"/><circle cx="657.9" cy="846.5" r="0.7" fill="#ffffff" opacity="0.95"/><circle cx="530.0" cy="354.5" r="2.3" fill="#ffffff" opacity="0.58"/><circle cx="106.6" cy="28.8" r="2.0" fill="#ffffff" opacity="0.43"/><circle cx="763.1" cy="91.2" r="2.1" fill="#ffffff" opacity="0.98"/><circle cx="441.7" cy="835.3" r="2.2" fill="#ffffff" opacity="0.46"/><circle cx="568.6" cy="1047.9" r="2.3" fill="#ffffff" opacity="0.69"/><circle cx="658.5" cy="21.9" r="2.1" fill="#ffffff" opacity="0.96"/><circle cx="677.1" cy="243.4" r="0.8" fill="#ffffff" opacity="0.74"/><circle cx="833.2" cy="627.7" r="2.1" fill="#ffffff" opacity="0.32"/><circle cx="7.7" cy="107.6" r="1.2" fill="#ffffff" opacity="0.33"/><circle cx="289.8" cy="217.8" r="2.1" fill="#ffffff" opacity="0.67"/><circle cx="239.8" cy="532.1" r="0.9" fill="#ffffff" opacity="0.99"/><circle cx="108.9" cy="250.5" r="1.6" fill="#ffffff" opacity="0.93"/><circle cx="786.8" cy="143.2" r="1.7" fill="#ffffff" opacity="0.82"/><circle cx="1119.3" cy="669.7" r="1.1" fill="#ffffff" opacity="0.88"/><circle cx="838.9" cy="936.5" r="1.0" fill="#ffffff" opacity="0.89"/><circle cx="576.2" cy="232.5" r="1.1" fill="#ffffff" opacity="0.37"/><circle cx="1076.4" cy="149.9" r="1.7" fill="#ffffff" opacity="0.48"/><circle cx="300.0" cy="370.0" r="2.1" fill="#ffffff" opacity="0.35"/><circle cx="468.3" cy="344.0" r="1.5" fill="#ffffff" opacity="0.74"/><circle cx="1038.4" cy="667.3" r="2.1" fill="#ffffff" opacity="0.92"/><circle cx="976.1" cy="26.7" r="0.7" fill="#ffffff" opacity="0.67"/><circle cx="236.1" cy="380.7" r="1.6" fill="#ffffff" opacity="0.67"/><circle cx="919.8" cy="811.1" r="1.0" fill="#ffffff" opacity="0.70"/><circle cx="567.2" cy="466.6" r="1.9" fill="#ffffff" opacity="0.80"/><circle cx="848.7" cy="403.1" r="0.8" fill="#ffffff" opacity="0.71"/><circle cx="304.6" cy="325.8" r="0.8" fill="#ffffff" opacity="0.35"/><circle cx="532.7" cy="1009.1" r="1.7" fill="#ffffff" opacity="0.48"/><circle cx="1141.3" cy="205.5" r="1.8" fill="#ffffff" opacity="0.35"/><circle cx="1148.1" cy="956.6" r="2.1" fill="#ffffff" opacity="0.57"/><circle cx="542.8" cy="521.4" r="2.3" fill="#ffffff" opacity="0.71"/><circle cx="297.3" cy="952.0" r="1.4" fill="#ffffff" opacity="0.81"/><circle cx="1131.1" cy="811.8" r="0.8" fill="#ffffff" opacity="0.87"/><circle cx="541.8" cy="1047.1" r="1.3" fill="#ffffff" opacity="0.42"/><circle cx="141.2" cy="1047.0" r="1.4" fill="#ffffff" opacity="0.31"/><circle cx="601.7" cy="1006.9" r="1.0" fill="#ffffff" opacity="0.95"/><circle cx="1196.0" cy="214.5" r="1.0" fill="#ffffff" opacity="0.40"/><circle cx="119.3" cy="0.6" r="1.0" fill="#ffffff" opacity="0.86"/><circle cx="521.0" cy="432.3" r="1.7" fill="#ffffff" opacity="0.40"/><circle cx="932.4" cy="263.2" r="1.5" fill="#ffffff" opacity="0.45"/><circle cx="310.4" cy="155.7" r="1.3" fill="#ffffff" opacity="0.60"/><circle cx="117.9" cy="874.0" r="1.2" fill="#ffffff" opacity="0.77"/><circle cx="228.1" cy="44.5" r="2.4" fill="#ffffff" opacity="0.47"/><circle cx="14.1" cy="975.0" r="1.4" fill="#ffffff" opacity="0.30"/><circle cx="768.0" cy="354.9" r="2.3" fill="#ffffff" opacity="0.87"/><circle cx="794.1" cy="736.6" r="1.2" fill="#ffffff" opacity="0.94"/><circle cx="1119.2" cy="258.5" r="0.7" fill="#ffffff" opacity="0.34"/><circle cx="631.6" cy="649.5" r="2.1" fill="#ffffff" opacity="0.93"/><circle cx="460.0" cy="465.9" r="1.3" fill="#ffffff" opacity="0.93"/><circle cx="261.8" cy="135.5" r="1.0" fill="#ffffff" opacity="0.95"/><circle cx="204.1" cy="1044.6" r="1.0" fill="#ffffff" opacity="0.56"/><circle cx="216.9" cy="1022.4" r="0.7" fill="#ffffff" opacity="0.41"/><circle cx="830.5" cy="509.4" r="1.3" fill="#ffffff" opacity="0.62"/><circle cx="1072.1" cy="156.9" r="1.6" fill="#ffffff" opacity="0.45"/><circle cx="596.5" cy="405.5" r="1.3" fill="#ffffff" opacity="0.52"/><circle cx="15.1" cy="209.7" r="1.9" fill="#ffffff" opacity="0.57"/><circle cx="148.8" cy="112.4" r="1.9" fill="#ffffff" opacity="0.43"/><circle cx="1129.7" cy="549.4" r="0.7" fill="#ffffff" opacity="0.52"/><circle cx="746.3" cy="1036.3" r="2.3" fill="#ffffff" opacity="0.46"/><circle cx="733.5" cy="603.2" r="2.2" fill="#ffffff" opacity="0.42"/><circle cx="619.7" cy="608.0" r="1.5" fill="#ffffff" opacity="0.63"/><circle cx="22.5" cy="182.9" r="2.3" fill="#ffffff" opacity="0.51"/><circle cx="1156.6" cy="11.9" r="0.6" fill="#ffffff" opacity="0.90"/><circle cx="354.2" cy="896.3" r="0.6" fill="#ffffff" opacity="0.73"/><circle cx="1000.8" cy="282.4" r="2.1" fill="#ffffff" opacity="0.81"/><circle cx="1000.7" cy="391.8" r="0.9" fill="#ffffff" opacity="0.57"/><circle cx="385.7" cy="251.9" r="2.2" fill="#ffffff" opacity="0.42"/><circle cx="758.9" cy="489.1" r="1.4" fill="#ffffff" opacity="0.65"/><circle cx="593.8" cy="994.6" r="1.8" fill="#ffffff" opacity="0.86"/><circle cx="298.5" cy="535.8" r="1.9" fill="#ffffff" opacity="0.78"/><circle cx="976.5" cy="35.3" r="0.8" fill="#ffffff" opacity="0.87"/><circle cx="471.6" cy="231.6" r="1.4" fill="#ffffff" opacity="0.42"/><circle cx="884.6" cy="434.8" r="2.1" fill="#ffffff" opacity="0.63"/><circle cx="1193.4" cy="37.5" r="2.1" fill="#ffffff" opacity="0.37"/><circle cx="588.5" cy="247.7" r="1.3" fill="#ffffff" opacity="0.92"/><circle cx="272.3" cy="420.0" r="1.6" fill="#ffffff" opacity="0.37"/><circle cx="622.9" cy="323.4" r="2.4" fill="#ffffff" opacity="0.94"/><circle cx="622.2" cy="979.1" r="0.8" fill="#ffffff" opacity="0.31"/><circle cx="490.3" cy="942.3" r="2.2" fill="#ffffff" opacity="0.99"/><circle cx="972.2" cy="419.3" r="2.0" fill="#ffffff" opacity="0.83"/><circle cx="591.7" cy="859.4" r="1.9" fill="#ffffff" opacity="0.43"/><circle cx="67.9" cy="236.5" r="2.0" fill="#ffffff" opacity="0.59"/><circle cx="379.6" cy="779.4" r="0.9" fill="#ffffff" opacity="0.47"/><circle cx="156.3" cy="951.6" r="1.0" fill="#ffffff" opacity="0.57"/><circle cx="664.8" cy="193.3" r="2.2" fill="#ffffff" opacity="0.86"/><circle cx="123.1" cy="169.0" r="2.1" fill="#ffffff" opacity="0.45"/><circle cx="457.5" cy="886.9" r="1.1" fill="#ffffff" opacity="0.68"/><circle cx="508.5" cy="754.0" r="1.9" fill="#ffffff" opacity="0.86"/><circle cx="264.4" cy="655.2" r="0.9" fill="#ffffff" opacity="0.98"/><circle cx="339.2" cy="573.7" r="1.0" fill="#ffffff" opacity="0.69"/><circle cx="362.2" cy="56.8" r="0.6" fill="#ffffff" opacity="0.80"/><circle cx="281.3" cy="148.9" r="1.9" fill="#ffffff" opacity="0.87"/><circle cx="310.7" cy="590.7" r="2.2" fill="#ffffff" opacity="0.90"/><circle cx="560.6" cy="725.3" r="1.7" fill="#ffffff" opacity="0.84"/><circle cx="1126.4" cy="222.7" r="1.3" fill="#ffffff" opacity="0.96"/><circle cx="325.9" cy="306.0" r="2.1" fill="#ffffff" opacity="0.52"/><circle cx="709.8" cy="76.7" r="2.4" fill="#ffffff" opacity="0.72"/><circle cx="87.8" cy="151.3" r="0.8" fill="#ffffff" opacity="0.68"/><circle cx="845.8" cy="612.1" r="2.0" fill="#ffffff" opacity="0.90"/><circle cx="610.0" cy="539.8" r="1.8" fill="#ffffff" opacity="0.79"/><circle cx="1052.8" cy="655.4" r="1.3" fill="#ffffff" opacity="0.75"/><circle cx="960.7" cy="626.6" r="1.2" fill="#ffffff" opacity="0.66"/><circle cx="641.2" cy="205.6" r="2.2" fill="#ffffff" opacity="0.34"/><circle cx="1044.8" cy="254.2" r="1.2" fill="#ffffff" opacity="0.93"/><circle cx="518.4" cy="625.7" r="0.7" fill="#ffffff" opacity="0.63"/><circle cx="685.7" cy="563.0" r="1.2" fill="#ffffff" opacity="0.33"/><circle cx="68.7" cy="134.9" r="2.0" fill="#ffffff" opacity="0.58"/><circle cx="1086.3" cy="785.7" r="1.5" fill="#ffffff" opacity="0.75"/><circle cx="871.4" cy="910.5" r="0.7" fill="#ffffff" opacity="0.61"/><circle cx="117.3" cy="776.6" r="1.5" fill="#ffffff" opacity="0.87"/><circle cx="122.9" cy="891.9" r="0.8" fill="#ffffff" opacity="0.35"/><circle cx="326.5" cy="325.8" r="0.8" fill="#ffffff" opacity="0.89"/><circle cx="1161.8" cy="677.4" r="1.5" fill="#ffffff" opacity="0.58"/><circle cx="338.6" cy="487.5" r="1.5" fill="#ffffff" opacity="0.82"/><circle cx="443.6" cy="403.1" r="2.1" fill="#ffffff" opacity="0.79"/><circle cx="96.4" cy="501.9" r="1.2" fill="#ffffff" opacity="0.48"/><circle cx="644.7" cy="243.1" r="1.6" fill="#ffffff" opacity="0.42"/><circle cx="326.5" cy="202.8" r="1.8" fill="#ffffff" opacity="0.45"/><circle cx="1005.7" cy="245.0" r="0.8" fill="#ffffff" opacity="0.36"/><circle cx="1001.4" cy="591.2" r="1.4" fill="#ffffff" opacity="0.37"/><circle cx="832.3" cy="214.0" r="2.2" fill="#ffffff" opacity="0.79"/><circle cx="722.9" cy="373.4" r="2.1" fill="#ffffff" opacity="0.67"/><circle cx="379.4" cy="660.9" r="1.9" fill="#ffffff" opacity="0.90"/><circle cx="794.5" cy="728.8" r="0.9" fill="#ffffff" opacity="0.90"/><circle cx="665.6" cy="263.4" r="2.2" fill="#ffffff" opacity="0.41"/><circle cx="684.2" cy="1006.7" r="2.3" fill="#ffffff" opacity="0.62"/><circle cx="1107.5" cy="959.2" r="1.3" fill="#ffffff" opacity="0.39"/><circle cx="110.5" cy="956.8" r="0.6" fill="#ffffff" opacity="0.64"/><circle cx="474.0" cy="160.0" r="1.1" fill="#ffffff" opacity="0.34"/><circle cx="331.9" cy="664.9" r="1.0" fill="#ffffff" opacity="0.61"/><circle cx="184.2" cy="760.5" r="1.6" fill="#ffffff" opacity="0.85"/><circle cx="383.6" cy="128.0" r="2.3" fill="#ffffff" opacity="0.38"/><circle cx="668.8" cy="772.6" r="1.7" fill="#ffffff" opacity="0.31"/><circle cx="1170.0" cy="928.2" r="0.9" fill="#ffffff" opacity="0.63"/><circle cx="931.2" cy="113.0" r="1.1" fill="#ffffff" opacity="0.93"/><circle cx="585.5" cy="843.3" r="1.7" fill="#ffffff" opacity="0.78"/><circle cx="310.4" cy="737.2" r="0.6" fill="#ffffff" opacity="0.49"/><circle cx="1139.9" cy="889.0" r="0.8" fill="#ffffff" opacity="0.76"/><circle cx="1178.5" cy="888.9" r="2.2" fill="#ffffff" opacity="0.41"/><circle cx="925.5" cy="656.3" r="0.7" fill="#ffffff" opacity="0.48"/><circle cx="1062.5" cy="152.3" r="1.6" fill="#ffffff" opacity="0.48"/><circle cx="1179.6" cy="783.2" r="1.5" fill="#ffffff" opacity="0.55"/><circle cx="996.6" cy="983.1" r="2.1" fill="#ffffff" opacity="0.81"/><circle cx="579.6" cy="589.1" r="1.1" fill="#ffffff" opacity="0.46"/><circle cx="555.3" cy="614.5" r="0.7" fill="#ffffff" opacity="0.61"/><circle cx="478.1" cy="968.3" r="1.1" fill="#ffffff" opacity="0.81"/><circle cx="1038.1" cy="939.4" r="1.7" fill="#ffffff" opacity="0.98"/><circle cx="1188.0" cy="94.3" r="1.1" fill="#ffffff" opacity="0.83"/><circle cx="717.1" cy="402.6" r="1.2" fill="#ffffff" opacity="0.91"/><circle cx="123.6" cy="1048.9" r="0.8" fill="#ffffff" opacity="0.68"/><circle cx="696.6" cy="1049.0" r="1.4" fill="#ffffff" opacity="0.73"/><circle cx="291.4" cy="564.1" r="0.9" fill="#ffffff" opacity="0.35"/></g><path d="M -40,1500 L -40,1150.0 L 0,1150.0 Q 100.0,1038.6 200.0,1173.5 Q 300.0,1033.5 400.0,1168.9 Q 500.0,1094.2 600.0,1121.4 Q 700.0,1107.3 800.0,1149.4 Q 900.0,1130.6 1000.0,1116.8 Q 1100.0,1031.8 1200.0,1173.6 L 1240,1500 Z" fill="#0a0f24" opacity="1"/><g fill="#060a18"><path d="M56.7,1420.0 L19.4,1420.0 L56.7,1337.8 L30.6,1345.3 L56.7,1270.6 L82.9,1345.3 L94.1,1420.0 Z"/><path d="M204.6,1420.0 L162.5,1420.0 L204.6,1327.4 L175.1,1335.8 L204.6,1251.6 L234.0,1335.8 L246.7,1420.0 Z"/><path d="M275.2,1420.0 L226.5,1420.0 L275.2,1312.8 L241.1,1322.5 L275.2,1225.0 L309.3,1322.5 L324.0,1420.0 Z"/><path d="M394.5,1420.0 L359.5,1420.0 L394.5,1342.9 L370.0,1349.9 L394.5,1279.7 L419.1,1349.9 L429.6,1420.0 Z"/><path d="M514.4,1420.0 L468.7,1420.0 L514.4,1319.4 L482.4,1328.6 L514.4,1237.2 L546.4,1328.6 L560.1,1420.0 Z"/><path d="M680.6,1420.0 L635.3,1420.0 L680.6,1320.4 L648.9,1329.4 L680.6,1238.9 L712.2,1329.4 L725.8,1420.0 Z"/><path d="M763.3,1420.0 L712.2,1420.0 L763.3,1307.5 L727.6,1317.7 L763.3,1215.5 L799.1,1317.7 L814.5,1420.0 Z"/><path d="M922.3,1420.0 L884.1,1420.0 L922.3,1336.0 L895.5,1343.6 L922.3,1267.2 L949.0,1343.6 L960.5,1420.0 Z"/><path d="M1006.4,1420.0 L959.6,1420.0 L1006.4,1316.9 L973.6,1326.3 L1006.4,1232.6 L1039.2,1326.3 L1053.3,1420.0 Z"/><path d="M1168.4,1420.0 L1115.5,1420.0 L1168.4,1303.8 L1131.4,1314.4 L1168.4,1208.7 L1205.3,1314.4 L1221.2,1420.0 Z"/></g><g><radialGradient id="g5711008" cx="0.5" cy="0.5" r="0.5"><stop offset="0" stop-color="#c6ff8a" stop-opacity="0.5"/><stop offset="1" stop-color="#c6ff8a" stop-opacity="0"/></radialGradient><circle cx="571.4" cy="1008.3" r="23.0" fill="url(#g5711008)"/><circle cx="571.4" cy="1008.3" r="3.8" fill="#eaffb0"/><radialGradient id="g201255" cx="0.5" cy="0.5" r="0.5"><stop offset="0" stop-color="#c6ff8a" stop-opacity="0.5"/><stop offset="1" stop-color="#c6ff8a" stop-opacity="0"/></radialGradient><circle cx="20.2" cy="1255.9" r="21.6" fill="url(#g201255)"/><circle cx="20.2" cy="1255.9" r="3.6" fill="#eaffb0"/><radialGradient id="g9631351" cx="0.5" cy="0.5" r="0.5"><stop offset="0" stop-color="#c6ff8a" stop-opacity="0.5"/><stop offset="1" stop-color="#c6ff8a" stop-opacity="0"/></radialGradient><circle cx="963.7" cy="1351.0" r="19.8" fill="url(#g9631351)"/><circle cx="963.7" cy="1351.0" r="3.3" fill="#eaffb0"/><radialGradient id="g1761038" cx="0.5" cy="0.5" r="0.5"><stop offset="0" stop-color="#c6ff8a" stop-opacity="0.5"/><stop offset="1" stop-color="#c6ff8a" stop-opacity="0"/></radialGradient><circle cx="176.9" cy="1038.0" r="20.7" fill="url(#g1761038)"/><circle cx="176.9" cy="1038.0" r="3.4" fill="#eaffb0"/><radialGradient id="g100679" cx="0.5" cy="0.5" r="0.5"><stop offset="0" stop-color="#c6ff8a" stop-opacity="0.5"/><stop offset="1" stop-color="#c6ff8a" stop-opacity="0"/></radialGradient><circle cx="100.4" cy="679.4" r="12.8" fill="url(#g100679)"/><circle cx="100.4" cy="679.4" r="2.1" fill="#eaffb0"/><radialGradient id="g1261160" cx="0.5" cy="0.5" r="0.5"><stop offset="0" stop-color="#c6ff8a" stop-opacity="0.5"/><stop offset="1" stop-color="#c6ff8a" stop-opacity="0"/></radialGradient><circle cx="126.5" cy="1160.8" r="14.6" fill="url(#g1261160)"/><circle cx="126.5" cy="1160.8" r="2.4" fill="#eaffb0"/><radialGradient id="g2361309" cx="0.5" cy="0.5" r="0.5"><stop offset="0" stop-color="#c6ff8a" stop-opacity="0.5"/><stop offset="1" stop-color="#c6ff8a" stop-opacity="0"/></radialGradient><circle cx="236.1" cy="1310.0" r="16.8" fill="url(#g2361309)"/><circle cx="236.1" cy="1310.0" r="2.8" fill="#eaffb0"/><radialGradient id="g2561128" cx="0.5" cy="0.5" r="0.5"><stop offset="0" stop-color="#c6ff8a" stop-opacity="0.5"/><stop offset="1" stop-color="#c6ff8a" stop-opacity="0"/></radialGradient><circle cx="256.5" cy="1128.5" r="16.3" fill="url(#g2561128)"/><circle cx="256.5" cy="1128.5" r="2.7" fill="#eaffb0"/><radialGradient id="g3681076" cx="0.5" cy="0.5" r="0.5"><stop offset="0" stop-color="#c6ff8a" stop-opacity="0.5"/><stop offset="1" stop-color="#c6ff8a" stop-opacity="0"/></radialGradient><circle cx="368.4" cy="1076.5" r="14.1" fill="url(#g3681076)"/><circle cx="368.4" cy="1076.5" r="2.4" fill="#eaffb0"/><radialGradient id="g1851" cx="0.5" cy="0.5" r="0.5"><stop offset="0" stop-color="#c6ff8a" stop-opacity="0.5"/><stop offset="1" stop-color="#c6ff8a" stop-opacity="0"/></radialGradient><circle cx="2.0" cy="851.1" r="12.7" fill="url(#g1851)"/><circle cx="2.0" cy="851.1" r="2.1" fill="#eaffb0"/><radialGradient id="g3361359" cx="0.5" cy="0.5" r="0.5"><stop offset="0" stop-color="#c6ff8a" stop-opacity="0.5"/><stop offset="1" stop-color="#c6ff8a" stop-opacity="0"/></radialGradient><circle cx="336.9" cy="1359.3" r="12.4" fill="url(#g3361359)"/><circle cx="336.9" cy="1359.3" r="2.1" fill="#eaffb0"/><radialGradient id="g9671382" cx="0.5" cy="0.5" r="0.5"><stop offset="0" stop-color="#c6ff8a" stop-opacity="0.5"/><stop offset="1" stop-color="#c6ff8a" stop-opacity="0"/></radialGradient><circle cx="967.6" cy="1382.1" r="22.6" fill="url(#g9671382)"/><circle cx="967.6" cy="1382.1" r="3.8" fill="#eaffb0"/></g><radialGradient id="vig" cx="0.5" cy="0.42" r="0.75"><stop offset="0.55" stop-color="#000000" stop-opacity="0"/><stop offset="1" stop-color="#000000" stop-opacity="0.6"/></radialGradient><rect width="1200" height="1500" fill="url(#vig)"/><linearGradient id="btm" x1="0" y1="0" x2="0" y2="1"><stop offset="0.65" stop-color="#000" stop-opacity="0"/><stop offset="1" stop-color="#000" stop-opacity="0.5"/></linearGradient><rect width="1200" height="1500" fill="url(#btm)"/></svg>