<svg xmlns="http://www.w3.org/2000/svg" viewBox="0 0 1200 1500" preserveAspectRatio="xMidYMid slice"><defs><filter id="soft" x="-20%" y="-20%" width="140%" height="140%"><feGaussianBlur stdDeviation="14"/></filter><filter id="fog" x="-40%" y="-40%" width="180%" height="180%"><feGaussianBlur stdDeviation="40"/></filter></defs><linearGradient id="sky" x1="0" y1="0" x2="0" y2="1"><stop offset="0" stop-color="#3a1a4a"/><stop offset="0.55" stop-color="#c94b6a"/><stop offset="1" stop-color="#ff9e5c"/></linearGradient><rect width="1200" height="1500" fill="url(#sky)"/><g opacity="0.16"><path d="M600.0,720.0 L2200.0,720.0 L2188.5,911.5 Z" fill="#ffd27a"/><path d="M600.0,720.0 L2041.6,1414.2 L1948.1,1581.8 Z" fill="#ffd27a"/><path d="M600.0,720.0 L1597.6,1970.9 L1440.7,2081.4 Z" fill="#ffd27a"/><path d="M600.0,720.0 L956.0,2279.9 L766.7,2311.3 Z" fill="#ffd27a"/><path d="M600.0,720.0 L244.0,2279.9 L59.8,2226.0 Z" fill="#ffd27a"/><path d="M600.0,720.0 L-397.6,1970.9 L-540.2,1842.5 Z" fill="#ffd27a"/><path d="M600.0,720.0 L-841.6,1414.2 L-914.3,1236.7 Z" fill="#ffd27a"/><path d="M600.0,720.0 L-1000.0,720.0 L-988.5,528.5 Z" fill="#ffd27a"/><path d="M600.0,720.0 L-841.6,25.8 L-748.1,-141.8 Z" fill="#ffd27a"/><path d="M600.0,720.0 L-397.6,-530.9 L-240.7,-641.4 Z" fill="#ffd27a"/><path d="M600.0,720.0 L244.0,-839.9 L433.3,-871.3 Z" fill="#ffd27a"/><path d="M600.0,720.0 L956.0,-839.9 L1140.2,-786.0 Z" fill="#ffd27a"/><path d="M600.0,720.0 L1597.6,-530.9 L1740.2,-402.5 Z" fill="#ffd27a"/><path d="M600.0,720.0 L2041.6,25.8 L2114.3,203.3 Z" fill="#ffd27a"/></g><radialGradient id="g600740" cx="0.5" cy="0.5" r="0.5"><stop offset="0" stop-color="#ff7e5f" stop-opacity="0.65"/><stop offset="1" stop-color="#ff7e5f" stop-opacity="0"/></radialGradient><circle cx="600.0" cy="740.0" r="480.0" fill="url(#g600740)"/><circle cx="600.0" cy="740.0" r="150.0" fill="#ffe08a"/><linearGradient id="wtr" x1="0" y1="0" x2="0" y2="1"><stop offset="0" stop-color="#a83a5b"/><stop offset="1" stop-color="#3a1030"/></linearGradient><rect x="0" y="880.0" width="1200" height="620" fill="url(#wtr)"/><g opacity="0.35"><rect x="480.0" y="900.0" width="240.0" height="6" rx="3" fill="#ffcf87"/><rect x="489.6" y="926.0" width="220.8" height="6" rx="3" fill="#ffcf87"/><rect x="498.4" y="952.0" width="203.1" height="6" rx="3" fill="#ffcf87"/><rect x="506.6" y="978.0" width="186.9" height="6" rx="3" fill="#ffcf87"/><rect x="514.0" y="1004.0" width="171.9" height="6" rx="3" fill="#ffcf87"/><rect x="520.9" y="1030.0" width="158.2" height="6" rx="3" fill="#ffcf87"/><rect x="527.2" y="1056.0" width="145.5" height="6" rx="3" fill="#ffcf87"/><rect x="533.1" y="1082.0" width="133.9" height="6" rx="3" fill="#ffcf87"/><rect x="538.4" y="1108.0" width="123.2" height="6" rx="3" fill="#ffcf87"/><rect x="543.3" y="1134.0" width="113.3" height="6" rx="3" fill="#ffcf87"/><rect x="547.9" y="1160.0" width="104.3" height="6" rx="3" fill="#ffcf87"/><rect x="552.0" y="1186.0" width="95.9" height="6" rx="3" fill="#ffcf87"/><rect x="555.9" y="1212.0" width="88.2" height="6" rx="3" fill="#ffcf87"/><rect x="559.4" y="1238.0" width="81.2" height="6" rx="3" fill="#ffcf87"/><rect x="562.7" y="1264.0" width="74.7" height="6" rx="3" fill="#ffcf87"/><rect x="565.6" y="1290.0" width="68.7" height="6" rx="3" fill="#ffcf87"/><rect x="568.4" y="1316.0" width="63.2" height="6" rx="3" fill="#ffcf87"/><rect x="570.9" y="1342.0" width="58.2" height="6" rx="3" fill="#ffcf87"/><rect x="573.2" y="1368.0" width="53.5" height="6" rx="3" fill="#ffcf87"/><rect x="575.4" y="1394.0" width="49.2" height="6" rx="3" fill="#ffcf87"/><rect x="577.4" y="1420.0" width="45.3" height="6" rx="3" fill="#ffcf87"/><rect x="579.2" y="1446.0" width="41.7" height="6" rx="3" fill="#ffcf87"/><rect x="580.8" y="1472.0" width="38.3" height="6" rx="3" fill="#ffcf87"/><rect x="582.4" y="1498.0" width="35.3" height="6" rx="3" fill="#ffcf87"/></g><path d="M -40,1500 L -40,900.0 L 0,900.0 Q 100.0,877.1 200.0,909.7 Q 300.0,890.0 400.0,885.1 Q 500.0,865.3 600.0,893.2 Q 700.0,866.8 800.0,904.2 Q 900.0,856.1 1000.0,897.2 Q 1100.0,853.1 1200.0,894.2 L 1240,1500 Z" fill="#2a0d24" opacity="1"/><g><path d="M0,-12 L3,-3 L12,0 L3,3 L0,12 L-3,3 L-12,0 L-3,-3 Z" fill="#ffe9c7" opacity="0.48" transform="translate(767.3,30.0) scale(0.86)"/><path d="M0,-12 L3,-3 L12,0 L3,3 L0,12 L-3,3 L-12,0 L-3,-3 Z" fill="#ffd54a" opacity="0.63" transform="translate(123.0,888.8) scale(1.21)"/><path d="M0,-12 L3,-3 L12,0 L3,3 L0,12 L-3,3 L-12,0 L-3,-3 Z" fill="#ffe9c7" opacity="0.71" transform="translate(35.8,262.4) scale(1.16)"/><path d="M0,-12 L3,-3 L12,0 L3,3 L0,12 L-3,3 L-12,0 L-3,-3 Z" fill="#fff6c8" opacity="0.72" transform="translate(859.2,841.6) scale(1.05)"/><path d="M0,-12 L3,-3 L12,0 L3,3 L0,12 L-3,3 L-12,0 L-3,-3 Z" fill="#ffd54a" opacity="0.63" transform="translate(971.3,7.8) scale(1.55)"/><path d="M0,-12 L3,-3 L12,0 L3,3 L0,12 L-3,3 L-12,0 L-3,-3 Z" fill="#ffe9c7" opacity="0.45" transform="translate(333.4,258.4) scale(1.49)"/><path d="M0,-12 L3,-3 L12,0 L3,3 L0,12 L-3,3 L-12,0 L-3,-3 Z" fill="#ffe9c7" opacity="0.80" transform="translate(116.1,1017.0) scale(1.28)"/><path d="M0,-12 L3,-3 L12,0 L3,3 L0,12 L-3,3 L-12,0 L-3,-3 Z" fill="#ffd54a" opacity="0.56" transform="translate(643.5,1167.7) scale(0.99)"/><path d="M0,-12 L3,-3 L12,0 L3,3 L0,12 L-3,3 L-12,0 L-3,-3 Z" fill="#ffe9c7" opacity="0.79" transform="translate(754.4,1062.5) scale(0.97)"/><path d="M0,-12 L3,-3 L12,0 L3,3 L0,12 L-3,3 L-12,0 L-3,-3 Z" fill="#ffe9c7" opacity="0.87" transform="translate(55.0,273.5) scale(0.88)"/><path d="M0,-12 L3,-3 L12,0 L3,3 L0,12 L-3,3 L-12,0 L-3,-3 Z" fill="#fff6c8" opacity="0.49" transform="translate(1039.8,456.2) scale(1.09)"/><path d="M0,-12 L3,-3 L12,0 L3,3 L0,12 L-3,3 L-12,0 L-3,-3 Z" fill="#ffd54a" opacity="0.76" transform="translate(426.3,804.2) scale(1.41)"/><path d="M0,-12 L3,-3 L12,0 L3,3 L0,12 L-3,3 L-12,0 L-3,-3 Z" fill="#ffe9c7" opacity="0.65" transform="translate(731.0,205.4) scale(1.45)"/><path d="M0,-12 L3,-3 L12,0 L3,3 L0,12 L-3,3 L-12,0 L-3,-3 Z" fill="#ffe9c7" opacity="0.78" transform="translate(323.9,1110.5) scale(1.39)"/></g><radialGradient id="vig" cx="0.5" cy="0.42" r="0.75"><stop offset="0.55" stop-color="#000000" stop-opacity="0"/><stop offset="1" stop-color="#000000" stop-opacity="0.55"/></radialGradient><rect width="1200" height="1500" fill="url(#vig)"/><linearGradient id="btm" x1="0" y1="0" x2="0" y2="1"><stop offset="0.65" stop-color="#000" stop-opacity="0"/><stop offset="1" stop-color="#000" stop-opacity="0.5"/></linearGradient><rect width="1200" height="1500" fill="url(#btm)"/></svg>